%TF.GenerationSoftware,KiCad,Pcbnew,9.0.2-9.0.2-0~ubuntu24.04.1*%
%TF.CreationDate,2025-05-13T17:43:29+02:00*%
%TF.ProjectId,RCFavoritControlBoard,52434661-766f-4726-9974-436f6e74726f,rev?*%
%TF.SameCoordinates,Original*%
%TF.FileFunction,Drillmap*%
%TF.FilePolarity,Positive*%
%FSLAX45Y45*%
G04 Gerber Fmt 4.5, Leading zero omitted, Abs format (unit mm)*
G04 Created by KiCad (PCBNEW 9.0.2-9.0.2-0~ubuntu24.04.1) date 2025-05-13 17:43:29*
%MOMM*%
%LPD*%
G01*
G04 APERTURE LIST*
%ADD10C,0.050000*%
%ADD11C,0.200000*%
%ADD12C,0.100000*%
%ADD13C,0.180000*%
%ADD14C,0.220000*%
G04 APERTURE END LIST*
D10*
X16900000Y-10720000D02*
X12500000Y-10720000D01*
X16920000Y-7600000D02*
G75*
G02*
X17220000Y-7900000I0J-300000D01*
G01*
X12200000Y-7900000D02*
X12200000Y-10400000D01*
X12200000Y-7900000D02*
G75*
G02*
X12500000Y-7600000I300000J0D01*
G01*
X12500000Y-10720000D02*
G75*
G02*
X12200664Y-10400044I0J300000D01*
G01*
X17220000Y-10400000D02*
G75*
G02*
X16900000Y-10720000I-320000J0D01*
G01*
X17220000Y-7900000D02*
X17220000Y-10400000D01*
X12500000Y-7600000D02*
X16920000Y-7600000D01*
D11*
D12*
X15301250Y-9872500D02*
X15321250Y-9892500D01*
X15321250Y-9872500D02*
X15301250Y-9892500D01*
X15301250Y-10022500D02*
X15321250Y-10042500D01*
X15321250Y-10022500D02*
X15301250Y-10042500D01*
X15301250Y-10172500D02*
X15321250Y-10192500D01*
X15321250Y-10172500D02*
X15301250Y-10192500D01*
X15451250Y-9872500D02*
X15471250Y-9892500D01*
X15471250Y-9872500D02*
X15451250Y-9892500D01*
X15451250Y-10022500D02*
X15471250Y-10042500D01*
X15471250Y-10022500D02*
X15451250Y-10042500D01*
X15451250Y-10172500D02*
X15471250Y-10192500D01*
X15471250Y-10172500D02*
X15451250Y-10192500D01*
X12365000Y-8300000D02*
G75*
G02*
X12335000Y-8300000I-15000J0D01*
G01*
X12335000Y-8300000D02*
G75*
G02*
X12365000Y-8300000I15000J0D01*
G01*
X12715000Y-9250000D02*
G75*
G02*
X12685000Y-9250000I-15000J0D01*
G01*
X12685000Y-9250000D02*
G75*
G02*
X12715000Y-9250000I15000J0D01*
G01*
X12915000Y-10100000D02*
G75*
G02*
X12885000Y-10100000I-15000J0D01*
G01*
X12885000Y-10100000D02*
G75*
G02*
X12915000Y-10100000I15000J0D01*
G01*
X13215000Y-9250000D02*
G75*
G02*
X13185000Y-9250000I-15000J0D01*
G01*
X13185000Y-9250000D02*
G75*
G02*
X13215000Y-9250000I15000J0D01*
G01*
X13315000Y-7700000D02*
G75*
G02*
X13285000Y-7700000I-15000J0D01*
G01*
X13285000Y-7700000D02*
G75*
G02*
X13315000Y-7700000I15000J0D01*
G01*
X13715000Y-9250000D02*
G75*
G02*
X13685000Y-9250000I-15000J0D01*
G01*
X13685000Y-9250000D02*
G75*
G02*
X13715000Y-9250000I15000J0D01*
G01*
X13715000Y-9650000D02*
G75*
G02*
X13685000Y-9650000I-15000J0D01*
G01*
X13685000Y-9650000D02*
G75*
G02*
X13715000Y-9650000I15000J0D01*
G01*
X13715000Y-10000000D02*
G75*
G02*
X13685000Y-10000000I-15000J0D01*
G01*
X13685000Y-10000000D02*
G75*
G02*
X13715000Y-10000000I15000J0D01*
G01*
X14215000Y-9250000D02*
G75*
G02*
X14185000Y-9250000I-15000J0D01*
G01*
X14185000Y-9250000D02*
G75*
G02*
X14215000Y-9250000I15000J0D01*
G01*
X14215000Y-9650000D02*
G75*
G02*
X14185000Y-9650000I-15000J0D01*
G01*
X14185000Y-9650000D02*
G75*
G02*
X14215000Y-9650000I15000J0D01*
G01*
X14215000Y-10000000D02*
G75*
G02*
X14185000Y-10000000I-15000J0D01*
G01*
X14185000Y-10000000D02*
G75*
G02*
X14215000Y-10000000I15000J0D01*
G01*
X15065000Y-8000000D02*
G75*
G02*
X15035000Y-8000000I-15000J0D01*
G01*
X15035000Y-8000000D02*
G75*
G02*
X15065000Y-8000000I15000J0D01*
G01*
X15915000Y-10400000D02*
G75*
G02*
X15885000Y-10400000I-15000J0D01*
G01*
X15885000Y-10400000D02*
G75*
G02*
X15915000Y-10400000I15000J0D01*
G01*
X16415000Y-10400000D02*
G75*
G02*
X16385000Y-10400000I-15000J0D01*
G01*
X16385000Y-10400000D02*
G75*
G02*
X16415000Y-10400000I15000J0D01*
G01*
X16515000Y-7850000D02*
G75*
G02*
X16485000Y-7850000I-15000J0D01*
G01*
X16485000Y-7850000D02*
G75*
G02*
X16515000Y-7850000I15000J0D01*
G01*
X12870000Y-8630000D02*
X12870000Y-8670000D01*
X12850000Y-8650000D02*
X12890000Y-8650000D01*
X12980000Y-8630000D02*
X12980000Y-8670000D01*
X12960000Y-8650000D02*
X13000000Y-8650000D01*
X13150000Y-8010000D02*
X13150000Y-8050000D01*
X13130000Y-8030000D02*
X13170000Y-8030000D01*
X13250000Y-8080000D02*
X13250000Y-8120000D01*
X13230000Y-8100000D02*
X13270000Y-8100000D01*
X13340000Y-8080000D02*
X13340000Y-8120000D01*
X13320000Y-8100000D02*
X13360000Y-8100000D01*
X13420000Y-8030000D02*
X13420000Y-8070000D01*
X13400000Y-8050000D02*
X13440000Y-8050000D01*
X13870000Y-8130000D02*
X13870000Y-8170000D01*
X13850000Y-8150000D02*
X13890000Y-8150000D01*
X14140000Y-8180000D02*
X14140000Y-8220000D01*
X14120000Y-8200000D02*
X14160000Y-8200000D01*
X14625000Y-10365000D02*
X14625000Y-10405000D01*
X14605000Y-10385000D02*
X14645000Y-10385000D01*
X14682500Y-9730000D02*
X14682500Y-9770000D01*
X14662500Y-9750000D02*
X14702500Y-9750000D01*
X14720000Y-10365000D02*
X14720000Y-10405000D01*
X14700000Y-10385000D02*
X14740000Y-10385000D01*
X14890000Y-10360000D02*
X14890000Y-10400000D01*
X14870000Y-10380000D02*
X14910000Y-10380000D01*
X15250000Y-9330000D02*
X15250000Y-9370000D01*
X15230000Y-9350000D02*
X15270000Y-9350000D01*
X15310000Y-9080000D02*
X15310000Y-9120000D01*
X15290000Y-9100000D02*
X15330000Y-9100000D01*
X15370000Y-9160000D02*
X15370000Y-9200000D01*
X15350000Y-9180000D02*
X15390000Y-9180000D01*
X15370000Y-10410000D02*
X15370000Y-10450000D01*
X15350000Y-10430000D02*
X15390000Y-10430000D01*
X15450000Y-9230000D02*
X15450000Y-9270000D01*
X15430000Y-9250000D02*
X15470000Y-9250000D01*
X15600000Y-8710000D02*
X15600000Y-8750000D01*
X15580000Y-8730000D02*
X15620000Y-8730000D01*
X15600000Y-9440000D02*
X15600000Y-9480000D01*
X15580000Y-9460000D02*
X15620000Y-9460000D01*
X15705000Y-9230000D02*
X15705000Y-9270000D01*
X15685000Y-9250000D02*
X15725000Y-9250000D01*
X15800000Y-9230000D02*
X15800000Y-9270000D01*
X15780000Y-9250000D02*
X15820000Y-9250000D01*
X15937868Y-8860104D02*
X15937868Y-8900104D01*
X15917868Y-8880104D02*
X15957868Y-8880104D01*
X16240000Y-9230000D02*
X16240000Y-9270000D01*
X16220000Y-9250000D02*
X16260000Y-9250000D01*
X16340000Y-8860000D02*
X16340000Y-8900000D01*
X16320000Y-8880000D02*
X16360000Y-8880000D01*
X16345000Y-9395000D02*
X16345000Y-9435000D01*
X16325000Y-9415000D02*
X16365000Y-9415000D01*
X16345000Y-9485000D02*
X16345000Y-9525000D01*
X16325000Y-9505000D02*
X16365000Y-9505000D01*
X16345000Y-9595000D02*
X16345000Y-9635000D01*
X16325000Y-9615000D02*
X16365000Y-9615000D01*
X16345000Y-9695000D02*
X16345000Y-9735000D01*
X16325000Y-9715000D02*
X16365000Y-9715000D01*
X16405000Y-9265000D02*
X16405000Y-9305000D01*
X16385000Y-9285000D02*
X16425000Y-9285000D01*
X16495000Y-9375000D02*
X16495000Y-9415000D01*
X16475000Y-9395000D02*
X16515000Y-9395000D01*
X16590000Y-9375000D02*
X16590000Y-9415000D01*
X16570000Y-9395000D02*
X16610000Y-9395000D01*
X14191356Y-7885356D02*
X14191356Y-7814644D01*
X14120644Y-7814644D01*
X14120644Y-7885356D01*
X14191356Y-7885356D01*
X14445356Y-7885356D02*
X14445356Y-7814644D01*
X14374644Y-7814644D01*
X14374644Y-7885356D01*
X14445356Y-7885356D01*
X14699356Y-7885356D02*
X14699356Y-7814644D01*
X14628644Y-7814644D01*
X14628644Y-7885356D01*
X14699356Y-7885356D01*
X17015356Y-9648856D02*
X17015356Y-9578144D01*
X16944644Y-9578144D01*
X16944644Y-9648856D01*
X17015356Y-9648856D01*
X17015356Y-9902856D02*
X17015356Y-9832144D01*
X16944644Y-9832144D01*
X16944644Y-9902856D01*
X17015356Y-9902856D01*
D13*
X16880000Y-8230000D02*
X16970000Y-8140000D01*
X16880000Y-8050000D01*
X16790000Y-8140000D01*
X16880000Y-8230000D01*
X16880000Y-8730000D02*
X16970000Y-8640000D01*
X16880000Y-8550000D01*
X16790000Y-8640000D01*
X16880000Y-8730000D01*
D14*
X12390000Y-7790000D02*
X12610000Y-8010000D01*
X12610000Y-7790000D02*
X12390000Y-8010000D01*
X12610000Y-7900000D02*
G75*
G02*
X12390000Y-7900000I-110000J0D01*
G01*
X12390000Y-7900000D02*
G75*
G02*
X12610000Y-7900000I110000J0D01*
G01*
X16790000Y-10290000D02*
X17010000Y-10510000D01*
X17010000Y-10290000D02*
X16790000Y-10510000D01*
X17010000Y-10400000D02*
G75*
G02*
X16790000Y-10400000I-110000J0D01*
G01*
X16790000Y-10400000D02*
G75*
G02*
X17010000Y-10400000I110000J0D01*
G01*
D11*
X12458277Y-11033984D02*
X12458277Y-10833984D01*
X12458277Y-10833984D02*
X12505896Y-10833984D01*
X12505896Y-10833984D02*
X12534467Y-10843508D01*
X12534467Y-10843508D02*
X12553515Y-10862555D01*
X12553515Y-10862555D02*
X12563039Y-10881603D01*
X12563039Y-10881603D02*
X12572562Y-10919698D01*
X12572562Y-10919698D02*
X12572562Y-10948270D01*
X12572562Y-10948270D02*
X12563039Y-10986365D01*
X12563039Y-10986365D02*
X12553515Y-11005412D01*
X12553515Y-11005412D02*
X12534467Y-11024460D01*
X12534467Y-11024460D02*
X12505896Y-11033984D01*
X12505896Y-11033984D02*
X12458277Y-11033984D01*
X12658277Y-11033984D02*
X12658277Y-10900650D01*
X12658277Y-10938746D02*
X12667801Y-10919698D01*
X12667801Y-10919698D02*
X12677324Y-10910174D01*
X12677324Y-10910174D02*
X12696372Y-10900650D01*
X12696372Y-10900650D02*
X12715420Y-10900650D01*
X12782086Y-11033984D02*
X12782086Y-10900650D01*
X12782086Y-10833984D02*
X12772562Y-10843508D01*
X12772562Y-10843508D02*
X12782086Y-10853031D01*
X12782086Y-10853031D02*
X12791610Y-10843508D01*
X12791610Y-10843508D02*
X12782086Y-10833984D01*
X12782086Y-10833984D02*
X12782086Y-10853031D01*
X12905896Y-11033984D02*
X12886848Y-11024460D01*
X12886848Y-11024460D02*
X12877324Y-11005412D01*
X12877324Y-11005412D02*
X12877324Y-10833984D01*
X13010658Y-11033984D02*
X12991610Y-11024460D01*
X12991610Y-11024460D02*
X12982086Y-11005412D01*
X12982086Y-11005412D02*
X12982086Y-10833984D01*
X13239229Y-11033984D02*
X13239229Y-10833984D01*
X13239229Y-10833984D02*
X13305896Y-10976841D01*
X13305896Y-10976841D02*
X13372562Y-10833984D01*
X13372562Y-10833984D02*
X13372562Y-11033984D01*
X13553515Y-11033984D02*
X13553515Y-10929222D01*
X13553515Y-10929222D02*
X13543991Y-10910174D01*
X13543991Y-10910174D02*
X13524943Y-10900650D01*
X13524943Y-10900650D02*
X13486848Y-10900650D01*
X13486848Y-10900650D02*
X13467801Y-10910174D01*
X13553515Y-11024460D02*
X13534467Y-11033984D01*
X13534467Y-11033984D02*
X13486848Y-11033984D01*
X13486848Y-11033984D02*
X13467801Y-11024460D01*
X13467801Y-11024460D02*
X13458277Y-11005412D01*
X13458277Y-11005412D02*
X13458277Y-10986365D01*
X13458277Y-10986365D02*
X13467801Y-10967317D01*
X13467801Y-10967317D02*
X13486848Y-10957793D01*
X13486848Y-10957793D02*
X13534467Y-10957793D01*
X13534467Y-10957793D02*
X13553515Y-10948270D01*
X13648753Y-10900650D02*
X13648753Y-11100650D01*
X13648753Y-10910174D02*
X13667801Y-10900650D01*
X13667801Y-10900650D02*
X13705896Y-10900650D01*
X13705896Y-10900650D02*
X13724943Y-10910174D01*
X13724943Y-10910174D02*
X13734467Y-10919698D01*
X13734467Y-10919698D02*
X13743991Y-10938746D01*
X13743991Y-10938746D02*
X13743991Y-10995889D01*
X13743991Y-10995889D02*
X13734467Y-11014936D01*
X13734467Y-11014936D02*
X13724943Y-11024460D01*
X13724943Y-11024460D02*
X13705896Y-11033984D01*
X13705896Y-11033984D02*
X13667801Y-11033984D01*
X13667801Y-11033984D02*
X13648753Y-11024460D01*
X13829705Y-11014936D02*
X13839229Y-11024460D01*
X13839229Y-11024460D02*
X13829705Y-11033984D01*
X13829705Y-11033984D02*
X13820182Y-11024460D01*
X13820182Y-11024460D02*
X13829705Y-11014936D01*
X13829705Y-11014936D02*
X13829705Y-11033984D01*
X13829705Y-10910174D02*
X13839229Y-10919698D01*
X13839229Y-10919698D02*
X13829705Y-10929222D01*
X13829705Y-10929222D02*
X13820182Y-10919698D01*
X13820182Y-10919698D02*
X13829705Y-10910174D01*
X13829705Y-10910174D02*
X13829705Y-10929222D01*
D12*
X12177500Y-11352500D02*
X12197500Y-11372500D01*
X12197500Y-11352500D02*
X12177500Y-11372500D01*
D11*
X12496372Y-11253984D02*
X12515420Y-11253984D01*
X12515420Y-11253984D02*
X12534467Y-11263508D01*
X12534467Y-11263508D02*
X12543991Y-11273031D01*
X12543991Y-11273031D02*
X12553515Y-11292079D01*
X12553515Y-11292079D02*
X12563039Y-11330174D01*
X12563039Y-11330174D02*
X12563039Y-11377793D01*
X12563039Y-11377793D02*
X12553515Y-11415888D01*
X12553515Y-11415888D02*
X12543991Y-11434936D01*
X12543991Y-11434936D02*
X12534467Y-11444460D01*
X12534467Y-11444460D02*
X12515420Y-11453984D01*
X12515420Y-11453984D02*
X12496372Y-11453984D01*
X12496372Y-11453984D02*
X12477324Y-11444460D01*
X12477324Y-11444460D02*
X12467801Y-11434936D01*
X12467801Y-11434936D02*
X12458277Y-11415888D01*
X12458277Y-11415888D02*
X12448753Y-11377793D01*
X12448753Y-11377793D02*
X12448753Y-11330174D01*
X12448753Y-11330174D02*
X12458277Y-11292079D01*
X12458277Y-11292079D02*
X12467801Y-11273031D01*
X12467801Y-11273031D02*
X12477324Y-11263508D01*
X12477324Y-11263508D02*
X12496372Y-11253984D01*
X12648753Y-11434936D02*
X12658277Y-11444460D01*
X12658277Y-11444460D02*
X12648753Y-11453984D01*
X12648753Y-11453984D02*
X12639229Y-11444460D01*
X12639229Y-11444460D02*
X12648753Y-11434936D01*
X12648753Y-11434936D02*
X12648753Y-11453984D01*
X12734467Y-11273031D02*
X12743991Y-11263508D01*
X12743991Y-11263508D02*
X12763039Y-11253984D01*
X12763039Y-11253984D02*
X12810658Y-11253984D01*
X12810658Y-11253984D02*
X12829705Y-11263508D01*
X12829705Y-11263508D02*
X12839229Y-11273031D01*
X12839229Y-11273031D02*
X12848753Y-11292079D01*
X12848753Y-11292079D02*
X12848753Y-11311127D01*
X12848753Y-11311127D02*
X12839229Y-11339698D01*
X12839229Y-11339698D02*
X12724943Y-11453984D01*
X12724943Y-11453984D02*
X12848753Y-11453984D01*
X12972562Y-11253984D02*
X12991610Y-11253984D01*
X12991610Y-11253984D02*
X13010658Y-11263508D01*
X13010658Y-11263508D02*
X13020182Y-11273031D01*
X13020182Y-11273031D02*
X13029705Y-11292079D01*
X13029705Y-11292079D02*
X13039229Y-11330174D01*
X13039229Y-11330174D02*
X13039229Y-11377793D01*
X13039229Y-11377793D02*
X13029705Y-11415888D01*
X13029705Y-11415888D02*
X13020182Y-11434936D01*
X13020182Y-11434936D02*
X13010658Y-11444460D01*
X13010658Y-11444460D02*
X12991610Y-11453984D01*
X12991610Y-11453984D02*
X12972562Y-11453984D01*
X12972562Y-11453984D02*
X12953515Y-11444460D01*
X12953515Y-11444460D02*
X12943991Y-11434936D01*
X12943991Y-11434936D02*
X12934467Y-11415888D01*
X12934467Y-11415888D02*
X12924943Y-11377793D01*
X12924943Y-11377793D02*
X12924943Y-11330174D01*
X12924943Y-11330174D02*
X12934467Y-11292079D01*
X12934467Y-11292079D02*
X12943991Y-11273031D01*
X12943991Y-11273031D02*
X12953515Y-11263508D01*
X12953515Y-11263508D02*
X12972562Y-11253984D01*
X13163039Y-11253984D02*
X13182086Y-11253984D01*
X13182086Y-11253984D02*
X13201134Y-11263508D01*
X13201134Y-11263508D02*
X13210658Y-11273031D01*
X13210658Y-11273031D02*
X13220182Y-11292079D01*
X13220182Y-11292079D02*
X13229705Y-11330174D01*
X13229705Y-11330174D02*
X13229705Y-11377793D01*
X13229705Y-11377793D02*
X13220182Y-11415888D01*
X13220182Y-11415888D02*
X13210658Y-11434936D01*
X13210658Y-11434936D02*
X13201134Y-11444460D01*
X13201134Y-11444460D02*
X13182086Y-11453984D01*
X13182086Y-11453984D02*
X13163039Y-11453984D01*
X13163039Y-11453984D02*
X13143991Y-11444460D01*
X13143991Y-11444460D02*
X13134467Y-11434936D01*
X13134467Y-11434936D02*
X13124943Y-11415888D01*
X13124943Y-11415888D02*
X13115420Y-11377793D01*
X13115420Y-11377793D02*
X13115420Y-11330174D01*
X13115420Y-11330174D02*
X13124943Y-11292079D01*
X13124943Y-11292079D02*
X13134467Y-11273031D01*
X13134467Y-11273031D02*
X13143991Y-11263508D01*
X13143991Y-11263508D02*
X13163039Y-11253984D01*
X13315420Y-11453984D02*
X13315420Y-11320650D01*
X13315420Y-11339698D02*
X13324943Y-11330174D01*
X13324943Y-11330174D02*
X13343991Y-11320650D01*
X13343991Y-11320650D02*
X13372563Y-11320650D01*
X13372563Y-11320650D02*
X13391610Y-11330174D01*
X13391610Y-11330174D02*
X13401134Y-11349222D01*
X13401134Y-11349222D02*
X13401134Y-11453984D01*
X13401134Y-11349222D02*
X13410658Y-11330174D01*
X13410658Y-11330174D02*
X13429705Y-11320650D01*
X13429705Y-11320650D02*
X13458277Y-11320650D01*
X13458277Y-11320650D02*
X13477324Y-11330174D01*
X13477324Y-11330174D02*
X13486848Y-11349222D01*
X13486848Y-11349222D02*
X13486848Y-11453984D01*
X13582086Y-11453984D02*
X13582086Y-11320650D01*
X13582086Y-11339698D02*
X13591610Y-11330174D01*
X13591610Y-11330174D02*
X13610658Y-11320650D01*
X13610658Y-11320650D02*
X13639229Y-11320650D01*
X13639229Y-11320650D02*
X13658277Y-11330174D01*
X13658277Y-11330174D02*
X13667801Y-11349222D01*
X13667801Y-11349222D02*
X13667801Y-11453984D01*
X13667801Y-11349222D02*
X13677324Y-11330174D01*
X13677324Y-11330174D02*
X13696372Y-11320650D01*
X13696372Y-11320650D02*
X13724943Y-11320650D01*
X13724943Y-11320650D02*
X13743991Y-11330174D01*
X13743991Y-11330174D02*
X13753515Y-11349222D01*
X13753515Y-11349222D02*
X13753515Y-11453984D01*
X14143991Y-11244460D02*
X13972563Y-11501603D01*
X14401134Y-11253984D02*
X14420182Y-11253984D01*
X14420182Y-11253984D02*
X14439229Y-11263508D01*
X14439229Y-11263508D02*
X14448753Y-11273031D01*
X14448753Y-11273031D02*
X14458277Y-11292079D01*
X14458277Y-11292079D02*
X14467801Y-11330174D01*
X14467801Y-11330174D02*
X14467801Y-11377793D01*
X14467801Y-11377793D02*
X14458277Y-11415888D01*
X14458277Y-11415888D02*
X14448753Y-11434936D01*
X14448753Y-11434936D02*
X14439229Y-11444460D01*
X14439229Y-11444460D02*
X14420182Y-11453984D01*
X14420182Y-11453984D02*
X14401134Y-11453984D01*
X14401134Y-11453984D02*
X14382086Y-11444460D01*
X14382086Y-11444460D02*
X14372563Y-11434936D01*
X14372563Y-11434936D02*
X14363039Y-11415888D01*
X14363039Y-11415888D02*
X14353515Y-11377793D01*
X14353515Y-11377793D02*
X14353515Y-11330174D01*
X14353515Y-11330174D02*
X14363039Y-11292079D01*
X14363039Y-11292079D02*
X14372563Y-11273031D01*
X14372563Y-11273031D02*
X14382086Y-11263508D01*
X14382086Y-11263508D02*
X14401134Y-11253984D01*
X14553515Y-11434936D02*
X14563039Y-11444460D01*
X14563039Y-11444460D02*
X14553515Y-11453984D01*
X14553515Y-11453984D02*
X14543991Y-11444460D01*
X14543991Y-11444460D02*
X14553515Y-11434936D01*
X14553515Y-11434936D02*
X14553515Y-11453984D01*
X14686848Y-11253984D02*
X14705896Y-11253984D01*
X14705896Y-11253984D02*
X14724944Y-11263508D01*
X14724944Y-11263508D02*
X14734467Y-11273031D01*
X14734467Y-11273031D02*
X14743991Y-11292079D01*
X14743991Y-11292079D02*
X14753515Y-11330174D01*
X14753515Y-11330174D02*
X14753515Y-11377793D01*
X14753515Y-11377793D02*
X14743991Y-11415888D01*
X14743991Y-11415888D02*
X14734467Y-11434936D01*
X14734467Y-11434936D02*
X14724944Y-11444460D01*
X14724944Y-11444460D02*
X14705896Y-11453984D01*
X14705896Y-11453984D02*
X14686848Y-11453984D01*
X14686848Y-11453984D02*
X14667801Y-11444460D01*
X14667801Y-11444460D02*
X14658277Y-11434936D01*
X14658277Y-11434936D02*
X14648753Y-11415888D01*
X14648753Y-11415888D02*
X14639229Y-11377793D01*
X14639229Y-11377793D02*
X14639229Y-11330174D01*
X14639229Y-11330174D02*
X14648753Y-11292079D01*
X14648753Y-11292079D02*
X14658277Y-11273031D01*
X14658277Y-11273031D02*
X14667801Y-11263508D01*
X14667801Y-11263508D02*
X14686848Y-11253984D01*
X14877325Y-11253984D02*
X14896372Y-11253984D01*
X14896372Y-11253984D02*
X14915420Y-11263508D01*
X14915420Y-11263508D02*
X14924944Y-11273031D01*
X14924944Y-11273031D02*
X14934467Y-11292079D01*
X14934467Y-11292079D02*
X14943991Y-11330174D01*
X14943991Y-11330174D02*
X14943991Y-11377793D01*
X14943991Y-11377793D02*
X14934467Y-11415888D01*
X14934467Y-11415888D02*
X14924944Y-11434936D01*
X14924944Y-11434936D02*
X14915420Y-11444460D01*
X14915420Y-11444460D02*
X14896372Y-11453984D01*
X14896372Y-11453984D02*
X14877325Y-11453984D01*
X14877325Y-11453984D02*
X14858277Y-11444460D01*
X14858277Y-11444460D02*
X14848753Y-11434936D01*
X14848753Y-11434936D02*
X14839229Y-11415888D01*
X14839229Y-11415888D02*
X14829706Y-11377793D01*
X14829706Y-11377793D02*
X14829706Y-11330174D01*
X14829706Y-11330174D02*
X14839229Y-11292079D01*
X14839229Y-11292079D02*
X14848753Y-11273031D01*
X14848753Y-11273031D02*
X14858277Y-11263508D01*
X14858277Y-11263508D02*
X14877325Y-11253984D01*
X15010658Y-11253984D02*
X15143991Y-11253984D01*
X15143991Y-11253984D02*
X15058277Y-11453984D01*
X15229706Y-11453984D02*
X15267801Y-11453984D01*
X15267801Y-11453984D02*
X15286848Y-11444460D01*
X15286848Y-11444460D02*
X15296372Y-11434936D01*
X15296372Y-11434936D02*
X15315420Y-11406365D01*
X15315420Y-11406365D02*
X15324944Y-11368269D01*
X15324944Y-11368269D02*
X15324944Y-11292079D01*
X15324944Y-11292079D02*
X15315420Y-11273031D01*
X15315420Y-11273031D02*
X15305896Y-11263508D01*
X15305896Y-11263508D02*
X15286848Y-11253984D01*
X15286848Y-11253984D02*
X15248753Y-11253984D01*
X15248753Y-11253984D02*
X15229706Y-11263508D01*
X15229706Y-11263508D02*
X15220182Y-11273031D01*
X15220182Y-11273031D02*
X15210658Y-11292079D01*
X15210658Y-11292079D02*
X15210658Y-11339698D01*
X15210658Y-11339698D02*
X15220182Y-11358746D01*
X15220182Y-11358746D02*
X15229706Y-11368269D01*
X15229706Y-11368269D02*
X15248753Y-11377793D01*
X15248753Y-11377793D02*
X15286848Y-11377793D01*
X15286848Y-11377793D02*
X15305896Y-11368269D01*
X15305896Y-11368269D02*
X15315420Y-11358746D01*
X15315420Y-11358746D02*
X15324944Y-11339698D01*
X15401134Y-11253984D02*
X15401134Y-11292079D01*
X15477325Y-11253984D02*
X15477325Y-11292079D01*
X15772563Y-11530174D02*
X15763039Y-11520650D01*
X15763039Y-11520650D02*
X15743991Y-11492079D01*
X15743991Y-11492079D02*
X15734468Y-11473031D01*
X15734468Y-11473031D02*
X15724944Y-11444460D01*
X15724944Y-11444460D02*
X15715420Y-11396841D01*
X15715420Y-11396841D02*
X15715420Y-11358746D01*
X15715420Y-11358746D02*
X15724944Y-11311127D01*
X15724944Y-11311127D02*
X15734468Y-11282555D01*
X15734468Y-11282555D02*
X15743991Y-11263508D01*
X15743991Y-11263508D02*
X15763039Y-11234936D01*
X15763039Y-11234936D02*
X15772563Y-11225412D01*
X15934468Y-11253984D02*
X15896372Y-11253984D01*
X15896372Y-11253984D02*
X15877325Y-11263508D01*
X15877325Y-11263508D02*
X15867801Y-11273031D01*
X15867801Y-11273031D02*
X15848753Y-11301603D01*
X15848753Y-11301603D02*
X15839229Y-11339698D01*
X15839229Y-11339698D02*
X15839229Y-11415888D01*
X15839229Y-11415888D02*
X15848753Y-11434936D01*
X15848753Y-11434936D02*
X15858277Y-11444460D01*
X15858277Y-11444460D02*
X15877325Y-11453984D01*
X15877325Y-11453984D02*
X15915420Y-11453984D01*
X15915420Y-11453984D02*
X15934468Y-11444460D01*
X15934468Y-11444460D02*
X15943991Y-11434936D01*
X15943991Y-11434936D02*
X15953515Y-11415888D01*
X15953515Y-11415888D02*
X15953515Y-11368269D01*
X15953515Y-11368269D02*
X15943991Y-11349222D01*
X15943991Y-11349222D02*
X15934468Y-11339698D01*
X15934468Y-11339698D02*
X15915420Y-11330174D01*
X15915420Y-11330174D02*
X15877325Y-11330174D01*
X15877325Y-11330174D02*
X15858277Y-11339698D01*
X15858277Y-11339698D02*
X15848753Y-11349222D01*
X15848753Y-11349222D02*
X15839229Y-11368269D01*
X16191610Y-11453984D02*
X16191610Y-11253984D01*
X16277325Y-11453984D02*
X16277325Y-11349222D01*
X16277325Y-11349222D02*
X16267801Y-11330174D01*
X16267801Y-11330174D02*
X16248753Y-11320650D01*
X16248753Y-11320650D02*
X16220182Y-11320650D01*
X16220182Y-11320650D02*
X16201134Y-11330174D01*
X16201134Y-11330174D02*
X16191610Y-11339698D01*
X16401134Y-11453984D02*
X16382087Y-11444460D01*
X16382087Y-11444460D02*
X16372563Y-11434936D01*
X16372563Y-11434936D02*
X16363039Y-11415888D01*
X16363039Y-11415888D02*
X16363039Y-11358746D01*
X16363039Y-11358746D02*
X16372563Y-11339698D01*
X16372563Y-11339698D02*
X16382087Y-11330174D01*
X16382087Y-11330174D02*
X16401134Y-11320650D01*
X16401134Y-11320650D02*
X16429706Y-11320650D01*
X16429706Y-11320650D02*
X16448753Y-11330174D01*
X16448753Y-11330174D02*
X16458277Y-11339698D01*
X16458277Y-11339698D02*
X16467801Y-11358746D01*
X16467801Y-11358746D02*
X16467801Y-11415888D01*
X16467801Y-11415888D02*
X16458277Y-11434936D01*
X16458277Y-11434936D02*
X16448753Y-11444460D01*
X16448753Y-11444460D02*
X16429706Y-11453984D01*
X16429706Y-11453984D02*
X16401134Y-11453984D01*
X16582087Y-11453984D02*
X16563039Y-11444460D01*
X16563039Y-11444460D02*
X16553515Y-11425412D01*
X16553515Y-11425412D02*
X16553515Y-11253984D01*
X16734468Y-11444460D02*
X16715420Y-11453984D01*
X16715420Y-11453984D02*
X16677325Y-11453984D01*
X16677325Y-11453984D02*
X16658277Y-11444460D01*
X16658277Y-11444460D02*
X16648753Y-11425412D01*
X16648753Y-11425412D02*
X16648753Y-11349222D01*
X16648753Y-11349222D02*
X16658277Y-11330174D01*
X16658277Y-11330174D02*
X16677325Y-11320650D01*
X16677325Y-11320650D02*
X16715420Y-11320650D01*
X16715420Y-11320650D02*
X16734468Y-11330174D01*
X16734468Y-11330174D02*
X16743991Y-11349222D01*
X16743991Y-11349222D02*
X16743991Y-11368269D01*
X16743991Y-11368269D02*
X16648753Y-11387317D01*
X16820182Y-11444460D02*
X16839230Y-11453984D01*
X16839230Y-11453984D02*
X16877325Y-11453984D01*
X16877325Y-11453984D02*
X16896373Y-11444460D01*
X16896373Y-11444460D02*
X16905896Y-11425412D01*
X16905896Y-11425412D02*
X16905896Y-11415888D01*
X16905896Y-11415888D02*
X16896373Y-11396841D01*
X16896373Y-11396841D02*
X16877325Y-11387317D01*
X16877325Y-11387317D02*
X16848753Y-11387317D01*
X16848753Y-11387317D02*
X16829706Y-11377793D01*
X16829706Y-11377793D02*
X16820182Y-11358746D01*
X16820182Y-11358746D02*
X16820182Y-11349222D01*
X16820182Y-11349222D02*
X16829706Y-11330174D01*
X16829706Y-11330174D02*
X16848753Y-11320650D01*
X16848753Y-11320650D02*
X16877325Y-11320650D01*
X16877325Y-11320650D02*
X16896373Y-11330174D01*
X16972563Y-11530174D02*
X16982087Y-11520650D01*
X16982087Y-11520650D02*
X17001134Y-11492079D01*
X17001134Y-11492079D02*
X17010658Y-11473031D01*
X17010658Y-11473031D02*
X17020182Y-11444460D01*
X17020182Y-11444460D02*
X17029706Y-11396841D01*
X17029706Y-11396841D02*
X17029706Y-11358746D01*
X17029706Y-11358746D02*
X17020182Y-11311127D01*
X17020182Y-11311127D02*
X17010658Y-11282555D01*
X17010658Y-11282555D02*
X17001134Y-11263508D01*
X17001134Y-11263508D02*
X16982087Y-11234936D01*
X16982087Y-11234936D02*
X16972563Y-11225412D01*
D12*
X12197500Y-11626500D02*
G75*
G02*
X12167500Y-11626500I-15000J0D01*
G01*
X12167500Y-11626500D02*
G75*
G02*
X12197500Y-11626500I15000J0D01*
G01*
D11*
X12496372Y-11517984D02*
X12515420Y-11517984D01*
X12515420Y-11517984D02*
X12534467Y-11527508D01*
X12534467Y-11527508D02*
X12543991Y-11537031D01*
X12543991Y-11537031D02*
X12553515Y-11556079D01*
X12553515Y-11556079D02*
X12563039Y-11594174D01*
X12563039Y-11594174D02*
X12563039Y-11641793D01*
X12563039Y-11641793D02*
X12553515Y-11679888D01*
X12553515Y-11679888D02*
X12543991Y-11698936D01*
X12543991Y-11698936D02*
X12534467Y-11708460D01*
X12534467Y-11708460D02*
X12515420Y-11717984D01*
X12515420Y-11717984D02*
X12496372Y-11717984D01*
X12496372Y-11717984D02*
X12477324Y-11708460D01*
X12477324Y-11708460D02*
X12467801Y-11698936D01*
X12467801Y-11698936D02*
X12458277Y-11679888D01*
X12458277Y-11679888D02*
X12448753Y-11641793D01*
X12448753Y-11641793D02*
X12448753Y-11594174D01*
X12448753Y-11594174D02*
X12458277Y-11556079D01*
X12458277Y-11556079D02*
X12467801Y-11537031D01*
X12467801Y-11537031D02*
X12477324Y-11527508D01*
X12477324Y-11527508D02*
X12496372Y-11517984D01*
X12648753Y-11698936D02*
X12658277Y-11708460D01*
X12658277Y-11708460D02*
X12648753Y-11717984D01*
X12648753Y-11717984D02*
X12639229Y-11708460D01*
X12639229Y-11708460D02*
X12648753Y-11698936D01*
X12648753Y-11698936D02*
X12648753Y-11717984D01*
X12724943Y-11517984D02*
X12848753Y-11517984D01*
X12848753Y-11517984D02*
X12782086Y-11594174D01*
X12782086Y-11594174D02*
X12810658Y-11594174D01*
X12810658Y-11594174D02*
X12829705Y-11603698D01*
X12829705Y-11603698D02*
X12839229Y-11613222D01*
X12839229Y-11613222D02*
X12848753Y-11632269D01*
X12848753Y-11632269D02*
X12848753Y-11679888D01*
X12848753Y-11679888D02*
X12839229Y-11698936D01*
X12839229Y-11698936D02*
X12829705Y-11708460D01*
X12829705Y-11708460D02*
X12810658Y-11717984D01*
X12810658Y-11717984D02*
X12753515Y-11717984D01*
X12753515Y-11717984D02*
X12734467Y-11708460D01*
X12734467Y-11708460D02*
X12724943Y-11698936D01*
X12972562Y-11517984D02*
X12991610Y-11517984D01*
X12991610Y-11517984D02*
X13010658Y-11527508D01*
X13010658Y-11527508D02*
X13020182Y-11537031D01*
X13020182Y-11537031D02*
X13029705Y-11556079D01*
X13029705Y-11556079D02*
X13039229Y-11594174D01*
X13039229Y-11594174D02*
X13039229Y-11641793D01*
X13039229Y-11641793D02*
X13029705Y-11679888D01*
X13029705Y-11679888D02*
X13020182Y-11698936D01*
X13020182Y-11698936D02*
X13010658Y-11708460D01*
X13010658Y-11708460D02*
X12991610Y-11717984D01*
X12991610Y-11717984D02*
X12972562Y-11717984D01*
X12972562Y-11717984D02*
X12953515Y-11708460D01*
X12953515Y-11708460D02*
X12943991Y-11698936D01*
X12943991Y-11698936D02*
X12934467Y-11679888D01*
X12934467Y-11679888D02*
X12924943Y-11641793D01*
X12924943Y-11641793D02*
X12924943Y-11594174D01*
X12924943Y-11594174D02*
X12934467Y-11556079D01*
X12934467Y-11556079D02*
X12943991Y-11537031D01*
X12943991Y-11537031D02*
X12953515Y-11527508D01*
X12953515Y-11527508D02*
X12972562Y-11517984D01*
X13163039Y-11517984D02*
X13182086Y-11517984D01*
X13182086Y-11517984D02*
X13201134Y-11527508D01*
X13201134Y-11527508D02*
X13210658Y-11537031D01*
X13210658Y-11537031D02*
X13220182Y-11556079D01*
X13220182Y-11556079D02*
X13229705Y-11594174D01*
X13229705Y-11594174D02*
X13229705Y-11641793D01*
X13229705Y-11641793D02*
X13220182Y-11679888D01*
X13220182Y-11679888D02*
X13210658Y-11698936D01*
X13210658Y-11698936D02*
X13201134Y-11708460D01*
X13201134Y-11708460D02*
X13182086Y-11717984D01*
X13182086Y-11717984D02*
X13163039Y-11717984D01*
X13163039Y-11717984D02*
X13143991Y-11708460D01*
X13143991Y-11708460D02*
X13134467Y-11698936D01*
X13134467Y-11698936D02*
X13124943Y-11679888D01*
X13124943Y-11679888D02*
X13115420Y-11641793D01*
X13115420Y-11641793D02*
X13115420Y-11594174D01*
X13115420Y-11594174D02*
X13124943Y-11556079D01*
X13124943Y-11556079D02*
X13134467Y-11537031D01*
X13134467Y-11537031D02*
X13143991Y-11527508D01*
X13143991Y-11527508D02*
X13163039Y-11517984D01*
X13315420Y-11717984D02*
X13315420Y-11584650D01*
X13315420Y-11603698D02*
X13324943Y-11594174D01*
X13324943Y-11594174D02*
X13343991Y-11584650D01*
X13343991Y-11584650D02*
X13372563Y-11584650D01*
X13372563Y-11584650D02*
X13391610Y-11594174D01*
X13391610Y-11594174D02*
X13401134Y-11613222D01*
X13401134Y-11613222D02*
X13401134Y-11717984D01*
X13401134Y-11613222D02*
X13410658Y-11594174D01*
X13410658Y-11594174D02*
X13429705Y-11584650D01*
X13429705Y-11584650D02*
X13458277Y-11584650D01*
X13458277Y-11584650D02*
X13477324Y-11594174D01*
X13477324Y-11594174D02*
X13486848Y-11613222D01*
X13486848Y-11613222D02*
X13486848Y-11717984D01*
X13582086Y-11717984D02*
X13582086Y-11584650D01*
X13582086Y-11603698D02*
X13591610Y-11594174D01*
X13591610Y-11594174D02*
X13610658Y-11584650D01*
X13610658Y-11584650D02*
X13639229Y-11584650D01*
X13639229Y-11584650D02*
X13658277Y-11594174D01*
X13658277Y-11594174D02*
X13667801Y-11613222D01*
X13667801Y-11613222D02*
X13667801Y-11717984D01*
X13667801Y-11613222D02*
X13677324Y-11594174D01*
X13677324Y-11594174D02*
X13696372Y-11584650D01*
X13696372Y-11584650D02*
X13724943Y-11584650D01*
X13724943Y-11584650D02*
X13743991Y-11594174D01*
X13743991Y-11594174D02*
X13753515Y-11613222D01*
X13753515Y-11613222D02*
X13753515Y-11717984D01*
X14143991Y-11508460D02*
X13972563Y-11765603D01*
X14401134Y-11517984D02*
X14420182Y-11517984D01*
X14420182Y-11517984D02*
X14439229Y-11527508D01*
X14439229Y-11527508D02*
X14448753Y-11537031D01*
X14448753Y-11537031D02*
X14458277Y-11556079D01*
X14458277Y-11556079D02*
X14467801Y-11594174D01*
X14467801Y-11594174D02*
X14467801Y-11641793D01*
X14467801Y-11641793D02*
X14458277Y-11679888D01*
X14458277Y-11679888D02*
X14448753Y-11698936D01*
X14448753Y-11698936D02*
X14439229Y-11708460D01*
X14439229Y-11708460D02*
X14420182Y-11717984D01*
X14420182Y-11717984D02*
X14401134Y-11717984D01*
X14401134Y-11717984D02*
X14382086Y-11708460D01*
X14382086Y-11708460D02*
X14372563Y-11698936D01*
X14372563Y-11698936D02*
X14363039Y-11679888D01*
X14363039Y-11679888D02*
X14353515Y-11641793D01*
X14353515Y-11641793D02*
X14353515Y-11594174D01*
X14353515Y-11594174D02*
X14363039Y-11556079D01*
X14363039Y-11556079D02*
X14372563Y-11537031D01*
X14372563Y-11537031D02*
X14382086Y-11527508D01*
X14382086Y-11527508D02*
X14401134Y-11517984D01*
X14553515Y-11698936D02*
X14563039Y-11708460D01*
X14563039Y-11708460D02*
X14553515Y-11717984D01*
X14553515Y-11717984D02*
X14543991Y-11708460D01*
X14543991Y-11708460D02*
X14553515Y-11698936D01*
X14553515Y-11698936D02*
X14553515Y-11717984D01*
X14686848Y-11517984D02*
X14705896Y-11517984D01*
X14705896Y-11517984D02*
X14724944Y-11527508D01*
X14724944Y-11527508D02*
X14734467Y-11537031D01*
X14734467Y-11537031D02*
X14743991Y-11556079D01*
X14743991Y-11556079D02*
X14753515Y-11594174D01*
X14753515Y-11594174D02*
X14753515Y-11641793D01*
X14753515Y-11641793D02*
X14743991Y-11679888D01*
X14743991Y-11679888D02*
X14734467Y-11698936D01*
X14734467Y-11698936D02*
X14724944Y-11708460D01*
X14724944Y-11708460D02*
X14705896Y-11717984D01*
X14705896Y-11717984D02*
X14686848Y-11717984D01*
X14686848Y-11717984D02*
X14667801Y-11708460D01*
X14667801Y-11708460D02*
X14658277Y-11698936D01*
X14658277Y-11698936D02*
X14648753Y-11679888D01*
X14648753Y-11679888D02*
X14639229Y-11641793D01*
X14639229Y-11641793D02*
X14639229Y-11594174D01*
X14639229Y-11594174D02*
X14648753Y-11556079D01*
X14648753Y-11556079D02*
X14658277Y-11537031D01*
X14658277Y-11537031D02*
X14667801Y-11527508D01*
X14667801Y-11527508D02*
X14686848Y-11517984D01*
X14943991Y-11717984D02*
X14829706Y-11717984D01*
X14886848Y-11717984D02*
X14886848Y-11517984D01*
X14886848Y-11517984D02*
X14867801Y-11546555D01*
X14867801Y-11546555D02*
X14848753Y-11565603D01*
X14848753Y-11565603D02*
X14829706Y-11575127D01*
X15134467Y-11717984D02*
X15020182Y-11717984D01*
X15077325Y-11717984D02*
X15077325Y-11517984D01*
X15077325Y-11517984D02*
X15058277Y-11546555D01*
X15058277Y-11546555D02*
X15039229Y-11565603D01*
X15039229Y-11565603D02*
X15020182Y-11575127D01*
X15248753Y-11603698D02*
X15229706Y-11594174D01*
X15229706Y-11594174D02*
X15220182Y-11584650D01*
X15220182Y-11584650D02*
X15210658Y-11565603D01*
X15210658Y-11565603D02*
X15210658Y-11556079D01*
X15210658Y-11556079D02*
X15220182Y-11537031D01*
X15220182Y-11537031D02*
X15229706Y-11527508D01*
X15229706Y-11527508D02*
X15248753Y-11517984D01*
X15248753Y-11517984D02*
X15286848Y-11517984D01*
X15286848Y-11517984D02*
X15305896Y-11527508D01*
X15305896Y-11527508D02*
X15315420Y-11537031D01*
X15315420Y-11537031D02*
X15324944Y-11556079D01*
X15324944Y-11556079D02*
X15324944Y-11565603D01*
X15324944Y-11565603D02*
X15315420Y-11584650D01*
X15315420Y-11584650D02*
X15305896Y-11594174D01*
X15305896Y-11594174D02*
X15286848Y-11603698D01*
X15286848Y-11603698D02*
X15248753Y-11603698D01*
X15248753Y-11603698D02*
X15229706Y-11613222D01*
X15229706Y-11613222D02*
X15220182Y-11622746D01*
X15220182Y-11622746D02*
X15210658Y-11641793D01*
X15210658Y-11641793D02*
X15210658Y-11679888D01*
X15210658Y-11679888D02*
X15220182Y-11698936D01*
X15220182Y-11698936D02*
X15229706Y-11708460D01*
X15229706Y-11708460D02*
X15248753Y-11717984D01*
X15248753Y-11717984D02*
X15286848Y-11717984D01*
X15286848Y-11717984D02*
X15305896Y-11708460D01*
X15305896Y-11708460D02*
X15315420Y-11698936D01*
X15315420Y-11698936D02*
X15324944Y-11679888D01*
X15324944Y-11679888D02*
X15324944Y-11641793D01*
X15324944Y-11641793D02*
X15315420Y-11622746D01*
X15315420Y-11622746D02*
X15305896Y-11613222D01*
X15305896Y-11613222D02*
X15286848Y-11603698D01*
X15401134Y-11517984D02*
X15401134Y-11556079D01*
X15477325Y-11517984D02*
X15477325Y-11556079D01*
X15772563Y-11794174D02*
X15763039Y-11784650D01*
X15763039Y-11784650D02*
X15743991Y-11756079D01*
X15743991Y-11756079D02*
X15734468Y-11737031D01*
X15734468Y-11737031D02*
X15724944Y-11708460D01*
X15724944Y-11708460D02*
X15715420Y-11660841D01*
X15715420Y-11660841D02*
X15715420Y-11622746D01*
X15715420Y-11622746D02*
X15724944Y-11575127D01*
X15724944Y-11575127D02*
X15734468Y-11546555D01*
X15734468Y-11546555D02*
X15743991Y-11527508D01*
X15743991Y-11527508D02*
X15763039Y-11498936D01*
X15763039Y-11498936D02*
X15772563Y-11489412D01*
X15953515Y-11717984D02*
X15839229Y-11717984D01*
X15896372Y-11717984D02*
X15896372Y-11517984D01*
X15896372Y-11517984D02*
X15877325Y-11546555D01*
X15877325Y-11546555D02*
X15858277Y-11565603D01*
X15858277Y-11565603D02*
X15839229Y-11575127D01*
X16134468Y-11517984D02*
X16039229Y-11517984D01*
X16039229Y-11517984D02*
X16029706Y-11613222D01*
X16029706Y-11613222D02*
X16039229Y-11603698D01*
X16039229Y-11603698D02*
X16058277Y-11594174D01*
X16058277Y-11594174D02*
X16105896Y-11594174D01*
X16105896Y-11594174D02*
X16124944Y-11603698D01*
X16124944Y-11603698D02*
X16134468Y-11613222D01*
X16134468Y-11613222D02*
X16143991Y-11632269D01*
X16143991Y-11632269D02*
X16143991Y-11679888D01*
X16143991Y-11679888D02*
X16134468Y-11698936D01*
X16134468Y-11698936D02*
X16124944Y-11708460D01*
X16124944Y-11708460D02*
X16105896Y-11717984D01*
X16105896Y-11717984D02*
X16058277Y-11717984D01*
X16058277Y-11717984D02*
X16039229Y-11708460D01*
X16039229Y-11708460D02*
X16029706Y-11698936D01*
X16382087Y-11717984D02*
X16382087Y-11517984D01*
X16467801Y-11717984D02*
X16467801Y-11613222D01*
X16467801Y-11613222D02*
X16458277Y-11594174D01*
X16458277Y-11594174D02*
X16439230Y-11584650D01*
X16439230Y-11584650D02*
X16410658Y-11584650D01*
X16410658Y-11584650D02*
X16391610Y-11594174D01*
X16391610Y-11594174D02*
X16382087Y-11603698D01*
X16591610Y-11717984D02*
X16572563Y-11708460D01*
X16572563Y-11708460D02*
X16563039Y-11698936D01*
X16563039Y-11698936D02*
X16553515Y-11679888D01*
X16553515Y-11679888D02*
X16553515Y-11622746D01*
X16553515Y-11622746D02*
X16563039Y-11603698D01*
X16563039Y-11603698D02*
X16572563Y-11594174D01*
X16572563Y-11594174D02*
X16591610Y-11584650D01*
X16591610Y-11584650D02*
X16620182Y-11584650D01*
X16620182Y-11584650D02*
X16639230Y-11594174D01*
X16639230Y-11594174D02*
X16648753Y-11603698D01*
X16648753Y-11603698D02*
X16658277Y-11622746D01*
X16658277Y-11622746D02*
X16658277Y-11679888D01*
X16658277Y-11679888D02*
X16648753Y-11698936D01*
X16648753Y-11698936D02*
X16639230Y-11708460D01*
X16639230Y-11708460D02*
X16620182Y-11717984D01*
X16620182Y-11717984D02*
X16591610Y-11717984D01*
X16772563Y-11717984D02*
X16753515Y-11708460D01*
X16753515Y-11708460D02*
X16743991Y-11689412D01*
X16743991Y-11689412D02*
X16743991Y-11517984D01*
X16924944Y-11708460D02*
X16905896Y-11717984D01*
X16905896Y-11717984D02*
X16867801Y-11717984D01*
X16867801Y-11717984D02*
X16848753Y-11708460D01*
X16848753Y-11708460D02*
X16839230Y-11689412D01*
X16839230Y-11689412D02*
X16839230Y-11613222D01*
X16839230Y-11613222D02*
X16848753Y-11594174D01*
X16848753Y-11594174D02*
X16867801Y-11584650D01*
X16867801Y-11584650D02*
X16905896Y-11584650D01*
X16905896Y-11584650D02*
X16924944Y-11594174D01*
X16924944Y-11594174D02*
X16934468Y-11613222D01*
X16934468Y-11613222D02*
X16934468Y-11632269D01*
X16934468Y-11632269D02*
X16839230Y-11651317D01*
X17010658Y-11708460D02*
X17029706Y-11717984D01*
X17029706Y-11717984D02*
X17067801Y-11717984D01*
X17067801Y-11717984D02*
X17086849Y-11708460D01*
X17086849Y-11708460D02*
X17096373Y-11689412D01*
X17096373Y-11689412D02*
X17096373Y-11679888D01*
X17096373Y-11679888D02*
X17086849Y-11660841D01*
X17086849Y-11660841D02*
X17067801Y-11651317D01*
X17067801Y-11651317D02*
X17039230Y-11651317D01*
X17039230Y-11651317D02*
X17020182Y-11641793D01*
X17020182Y-11641793D02*
X17010658Y-11622746D01*
X17010658Y-11622746D02*
X17010658Y-11613222D01*
X17010658Y-11613222D02*
X17020182Y-11594174D01*
X17020182Y-11594174D02*
X17039230Y-11584650D01*
X17039230Y-11584650D02*
X17067801Y-11584650D01*
X17067801Y-11584650D02*
X17086849Y-11594174D01*
X17163039Y-11794174D02*
X17172563Y-11784650D01*
X17172563Y-11784650D02*
X17191611Y-11756079D01*
X17191611Y-11756079D02*
X17201134Y-11737031D01*
X17201134Y-11737031D02*
X17210658Y-11708460D01*
X17210658Y-11708460D02*
X17220182Y-11660841D01*
X17220182Y-11660841D02*
X17220182Y-11622746D01*
X17220182Y-11622746D02*
X17210658Y-11575127D01*
X17210658Y-11575127D02*
X17201134Y-11546555D01*
X17201134Y-11546555D02*
X17191611Y-11527508D01*
X17191611Y-11527508D02*
X17172563Y-11498936D01*
X17172563Y-11498936D02*
X17163039Y-11489412D01*
D12*
X12177500Y-11870500D02*
X12177500Y-11910500D01*
X12157500Y-11890500D02*
X12197500Y-11890500D01*
D11*
X12496372Y-11781984D02*
X12515420Y-11781984D01*
X12515420Y-11781984D02*
X12534467Y-11791508D01*
X12534467Y-11791508D02*
X12543991Y-11801031D01*
X12543991Y-11801031D02*
X12553515Y-11820079D01*
X12553515Y-11820079D02*
X12563039Y-11858174D01*
X12563039Y-11858174D02*
X12563039Y-11905793D01*
X12563039Y-11905793D02*
X12553515Y-11943888D01*
X12553515Y-11943888D02*
X12543991Y-11962936D01*
X12543991Y-11962936D02*
X12534467Y-11972460D01*
X12534467Y-11972460D02*
X12515420Y-11981984D01*
X12515420Y-11981984D02*
X12496372Y-11981984D01*
X12496372Y-11981984D02*
X12477324Y-11972460D01*
X12477324Y-11972460D02*
X12467801Y-11962936D01*
X12467801Y-11962936D02*
X12458277Y-11943888D01*
X12458277Y-11943888D02*
X12448753Y-11905793D01*
X12448753Y-11905793D02*
X12448753Y-11858174D01*
X12448753Y-11858174D02*
X12458277Y-11820079D01*
X12458277Y-11820079D02*
X12467801Y-11801031D01*
X12467801Y-11801031D02*
X12477324Y-11791508D01*
X12477324Y-11791508D02*
X12496372Y-11781984D01*
X12648753Y-11962936D02*
X12658277Y-11972460D01*
X12658277Y-11972460D02*
X12648753Y-11981984D01*
X12648753Y-11981984D02*
X12639229Y-11972460D01*
X12639229Y-11972460D02*
X12648753Y-11962936D01*
X12648753Y-11962936D02*
X12648753Y-11981984D01*
X12829705Y-11848650D02*
X12829705Y-11981984D01*
X12782086Y-11772460D02*
X12734467Y-11915317D01*
X12734467Y-11915317D02*
X12858277Y-11915317D01*
X12972562Y-11781984D02*
X12991610Y-11781984D01*
X12991610Y-11781984D02*
X13010658Y-11791508D01*
X13010658Y-11791508D02*
X13020182Y-11801031D01*
X13020182Y-11801031D02*
X13029705Y-11820079D01*
X13029705Y-11820079D02*
X13039229Y-11858174D01*
X13039229Y-11858174D02*
X13039229Y-11905793D01*
X13039229Y-11905793D02*
X13029705Y-11943888D01*
X13029705Y-11943888D02*
X13020182Y-11962936D01*
X13020182Y-11962936D02*
X13010658Y-11972460D01*
X13010658Y-11972460D02*
X12991610Y-11981984D01*
X12991610Y-11981984D02*
X12972562Y-11981984D01*
X12972562Y-11981984D02*
X12953515Y-11972460D01*
X12953515Y-11972460D02*
X12943991Y-11962936D01*
X12943991Y-11962936D02*
X12934467Y-11943888D01*
X12934467Y-11943888D02*
X12924943Y-11905793D01*
X12924943Y-11905793D02*
X12924943Y-11858174D01*
X12924943Y-11858174D02*
X12934467Y-11820079D01*
X12934467Y-11820079D02*
X12943991Y-11801031D01*
X12943991Y-11801031D02*
X12953515Y-11791508D01*
X12953515Y-11791508D02*
X12972562Y-11781984D01*
X13163039Y-11781984D02*
X13182086Y-11781984D01*
X13182086Y-11781984D02*
X13201134Y-11791508D01*
X13201134Y-11791508D02*
X13210658Y-11801031D01*
X13210658Y-11801031D02*
X13220182Y-11820079D01*
X13220182Y-11820079D02*
X13229705Y-11858174D01*
X13229705Y-11858174D02*
X13229705Y-11905793D01*
X13229705Y-11905793D02*
X13220182Y-11943888D01*
X13220182Y-11943888D02*
X13210658Y-11962936D01*
X13210658Y-11962936D02*
X13201134Y-11972460D01*
X13201134Y-11972460D02*
X13182086Y-11981984D01*
X13182086Y-11981984D02*
X13163039Y-11981984D01*
X13163039Y-11981984D02*
X13143991Y-11972460D01*
X13143991Y-11972460D02*
X13134467Y-11962936D01*
X13134467Y-11962936D02*
X13124943Y-11943888D01*
X13124943Y-11943888D02*
X13115420Y-11905793D01*
X13115420Y-11905793D02*
X13115420Y-11858174D01*
X13115420Y-11858174D02*
X13124943Y-11820079D01*
X13124943Y-11820079D02*
X13134467Y-11801031D01*
X13134467Y-11801031D02*
X13143991Y-11791508D01*
X13143991Y-11791508D02*
X13163039Y-11781984D01*
X13315420Y-11981984D02*
X13315420Y-11848650D01*
X13315420Y-11867698D02*
X13324943Y-11858174D01*
X13324943Y-11858174D02*
X13343991Y-11848650D01*
X13343991Y-11848650D02*
X13372563Y-11848650D01*
X13372563Y-11848650D02*
X13391610Y-11858174D01*
X13391610Y-11858174D02*
X13401134Y-11877222D01*
X13401134Y-11877222D02*
X13401134Y-11981984D01*
X13401134Y-11877222D02*
X13410658Y-11858174D01*
X13410658Y-11858174D02*
X13429705Y-11848650D01*
X13429705Y-11848650D02*
X13458277Y-11848650D01*
X13458277Y-11848650D02*
X13477324Y-11858174D01*
X13477324Y-11858174D02*
X13486848Y-11877222D01*
X13486848Y-11877222D02*
X13486848Y-11981984D01*
X13582086Y-11981984D02*
X13582086Y-11848650D01*
X13582086Y-11867698D02*
X13591610Y-11858174D01*
X13591610Y-11858174D02*
X13610658Y-11848650D01*
X13610658Y-11848650D02*
X13639229Y-11848650D01*
X13639229Y-11848650D02*
X13658277Y-11858174D01*
X13658277Y-11858174D02*
X13667801Y-11877222D01*
X13667801Y-11877222D02*
X13667801Y-11981984D01*
X13667801Y-11877222D02*
X13677324Y-11858174D01*
X13677324Y-11858174D02*
X13696372Y-11848650D01*
X13696372Y-11848650D02*
X13724943Y-11848650D01*
X13724943Y-11848650D02*
X13743991Y-11858174D01*
X13743991Y-11858174D02*
X13753515Y-11877222D01*
X13753515Y-11877222D02*
X13753515Y-11981984D01*
X14143991Y-11772460D02*
X13972563Y-12029603D01*
X14401134Y-11781984D02*
X14420182Y-11781984D01*
X14420182Y-11781984D02*
X14439229Y-11791508D01*
X14439229Y-11791508D02*
X14448753Y-11801031D01*
X14448753Y-11801031D02*
X14458277Y-11820079D01*
X14458277Y-11820079D02*
X14467801Y-11858174D01*
X14467801Y-11858174D02*
X14467801Y-11905793D01*
X14467801Y-11905793D02*
X14458277Y-11943888D01*
X14458277Y-11943888D02*
X14448753Y-11962936D01*
X14448753Y-11962936D02*
X14439229Y-11972460D01*
X14439229Y-11972460D02*
X14420182Y-11981984D01*
X14420182Y-11981984D02*
X14401134Y-11981984D01*
X14401134Y-11981984D02*
X14382086Y-11972460D01*
X14382086Y-11972460D02*
X14372563Y-11962936D01*
X14372563Y-11962936D02*
X14363039Y-11943888D01*
X14363039Y-11943888D02*
X14353515Y-11905793D01*
X14353515Y-11905793D02*
X14353515Y-11858174D01*
X14353515Y-11858174D02*
X14363039Y-11820079D01*
X14363039Y-11820079D02*
X14372563Y-11801031D01*
X14372563Y-11801031D02*
X14382086Y-11791508D01*
X14382086Y-11791508D02*
X14401134Y-11781984D01*
X14553515Y-11962936D02*
X14563039Y-11972460D01*
X14563039Y-11972460D02*
X14553515Y-11981984D01*
X14553515Y-11981984D02*
X14543991Y-11972460D01*
X14543991Y-11972460D02*
X14553515Y-11962936D01*
X14553515Y-11962936D02*
X14553515Y-11981984D01*
X14686848Y-11781984D02*
X14705896Y-11781984D01*
X14705896Y-11781984D02*
X14724944Y-11791508D01*
X14724944Y-11791508D02*
X14734467Y-11801031D01*
X14734467Y-11801031D02*
X14743991Y-11820079D01*
X14743991Y-11820079D02*
X14753515Y-11858174D01*
X14753515Y-11858174D02*
X14753515Y-11905793D01*
X14753515Y-11905793D02*
X14743991Y-11943888D01*
X14743991Y-11943888D02*
X14734467Y-11962936D01*
X14734467Y-11962936D02*
X14724944Y-11972460D01*
X14724944Y-11972460D02*
X14705896Y-11981984D01*
X14705896Y-11981984D02*
X14686848Y-11981984D01*
X14686848Y-11981984D02*
X14667801Y-11972460D01*
X14667801Y-11972460D02*
X14658277Y-11962936D01*
X14658277Y-11962936D02*
X14648753Y-11943888D01*
X14648753Y-11943888D02*
X14639229Y-11905793D01*
X14639229Y-11905793D02*
X14639229Y-11858174D01*
X14639229Y-11858174D02*
X14648753Y-11820079D01*
X14648753Y-11820079D02*
X14658277Y-11801031D01*
X14658277Y-11801031D02*
X14667801Y-11791508D01*
X14667801Y-11791508D02*
X14686848Y-11781984D01*
X14943991Y-11981984D02*
X14829706Y-11981984D01*
X14886848Y-11981984D02*
X14886848Y-11781984D01*
X14886848Y-11781984D02*
X14867801Y-11810555D01*
X14867801Y-11810555D02*
X14848753Y-11829603D01*
X14848753Y-11829603D02*
X14829706Y-11839127D01*
X15124944Y-11781984D02*
X15029706Y-11781984D01*
X15029706Y-11781984D02*
X15020182Y-11877222D01*
X15020182Y-11877222D02*
X15029706Y-11867698D01*
X15029706Y-11867698D02*
X15048753Y-11858174D01*
X15048753Y-11858174D02*
X15096372Y-11858174D01*
X15096372Y-11858174D02*
X15115420Y-11867698D01*
X15115420Y-11867698D02*
X15124944Y-11877222D01*
X15124944Y-11877222D02*
X15134467Y-11896269D01*
X15134467Y-11896269D02*
X15134467Y-11943888D01*
X15134467Y-11943888D02*
X15124944Y-11962936D01*
X15124944Y-11962936D02*
X15115420Y-11972460D01*
X15115420Y-11972460D02*
X15096372Y-11981984D01*
X15096372Y-11981984D02*
X15048753Y-11981984D01*
X15048753Y-11981984D02*
X15029706Y-11972460D01*
X15029706Y-11972460D02*
X15020182Y-11962936D01*
X15201134Y-11781984D02*
X15334467Y-11781984D01*
X15334467Y-11781984D02*
X15248753Y-11981984D01*
X15401134Y-11781984D02*
X15401134Y-11820079D01*
X15477325Y-11781984D02*
X15477325Y-11820079D01*
X15772563Y-12058174D02*
X15763039Y-12048650D01*
X15763039Y-12048650D02*
X15743991Y-12020079D01*
X15743991Y-12020079D02*
X15734468Y-12001031D01*
X15734468Y-12001031D02*
X15724944Y-11972460D01*
X15724944Y-11972460D02*
X15715420Y-11924841D01*
X15715420Y-11924841D02*
X15715420Y-11886746D01*
X15715420Y-11886746D02*
X15724944Y-11839127D01*
X15724944Y-11839127D02*
X15734468Y-11810555D01*
X15734468Y-11810555D02*
X15743991Y-11791508D01*
X15743991Y-11791508D02*
X15763039Y-11762936D01*
X15763039Y-11762936D02*
X15772563Y-11753412D01*
X15829706Y-11781984D02*
X15953515Y-11781984D01*
X15953515Y-11781984D02*
X15886848Y-11858174D01*
X15886848Y-11858174D02*
X15915420Y-11858174D01*
X15915420Y-11858174D02*
X15934468Y-11867698D01*
X15934468Y-11867698D02*
X15943991Y-11877222D01*
X15943991Y-11877222D02*
X15953515Y-11896269D01*
X15953515Y-11896269D02*
X15953515Y-11943888D01*
X15953515Y-11943888D02*
X15943991Y-11962936D01*
X15943991Y-11962936D02*
X15934468Y-11972460D01*
X15934468Y-11972460D02*
X15915420Y-11981984D01*
X15915420Y-11981984D02*
X15858277Y-11981984D01*
X15858277Y-11981984D02*
X15839229Y-11972460D01*
X15839229Y-11972460D02*
X15829706Y-11962936D01*
X16143991Y-11981984D02*
X16029706Y-11981984D01*
X16086848Y-11981984D02*
X16086848Y-11781984D01*
X16086848Y-11781984D02*
X16067801Y-11810555D01*
X16067801Y-11810555D02*
X16048753Y-11829603D01*
X16048753Y-11829603D02*
X16029706Y-11839127D01*
X16382087Y-11981984D02*
X16382087Y-11781984D01*
X16467801Y-11981984D02*
X16467801Y-11877222D01*
X16467801Y-11877222D02*
X16458277Y-11858174D01*
X16458277Y-11858174D02*
X16439230Y-11848650D01*
X16439230Y-11848650D02*
X16410658Y-11848650D01*
X16410658Y-11848650D02*
X16391610Y-11858174D01*
X16391610Y-11858174D02*
X16382087Y-11867698D01*
X16591610Y-11981984D02*
X16572563Y-11972460D01*
X16572563Y-11972460D02*
X16563039Y-11962936D01*
X16563039Y-11962936D02*
X16553515Y-11943888D01*
X16553515Y-11943888D02*
X16553515Y-11886746D01*
X16553515Y-11886746D02*
X16563039Y-11867698D01*
X16563039Y-11867698D02*
X16572563Y-11858174D01*
X16572563Y-11858174D02*
X16591610Y-11848650D01*
X16591610Y-11848650D02*
X16620182Y-11848650D01*
X16620182Y-11848650D02*
X16639230Y-11858174D01*
X16639230Y-11858174D02*
X16648753Y-11867698D01*
X16648753Y-11867698D02*
X16658277Y-11886746D01*
X16658277Y-11886746D02*
X16658277Y-11943888D01*
X16658277Y-11943888D02*
X16648753Y-11962936D01*
X16648753Y-11962936D02*
X16639230Y-11972460D01*
X16639230Y-11972460D02*
X16620182Y-11981984D01*
X16620182Y-11981984D02*
X16591610Y-11981984D01*
X16772563Y-11981984D02*
X16753515Y-11972460D01*
X16753515Y-11972460D02*
X16743991Y-11953412D01*
X16743991Y-11953412D02*
X16743991Y-11781984D01*
X16924944Y-11972460D02*
X16905896Y-11981984D01*
X16905896Y-11981984D02*
X16867801Y-11981984D01*
X16867801Y-11981984D02*
X16848753Y-11972460D01*
X16848753Y-11972460D02*
X16839230Y-11953412D01*
X16839230Y-11953412D02*
X16839230Y-11877222D01*
X16839230Y-11877222D02*
X16848753Y-11858174D01*
X16848753Y-11858174D02*
X16867801Y-11848650D01*
X16867801Y-11848650D02*
X16905896Y-11848650D01*
X16905896Y-11848650D02*
X16924944Y-11858174D01*
X16924944Y-11858174D02*
X16934468Y-11877222D01*
X16934468Y-11877222D02*
X16934468Y-11896269D01*
X16934468Y-11896269D02*
X16839230Y-11915317D01*
X17010658Y-11972460D02*
X17029706Y-11981984D01*
X17029706Y-11981984D02*
X17067801Y-11981984D01*
X17067801Y-11981984D02*
X17086849Y-11972460D01*
X17086849Y-11972460D02*
X17096373Y-11953412D01*
X17096373Y-11953412D02*
X17096373Y-11943888D01*
X17096373Y-11943888D02*
X17086849Y-11924841D01*
X17086849Y-11924841D02*
X17067801Y-11915317D01*
X17067801Y-11915317D02*
X17039230Y-11915317D01*
X17039230Y-11915317D02*
X17020182Y-11905793D01*
X17020182Y-11905793D02*
X17010658Y-11886746D01*
X17010658Y-11886746D02*
X17010658Y-11877222D01*
X17010658Y-11877222D02*
X17020182Y-11858174D01*
X17020182Y-11858174D02*
X17039230Y-11848650D01*
X17039230Y-11848650D02*
X17067801Y-11848650D01*
X17067801Y-11848650D02*
X17086849Y-11858174D01*
X17163039Y-12058174D02*
X17172563Y-12048650D01*
X17172563Y-12048650D02*
X17191611Y-12020079D01*
X17191611Y-12020079D02*
X17201134Y-12001031D01*
X17201134Y-12001031D02*
X17210658Y-11972460D01*
X17210658Y-11972460D02*
X17220182Y-11924841D01*
X17220182Y-11924841D02*
X17220182Y-11886746D01*
X17220182Y-11886746D02*
X17210658Y-11839127D01*
X17210658Y-11839127D02*
X17201134Y-11810555D01*
X17201134Y-11810555D02*
X17191611Y-11791508D01*
X17191611Y-11791508D02*
X17172563Y-11762936D01*
X17172563Y-11762936D02*
X17163039Y-11753412D01*
D12*
X12182856Y-12189856D02*
X12182856Y-12119144D01*
X12112144Y-12119144D01*
X12112144Y-12189856D01*
X12182856Y-12189856D01*
D11*
X12563039Y-12245984D02*
X12448753Y-12245984D01*
X12505896Y-12245984D02*
X12505896Y-12045984D01*
X12505896Y-12045984D02*
X12486848Y-12074555D01*
X12486848Y-12074555D02*
X12467801Y-12093603D01*
X12467801Y-12093603D02*
X12448753Y-12103127D01*
X12648753Y-12226936D02*
X12658277Y-12236460D01*
X12658277Y-12236460D02*
X12648753Y-12245984D01*
X12648753Y-12245984D02*
X12639229Y-12236460D01*
X12639229Y-12236460D02*
X12648753Y-12226936D01*
X12648753Y-12226936D02*
X12648753Y-12245984D01*
X12782086Y-12045984D02*
X12801134Y-12045984D01*
X12801134Y-12045984D02*
X12820182Y-12055508D01*
X12820182Y-12055508D02*
X12829705Y-12065031D01*
X12829705Y-12065031D02*
X12839229Y-12084079D01*
X12839229Y-12084079D02*
X12848753Y-12122174D01*
X12848753Y-12122174D02*
X12848753Y-12169793D01*
X12848753Y-12169793D02*
X12839229Y-12207888D01*
X12839229Y-12207888D02*
X12829705Y-12226936D01*
X12829705Y-12226936D02*
X12820182Y-12236460D01*
X12820182Y-12236460D02*
X12801134Y-12245984D01*
X12801134Y-12245984D02*
X12782086Y-12245984D01*
X12782086Y-12245984D02*
X12763039Y-12236460D01*
X12763039Y-12236460D02*
X12753515Y-12226936D01*
X12753515Y-12226936D02*
X12743991Y-12207888D01*
X12743991Y-12207888D02*
X12734467Y-12169793D01*
X12734467Y-12169793D02*
X12734467Y-12122174D01*
X12734467Y-12122174D02*
X12743991Y-12084079D01*
X12743991Y-12084079D02*
X12753515Y-12065031D01*
X12753515Y-12065031D02*
X12763039Y-12055508D01*
X12763039Y-12055508D02*
X12782086Y-12045984D01*
X12972562Y-12045984D02*
X12991610Y-12045984D01*
X12991610Y-12045984D02*
X13010658Y-12055508D01*
X13010658Y-12055508D02*
X13020182Y-12065031D01*
X13020182Y-12065031D02*
X13029705Y-12084079D01*
X13029705Y-12084079D02*
X13039229Y-12122174D01*
X13039229Y-12122174D02*
X13039229Y-12169793D01*
X13039229Y-12169793D02*
X13029705Y-12207888D01*
X13029705Y-12207888D02*
X13020182Y-12226936D01*
X13020182Y-12226936D02*
X13010658Y-12236460D01*
X13010658Y-12236460D02*
X12991610Y-12245984D01*
X12991610Y-12245984D02*
X12972562Y-12245984D01*
X12972562Y-12245984D02*
X12953515Y-12236460D01*
X12953515Y-12236460D02*
X12943991Y-12226936D01*
X12943991Y-12226936D02*
X12934467Y-12207888D01*
X12934467Y-12207888D02*
X12924943Y-12169793D01*
X12924943Y-12169793D02*
X12924943Y-12122174D01*
X12924943Y-12122174D02*
X12934467Y-12084079D01*
X12934467Y-12084079D02*
X12943991Y-12065031D01*
X12943991Y-12065031D02*
X12953515Y-12055508D01*
X12953515Y-12055508D02*
X12972562Y-12045984D01*
X13163039Y-12045984D02*
X13182086Y-12045984D01*
X13182086Y-12045984D02*
X13201134Y-12055508D01*
X13201134Y-12055508D02*
X13210658Y-12065031D01*
X13210658Y-12065031D02*
X13220182Y-12084079D01*
X13220182Y-12084079D02*
X13229705Y-12122174D01*
X13229705Y-12122174D02*
X13229705Y-12169793D01*
X13229705Y-12169793D02*
X13220182Y-12207888D01*
X13220182Y-12207888D02*
X13210658Y-12226936D01*
X13210658Y-12226936D02*
X13201134Y-12236460D01*
X13201134Y-12236460D02*
X13182086Y-12245984D01*
X13182086Y-12245984D02*
X13163039Y-12245984D01*
X13163039Y-12245984D02*
X13143991Y-12236460D01*
X13143991Y-12236460D02*
X13134467Y-12226936D01*
X13134467Y-12226936D02*
X13124943Y-12207888D01*
X13124943Y-12207888D02*
X13115420Y-12169793D01*
X13115420Y-12169793D02*
X13115420Y-12122174D01*
X13115420Y-12122174D02*
X13124943Y-12084079D01*
X13124943Y-12084079D02*
X13134467Y-12065031D01*
X13134467Y-12065031D02*
X13143991Y-12055508D01*
X13143991Y-12055508D02*
X13163039Y-12045984D01*
X13315420Y-12245984D02*
X13315420Y-12112650D01*
X13315420Y-12131698D02*
X13324943Y-12122174D01*
X13324943Y-12122174D02*
X13343991Y-12112650D01*
X13343991Y-12112650D02*
X13372563Y-12112650D01*
X13372563Y-12112650D02*
X13391610Y-12122174D01*
X13391610Y-12122174D02*
X13401134Y-12141222D01*
X13401134Y-12141222D02*
X13401134Y-12245984D01*
X13401134Y-12141222D02*
X13410658Y-12122174D01*
X13410658Y-12122174D02*
X13429705Y-12112650D01*
X13429705Y-12112650D02*
X13458277Y-12112650D01*
X13458277Y-12112650D02*
X13477324Y-12122174D01*
X13477324Y-12122174D02*
X13486848Y-12141222D01*
X13486848Y-12141222D02*
X13486848Y-12245984D01*
X13582086Y-12245984D02*
X13582086Y-12112650D01*
X13582086Y-12131698D02*
X13591610Y-12122174D01*
X13591610Y-12122174D02*
X13610658Y-12112650D01*
X13610658Y-12112650D02*
X13639229Y-12112650D01*
X13639229Y-12112650D02*
X13658277Y-12122174D01*
X13658277Y-12122174D02*
X13667801Y-12141222D01*
X13667801Y-12141222D02*
X13667801Y-12245984D01*
X13667801Y-12141222D02*
X13677324Y-12122174D01*
X13677324Y-12122174D02*
X13696372Y-12112650D01*
X13696372Y-12112650D02*
X13724943Y-12112650D01*
X13724943Y-12112650D02*
X13743991Y-12122174D01*
X13743991Y-12122174D02*
X13753515Y-12141222D01*
X13753515Y-12141222D02*
X13753515Y-12245984D01*
X14143991Y-12036460D02*
X13972563Y-12293603D01*
X14401134Y-12045984D02*
X14420182Y-12045984D01*
X14420182Y-12045984D02*
X14439229Y-12055508D01*
X14439229Y-12055508D02*
X14448753Y-12065031D01*
X14448753Y-12065031D02*
X14458277Y-12084079D01*
X14458277Y-12084079D02*
X14467801Y-12122174D01*
X14467801Y-12122174D02*
X14467801Y-12169793D01*
X14467801Y-12169793D02*
X14458277Y-12207888D01*
X14458277Y-12207888D02*
X14448753Y-12226936D01*
X14448753Y-12226936D02*
X14439229Y-12236460D01*
X14439229Y-12236460D02*
X14420182Y-12245984D01*
X14420182Y-12245984D02*
X14401134Y-12245984D01*
X14401134Y-12245984D02*
X14382086Y-12236460D01*
X14382086Y-12236460D02*
X14372563Y-12226936D01*
X14372563Y-12226936D02*
X14363039Y-12207888D01*
X14363039Y-12207888D02*
X14353515Y-12169793D01*
X14353515Y-12169793D02*
X14353515Y-12122174D01*
X14353515Y-12122174D02*
X14363039Y-12084079D01*
X14363039Y-12084079D02*
X14372563Y-12065031D01*
X14372563Y-12065031D02*
X14382086Y-12055508D01*
X14382086Y-12055508D02*
X14401134Y-12045984D01*
X14553515Y-12226936D02*
X14563039Y-12236460D01*
X14563039Y-12236460D02*
X14553515Y-12245984D01*
X14553515Y-12245984D02*
X14543991Y-12236460D01*
X14543991Y-12236460D02*
X14553515Y-12226936D01*
X14553515Y-12226936D02*
X14553515Y-12245984D01*
X14686848Y-12045984D02*
X14705896Y-12045984D01*
X14705896Y-12045984D02*
X14724944Y-12055508D01*
X14724944Y-12055508D02*
X14734467Y-12065031D01*
X14734467Y-12065031D02*
X14743991Y-12084079D01*
X14743991Y-12084079D02*
X14753515Y-12122174D01*
X14753515Y-12122174D02*
X14753515Y-12169793D01*
X14753515Y-12169793D02*
X14743991Y-12207888D01*
X14743991Y-12207888D02*
X14734467Y-12226936D01*
X14734467Y-12226936D02*
X14724944Y-12236460D01*
X14724944Y-12236460D02*
X14705896Y-12245984D01*
X14705896Y-12245984D02*
X14686848Y-12245984D01*
X14686848Y-12245984D02*
X14667801Y-12236460D01*
X14667801Y-12236460D02*
X14658277Y-12226936D01*
X14658277Y-12226936D02*
X14648753Y-12207888D01*
X14648753Y-12207888D02*
X14639229Y-12169793D01*
X14639229Y-12169793D02*
X14639229Y-12122174D01*
X14639229Y-12122174D02*
X14648753Y-12084079D01*
X14648753Y-12084079D02*
X14658277Y-12065031D01*
X14658277Y-12065031D02*
X14667801Y-12055508D01*
X14667801Y-12055508D02*
X14686848Y-12045984D01*
X14820182Y-12045984D02*
X14943991Y-12045984D01*
X14943991Y-12045984D02*
X14877325Y-12122174D01*
X14877325Y-12122174D02*
X14905896Y-12122174D01*
X14905896Y-12122174D02*
X14924944Y-12131698D01*
X14924944Y-12131698D02*
X14934467Y-12141222D01*
X14934467Y-12141222D02*
X14943991Y-12160269D01*
X14943991Y-12160269D02*
X14943991Y-12207888D01*
X14943991Y-12207888D02*
X14934467Y-12226936D01*
X14934467Y-12226936D02*
X14924944Y-12236460D01*
X14924944Y-12236460D02*
X14905896Y-12245984D01*
X14905896Y-12245984D02*
X14848753Y-12245984D01*
X14848753Y-12245984D02*
X14829706Y-12236460D01*
X14829706Y-12236460D02*
X14820182Y-12226936D01*
X15039229Y-12245984D02*
X15077325Y-12245984D01*
X15077325Y-12245984D02*
X15096372Y-12236460D01*
X15096372Y-12236460D02*
X15105896Y-12226936D01*
X15105896Y-12226936D02*
X15124944Y-12198365D01*
X15124944Y-12198365D02*
X15134467Y-12160269D01*
X15134467Y-12160269D02*
X15134467Y-12084079D01*
X15134467Y-12084079D02*
X15124944Y-12065031D01*
X15124944Y-12065031D02*
X15115420Y-12055508D01*
X15115420Y-12055508D02*
X15096372Y-12045984D01*
X15096372Y-12045984D02*
X15058277Y-12045984D01*
X15058277Y-12045984D02*
X15039229Y-12055508D01*
X15039229Y-12055508D02*
X15029706Y-12065031D01*
X15029706Y-12065031D02*
X15020182Y-12084079D01*
X15020182Y-12084079D02*
X15020182Y-12131698D01*
X15020182Y-12131698D02*
X15029706Y-12150746D01*
X15029706Y-12150746D02*
X15039229Y-12160269D01*
X15039229Y-12160269D02*
X15058277Y-12169793D01*
X15058277Y-12169793D02*
X15096372Y-12169793D01*
X15096372Y-12169793D02*
X15115420Y-12160269D01*
X15115420Y-12160269D02*
X15124944Y-12150746D01*
X15124944Y-12150746D02*
X15134467Y-12131698D01*
X15305896Y-12112650D02*
X15305896Y-12245984D01*
X15258277Y-12036460D02*
X15210658Y-12179317D01*
X15210658Y-12179317D02*
X15334467Y-12179317D01*
X15401134Y-12045984D02*
X15401134Y-12084079D01*
X15477325Y-12045984D02*
X15477325Y-12084079D01*
X15772563Y-12322174D02*
X15763039Y-12312650D01*
X15763039Y-12312650D02*
X15743991Y-12284079D01*
X15743991Y-12284079D02*
X15734468Y-12265031D01*
X15734468Y-12265031D02*
X15724944Y-12236460D01*
X15724944Y-12236460D02*
X15715420Y-12188841D01*
X15715420Y-12188841D02*
X15715420Y-12150746D01*
X15715420Y-12150746D02*
X15724944Y-12103127D01*
X15724944Y-12103127D02*
X15734468Y-12074555D01*
X15734468Y-12074555D02*
X15743991Y-12055508D01*
X15743991Y-12055508D02*
X15763039Y-12026936D01*
X15763039Y-12026936D02*
X15772563Y-12017412D01*
X15943991Y-12045984D02*
X15848753Y-12045984D01*
X15848753Y-12045984D02*
X15839229Y-12141222D01*
X15839229Y-12141222D02*
X15848753Y-12131698D01*
X15848753Y-12131698D02*
X15867801Y-12122174D01*
X15867801Y-12122174D02*
X15915420Y-12122174D01*
X15915420Y-12122174D02*
X15934468Y-12131698D01*
X15934468Y-12131698D02*
X15943991Y-12141222D01*
X15943991Y-12141222D02*
X15953515Y-12160269D01*
X15953515Y-12160269D02*
X15953515Y-12207888D01*
X15953515Y-12207888D02*
X15943991Y-12226936D01*
X15943991Y-12226936D02*
X15934468Y-12236460D01*
X15934468Y-12236460D02*
X15915420Y-12245984D01*
X15915420Y-12245984D02*
X15867801Y-12245984D01*
X15867801Y-12245984D02*
X15848753Y-12236460D01*
X15848753Y-12236460D02*
X15839229Y-12226936D01*
X16191610Y-12245984D02*
X16191610Y-12045984D01*
X16277325Y-12245984D02*
X16277325Y-12141222D01*
X16277325Y-12141222D02*
X16267801Y-12122174D01*
X16267801Y-12122174D02*
X16248753Y-12112650D01*
X16248753Y-12112650D02*
X16220182Y-12112650D01*
X16220182Y-12112650D02*
X16201134Y-12122174D01*
X16201134Y-12122174D02*
X16191610Y-12131698D01*
X16401134Y-12245984D02*
X16382087Y-12236460D01*
X16382087Y-12236460D02*
X16372563Y-12226936D01*
X16372563Y-12226936D02*
X16363039Y-12207888D01*
X16363039Y-12207888D02*
X16363039Y-12150746D01*
X16363039Y-12150746D02*
X16372563Y-12131698D01*
X16372563Y-12131698D02*
X16382087Y-12122174D01*
X16382087Y-12122174D02*
X16401134Y-12112650D01*
X16401134Y-12112650D02*
X16429706Y-12112650D01*
X16429706Y-12112650D02*
X16448753Y-12122174D01*
X16448753Y-12122174D02*
X16458277Y-12131698D01*
X16458277Y-12131698D02*
X16467801Y-12150746D01*
X16467801Y-12150746D02*
X16467801Y-12207888D01*
X16467801Y-12207888D02*
X16458277Y-12226936D01*
X16458277Y-12226936D02*
X16448753Y-12236460D01*
X16448753Y-12236460D02*
X16429706Y-12245984D01*
X16429706Y-12245984D02*
X16401134Y-12245984D01*
X16582087Y-12245984D02*
X16563039Y-12236460D01*
X16563039Y-12236460D02*
X16553515Y-12217412D01*
X16553515Y-12217412D02*
X16553515Y-12045984D01*
X16734468Y-12236460D02*
X16715420Y-12245984D01*
X16715420Y-12245984D02*
X16677325Y-12245984D01*
X16677325Y-12245984D02*
X16658277Y-12236460D01*
X16658277Y-12236460D02*
X16648753Y-12217412D01*
X16648753Y-12217412D02*
X16648753Y-12141222D01*
X16648753Y-12141222D02*
X16658277Y-12122174D01*
X16658277Y-12122174D02*
X16677325Y-12112650D01*
X16677325Y-12112650D02*
X16715420Y-12112650D01*
X16715420Y-12112650D02*
X16734468Y-12122174D01*
X16734468Y-12122174D02*
X16743991Y-12141222D01*
X16743991Y-12141222D02*
X16743991Y-12160269D01*
X16743991Y-12160269D02*
X16648753Y-12179317D01*
X16820182Y-12236460D02*
X16839230Y-12245984D01*
X16839230Y-12245984D02*
X16877325Y-12245984D01*
X16877325Y-12245984D02*
X16896373Y-12236460D01*
X16896373Y-12236460D02*
X16905896Y-12217412D01*
X16905896Y-12217412D02*
X16905896Y-12207888D01*
X16905896Y-12207888D02*
X16896373Y-12188841D01*
X16896373Y-12188841D02*
X16877325Y-12179317D01*
X16877325Y-12179317D02*
X16848753Y-12179317D01*
X16848753Y-12179317D02*
X16829706Y-12169793D01*
X16829706Y-12169793D02*
X16820182Y-12150746D01*
X16820182Y-12150746D02*
X16820182Y-12141222D01*
X16820182Y-12141222D02*
X16829706Y-12122174D01*
X16829706Y-12122174D02*
X16848753Y-12112650D01*
X16848753Y-12112650D02*
X16877325Y-12112650D01*
X16877325Y-12112650D02*
X16896373Y-12122174D01*
X16972563Y-12322174D02*
X16982087Y-12312650D01*
X16982087Y-12312650D02*
X17001134Y-12284079D01*
X17001134Y-12284079D02*
X17010658Y-12265031D01*
X17010658Y-12265031D02*
X17020182Y-12236460D01*
X17020182Y-12236460D02*
X17029706Y-12188841D01*
X17029706Y-12188841D02*
X17029706Y-12150746D01*
X17029706Y-12150746D02*
X17020182Y-12103127D01*
X17020182Y-12103127D02*
X17010658Y-12074555D01*
X17010658Y-12074555D02*
X17001134Y-12055508D01*
X17001134Y-12055508D02*
X16982087Y-12026936D01*
X16982087Y-12026936D02*
X16972563Y-12017412D01*
D13*
X12107500Y-12508500D02*
X12197500Y-12418500D01*
X12107500Y-12328500D01*
X12017500Y-12418500D01*
X12107500Y-12508500D01*
D11*
X12563039Y-12509984D02*
X12448753Y-12509984D01*
X12505896Y-12509984D02*
X12505896Y-12309984D01*
X12505896Y-12309984D02*
X12486848Y-12338555D01*
X12486848Y-12338555D02*
X12467801Y-12357603D01*
X12467801Y-12357603D02*
X12448753Y-12367127D01*
X12648753Y-12490936D02*
X12658277Y-12500460D01*
X12658277Y-12500460D02*
X12648753Y-12509984D01*
X12648753Y-12509984D02*
X12639229Y-12500460D01*
X12639229Y-12500460D02*
X12648753Y-12490936D01*
X12648753Y-12490936D02*
X12648753Y-12509984D01*
X12772562Y-12395698D02*
X12753515Y-12386174D01*
X12753515Y-12386174D02*
X12743991Y-12376650D01*
X12743991Y-12376650D02*
X12734467Y-12357603D01*
X12734467Y-12357603D02*
X12734467Y-12348079D01*
X12734467Y-12348079D02*
X12743991Y-12329031D01*
X12743991Y-12329031D02*
X12753515Y-12319508D01*
X12753515Y-12319508D02*
X12772562Y-12309984D01*
X12772562Y-12309984D02*
X12810658Y-12309984D01*
X12810658Y-12309984D02*
X12829705Y-12319508D01*
X12829705Y-12319508D02*
X12839229Y-12329031D01*
X12839229Y-12329031D02*
X12848753Y-12348079D01*
X12848753Y-12348079D02*
X12848753Y-12357603D01*
X12848753Y-12357603D02*
X12839229Y-12376650D01*
X12839229Y-12376650D02*
X12829705Y-12386174D01*
X12829705Y-12386174D02*
X12810658Y-12395698D01*
X12810658Y-12395698D02*
X12772562Y-12395698D01*
X12772562Y-12395698D02*
X12753515Y-12405222D01*
X12753515Y-12405222D02*
X12743991Y-12414746D01*
X12743991Y-12414746D02*
X12734467Y-12433793D01*
X12734467Y-12433793D02*
X12734467Y-12471888D01*
X12734467Y-12471888D02*
X12743991Y-12490936D01*
X12743991Y-12490936D02*
X12753515Y-12500460D01*
X12753515Y-12500460D02*
X12772562Y-12509984D01*
X12772562Y-12509984D02*
X12810658Y-12509984D01*
X12810658Y-12509984D02*
X12829705Y-12500460D01*
X12829705Y-12500460D02*
X12839229Y-12490936D01*
X12839229Y-12490936D02*
X12848753Y-12471888D01*
X12848753Y-12471888D02*
X12848753Y-12433793D01*
X12848753Y-12433793D02*
X12839229Y-12414746D01*
X12839229Y-12414746D02*
X12829705Y-12405222D01*
X12829705Y-12405222D02*
X12810658Y-12395698D01*
X12972562Y-12309984D02*
X12991610Y-12309984D01*
X12991610Y-12309984D02*
X13010658Y-12319508D01*
X13010658Y-12319508D02*
X13020182Y-12329031D01*
X13020182Y-12329031D02*
X13029705Y-12348079D01*
X13029705Y-12348079D02*
X13039229Y-12386174D01*
X13039229Y-12386174D02*
X13039229Y-12433793D01*
X13039229Y-12433793D02*
X13029705Y-12471888D01*
X13029705Y-12471888D02*
X13020182Y-12490936D01*
X13020182Y-12490936D02*
X13010658Y-12500460D01*
X13010658Y-12500460D02*
X12991610Y-12509984D01*
X12991610Y-12509984D02*
X12972562Y-12509984D01*
X12972562Y-12509984D02*
X12953515Y-12500460D01*
X12953515Y-12500460D02*
X12943991Y-12490936D01*
X12943991Y-12490936D02*
X12934467Y-12471888D01*
X12934467Y-12471888D02*
X12924943Y-12433793D01*
X12924943Y-12433793D02*
X12924943Y-12386174D01*
X12924943Y-12386174D02*
X12934467Y-12348079D01*
X12934467Y-12348079D02*
X12943991Y-12329031D01*
X12943991Y-12329031D02*
X12953515Y-12319508D01*
X12953515Y-12319508D02*
X12972562Y-12309984D01*
X13163039Y-12309984D02*
X13182086Y-12309984D01*
X13182086Y-12309984D02*
X13201134Y-12319508D01*
X13201134Y-12319508D02*
X13210658Y-12329031D01*
X13210658Y-12329031D02*
X13220182Y-12348079D01*
X13220182Y-12348079D02*
X13229705Y-12386174D01*
X13229705Y-12386174D02*
X13229705Y-12433793D01*
X13229705Y-12433793D02*
X13220182Y-12471888D01*
X13220182Y-12471888D02*
X13210658Y-12490936D01*
X13210658Y-12490936D02*
X13201134Y-12500460D01*
X13201134Y-12500460D02*
X13182086Y-12509984D01*
X13182086Y-12509984D02*
X13163039Y-12509984D01*
X13163039Y-12509984D02*
X13143991Y-12500460D01*
X13143991Y-12500460D02*
X13134467Y-12490936D01*
X13134467Y-12490936D02*
X13124943Y-12471888D01*
X13124943Y-12471888D02*
X13115420Y-12433793D01*
X13115420Y-12433793D02*
X13115420Y-12386174D01*
X13115420Y-12386174D02*
X13124943Y-12348079D01*
X13124943Y-12348079D02*
X13134467Y-12329031D01*
X13134467Y-12329031D02*
X13143991Y-12319508D01*
X13143991Y-12319508D02*
X13163039Y-12309984D01*
X13315420Y-12509984D02*
X13315420Y-12376650D01*
X13315420Y-12395698D02*
X13324943Y-12386174D01*
X13324943Y-12386174D02*
X13343991Y-12376650D01*
X13343991Y-12376650D02*
X13372563Y-12376650D01*
X13372563Y-12376650D02*
X13391610Y-12386174D01*
X13391610Y-12386174D02*
X13401134Y-12405222D01*
X13401134Y-12405222D02*
X13401134Y-12509984D01*
X13401134Y-12405222D02*
X13410658Y-12386174D01*
X13410658Y-12386174D02*
X13429705Y-12376650D01*
X13429705Y-12376650D02*
X13458277Y-12376650D01*
X13458277Y-12376650D02*
X13477324Y-12386174D01*
X13477324Y-12386174D02*
X13486848Y-12405222D01*
X13486848Y-12405222D02*
X13486848Y-12509984D01*
X13582086Y-12509984D02*
X13582086Y-12376650D01*
X13582086Y-12395698D02*
X13591610Y-12386174D01*
X13591610Y-12386174D02*
X13610658Y-12376650D01*
X13610658Y-12376650D02*
X13639229Y-12376650D01*
X13639229Y-12376650D02*
X13658277Y-12386174D01*
X13658277Y-12386174D02*
X13667801Y-12405222D01*
X13667801Y-12405222D02*
X13667801Y-12509984D01*
X13667801Y-12405222D02*
X13677324Y-12386174D01*
X13677324Y-12386174D02*
X13696372Y-12376650D01*
X13696372Y-12376650D02*
X13724943Y-12376650D01*
X13724943Y-12376650D02*
X13743991Y-12386174D01*
X13743991Y-12386174D02*
X13753515Y-12405222D01*
X13753515Y-12405222D02*
X13753515Y-12509984D01*
X14143991Y-12300460D02*
X13972563Y-12557603D01*
X14401134Y-12309984D02*
X14420182Y-12309984D01*
X14420182Y-12309984D02*
X14439229Y-12319508D01*
X14439229Y-12319508D02*
X14448753Y-12329031D01*
X14448753Y-12329031D02*
X14458277Y-12348079D01*
X14458277Y-12348079D02*
X14467801Y-12386174D01*
X14467801Y-12386174D02*
X14467801Y-12433793D01*
X14467801Y-12433793D02*
X14458277Y-12471888D01*
X14458277Y-12471888D02*
X14448753Y-12490936D01*
X14448753Y-12490936D02*
X14439229Y-12500460D01*
X14439229Y-12500460D02*
X14420182Y-12509984D01*
X14420182Y-12509984D02*
X14401134Y-12509984D01*
X14401134Y-12509984D02*
X14382086Y-12500460D01*
X14382086Y-12500460D02*
X14372563Y-12490936D01*
X14372563Y-12490936D02*
X14363039Y-12471888D01*
X14363039Y-12471888D02*
X14353515Y-12433793D01*
X14353515Y-12433793D02*
X14353515Y-12386174D01*
X14353515Y-12386174D02*
X14363039Y-12348079D01*
X14363039Y-12348079D02*
X14372563Y-12329031D01*
X14372563Y-12329031D02*
X14382086Y-12319508D01*
X14382086Y-12319508D02*
X14401134Y-12309984D01*
X14553515Y-12490936D02*
X14563039Y-12500460D01*
X14563039Y-12500460D02*
X14553515Y-12509984D01*
X14553515Y-12509984D02*
X14543991Y-12500460D01*
X14543991Y-12500460D02*
X14553515Y-12490936D01*
X14553515Y-12490936D02*
X14553515Y-12509984D01*
X14686848Y-12309984D02*
X14705896Y-12309984D01*
X14705896Y-12309984D02*
X14724944Y-12319508D01*
X14724944Y-12319508D02*
X14734467Y-12329031D01*
X14734467Y-12329031D02*
X14743991Y-12348079D01*
X14743991Y-12348079D02*
X14753515Y-12386174D01*
X14753515Y-12386174D02*
X14753515Y-12433793D01*
X14753515Y-12433793D02*
X14743991Y-12471888D01*
X14743991Y-12471888D02*
X14734467Y-12490936D01*
X14734467Y-12490936D02*
X14724944Y-12500460D01*
X14724944Y-12500460D02*
X14705896Y-12509984D01*
X14705896Y-12509984D02*
X14686848Y-12509984D01*
X14686848Y-12509984D02*
X14667801Y-12500460D01*
X14667801Y-12500460D02*
X14658277Y-12490936D01*
X14658277Y-12490936D02*
X14648753Y-12471888D01*
X14648753Y-12471888D02*
X14639229Y-12433793D01*
X14639229Y-12433793D02*
X14639229Y-12386174D01*
X14639229Y-12386174D02*
X14648753Y-12348079D01*
X14648753Y-12348079D02*
X14658277Y-12329031D01*
X14658277Y-12329031D02*
X14667801Y-12319508D01*
X14667801Y-12319508D02*
X14686848Y-12309984D01*
X14820182Y-12309984D02*
X14953515Y-12309984D01*
X14953515Y-12309984D02*
X14867801Y-12509984D01*
X15067801Y-12309984D02*
X15086848Y-12309984D01*
X15086848Y-12309984D02*
X15105896Y-12319508D01*
X15105896Y-12319508D02*
X15115420Y-12329031D01*
X15115420Y-12329031D02*
X15124944Y-12348079D01*
X15124944Y-12348079D02*
X15134467Y-12386174D01*
X15134467Y-12386174D02*
X15134467Y-12433793D01*
X15134467Y-12433793D02*
X15124944Y-12471888D01*
X15124944Y-12471888D02*
X15115420Y-12490936D01*
X15115420Y-12490936D02*
X15105896Y-12500460D01*
X15105896Y-12500460D02*
X15086848Y-12509984D01*
X15086848Y-12509984D02*
X15067801Y-12509984D01*
X15067801Y-12509984D02*
X15048753Y-12500460D01*
X15048753Y-12500460D02*
X15039229Y-12490936D01*
X15039229Y-12490936D02*
X15029706Y-12471888D01*
X15029706Y-12471888D02*
X15020182Y-12433793D01*
X15020182Y-12433793D02*
X15020182Y-12386174D01*
X15020182Y-12386174D02*
X15029706Y-12348079D01*
X15029706Y-12348079D02*
X15039229Y-12329031D01*
X15039229Y-12329031D02*
X15048753Y-12319508D01*
X15048753Y-12319508D02*
X15067801Y-12309984D01*
X15229706Y-12509984D02*
X15267801Y-12509984D01*
X15267801Y-12509984D02*
X15286848Y-12500460D01*
X15286848Y-12500460D02*
X15296372Y-12490936D01*
X15296372Y-12490936D02*
X15315420Y-12462365D01*
X15315420Y-12462365D02*
X15324944Y-12424269D01*
X15324944Y-12424269D02*
X15324944Y-12348079D01*
X15324944Y-12348079D02*
X15315420Y-12329031D01*
X15315420Y-12329031D02*
X15305896Y-12319508D01*
X15305896Y-12319508D02*
X15286848Y-12309984D01*
X15286848Y-12309984D02*
X15248753Y-12309984D01*
X15248753Y-12309984D02*
X15229706Y-12319508D01*
X15229706Y-12319508D02*
X15220182Y-12329031D01*
X15220182Y-12329031D02*
X15210658Y-12348079D01*
X15210658Y-12348079D02*
X15210658Y-12395698D01*
X15210658Y-12395698D02*
X15220182Y-12414746D01*
X15220182Y-12414746D02*
X15229706Y-12424269D01*
X15229706Y-12424269D02*
X15248753Y-12433793D01*
X15248753Y-12433793D02*
X15286848Y-12433793D01*
X15286848Y-12433793D02*
X15305896Y-12424269D01*
X15305896Y-12424269D02*
X15315420Y-12414746D01*
X15315420Y-12414746D02*
X15324944Y-12395698D01*
X15401134Y-12309984D02*
X15401134Y-12348079D01*
X15477325Y-12309984D02*
X15477325Y-12348079D01*
X15772563Y-12586174D02*
X15763039Y-12576650D01*
X15763039Y-12576650D02*
X15743991Y-12548079D01*
X15743991Y-12548079D02*
X15734468Y-12529031D01*
X15734468Y-12529031D02*
X15724944Y-12500460D01*
X15724944Y-12500460D02*
X15715420Y-12452841D01*
X15715420Y-12452841D02*
X15715420Y-12414746D01*
X15715420Y-12414746D02*
X15724944Y-12367127D01*
X15724944Y-12367127D02*
X15734468Y-12338555D01*
X15734468Y-12338555D02*
X15743991Y-12319508D01*
X15743991Y-12319508D02*
X15763039Y-12290936D01*
X15763039Y-12290936D02*
X15772563Y-12281412D01*
X15839229Y-12329031D02*
X15848753Y-12319508D01*
X15848753Y-12319508D02*
X15867801Y-12309984D01*
X15867801Y-12309984D02*
X15915420Y-12309984D01*
X15915420Y-12309984D02*
X15934468Y-12319508D01*
X15934468Y-12319508D02*
X15943991Y-12329031D01*
X15943991Y-12329031D02*
X15953515Y-12348079D01*
X15953515Y-12348079D02*
X15953515Y-12367127D01*
X15953515Y-12367127D02*
X15943991Y-12395698D01*
X15943991Y-12395698D02*
X15829706Y-12509984D01*
X15829706Y-12509984D02*
X15953515Y-12509984D01*
X16191610Y-12509984D02*
X16191610Y-12309984D01*
X16277325Y-12509984D02*
X16277325Y-12405222D01*
X16277325Y-12405222D02*
X16267801Y-12386174D01*
X16267801Y-12386174D02*
X16248753Y-12376650D01*
X16248753Y-12376650D02*
X16220182Y-12376650D01*
X16220182Y-12376650D02*
X16201134Y-12386174D01*
X16201134Y-12386174D02*
X16191610Y-12395698D01*
X16401134Y-12509984D02*
X16382087Y-12500460D01*
X16382087Y-12500460D02*
X16372563Y-12490936D01*
X16372563Y-12490936D02*
X16363039Y-12471888D01*
X16363039Y-12471888D02*
X16363039Y-12414746D01*
X16363039Y-12414746D02*
X16372563Y-12395698D01*
X16372563Y-12395698D02*
X16382087Y-12386174D01*
X16382087Y-12386174D02*
X16401134Y-12376650D01*
X16401134Y-12376650D02*
X16429706Y-12376650D01*
X16429706Y-12376650D02*
X16448753Y-12386174D01*
X16448753Y-12386174D02*
X16458277Y-12395698D01*
X16458277Y-12395698D02*
X16467801Y-12414746D01*
X16467801Y-12414746D02*
X16467801Y-12471888D01*
X16467801Y-12471888D02*
X16458277Y-12490936D01*
X16458277Y-12490936D02*
X16448753Y-12500460D01*
X16448753Y-12500460D02*
X16429706Y-12509984D01*
X16429706Y-12509984D02*
X16401134Y-12509984D01*
X16582087Y-12509984D02*
X16563039Y-12500460D01*
X16563039Y-12500460D02*
X16553515Y-12481412D01*
X16553515Y-12481412D02*
X16553515Y-12309984D01*
X16734468Y-12500460D02*
X16715420Y-12509984D01*
X16715420Y-12509984D02*
X16677325Y-12509984D01*
X16677325Y-12509984D02*
X16658277Y-12500460D01*
X16658277Y-12500460D02*
X16648753Y-12481412D01*
X16648753Y-12481412D02*
X16648753Y-12405222D01*
X16648753Y-12405222D02*
X16658277Y-12386174D01*
X16658277Y-12386174D02*
X16677325Y-12376650D01*
X16677325Y-12376650D02*
X16715420Y-12376650D01*
X16715420Y-12376650D02*
X16734468Y-12386174D01*
X16734468Y-12386174D02*
X16743991Y-12405222D01*
X16743991Y-12405222D02*
X16743991Y-12424269D01*
X16743991Y-12424269D02*
X16648753Y-12443317D01*
X16820182Y-12500460D02*
X16839230Y-12509984D01*
X16839230Y-12509984D02*
X16877325Y-12509984D01*
X16877325Y-12509984D02*
X16896373Y-12500460D01*
X16896373Y-12500460D02*
X16905896Y-12481412D01*
X16905896Y-12481412D02*
X16905896Y-12471888D01*
X16905896Y-12471888D02*
X16896373Y-12452841D01*
X16896373Y-12452841D02*
X16877325Y-12443317D01*
X16877325Y-12443317D02*
X16848753Y-12443317D01*
X16848753Y-12443317D02*
X16829706Y-12433793D01*
X16829706Y-12433793D02*
X16820182Y-12414746D01*
X16820182Y-12414746D02*
X16820182Y-12405222D01*
X16820182Y-12405222D02*
X16829706Y-12386174D01*
X16829706Y-12386174D02*
X16848753Y-12376650D01*
X16848753Y-12376650D02*
X16877325Y-12376650D01*
X16877325Y-12376650D02*
X16896373Y-12386174D01*
X16972563Y-12586174D02*
X16982087Y-12576650D01*
X16982087Y-12576650D02*
X17001134Y-12548079D01*
X17001134Y-12548079D02*
X17010658Y-12529031D01*
X17010658Y-12529031D02*
X17020182Y-12500460D01*
X17020182Y-12500460D02*
X17029706Y-12452841D01*
X17029706Y-12452841D02*
X17029706Y-12414746D01*
X17029706Y-12414746D02*
X17020182Y-12367127D01*
X17020182Y-12367127D02*
X17010658Y-12338555D01*
X17010658Y-12338555D02*
X17001134Y-12319508D01*
X17001134Y-12319508D02*
X16982087Y-12290936D01*
X16982087Y-12290936D02*
X16972563Y-12281412D01*
X11997500Y-12618500D02*
X12197500Y-12818500D01*
X12197500Y-12618500D02*
X11997500Y-12818500D01*
X12197500Y-12718500D02*
G75*
G02*
X11997500Y-12718500I-100000J0D01*
G01*
X11997500Y-12718500D02*
G75*
G02*
X12197500Y-12718500I100000J0D01*
G01*
X12448753Y-12629031D02*
X12458277Y-12619508D01*
X12458277Y-12619508D02*
X12477324Y-12609984D01*
X12477324Y-12609984D02*
X12524943Y-12609984D01*
X12524943Y-12609984D02*
X12543991Y-12619508D01*
X12543991Y-12619508D02*
X12553515Y-12629031D01*
X12553515Y-12629031D02*
X12563039Y-12648079D01*
X12563039Y-12648079D02*
X12563039Y-12667127D01*
X12563039Y-12667127D02*
X12553515Y-12695698D01*
X12553515Y-12695698D02*
X12439229Y-12809984D01*
X12439229Y-12809984D02*
X12563039Y-12809984D01*
X12648753Y-12790936D02*
X12658277Y-12800460D01*
X12658277Y-12800460D02*
X12648753Y-12809984D01*
X12648753Y-12809984D02*
X12639229Y-12800460D01*
X12639229Y-12800460D02*
X12648753Y-12790936D01*
X12648753Y-12790936D02*
X12648753Y-12809984D01*
X12734467Y-12629031D02*
X12743991Y-12619508D01*
X12743991Y-12619508D02*
X12763039Y-12609984D01*
X12763039Y-12609984D02*
X12810658Y-12609984D01*
X12810658Y-12609984D02*
X12829705Y-12619508D01*
X12829705Y-12619508D02*
X12839229Y-12629031D01*
X12839229Y-12629031D02*
X12848753Y-12648079D01*
X12848753Y-12648079D02*
X12848753Y-12667127D01*
X12848753Y-12667127D02*
X12839229Y-12695698D01*
X12839229Y-12695698D02*
X12724943Y-12809984D01*
X12724943Y-12809984D02*
X12848753Y-12809984D01*
X12972562Y-12609984D02*
X12991610Y-12609984D01*
X12991610Y-12609984D02*
X13010658Y-12619508D01*
X13010658Y-12619508D02*
X13020182Y-12629031D01*
X13020182Y-12629031D02*
X13029705Y-12648079D01*
X13029705Y-12648079D02*
X13039229Y-12686174D01*
X13039229Y-12686174D02*
X13039229Y-12733793D01*
X13039229Y-12733793D02*
X13029705Y-12771888D01*
X13029705Y-12771888D02*
X13020182Y-12790936D01*
X13020182Y-12790936D02*
X13010658Y-12800460D01*
X13010658Y-12800460D02*
X12991610Y-12809984D01*
X12991610Y-12809984D02*
X12972562Y-12809984D01*
X12972562Y-12809984D02*
X12953515Y-12800460D01*
X12953515Y-12800460D02*
X12943991Y-12790936D01*
X12943991Y-12790936D02*
X12934467Y-12771888D01*
X12934467Y-12771888D02*
X12924943Y-12733793D01*
X12924943Y-12733793D02*
X12924943Y-12686174D01*
X12924943Y-12686174D02*
X12934467Y-12648079D01*
X12934467Y-12648079D02*
X12943991Y-12629031D01*
X12943991Y-12629031D02*
X12953515Y-12619508D01*
X12953515Y-12619508D02*
X12972562Y-12609984D01*
X13163039Y-12609984D02*
X13182086Y-12609984D01*
X13182086Y-12609984D02*
X13201134Y-12619508D01*
X13201134Y-12619508D02*
X13210658Y-12629031D01*
X13210658Y-12629031D02*
X13220182Y-12648079D01*
X13220182Y-12648079D02*
X13229705Y-12686174D01*
X13229705Y-12686174D02*
X13229705Y-12733793D01*
X13229705Y-12733793D02*
X13220182Y-12771888D01*
X13220182Y-12771888D02*
X13210658Y-12790936D01*
X13210658Y-12790936D02*
X13201134Y-12800460D01*
X13201134Y-12800460D02*
X13182086Y-12809984D01*
X13182086Y-12809984D02*
X13163039Y-12809984D01*
X13163039Y-12809984D02*
X13143991Y-12800460D01*
X13143991Y-12800460D02*
X13134467Y-12790936D01*
X13134467Y-12790936D02*
X13124943Y-12771888D01*
X13124943Y-12771888D02*
X13115420Y-12733793D01*
X13115420Y-12733793D02*
X13115420Y-12686174D01*
X13115420Y-12686174D02*
X13124943Y-12648079D01*
X13124943Y-12648079D02*
X13134467Y-12629031D01*
X13134467Y-12629031D02*
X13143991Y-12619508D01*
X13143991Y-12619508D02*
X13163039Y-12609984D01*
X13315420Y-12809984D02*
X13315420Y-12676650D01*
X13315420Y-12695698D02*
X13324943Y-12686174D01*
X13324943Y-12686174D02*
X13343991Y-12676650D01*
X13343991Y-12676650D02*
X13372563Y-12676650D01*
X13372563Y-12676650D02*
X13391610Y-12686174D01*
X13391610Y-12686174D02*
X13401134Y-12705222D01*
X13401134Y-12705222D02*
X13401134Y-12809984D01*
X13401134Y-12705222D02*
X13410658Y-12686174D01*
X13410658Y-12686174D02*
X13429705Y-12676650D01*
X13429705Y-12676650D02*
X13458277Y-12676650D01*
X13458277Y-12676650D02*
X13477324Y-12686174D01*
X13477324Y-12686174D02*
X13486848Y-12705222D01*
X13486848Y-12705222D02*
X13486848Y-12809984D01*
X13582086Y-12809984D02*
X13582086Y-12676650D01*
X13582086Y-12695698D02*
X13591610Y-12686174D01*
X13591610Y-12686174D02*
X13610658Y-12676650D01*
X13610658Y-12676650D02*
X13639229Y-12676650D01*
X13639229Y-12676650D02*
X13658277Y-12686174D01*
X13658277Y-12686174D02*
X13667801Y-12705222D01*
X13667801Y-12705222D02*
X13667801Y-12809984D01*
X13667801Y-12705222D02*
X13677324Y-12686174D01*
X13677324Y-12686174D02*
X13696372Y-12676650D01*
X13696372Y-12676650D02*
X13724943Y-12676650D01*
X13724943Y-12676650D02*
X13743991Y-12686174D01*
X13743991Y-12686174D02*
X13753515Y-12705222D01*
X13753515Y-12705222D02*
X13753515Y-12809984D01*
X14143991Y-12600460D02*
X13972563Y-12857603D01*
X14401134Y-12609984D02*
X14420182Y-12609984D01*
X14420182Y-12609984D02*
X14439229Y-12619508D01*
X14439229Y-12619508D02*
X14448753Y-12629031D01*
X14448753Y-12629031D02*
X14458277Y-12648079D01*
X14458277Y-12648079D02*
X14467801Y-12686174D01*
X14467801Y-12686174D02*
X14467801Y-12733793D01*
X14467801Y-12733793D02*
X14458277Y-12771888D01*
X14458277Y-12771888D02*
X14448753Y-12790936D01*
X14448753Y-12790936D02*
X14439229Y-12800460D01*
X14439229Y-12800460D02*
X14420182Y-12809984D01*
X14420182Y-12809984D02*
X14401134Y-12809984D01*
X14401134Y-12809984D02*
X14382086Y-12800460D01*
X14382086Y-12800460D02*
X14372563Y-12790936D01*
X14372563Y-12790936D02*
X14363039Y-12771888D01*
X14363039Y-12771888D02*
X14353515Y-12733793D01*
X14353515Y-12733793D02*
X14353515Y-12686174D01*
X14353515Y-12686174D02*
X14363039Y-12648079D01*
X14363039Y-12648079D02*
X14372563Y-12629031D01*
X14372563Y-12629031D02*
X14382086Y-12619508D01*
X14382086Y-12619508D02*
X14401134Y-12609984D01*
X14553515Y-12790936D02*
X14563039Y-12800460D01*
X14563039Y-12800460D02*
X14553515Y-12809984D01*
X14553515Y-12809984D02*
X14543991Y-12800460D01*
X14543991Y-12800460D02*
X14553515Y-12790936D01*
X14553515Y-12790936D02*
X14553515Y-12809984D01*
X14686848Y-12609984D02*
X14705896Y-12609984D01*
X14705896Y-12609984D02*
X14724944Y-12619508D01*
X14724944Y-12619508D02*
X14734467Y-12629031D01*
X14734467Y-12629031D02*
X14743991Y-12648079D01*
X14743991Y-12648079D02*
X14753515Y-12686174D01*
X14753515Y-12686174D02*
X14753515Y-12733793D01*
X14753515Y-12733793D02*
X14743991Y-12771888D01*
X14743991Y-12771888D02*
X14734467Y-12790936D01*
X14734467Y-12790936D02*
X14724944Y-12800460D01*
X14724944Y-12800460D02*
X14705896Y-12809984D01*
X14705896Y-12809984D02*
X14686848Y-12809984D01*
X14686848Y-12809984D02*
X14667801Y-12800460D01*
X14667801Y-12800460D02*
X14658277Y-12790936D01*
X14658277Y-12790936D02*
X14648753Y-12771888D01*
X14648753Y-12771888D02*
X14639229Y-12733793D01*
X14639229Y-12733793D02*
X14639229Y-12686174D01*
X14639229Y-12686174D02*
X14648753Y-12648079D01*
X14648753Y-12648079D02*
X14658277Y-12629031D01*
X14658277Y-12629031D02*
X14667801Y-12619508D01*
X14667801Y-12619508D02*
X14686848Y-12609984D01*
X14867801Y-12695698D02*
X14848753Y-12686174D01*
X14848753Y-12686174D02*
X14839229Y-12676650D01*
X14839229Y-12676650D02*
X14829706Y-12657603D01*
X14829706Y-12657603D02*
X14829706Y-12648079D01*
X14829706Y-12648079D02*
X14839229Y-12629031D01*
X14839229Y-12629031D02*
X14848753Y-12619508D01*
X14848753Y-12619508D02*
X14867801Y-12609984D01*
X14867801Y-12609984D02*
X14905896Y-12609984D01*
X14905896Y-12609984D02*
X14924944Y-12619508D01*
X14924944Y-12619508D02*
X14934467Y-12629031D01*
X14934467Y-12629031D02*
X14943991Y-12648079D01*
X14943991Y-12648079D02*
X14943991Y-12657603D01*
X14943991Y-12657603D02*
X14934467Y-12676650D01*
X14934467Y-12676650D02*
X14924944Y-12686174D01*
X14924944Y-12686174D02*
X14905896Y-12695698D01*
X14905896Y-12695698D02*
X14867801Y-12695698D01*
X14867801Y-12695698D02*
X14848753Y-12705222D01*
X14848753Y-12705222D02*
X14839229Y-12714746D01*
X14839229Y-12714746D02*
X14829706Y-12733793D01*
X14829706Y-12733793D02*
X14829706Y-12771888D01*
X14829706Y-12771888D02*
X14839229Y-12790936D01*
X14839229Y-12790936D02*
X14848753Y-12800460D01*
X14848753Y-12800460D02*
X14867801Y-12809984D01*
X14867801Y-12809984D02*
X14905896Y-12809984D01*
X14905896Y-12809984D02*
X14924944Y-12800460D01*
X14924944Y-12800460D02*
X14934467Y-12790936D01*
X14934467Y-12790936D02*
X14943991Y-12771888D01*
X14943991Y-12771888D02*
X14943991Y-12733793D01*
X14943991Y-12733793D02*
X14934467Y-12714746D01*
X14934467Y-12714746D02*
X14924944Y-12705222D01*
X14924944Y-12705222D02*
X14905896Y-12695698D01*
X15115420Y-12609984D02*
X15077325Y-12609984D01*
X15077325Y-12609984D02*
X15058277Y-12619508D01*
X15058277Y-12619508D02*
X15048753Y-12629031D01*
X15048753Y-12629031D02*
X15029706Y-12657603D01*
X15029706Y-12657603D02*
X15020182Y-12695698D01*
X15020182Y-12695698D02*
X15020182Y-12771888D01*
X15020182Y-12771888D02*
X15029706Y-12790936D01*
X15029706Y-12790936D02*
X15039229Y-12800460D01*
X15039229Y-12800460D02*
X15058277Y-12809984D01*
X15058277Y-12809984D02*
X15096372Y-12809984D01*
X15096372Y-12809984D02*
X15115420Y-12800460D01*
X15115420Y-12800460D02*
X15124944Y-12790936D01*
X15124944Y-12790936D02*
X15134467Y-12771888D01*
X15134467Y-12771888D02*
X15134467Y-12724269D01*
X15134467Y-12724269D02*
X15124944Y-12705222D01*
X15124944Y-12705222D02*
X15115420Y-12695698D01*
X15115420Y-12695698D02*
X15096372Y-12686174D01*
X15096372Y-12686174D02*
X15058277Y-12686174D01*
X15058277Y-12686174D02*
X15039229Y-12695698D01*
X15039229Y-12695698D02*
X15029706Y-12705222D01*
X15029706Y-12705222D02*
X15020182Y-12724269D01*
X15305896Y-12609984D02*
X15267801Y-12609984D01*
X15267801Y-12609984D02*
X15248753Y-12619508D01*
X15248753Y-12619508D02*
X15239229Y-12629031D01*
X15239229Y-12629031D02*
X15220182Y-12657603D01*
X15220182Y-12657603D02*
X15210658Y-12695698D01*
X15210658Y-12695698D02*
X15210658Y-12771888D01*
X15210658Y-12771888D02*
X15220182Y-12790936D01*
X15220182Y-12790936D02*
X15229706Y-12800460D01*
X15229706Y-12800460D02*
X15248753Y-12809984D01*
X15248753Y-12809984D02*
X15286848Y-12809984D01*
X15286848Y-12809984D02*
X15305896Y-12800460D01*
X15305896Y-12800460D02*
X15315420Y-12790936D01*
X15315420Y-12790936D02*
X15324944Y-12771888D01*
X15324944Y-12771888D02*
X15324944Y-12724269D01*
X15324944Y-12724269D02*
X15315420Y-12705222D01*
X15315420Y-12705222D02*
X15305896Y-12695698D01*
X15305896Y-12695698D02*
X15286848Y-12686174D01*
X15286848Y-12686174D02*
X15248753Y-12686174D01*
X15248753Y-12686174D02*
X15229706Y-12695698D01*
X15229706Y-12695698D02*
X15220182Y-12705222D01*
X15220182Y-12705222D02*
X15210658Y-12724269D01*
X15401134Y-12609984D02*
X15401134Y-12648079D01*
X15477325Y-12609984D02*
X15477325Y-12648079D01*
X15772563Y-12886174D02*
X15763039Y-12876650D01*
X15763039Y-12876650D02*
X15743991Y-12848079D01*
X15743991Y-12848079D02*
X15734468Y-12829031D01*
X15734468Y-12829031D02*
X15724944Y-12800460D01*
X15724944Y-12800460D02*
X15715420Y-12752841D01*
X15715420Y-12752841D02*
X15715420Y-12714746D01*
X15715420Y-12714746D02*
X15724944Y-12667127D01*
X15724944Y-12667127D02*
X15734468Y-12638555D01*
X15734468Y-12638555D02*
X15743991Y-12619508D01*
X15743991Y-12619508D02*
X15763039Y-12590936D01*
X15763039Y-12590936D02*
X15772563Y-12581412D01*
X15839229Y-12629031D02*
X15848753Y-12619508D01*
X15848753Y-12619508D02*
X15867801Y-12609984D01*
X15867801Y-12609984D02*
X15915420Y-12609984D01*
X15915420Y-12609984D02*
X15934468Y-12619508D01*
X15934468Y-12619508D02*
X15943991Y-12629031D01*
X15943991Y-12629031D02*
X15953515Y-12648079D01*
X15953515Y-12648079D02*
X15953515Y-12667127D01*
X15953515Y-12667127D02*
X15943991Y-12695698D01*
X15943991Y-12695698D02*
X15829706Y-12809984D01*
X15829706Y-12809984D02*
X15953515Y-12809984D01*
X16191610Y-12809984D02*
X16191610Y-12609984D01*
X16277325Y-12809984D02*
X16277325Y-12705222D01*
X16277325Y-12705222D02*
X16267801Y-12686174D01*
X16267801Y-12686174D02*
X16248753Y-12676650D01*
X16248753Y-12676650D02*
X16220182Y-12676650D01*
X16220182Y-12676650D02*
X16201134Y-12686174D01*
X16201134Y-12686174D02*
X16191610Y-12695698D01*
X16401134Y-12809984D02*
X16382087Y-12800460D01*
X16382087Y-12800460D02*
X16372563Y-12790936D01*
X16372563Y-12790936D02*
X16363039Y-12771888D01*
X16363039Y-12771888D02*
X16363039Y-12714746D01*
X16363039Y-12714746D02*
X16372563Y-12695698D01*
X16372563Y-12695698D02*
X16382087Y-12686174D01*
X16382087Y-12686174D02*
X16401134Y-12676650D01*
X16401134Y-12676650D02*
X16429706Y-12676650D01*
X16429706Y-12676650D02*
X16448753Y-12686174D01*
X16448753Y-12686174D02*
X16458277Y-12695698D01*
X16458277Y-12695698D02*
X16467801Y-12714746D01*
X16467801Y-12714746D02*
X16467801Y-12771888D01*
X16467801Y-12771888D02*
X16458277Y-12790936D01*
X16458277Y-12790936D02*
X16448753Y-12800460D01*
X16448753Y-12800460D02*
X16429706Y-12809984D01*
X16429706Y-12809984D02*
X16401134Y-12809984D01*
X16582087Y-12809984D02*
X16563039Y-12800460D01*
X16563039Y-12800460D02*
X16553515Y-12781412D01*
X16553515Y-12781412D02*
X16553515Y-12609984D01*
X16734468Y-12800460D02*
X16715420Y-12809984D01*
X16715420Y-12809984D02*
X16677325Y-12809984D01*
X16677325Y-12809984D02*
X16658277Y-12800460D01*
X16658277Y-12800460D02*
X16648753Y-12781412D01*
X16648753Y-12781412D02*
X16648753Y-12705222D01*
X16648753Y-12705222D02*
X16658277Y-12686174D01*
X16658277Y-12686174D02*
X16677325Y-12676650D01*
X16677325Y-12676650D02*
X16715420Y-12676650D01*
X16715420Y-12676650D02*
X16734468Y-12686174D01*
X16734468Y-12686174D02*
X16743991Y-12705222D01*
X16743991Y-12705222D02*
X16743991Y-12724269D01*
X16743991Y-12724269D02*
X16648753Y-12743317D01*
X16820182Y-12800460D02*
X16839230Y-12809984D01*
X16839230Y-12809984D02*
X16877325Y-12809984D01*
X16877325Y-12809984D02*
X16896373Y-12800460D01*
X16896373Y-12800460D02*
X16905896Y-12781412D01*
X16905896Y-12781412D02*
X16905896Y-12771888D01*
X16905896Y-12771888D02*
X16896373Y-12752841D01*
X16896373Y-12752841D02*
X16877325Y-12743317D01*
X16877325Y-12743317D02*
X16848753Y-12743317D01*
X16848753Y-12743317D02*
X16829706Y-12733793D01*
X16829706Y-12733793D02*
X16820182Y-12714746D01*
X16820182Y-12714746D02*
X16820182Y-12705222D01*
X16820182Y-12705222D02*
X16829706Y-12686174D01*
X16829706Y-12686174D02*
X16848753Y-12676650D01*
X16848753Y-12676650D02*
X16877325Y-12676650D01*
X16877325Y-12676650D02*
X16896373Y-12686174D01*
X16972563Y-12886174D02*
X16982087Y-12876650D01*
X16982087Y-12876650D02*
X17001134Y-12848079D01*
X17001134Y-12848079D02*
X17010658Y-12829031D01*
X17010658Y-12829031D02*
X17020182Y-12800460D01*
X17020182Y-12800460D02*
X17029706Y-12752841D01*
X17029706Y-12752841D02*
X17029706Y-12714746D01*
X17029706Y-12714746D02*
X17020182Y-12667127D01*
X17020182Y-12667127D02*
X17010658Y-12638555D01*
X17010658Y-12638555D02*
X17001134Y-12619508D01*
X17001134Y-12619508D02*
X16982087Y-12590936D01*
X16982087Y-12590936D02*
X16972563Y-12581412D01*
M02*
