G04 #@! TF.GenerationSoftware,KiCad,Pcbnew,9.0.2-9.0.2-0~ubuntu24.04.1*
G04 #@! TF.CreationDate,2025-05-13T17:43:29+02:00*
G04 #@! TF.ProjectId,RCFavoritControlBoard,52434661-766f-4726-9974-436f6e74726f,rev?*
G04 #@! TF.SameCoordinates,Original*
G04 #@! TF.FileFunction,Copper,L2,Bot*
G04 #@! TF.FilePolarity,Positive*
%FSLAX46Y46*%
G04 Gerber Fmt 4.6, Leading zero omitted, Abs format (unit mm)*
G04 Created by KiCad (PCBNEW 9.0.2-9.0.2-0~ubuntu24.04.1) date 2025-05-13 17:43:29*
%MOMM*%
%LPD*%
G01*
G04 APERTURE LIST*
G04 Aperture macros list*
%AMRoundRect*
0 Rectangle with rounded corners*
0 $1 Rounding radius*
0 $2 $3 $4 $5 $6 $7 $8 $9 X,Y pos of 4 corners*
0 Add a 4 corners polygon primitive as box body*
4,1,4,$2,$3,$4,$5,$6,$7,$8,$9,$2,$3,0*
0 Add four circle primitives for the rounded corners*
1,1,$1+$1,$2,$3*
1,1,$1+$1,$4,$5*
1,1,$1+$1,$6,$7*
1,1,$1+$1,$8,$9*
0 Add four rect primitives between the rounded corners*
20,1,$1+$1,$2,$3,$4,$5,0*
20,1,$1+$1,$4,$5,$6,$7,0*
20,1,$1+$1,$6,$7,$8,$9,0*
20,1,$1+$1,$8,$9,$2,$3,0*%
G04 Aperture macros list end*
G04 #@! TA.AperFunction,HeatsinkPad*
%ADD10C,0.500000*%
G04 #@! TD*
G04 #@! TA.AperFunction,HeatsinkPad*
%ADD11R,2.000000X3.500000*%
G04 #@! TD*
G04 #@! TA.AperFunction,ComponentPad*
%ADD12C,4.400000*%
G04 #@! TD*
G04 #@! TA.AperFunction,ComponentPad*
%ADD13RoundRect,0.750000X0.750000X-0.750000X0.750000X0.750000X-0.750000X0.750000X-0.750000X-0.750000X0*%
G04 #@! TD*
G04 #@! TA.AperFunction,ComponentPad*
%ADD14C,3.000000*%
G04 #@! TD*
G04 #@! TA.AperFunction,ComponentPad*
%ADD15R,1.700000X1.700000*%
G04 #@! TD*
G04 #@! TA.AperFunction,ComponentPad*
%ADD16C,1.700000*%
G04 #@! TD*
G04 #@! TA.AperFunction,ViaPad*
%ADD17C,0.600000*%
G04 #@! TD*
G04 #@! TA.AperFunction,ViaPad*
%ADD18C,0.800000*%
G04 #@! TD*
G04 #@! TA.AperFunction,Conductor*
%ADD19C,0.350000*%
G04 #@! TD*
G04 #@! TA.AperFunction,Conductor*
%ADD20C,0.750000*%
G04 #@! TD*
G04 #@! TA.AperFunction,Conductor*
%ADD21C,0.300000*%
G04 #@! TD*
G04 APERTURE END LIST*
D10*
G04 #@! TO.P,U3,17,GND*
G04 #@! TO.N,GND*
X154612500Y-101825000D03*
X154612500Y-100325000D03*
X154612500Y-98825000D03*
D11*
X153862500Y-100325000D03*
D10*
X153112500Y-101825000D03*
X153112500Y-100325000D03*
X153112500Y-98825000D03*
G04 #@! TD*
D12*
G04 #@! TO.P,H2,1,1*
G04 #@! TO.N,GND*
X125000000Y-79000000D03*
G04 #@! TD*
G04 #@! TO.P,H1,1,1*
G04 #@! TO.N,GND*
X169000000Y-104000000D03*
G04 #@! TD*
D13*
G04 #@! TO.P,VBAT,1,Pin_1*
G04 #@! TO.N,GND*
X168800000Y-86400000D03*
D14*
G04 #@! TO.P,VBAT,2,Pin_2*
G04 #@! TO.N,VBAT*
X168800000Y-81400000D03*
G04 #@! TD*
D15*
G04 #@! TO.P,MOTOR,1,Pin_1*
G04 #@! TO.N,Motor+*
X169800000Y-98675000D03*
D16*
G04 #@! TO.P,MOTOR,2,Pin_2*
G04 #@! TO.N,Motor-*
X169800000Y-96135000D03*
G04 #@! TD*
D15*
G04 #@! TO.P,J3,1,Pin_1*
G04 #@! TO.N,SERVO_PWM*
X141560000Y-78500000D03*
D16*
G04 #@! TO.P,J3,2,Pin_2*
G04 #@! TO.N,+6V*
X144100000Y-78500000D03*
G04 #@! TO.P,J3,3,Pin_3*
G04 #@! TO.N,GND*
X146640000Y-78500000D03*
G04 #@! TD*
D17*
G04 #@! TO.N,GND*
X165000000Y-78500000D03*
X150500000Y-80000000D03*
X164000000Y-104000000D03*
X159000000Y-104000000D03*
X123500000Y-83000000D03*
X133000000Y-77000000D03*
X129000000Y-101000000D03*
X137000000Y-96500000D03*
X137000000Y-100000000D03*
X142000000Y-100000000D03*
X142000000Y-96500000D03*
X142000000Y-92500000D03*
X137000000Y-92500000D03*
X132000000Y-92500000D03*
X127000000Y-92500000D03*
D18*
X157050000Y-92500000D03*
X132500000Y-81000000D03*
X154500000Y-92500000D03*
X129800000Y-86500000D03*
X138700000Y-81500000D03*
X163450000Y-95050000D03*
X141400000Y-82000000D03*
X152500000Y-93500000D03*
X128700000Y-86500000D03*
X134200000Y-80500000D03*
X153100000Y-91000000D03*
X165900000Y-93950000D03*
X148900000Y-103800000D03*
X158000000Y-92500000D03*
X133400000Y-81000000D03*
X147200000Y-103850000D03*
X163450000Y-96150000D03*
X146250000Y-103850000D03*
X163450000Y-94150000D03*
X153700000Y-91800000D03*
X164950000Y-93950000D03*
X163450000Y-97150000D03*
X162400000Y-92500000D03*
X131500000Y-80300000D03*
X164050000Y-92850000D03*
G04 #@! TO.N,+6V*
X156000000Y-87300000D03*
X146825000Y-97500000D03*
X153700000Y-104300000D03*
X156000000Y-94600000D03*
G04 #@! TO.N,VBAT*
X163400000Y-88800000D03*
X159378682Y-88801037D03*
G04 #@! TD*
D19*
G04 #@! TO.N,+6V*
X153700000Y-104300000D02*
X152250000Y-102850000D01*
X152250000Y-102850000D02*
X152250000Y-98850000D01*
X152250000Y-98850000D02*
X150900000Y-97500000D01*
D20*
X156000000Y-94600000D02*
X156000000Y-87300000D01*
D19*
X150900000Y-97500000D02*
X146825000Y-97500000D01*
D21*
G04 #@! TO.N,VBAT*
X163398963Y-88801037D02*
X163400000Y-88800000D01*
X163400000Y-88800000D02*
X159379719Y-88800000D01*
X159379719Y-88800000D02*
X159378682Y-88801037D01*
G04 #@! TD*
G04 #@! TA.AperFunction,Conductor*
G04 #@! TO.N,GND*
G36*
X169203472Y-76075695D02*
G01*
X169520498Y-76093499D01*
X169534296Y-76095053D01*
X169843895Y-76147656D01*
X169857449Y-76150749D01*
X170008331Y-76194218D01*
X170159212Y-76237686D01*
X170172338Y-76242279D01*
X170462465Y-76362454D01*
X170474979Y-76368480D01*
X170749848Y-76520395D01*
X170761604Y-76527782D01*
X171017716Y-76709504D01*
X171028576Y-76718164D01*
X171262741Y-76927425D01*
X171272572Y-76937256D01*
X171462691Y-77150000D01*
X171481831Y-77171417D01*
X171490497Y-77182285D01*
X171668948Y-77433788D01*
X171672211Y-77438386D01*
X171679607Y-77450156D01*
X171774826Y-77622441D01*
X171831515Y-77725013D01*
X171837548Y-77737541D01*
X171957720Y-78027662D01*
X171962313Y-78040787D01*
X172049249Y-78342548D01*
X172052343Y-78356105D01*
X172104944Y-78665693D01*
X172106501Y-78679511D01*
X172124305Y-78996527D01*
X172124500Y-79003480D01*
X172124500Y-103996753D01*
X172124330Y-104003243D01*
X172107723Y-104320112D01*
X172106366Y-104333020D01*
X172057239Y-104643198D01*
X172054541Y-104655894D01*
X171973258Y-104959246D01*
X171969247Y-104971589D01*
X171856702Y-105264780D01*
X171851423Y-105276638D01*
X171708844Y-105556464D01*
X171702354Y-105567704D01*
X171531315Y-105831082D01*
X171523686Y-105841583D01*
X171326042Y-106085652D01*
X171317357Y-106095297D01*
X171095297Y-106317357D01*
X171085652Y-106326042D01*
X170841583Y-106523686D01*
X170831082Y-106531315D01*
X170567704Y-106702354D01*
X170556464Y-106708844D01*
X170276638Y-106851423D01*
X170264780Y-106856702D01*
X169971589Y-106969247D01*
X169959246Y-106973258D01*
X169655894Y-107054541D01*
X169643198Y-107057239D01*
X169333020Y-107106366D01*
X169320112Y-107107723D01*
X169003244Y-107124330D01*
X168996754Y-107124500D01*
X125003378Y-107124500D01*
X124996614Y-107124315D01*
X124971783Y-107122958D01*
X124688165Y-107107463D01*
X124674725Y-107105990D01*
X124373264Y-107056184D01*
X124360073Y-107053257D01*
X124065863Y-106970915D01*
X124053052Y-106966564D01*
X123769548Y-106852653D01*
X123757289Y-106846932D01*
X123487885Y-106702817D01*
X123476322Y-106695794D01*
X123224225Y-106523189D01*
X123213506Y-106514956D01*
X122981704Y-106315908D01*
X122971947Y-106306559D01*
X122763214Y-106083447D01*
X122754523Y-106073078D01*
X122571335Y-105828550D01*
X122563827Y-105817296D01*
X122545574Y-105786413D01*
X122408374Y-105554276D01*
X122402139Y-105542275D01*
X122378090Y-105489087D01*
X122276260Y-105263875D01*
X122271376Y-105251285D01*
X122176574Y-104960825D01*
X122173086Y-104947759D01*
X122110492Y-104648700D01*
X122108450Y-104635353D01*
X122078808Y-104331253D01*
X122078233Y-104317741D01*
X122078954Y-104257584D01*
X122081977Y-104005465D01*
X122081978Y-104005465D01*
X122083609Y-103980988D01*
X122078339Y-103972615D01*
X122075931Y-103943812D01*
X122076462Y-103941217D01*
X122075500Y-103933480D01*
X122075500Y-97568995D01*
X146124499Y-97568995D01*
X146151418Y-97704322D01*
X146151421Y-97704332D01*
X146204221Y-97831804D01*
X146204228Y-97831817D01*
X146280885Y-97946541D01*
X146280888Y-97946545D01*
X146378454Y-98044111D01*
X146378458Y-98044114D01*
X146493182Y-98120771D01*
X146493195Y-98120778D01*
X146557518Y-98147421D01*
X146620672Y-98173580D01*
X146620676Y-98173580D01*
X146620677Y-98173581D01*
X146756004Y-98200500D01*
X146756007Y-98200500D01*
X146893995Y-98200500D01*
X146985041Y-98182389D01*
X147029328Y-98173580D01*
X147156811Y-98120775D01*
X147271542Y-98044114D01*
X147303836Y-98011820D01*
X147365158Y-97978334D01*
X147391518Y-97975500D01*
X150651679Y-97975500D01*
X150718718Y-97995185D01*
X150739360Y-98011819D01*
X151738181Y-99010640D01*
X151771666Y-99071963D01*
X151774500Y-99098321D01*
X151774500Y-102787399D01*
X151774500Y-102912601D01*
X151788576Y-102965133D01*
X151806905Y-103033536D01*
X151869504Y-103141962D01*
X151869506Y-103141965D01*
X152963181Y-104235639D01*
X152996666Y-104296962D01*
X152999500Y-104323320D01*
X152999500Y-104368993D01*
X152999500Y-104368995D01*
X152999499Y-104368995D01*
X153026418Y-104504322D01*
X153026421Y-104504332D01*
X153079221Y-104631804D01*
X153079228Y-104631817D01*
X153155885Y-104746541D01*
X153155888Y-104746545D01*
X153253454Y-104844111D01*
X153253458Y-104844114D01*
X153368182Y-104920771D01*
X153368195Y-104920778D01*
X153476223Y-104965524D01*
X153495672Y-104973580D01*
X153495676Y-104973580D01*
X153495677Y-104973581D01*
X153631004Y-105000500D01*
X153631007Y-105000500D01*
X153768995Y-105000500D01*
X153860041Y-104982389D01*
X153904328Y-104973580D01*
X154031811Y-104920775D01*
X154146542Y-104844114D01*
X154244114Y-104746542D01*
X154320775Y-104631811D01*
X154373580Y-104504328D01*
X154400500Y-104368993D01*
X154400500Y-104231007D01*
X154400500Y-104231004D01*
X154373581Y-104095677D01*
X154373580Y-104095676D01*
X154373580Y-104095672D01*
X154369811Y-104086572D01*
X154320778Y-103968195D01*
X154320774Y-103968188D01*
X154320718Y-103968104D01*
X154244114Y-103853458D01*
X154244111Y-103853454D01*
X154239023Y-103848366D01*
X166300000Y-103848366D01*
X166300000Y-104151633D01*
X166333952Y-104452966D01*
X166333954Y-104452982D01*
X166401434Y-104748633D01*
X166401438Y-104748645D01*
X166501592Y-105034866D01*
X166501598Y-105034880D01*
X166633172Y-105308096D01*
X166768856Y-105524035D01*
X167953626Y-104339266D01*
X167980590Y-104422253D01*
X168059196Y-104576525D01*
X168160967Y-104716602D01*
X168283398Y-104839033D01*
X168423475Y-104940804D01*
X168577747Y-105019410D01*
X168660732Y-105046373D01*
X167475963Y-106231142D01*
X167475962Y-106231142D01*
X167691903Y-106366827D01*
X167965119Y-106498401D01*
X167965133Y-106498407D01*
X168251354Y-106598561D01*
X168251366Y-106598565D01*
X168547017Y-106666045D01*
X168547033Y-106666047D01*
X168848366Y-106699999D01*
X168848368Y-106700000D01*
X169151632Y-106700000D01*
X169151633Y-106699999D01*
X169452966Y-106666047D01*
X169452982Y-106666045D01*
X169748633Y-106598565D01*
X169748645Y-106598561D01*
X170034866Y-106498407D01*
X170034880Y-106498401D01*
X170308096Y-106366827D01*
X170524035Y-106231142D01*
X169339267Y-105046373D01*
X169422253Y-105019410D01*
X169576525Y-104940804D01*
X169716602Y-104839033D01*
X169839033Y-104716602D01*
X169940804Y-104576525D01*
X170019410Y-104422253D01*
X170046373Y-104339266D01*
X171231142Y-105524035D01*
X171366827Y-105308096D01*
X171498401Y-105034880D01*
X171498407Y-105034866D01*
X171598561Y-104748645D01*
X171598565Y-104748633D01*
X171666045Y-104452982D01*
X171666047Y-104452966D01*
X171699999Y-104151633D01*
X171700000Y-104151631D01*
X171700000Y-103848368D01*
X171699999Y-103848366D01*
X171666047Y-103547033D01*
X171666045Y-103547017D01*
X171598565Y-103251366D01*
X171598561Y-103251354D01*
X171498407Y-102965133D01*
X171498401Y-102965119D01*
X171366827Y-102691903D01*
X171231142Y-102475963D01*
X170046373Y-103660731D01*
X170019410Y-103577747D01*
X169940804Y-103423475D01*
X169839033Y-103283398D01*
X169716602Y-103160967D01*
X169576525Y-103059196D01*
X169422253Y-102980590D01*
X169339267Y-102953626D01*
X170524035Y-101768856D01*
X170524036Y-101768856D01*
X170308096Y-101633172D01*
X170034880Y-101501598D01*
X170034866Y-101501592D01*
X169748645Y-101401438D01*
X169748633Y-101401434D01*
X169452982Y-101333954D01*
X169452966Y-101333952D01*
X169151633Y-101300000D01*
X168848366Y-101300000D01*
X168547033Y-101333952D01*
X168547017Y-101333954D01*
X168251366Y-101401434D01*
X168251354Y-101401438D01*
X167965133Y-101501592D01*
X167965119Y-101501598D01*
X167691903Y-101633172D01*
X167475963Y-101768856D01*
X168660733Y-102953626D01*
X168577747Y-102980590D01*
X168423475Y-103059196D01*
X168283398Y-103160967D01*
X168160967Y-103283398D01*
X168059196Y-103423475D01*
X167980590Y-103577747D01*
X167953626Y-103660732D01*
X166768856Y-102475962D01*
X166633172Y-102691903D01*
X166501598Y-102965119D01*
X166501592Y-102965133D01*
X166401438Y-103251354D01*
X166401434Y-103251366D01*
X166333954Y-103547017D01*
X166333952Y-103547033D01*
X166300000Y-103848366D01*
X154239023Y-103848366D01*
X154146545Y-103755888D01*
X154146541Y-103755885D01*
X154031817Y-103679228D01*
X154031804Y-103679221D01*
X153904332Y-103626421D01*
X153904322Y-103626418D01*
X153768995Y-103599500D01*
X153768993Y-103599500D01*
X153723320Y-103599500D01*
X153656281Y-103579815D01*
X153635639Y-103563181D01*
X152839375Y-102766916D01*
X152805890Y-102705593D01*
X152810874Y-102635901D01*
X152852746Y-102579968D01*
X152918210Y-102555551D01*
X152951248Y-102557618D01*
X153038629Y-102575000D01*
X153186371Y-102575000D01*
X153186373Y-102574999D01*
X153331260Y-102546179D01*
X153331275Y-102546175D01*
X153436524Y-102502578D01*
X153436524Y-102502577D01*
X154288475Y-102502577D01*
X154393736Y-102546178D01*
X154393740Y-102546179D01*
X154538626Y-102574999D01*
X154538629Y-102575000D01*
X154686371Y-102575000D01*
X154686373Y-102574999D01*
X154831260Y-102546179D01*
X154831275Y-102546175D01*
X154936524Y-102502578D01*
X154936524Y-102502577D01*
X154612501Y-102178554D01*
X154612500Y-102178554D01*
X154288475Y-102502577D01*
X153436524Y-102502577D01*
X153023404Y-102089457D01*
X152989919Y-102028134D01*
X152994903Y-101958442D01*
X153023404Y-101914094D01*
X153041788Y-101895709D01*
X153055855Y-101909776D01*
X153092609Y-101925000D01*
X153132391Y-101925000D01*
X153169145Y-101909776D01*
X153197276Y-101881645D01*
X153212500Y-101844891D01*
X153212500Y-101824999D01*
X153466054Y-101824999D01*
X153466054Y-101825001D01*
X153790076Y-102149023D01*
X153838307Y-102139430D01*
X153886691Y-102139430D01*
X153934922Y-102149024D01*
X154258946Y-101825000D01*
X154258946Y-101824999D01*
X154239056Y-101805109D01*
X154512500Y-101805109D01*
X154512500Y-101844891D01*
X154527724Y-101881645D01*
X154555855Y-101909776D01*
X154592609Y-101925000D01*
X154632391Y-101925000D01*
X154669145Y-101909776D01*
X154697276Y-101881645D01*
X154712500Y-101844891D01*
X154712500Y-101824999D01*
X154966054Y-101824999D01*
X154966054Y-101825001D01*
X155290077Y-102149024D01*
X155290078Y-102149024D01*
X155333675Y-102043775D01*
X155333679Y-102043760D01*
X155362499Y-101898873D01*
X155362500Y-101898871D01*
X155362500Y-101751128D01*
X155362499Y-101751126D01*
X155333679Y-101606240D01*
X155333678Y-101606236D01*
X155290077Y-101500975D01*
X154966054Y-101824999D01*
X154712500Y-101824999D01*
X154712500Y-101805109D01*
X154697276Y-101768355D01*
X154669145Y-101740224D01*
X154632391Y-101725000D01*
X154592609Y-101725000D01*
X154555855Y-101740224D01*
X154527724Y-101768355D01*
X154512500Y-101805109D01*
X154239056Y-101805109D01*
X153934921Y-101500974D01*
X153886690Y-101510568D01*
X153838308Y-101510568D01*
X153790077Y-101500974D01*
X153466054Y-101824999D01*
X153212500Y-101824999D01*
X153212500Y-101805109D01*
X153197276Y-101768355D01*
X153169145Y-101740224D01*
X153132391Y-101725000D01*
X153092609Y-101725000D01*
X153055855Y-101740224D01*
X153041789Y-101754289D01*
X153023404Y-101735904D01*
X152989919Y-101674581D01*
X152994903Y-101604889D01*
X153023404Y-101560542D01*
X153436524Y-101147421D01*
X153426930Y-101099191D01*
X153426930Y-101090853D01*
X153425040Y-101086050D01*
X153426930Y-101050807D01*
X153436523Y-101002577D01*
X154288474Y-101002577D01*
X154298068Y-101050808D01*
X154298068Y-101099190D01*
X154288474Y-101147421D01*
X154612500Y-101471446D01*
X154612501Y-101471446D01*
X154936524Y-101147422D01*
X154926930Y-101099191D01*
X154926930Y-101050807D01*
X154936523Y-101002576D01*
X154612501Y-100678554D01*
X154612500Y-100678554D01*
X154288474Y-101002577D01*
X153436523Y-101002577D01*
X153436523Y-101002576D01*
X153023404Y-100589457D01*
X152989919Y-100528134D01*
X152994903Y-100458442D01*
X153023404Y-100414094D01*
X153041788Y-100395709D01*
X153055855Y-100409776D01*
X153092609Y-100425000D01*
X153132391Y-100425000D01*
X153169145Y-100409776D01*
X153197276Y-100381645D01*
X153212500Y-100344891D01*
X153212500Y-100324999D01*
X153466054Y-100324999D01*
X153466054Y-100325001D01*
X153790076Y-100649023D01*
X153838307Y-100639430D01*
X153886691Y-100639430D01*
X153934922Y-100649024D01*
X154258946Y-100325000D01*
X154258946Y-100324999D01*
X154239056Y-100305109D01*
X154512500Y-100305109D01*
X154512500Y-100344891D01*
X154527724Y-100381645D01*
X154555855Y-100409776D01*
X154592609Y-100425000D01*
X154632391Y-100425000D01*
X154669145Y-100409776D01*
X154697276Y-100381645D01*
X154712500Y-100344891D01*
X154712500Y-100324999D01*
X154966054Y-100324999D01*
X154966054Y-100325001D01*
X155290077Y-100649024D01*
X155290078Y-100649024D01*
X155333675Y-100543775D01*
X155333679Y-100543760D01*
X155362499Y-100398873D01*
X155362500Y-100398871D01*
X155362500Y-100251128D01*
X155362499Y-100251126D01*
X155333679Y-100106240D01*
X155333678Y-100106236D01*
X155290077Y-100000975D01*
X154966054Y-100324999D01*
X154712500Y-100324999D01*
X154712500Y-100305109D01*
X154697276Y-100268355D01*
X154669145Y-100240224D01*
X154632391Y-100225000D01*
X154592609Y-100225000D01*
X154555855Y-100240224D01*
X154527724Y-100268355D01*
X154512500Y-100305109D01*
X154239056Y-100305109D01*
X153934921Y-100000974D01*
X153886690Y-100010568D01*
X153838308Y-100010568D01*
X153790077Y-100000974D01*
X153466054Y-100324999D01*
X153212500Y-100324999D01*
X153212500Y-100305109D01*
X153197276Y-100268355D01*
X153169145Y-100240224D01*
X153132391Y-100225000D01*
X153092609Y-100225000D01*
X153055855Y-100240224D01*
X153041789Y-100254289D01*
X153023404Y-100235904D01*
X152989919Y-100174581D01*
X152994903Y-100104889D01*
X153023404Y-100060542D01*
X153436524Y-99647421D01*
X153426930Y-99599191D01*
X153426930Y-99590853D01*
X153425040Y-99586050D01*
X153426930Y-99550807D01*
X153436523Y-99502577D01*
X154288474Y-99502577D01*
X154298068Y-99550808D01*
X154298068Y-99599190D01*
X154288474Y-99647421D01*
X154612500Y-99971446D01*
X154612501Y-99971446D01*
X154936524Y-99647422D01*
X154926930Y-99599191D01*
X154926930Y-99550807D01*
X154936523Y-99502576D01*
X154612501Y-99178554D01*
X154612500Y-99178554D01*
X154288474Y-99502577D01*
X153436523Y-99502577D01*
X152750514Y-98816568D01*
X152743898Y-98805109D01*
X153012500Y-98805109D01*
X153012500Y-98844891D01*
X153027724Y-98881645D01*
X153055855Y-98909776D01*
X153092609Y-98925000D01*
X153132391Y-98925000D01*
X153169145Y-98909776D01*
X153197276Y-98881645D01*
X153212500Y-98844891D01*
X153212500Y-98824999D01*
X153466054Y-98824999D01*
X153466054Y-98825001D01*
X153790076Y-99149023D01*
X153838307Y-99139430D01*
X153886691Y-99139430D01*
X153934922Y-99149024D01*
X154258946Y-98825000D01*
X154258946Y-98824999D01*
X154239056Y-98805109D01*
X154512500Y-98805109D01*
X154512500Y-98844891D01*
X154527724Y-98881645D01*
X154555855Y-98909776D01*
X154592609Y-98925000D01*
X154632391Y-98925000D01*
X154669145Y-98909776D01*
X154697276Y-98881645D01*
X154712500Y-98844891D01*
X154712500Y-98824999D01*
X154966054Y-98824999D01*
X154966054Y-98825001D01*
X155290077Y-99149024D01*
X155290078Y-99149024D01*
X155333675Y-99043775D01*
X155333679Y-99043760D01*
X155362499Y-98898873D01*
X155362500Y-98898871D01*
X155362500Y-98751128D01*
X155362499Y-98751126D01*
X155333679Y-98606240D01*
X155333678Y-98606236D01*
X155290077Y-98500975D01*
X154966054Y-98824999D01*
X154712500Y-98824999D01*
X154712500Y-98805109D01*
X154697276Y-98768355D01*
X154669145Y-98740224D01*
X154632391Y-98725000D01*
X154592609Y-98725000D01*
X154555855Y-98740224D01*
X154527724Y-98768355D01*
X154512500Y-98805109D01*
X154239056Y-98805109D01*
X153934921Y-98500974D01*
X153886690Y-98510568D01*
X153838308Y-98510568D01*
X153790077Y-98500974D01*
X153466054Y-98824999D01*
X153212500Y-98824999D01*
X153212500Y-98805109D01*
X153197276Y-98768355D01*
X153169145Y-98740224D01*
X153132391Y-98725000D01*
X153092609Y-98725000D01*
X153055855Y-98740224D01*
X153027724Y-98768355D01*
X153012500Y-98805109D01*
X152743898Y-98805109D01*
X152718421Y-98760982D01*
X152693095Y-98666464D01*
X152630495Y-98558036D01*
X152541964Y-98469505D01*
X152219879Y-98147420D01*
X152788474Y-98147420D01*
X152788474Y-98147421D01*
X153112500Y-98471446D01*
X153112501Y-98471446D01*
X153436524Y-98147421D01*
X153436522Y-98147420D01*
X154288474Y-98147420D01*
X154288474Y-98147421D01*
X154612500Y-98471446D01*
X154612501Y-98471446D01*
X154936524Y-98147421D01*
X154831267Y-98103822D01*
X154831259Y-98103820D01*
X154686372Y-98075000D01*
X154538628Y-98075000D01*
X154393740Y-98103820D01*
X154393728Y-98103823D01*
X154288474Y-98147420D01*
X153436522Y-98147420D01*
X153331267Y-98103822D01*
X153331259Y-98103820D01*
X153186372Y-98075000D01*
X153038628Y-98075000D01*
X152893740Y-98103820D01*
X152893728Y-98103823D01*
X152788474Y-98147420D01*
X152219879Y-98147420D01*
X151191964Y-97119505D01*
X151083536Y-97056905D01*
X151083537Y-97056905D01*
X151043224Y-97046103D01*
X150962601Y-97024500D01*
X150962599Y-97024500D01*
X147391518Y-97024500D01*
X147324479Y-97004815D01*
X147303836Y-96988180D01*
X147271545Y-96955888D01*
X147271541Y-96955885D01*
X147156817Y-96879228D01*
X147156804Y-96879221D01*
X147029332Y-96826421D01*
X147029322Y-96826418D01*
X146893995Y-96799500D01*
X146893993Y-96799500D01*
X146756007Y-96799500D01*
X146756005Y-96799500D01*
X146620677Y-96826418D01*
X146620667Y-96826421D01*
X146493195Y-96879221D01*
X146493182Y-96879228D01*
X146378458Y-96955885D01*
X146378454Y-96955888D01*
X146280888Y-97053454D01*
X146280885Y-97053458D01*
X146204228Y-97168182D01*
X146204221Y-97168195D01*
X146151421Y-97295667D01*
X146151418Y-97295677D01*
X146124500Y-97431004D01*
X146124500Y-97431007D01*
X146124500Y-97568993D01*
X146124500Y-97568995D01*
X146124499Y-97568995D01*
X122075500Y-97568995D01*
X122075500Y-96044448D01*
X168649500Y-96044448D01*
X168649500Y-96225551D01*
X168677829Y-96404410D01*
X168733787Y-96576636D01*
X168733788Y-96576639D01*
X168816006Y-96737997D01*
X168922441Y-96884494D01*
X168922445Y-96884499D01*
X169050500Y-97012554D01*
X169050505Y-97012558D01*
X169178287Y-97105396D01*
X169197006Y-97118996D01*
X169293552Y-97168189D01*
X169358360Y-97201211D01*
X169358363Y-97201212D01*
X169444476Y-97229191D01*
X169530591Y-97257171D01*
X169634716Y-97273662D01*
X169662270Y-97278027D01*
X169725405Y-97307956D01*
X169762336Y-97367268D01*
X169761338Y-97437130D01*
X169722728Y-97495363D01*
X169658765Y-97523477D01*
X169642872Y-97524500D01*
X168905143Y-97524500D01*
X168905117Y-97524502D01*
X168880012Y-97527413D01*
X168880008Y-97527415D01*
X168777235Y-97572793D01*
X168697794Y-97652234D01*
X168652415Y-97755006D01*
X168652415Y-97755008D01*
X168649500Y-97780131D01*
X168649500Y-99569856D01*
X168649502Y-99569882D01*
X168652413Y-99594987D01*
X168652415Y-99594991D01*
X168697793Y-99697764D01*
X168697794Y-99697765D01*
X168777235Y-99777206D01*
X168880009Y-99822585D01*
X168905135Y-99825500D01*
X170694864Y-99825499D01*
X170694879Y-99825497D01*
X170694882Y-99825497D01*
X170719987Y-99822586D01*
X170719988Y-99822585D01*
X170719991Y-99822585D01*
X170822765Y-99777206D01*
X170902206Y-99697765D01*
X170947585Y-99594991D01*
X170950500Y-99569865D01*
X170950499Y-97780136D01*
X170950497Y-97780117D01*
X170947586Y-97755012D01*
X170947585Y-97755010D01*
X170947585Y-97755009D01*
X170902206Y-97652235D01*
X170822765Y-97572794D01*
X170814157Y-97568993D01*
X170719992Y-97527415D01*
X170694868Y-97524500D01*
X169957128Y-97524500D01*
X169890089Y-97504815D01*
X169844334Y-97452011D01*
X169834390Y-97382853D01*
X169863415Y-97319297D01*
X169922193Y-97281523D01*
X169937730Y-97278027D01*
X169961014Y-97274338D01*
X170069409Y-97257171D01*
X170241639Y-97201211D01*
X170402994Y-97118996D01*
X170549501Y-97012553D01*
X170677553Y-96884501D01*
X170783996Y-96737994D01*
X170866211Y-96576639D01*
X170922171Y-96404409D01*
X170936765Y-96312259D01*
X170950500Y-96225551D01*
X170950500Y-96044448D01*
X170934019Y-95940397D01*
X170922171Y-95865591D01*
X170866211Y-95693361D01*
X170866211Y-95693360D01*
X170837740Y-95637484D01*
X170783996Y-95532006D01*
X170770396Y-95513287D01*
X170677558Y-95385505D01*
X170677554Y-95385500D01*
X170549499Y-95257445D01*
X170549494Y-95257441D01*
X170402997Y-95151006D01*
X170402996Y-95151005D01*
X170402994Y-95151004D01*
X170351300Y-95124664D01*
X170241639Y-95068788D01*
X170241636Y-95068787D01*
X170069410Y-95012829D01*
X169890551Y-94984500D01*
X169890546Y-94984500D01*
X169709454Y-94984500D01*
X169709449Y-94984500D01*
X169530589Y-95012829D01*
X169358363Y-95068787D01*
X169358360Y-95068788D01*
X169197002Y-95151006D01*
X169050505Y-95257441D01*
X169050500Y-95257445D01*
X168922445Y-95385500D01*
X168922441Y-95385505D01*
X168816006Y-95532002D01*
X168733788Y-95693360D01*
X168733787Y-95693363D01*
X168677829Y-95865589D01*
X168649500Y-96044448D01*
X122075500Y-96044448D01*
X122075500Y-87200000D01*
X152800000Y-87200000D01*
X155175500Y-87200000D01*
X155175930Y-87200126D01*
X155176361Y-87200003D01*
X155209422Y-87209960D01*
X155242539Y-87219685D01*
X155242832Y-87220023D01*
X155243262Y-87220153D01*
X155265712Y-87246428D01*
X155288294Y-87272489D01*
X155288455Y-87273046D01*
X155288649Y-87273273D01*
X155289008Y-87274955D01*
X155298357Y-87307206D01*
X155299500Y-87315567D01*
X155299500Y-87368993D01*
X155322848Y-87486373D01*
X155323357Y-87490092D01*
X155323047Y-87492142D01*
X155324500Y-87506886D01*
X155324500Y-94393112D01*
X155322117Y-94417304D01*
X155299500Y-94531004D01*
X155299500Y-94531007D01*
X155299500Y-94668993D01*
X155299500Y-94668995D01*
X155299499Y-94668995D01*
X155326418Y-94804322D01*
X155326421Y-94804332D01*
X155379221Y-94931804D01*
X155379228Y-94931817D01*
X155455885Y-95046541D01*
X155455888Y-95046545D01*
X155553454Y-95144111D01*
X155553458Y-95144114D01*
X155668182Y-95220771D01*
X155668195Y-95220778D01*
X155756723Y-95257447D01*
X155795672Y-95273580D01*
X155795676Y-95273580D01*
X155795677Y-95273581D01*
X155931004Y-95300500D01*
X155931007Y-95300500D01*
X156068995Y-95300500D01*
X156160041Y-95282389D01*
X156204328Y-95273580D01*
X156331811Y-95220775D01*
X156446542Y-95144114D01*
X156544114Y-95046542D01*
X156620775Y-94931811D01*
X156673580Y-94804328D01*
X156700500Y-94668993D01*
X156700500Y-94531007D01*
X156700500Y-94531004D01*
X156677883Y-94417304D01*
X156675500Y-94393112D01*
X156675500Y-88870032D01*
X158678181Y-88870032D01*
X158705100Y-89005359D01*
X158705103Y-89005369D01*
X158757903Y-89132841D01*
X158757910Y-89132854D01*
X158834567Y-89247578D01*
X158834570Y-89247582D01*
X158932136Y-89345148D01*
X158932140Y-89345151D01*
X159046864Y-89421808D01*
X159046877Y-89421815D01*
X159171850Y-89473580D01*
X159174354Y-89474617D01*
X159174358Y-89474617D01*
X159174359Y-89474618D01*
X159309686Y-89501537D01*
X159309689Y-89501537D01*
X159447677Y-89501537D01*
X159538723Y-89483426D01*
X159583010Y-89474617D01*
X159710493Y-89421812D01*
X159825224Y-89345151D01*
X159883557Y-89286817D01*
X159944878Y-89253334D01*
X159971237Y-89250500D01*
X162808482Y-89250500D01*
X162875521Y-89270185D01*
X162896158Y-89286814D01*
X162953455Y-89344111D01*
X162953459Y-89344115D01*
X163068182Y-89420771D01*
X163068195Y-89420778D01*
X163195667Y-89473578D01*
X163195672Y-89473580D01*
X163195676Y-89473580D01*
X163195677Y-89473581D01*
X163331004Y-89500500D01*
X163331007Y-89500500D01*
X163468995Y-89500500D01*
X163560041Y-89482389D01*
X163604328Y-89473580D01*
X163729300Y-89421815D01*
X163731804Y-89420778D01*
X163731804Y-89420777D01*
X163731811Y-89420775D01*
X163846542Y-89344114D01*
X163944114Y-89246542D01*
X164020775Y-89131811D01*
X164073580Y-89004328D01*
X164082389Y-88960041D01*
X164100500Y-88868995D01*
X164100500Y-88731004D01*
X164073581Y-88595677D01*
X164073580Y-88595676D01*
X164073580Y-88595672D01*
X164073578Y-88595667D01*
X164020778Y-88468195D01*
X164020771Y-88468182D01*
X163944114Y-88353458D01*
X163944111Y-88353454D01*
X163846545Y-88255888D01*
X163846541Y-88255885D01*
X163731817Y-88179228D01*
X163731804Y-88179221D01*
X163604332Y-88126421D01*
X163604322Y-88126418D01*
X163468995Y-88099500D01*
X163468993Y-88099500D01*
X163331007Y-88099500D01*
X163331005Y-88099500D01*
X163195677Y-88126418D01*
X163195667Y-88126421D01*
X163068195Y-88179221D01*
X163068182Y-88179228D01*
X162953459Y-88255884D01*
X162924811Y-88284532D01*
X162896161Y-88313182D01*
X162834841Y-88346666D01*
X162808482Y-88349500D01*
X159969163Y-88349500D01*
X159902124Y-88329815D01*
X159881486Y-88313185D01*
X159825224Y-88256923D01*
X159825223Y-88256922D01*
X159825222Y-88256921D01*
X159710499Y-88180265D01*
X159710486Y-88180258D01*
X159583014Y-88127458D01*
X159583004Y-88127455D01*
X159447677Y-88100537D01*
X159447675Y-88100537D01*
X159309689Y-88100537D01*
X159309687Y-88100537D01*
X159174359Y-88127455D01*
X159174349Y-88127458D01*
X159046877Y-88180258D01*
X159046864Y-88180265D01*
X158932140Y-88256922D01*
X158932136Y-88256925D01*
X158834570Y-88354491D01*
X158834567Y-88354495D01*
X158757910Y-88469219D01*
X158757903Y-88469232D01*
X158705103Y-88596704D01*
X158705100Y-88596714D01*
X158678182Y-88732041D01*
X158678182Y-88732044D01*
X158678182Y-88870030D01*
X158678182Y-88870032D01*
X158678181Y-88870032D01*
X156675500Y-88870032D01*
X156675500Y-87506886D01*
X156676643Y-87490092D01*
X156677151Y-87486373D01*
X156700500Y-87368993D01*
X156700500Y-87315567D01*
X156701643Y-87307206D01*
X156712623Y-87282712D01*
X156720185Y-87256961D01*
X156726698Y-87251317D01*
X156730225Y-87243450D01*
X156752708Y-87228779D01*
X156772989Y-87211206D01*
X156782966Y-87209035D01*
X156788740Y-87205268D01*
X156800664Y-87205185D01*
X156824500Y-87200000D01*
X163400000Y-87200000D01*
X163400000Y-85585803D01*
X166800000Y-85585803D01*
X166800000Y-85900000D01*
X168051668Y-85900000D01*
X168002430Y-85973690D01*
X167934586Y-86137480D01*
X167900000Y-86311358D01*
X167900000Y-86488642D01*
X167934586Y-86662520D01*
X168002430Y-86826310D01*
X168051668Y-86900000D01*
X166800001Y-86900000D01*
X166800001Y-87214197D01*
X166810400Y-87346332D01*
X166865377Y-87564519D01*
X166958428Y-87769374D01*
X166958431Y-87769380D01*
X167086559Y-87954323D01*
X167086569Y-87954335D01*
X167245664Y-88113430D01*
X167245676Y-88113440D01*
X167430619Y-88241568D01*
X167430625Y-88241571D01*
X167635480Y-88334622D01*
X167853667Y-88389599D01*
X167985810Y-88399999D01*
X168299999Y-88399999D01*
X168300000Y-88399998D01*
X168300000Y-87148332D01*
X168373690Y-87197570D01*
X168537480Y-87265414D01*
X168711358Y-87300000D01*
X168888642Y-87300000D01*
X169062520Y-87265414D01*
X169226310Y-87197570D01*
X169300000Y-87148332D01*
X169300000Y-88399999D01*
X169614182Y-88399999D01*
X169614197Y-88399998D01*
X169746332Y-88389599D01*
X169964519Y-88334622D01*
X170169374Y-88241571D01*
X170169380Y-88241568D01*
X170354323Y-88113440D01*
X170354335Y-88113430D01*
X170513430Y-87954335D01*
X170513440Y-87954323D01*
X170641568Y-87769380D01*
X170641571Y-87769374D01*
X170734622Y-87564519D01*
X170789599Y-87346332D01*
X170799999Y-87214196D01*
X170800000Y-87214184D01*
X170800000Y-86900000D01*
X169548332Y-86900000D01*
X169597570Y-86826310D01*
X169665414Y-86662520D01*
X169700000Y-86488642D01*
X169700000Y-86311358D01*
X169665414Y-86137480D01*
X169597570Y-85973690D01*
X169548332Y-85900000D01*
X170799999Y-85900000D01*
X170799999Y-85585817D01*
X170799998Y-85585802D01*
X170789599Y-85453667D01*
X170734622Y-85235480D01*
X170641571Y-85030625D01*
X170641568Y-85030619D01*
X170513440Y-84845676D01*
X170513430Y-84845664D01*
X170354335Y-84686569D01*
X170354323Y-84686559D01*
X170169380Y-84558431D01*
X170169374Y-84558428D01*
X169964519Y-84465377D01*
X169746332Y-84410400D01*
X169614196Y-84400000D01*
X169300000Y-84400000D01*
X169300000Y-85651667D01*
X169226310Y-85602430D01*
X169062520Y-85534586D01*
X168888642Y-85500000D01*
X168711358Y-85500000D01*
X168537480Y-85534586D01*
X168373690Y-85602430D01*
X168300000Y-85651667D01*
X168300000Y-84400000D01*
X167985817Y-84400000D01*
X167985802Y-84400001D01*
X167853667Y-84410400D01*
X167635480Y-84465377D01*
X167430625Y-84558428D01*
X167430619Y-84558431D01*
X167245676Y-84686559D01*
X167245664Y-84686569D01*
X167086569Y-84845664D01*
X167086559Y-84845676D01*
X166958431Y-85030619D01*
X166958428Y-85030625D01*
X166865377Y-85235480D01*
X166810400Y-85453667D01*
X166800000Y-85585803D01*
X163400000Y-85585803D01*
X163400000Y-81281995D01*
X166999500Y-81281995D01*
X166999500Y-81518004D01*
X166999501Y-81518020D01*
X167030306Y-81752010D01*
X167091394Y-81979993D01*
X167181714Y-82198045D01*
X167181719Y-82198056D01*
X167252677Y-82320957D01*
X167299727Y-82402450D01*
X167299729Y-82402453D01*
X167299730Y-82402454D01*
X167443406Y-82589697D01*
X167443412Y-82589704D01*
X167610295Y-82756587D01*
X167610301Y-82756592D01*
X167797550Y-82900273D01*
X167928918Y-82976118D01*
X168001943Y-83018280D01*
X168001948Y-83018282D01*
X168001951Y-83018284D01*
X168220007Y-83108606D01*
X168447986Y-83169693D01*
X168681989Y-83200500D01*
X168681996Y-83200500D01*
X168918004Y-83200500D01*
X168918011Y-83200500D01*
X169152014Y-83169693D01*
X169379993Y-83108606D01*
X169598049Y-83018284D01*
X169802450Y-82900273D01*
X169989699Y-82756592D01*
X170156592Y-82589699D01*
X170300273Y-82402450D01*
X170418284Y-82198049D01*
X170508606Y-81979993D01*
X170569693Y-81752014D01*
X170600500Y-81518011D01*
X170600500Y-81281989D01*
X170569693Y-81047986D01*
X170508606Y-80820007D01*
X170418284Y-80601951D01*
X170418282Y-80601948D01*
X170418280Y-80601943D01*
X170373299Y-80524035D01*
X170300273Y-80397550D01*
X170156592Y-80210301D01*
X170156587Y-80210295D01*
X169989704Y-80043412D01*
X169989697Y-80043406D01*
X169802454Y-79899730D01*
X169802453Y-79899729D01*
X169802450Y-79899727D01*
X169697325Y-79839033D01*
X169598056Y-79781719D01*
X169598045Y-79781714D01*
X169379993Y-79691394D01*
X169152010Y-79630306D01*
X168918020Y-79599501D01*
X168918017Y-79599500D01*
X168918011Y-79599500D01*
X168681989Y-79599500D01*
X168681983Y-79599500D01*
X168681979Y-79599501D01*
X168447989Y-79630306D01*
X168220006Y-79691394D01*
X168001954Y-79781714D01*
X168001943Y-79781719D01*
X167797545Y-79899730D01*
X167610302Y-80043406D01*
X167610295Y-80043412D01*
X167443412Y-80210295D01*
X167443406Y-80210302D01*
X167299730Y-80397545D01*
X167181719Y-80601943D01*
X167181714Y-80601954D01*
X167091394Y-80820006D01*
X167030306Y-81047989D01*
X166999501Y-81281979D01*
X166999500Y-81281995D01*
X163400000Y-81281995D01*
X163400000Y-76800000D01*
X158000000Y-76800000D01*
X152800000Y-76800000D01*
X152800000Y-87200000D01*
X122075500Y-87200000D01*
X122075500Y-79367162D01*
X122095185Y-79300123D01*
X122147989Y-79254368D01*
X122217147Y-79244424D01*
X122280703Y-79273449D01*
X122318477Y-79332227D01*
X122322720Y-79353279D01*
X122333951Y-79452964D01*
X122333954Y-79452982D01*
X122401434Y-79748633D01*
X122401438Y-79748645D01*
X122501592Y-80034866D01*
X122501598Y-80034880D01*
X122633172Y-80308096D01*
X122768856Y-80524035D01*
X123953626Y-79339266D01*
X123980590Y-79422253D01*
X124059196Y-79576525D01*
X124160967Y-79716602D01*
X124283398Y-79839033D01*
X124423475Y-79940804D01*
X124577747Y-80019410D01*
X124660732Y-80046373D01*
X123475963Y-81231142D01*
X123475962Y-81231142D01*
X123691903Y-81366827D01*
X123965119Y-81498401D01*
X123965133Y-81498407D01*
X124251354Y-81598561D01*
X124251366Y-81598565D01*
X124547017Y-81666045D01*
X124547033Y-81666047D01*
X124848366Y-81699999D01*
X124848368Y-81700000D01*
X125151632Y-81700000D01*
X125151633Y-81699999D01*
X125452966Y-81666047D01*
X125452982Y-81666045D01*
X125748633Y-81598565D01*
X125748645Y-81598561D01*
X126034866Y-81498407D01*
X126034880Y-81498401D01*
X126308096Y-81366827D01*
X126524035Y-81231142D01*
X125339267Y-80046373D01*
X125422253Y-80019410D01*
X125576525Y-79940804D01*
X125716602Y-79839033D01*
X125839033Y-79716602D01*
X125940804Y-79576525D01*
X126019410Y-79422253D01*
X126046373Y-79339267D01*
X127231142Y-80524035D01*
X127366827Y-80308096D01*
X127498401Y-80034880D01*
X127498407Y-80034866D01*
X127598561Y-79748645D01*
X127598565Y-79748633D01*
X127599989Y-79742396D01*
X146104708Y-79742396D01*
X146121780Y-79751094D01*
X146323871Y-79816757D01*
X146533754Y-79850000D01*
X146746246Y-79850000D01*
X146956127Y-79816757D01*
X146956130Y-79816757D01*
X147158218Y-79751094D01*
X147158220Y-79751093D01*
X147175289Y-79742395D01*
X147175290Y-79742395D01*
X146640001Y-79207106D01*
X146640000Y-79207106D01*
X146104708Y-79742396D01*
X127599989Y-79742396D01*
X127666045Y-79452982D01*
X127666047Y-79452966D01*
X127699999Y-79151633D01*
X127700000Y-79151631D01*
X127700000Y-78848368D01*
X127699999Y-78848366D01*
X127666047Y-78547033D01*
X127666045Y-78547017D01*
X127598565Y-78251366D01*
X127598561Y-78251354D01*
X127498407Y-77965133D01*
X127498401Y-77965119D01*
X127366827Y-77691903D01*
X127351510Y-77667526D01*
X127312304Y-77605131D01*
X140409500Y-77605131D01*
X140409500Y-79394856D01*
X140409502Y-79394882D01*
X140412413Y-79419987D01*
X140412415Y-79419991D01*
X140457793Y-79522764D01*
X140457794Y-79522765D01*
X140537235Y-79602206D01*
X140640009Y-79647585D01*
X140665135Y-79650500D01*
X142454864Y-79650499D01*
X142454879Y-79650497D01*
X142454882Y-79650497D01*
X142479987Y-79647586D01*
X142479988Y-79647585D01*
X142479991Y-79647585D01*
X142582765Y-79602206D01*
X142662206Y-79522765D01*
X142707585Y-79419991D01*
X142710500Y-79394865D01*
X142710499Y-78657125D01*
X142730183Y-78590089D01*
X142782987Y-78544334D01*
X142852146Y-78534390D01*
X142915702Y-78563415D01*
X142953476Y-78622193D01*
X142956972Y-78637729D01*
X142977829Y-78769410D01*
X143033787Y-78941636D01*
X143033788Y-78941639D01*
X143116006Y-79102997D01*
X143222441Y-79249494D01*
X143222445Y-79249499D01*
X143350500Y-79377554D01*
X143350505Y-79377558D01*
X143478287Y-79470396D01*
X143497006Y-79483996D01*
X143573094Y-79522765D01*
X143658360Y-79566211D01*
X143658363Y-79566212D01*
X143705293Y-79581460D01*
X143830591Y-79622171D01*
X143913429Y-79635291D01*
X144009449Y-79650500D01*
X144009454Y-79650500D01*
X144190551Y-79650500D01*
X144298120Y-79633462D01*
X144369409Y-79622171D01*
X144494707Y-79581460D01*
X144494708Y-79581460D01*
X144541636Y-79566212D01*
X144541639Y-79566211D01*
X144702994Y-79483996D01*
X144849501Y-79377553D01*
X144977553Y-79249501D01*
X145083996Y-79102994D01*
X145151091Y-78971312D01*
X145199064Y-78920518D01*
X145266885Y-78903723D01*
X145333020Y-78926260D01*
X145376472Y-78980975D01*
X145379506Y-78989291D01*
X145388903Y-79018213D01*
X145388908Y-79018225D01*
X145397602Y-79035289D01*
X145397603Y-79035290D01*
X145932894Y-78500000D01*
X145867068Y-78434174D01*
X146140000Y-78434174D01*
X146140000Y-78565826D01*
X146174075Y-78692993D01*
X146239901Y-78807007D01*
X146332993Y-78900099D01*
X146447007Y-78965925D01*
X146574174Y-79000000D01*
X146705826Y-79000000D01*
X146832993Y-78965925D01*
X146947007Y-78900099D01*
X147040099Y-78807007D01*
X147105925Y-78692993D01*
X147140000Y-78565826D01*
X147140000Y-78499999D01*
X147347106Y-78499999D01*
X147347106Y-78500000D01*
X147882395Y-79035290D01*
X147882395Y-79035289D01*
X147891093Y-79018220D01*
X147891094Y-79018218D01*
X147956757Y-78816130D01*
X147956757Y-78816127D01*
X147990000Y-78606246D01*
X147990000Y-78393753D01*
X147956757Y-78183872D01*
X147956757Y-78183869D01*
X147891094Y-77981781D01*
X147891094Y-77981780D01*
X147882396Y-77964708D01*
X147347106Y-78499999D01*
X147140000Y-78499999D01*
X147140000Y-78434174D01*
X147105925Y-78307007D01*
X147040099Y-78192993D01*
X146947007Y-78099901D01*
X146832993Y-78034075D01*
X146705826Y-78000000D01*
X146574174Y-78000000D01*
X146447007Y-78034075D01*
X146332993Y-78099901D01*
X146239901Y-78192993D01*
X146174075Y-78307007D01*
X146140000Y-78434174D01*
X145867068Y-78434174D01*
X145397603Y-77964709D01*
X145388903Y-77981785D01*
X145379505Y-78010710D01*
X145340067Y-78068385D01*
X145275708Y-78095582D01*
X145206861Y-78083666D01*
X145155387Y-78036421D01*
X145151090Y-78028685D01*
X145127191Y-77981781D01*
X145083996Y-77897006D01*
X145008355Y-77792894D01*
X144977558Y-77750505D01*
X144977554Y-77750500D01*
X144849499Y-77622445D01*
X144849494Y-77622441D01*
X144702997Y-77516006D01*
X144702996Y-77516005D01*
X144702994Y-77516004D01*
X144626906Y-77477235D01*
X144541639Y-77433788D01*
X144541636Y-77433787D01*
X144494702Y-77418538D01*
X144494701Y-77418537D01*
X144369411Y-77377829D01*
X144369412Y-77377829D01*
X144190551Y-77349500D01*
X144190546Y-77349500D01*
X144009454Y-77349500D01*
X144009449Y-77349500D01*
X143830589Y-77377829D01*
X143658363Y-77433787D01*
X143658360Y-77433788D01*
X143497002Y-77516006D01*
X143350505Y-77622441D01*
X143350500Y-77622445D01*
X143222445Y-77750500D01*
X143222441Y-77750505D01*
X143116006Y-77897002D01*
X143033788Y-78058360D01*
X143033787Y-78058363D01*
X142977829Y-78230589D01*
X142956972Y-78362271D01*
X142927042Y-78425405D01*
X142867731Y-78462336D01*
X142797868Y-78461338D01*
X142739636Y-78422728D01*
X142711522Y-78358764D01*
X142710499Y-78342872D01*
X142710499Y-77605143D01*
X142710499Y-77605136D01*
X142710497Y-77605117D01*
X142707586Y-77580012D01*
X142707585Y-77580010D01*
X142707585Y-77580009D01*
X142662206Y-77477235D01*
X142582765Y-77397794D01*
X142582763Y-77397793D01*
X142479992Y-77352415D01*
X142454865Y-77349500D01*
X140665143Y-77349500D01*
X140665117Y-77349502D01*
X140640012Y-77352413D01*
X140640008Y-77352415D01*
X140537235Y-77397793D01*
X140457794Y-77477234D01*
X140412415Y-77580006D01*
X140412415Y-77580008D01*
X140409500Y-77605131D01*
X127312304Y-77605131D01*
X127231142Y-77475963D01*
X126046373Y-78660732D01*
X126019410Y-78577747D01*
X125940804Y-78423475D01*
X125839033Y-78283398D01*
X125716602Y-78160967D01*
X125576525Y-78059196D01*
X125422253Y-77980590D01*
X125339266Y-77953626D01*
X126035288Y-77257603D01*
X146104709Y-77257603D01*
X146640000Y-77792894D01*
X146640001Y-77792894D01*
X147175290Y-77257603D01*
X147175289Y-77257602D01*
X147158225Y-77248908D01*
X147158213Y-77248903D01*
X146956128Y-77183242D01*
X146746246Y-77150000D01*
X146533754Y-77150000D01*
X146323872Y-77183242D01*
X146323869Y-77183242D01*
X146121783Y-77248904D01*
X146104709Y-77257603D01*
X126035288Y-77257603D01*
X126524035Y-76768856D01*
X126308096Y-76633172D01*
X126034880Y-76501598D01*
X126034866Y-76501592D01*
X125748645Y-76401438D01*
X125748633Y-76401434D01*
X125452982Y-76333954D01*
X125452966Y-76333952D01*
X125353279Y-76322720D01*
X125288865Y-76295653D01*
X125249310Y-76238059D01*
X125247173Y-76168222D01*
X125283131Y-76108315D01*
X125345769Y-76077360D01*
X125367163Y-76075500D01*
X169175469Y-76075500D01*
X169196519Y-76075500D01*
X169203472Y-76075695D01*
G37*
G04 #@! TD.AperFunction*
G04 #@! TD*
M02*
