G04 #@! TF.GenerationSoftware,KiCad,Pcbnew,9.0.2-9.0.2-0~ubuntu24.04.1*
G04 #@! TF.CreationDate,2025-05-13T17:43:29+02:00*
G04 #@! TF.ProjectId,RCFavoritControlBoard,52434661-766f-4726-9974-436f6e74726f,rev?*
G04 #@! TF.SameCoordinates,Original*
G04 #@! TF.FileFunction,Legend,Top*
G04 #@! TF.FilePolarity,Positive*
%FSLAX46Y46*%
G04 Gerber Fmt 4.6, Leading zero omitted, Abs format (unit mm)*
G04 Created by KiCad (PCBNEW 9.0.2-9.0.2-0~ubuntu24.04.1) date 2025-05-13 17:43:29*
%MOMM*%
%LPD*%
G01*
G04 APERTURE LIST*
G04 Aperture macros list*
%AMRoundRect*
0 Rectangle with rounded corners*
0 $1 Rounding radius*
0 $2 $3 $4 $5 $6 $7 $8 $9 X,Y pos of 4 corners*
0 Add a 4 corners polygon primitive as box body*
4,1,4,$2,$3,$4,$5,$6,$7,$8,$9,$2,$3,0*
0 Add four circle primitives for the rounded corners*
1,1,$1+$1,$2,$3*
1,1,$1+$1,$4,$5*
1,1,$1+$1,$6,$7*
1,1,$1+$1,$8,$9*
0 Add four rect primitives between the rounded corners*
20,1,$1+$1,$2,$3,$4,$5,0*
20,1,$1+$1,$4,$5,$6,$7,0*
20,1,$1+$1,$6,$7,$8,$9,0*
20,1,$1+$1,$8,$9,$2,$3,0*%
G04 Aperture macros list end*
%ADD10C,0.125000*%
%ADD11C,0.150000*%
%ADD12C,0.100000*%
%ADD13C,0.106680*%
%ADD14C,0.000000*%
%ADD15C,0.120000*%
%ADD16C,0.127000*%
%ADD17C,0.504000*%
%ADD18RoundRect,0.500000X0.500000X2.250000X-0.500000X2.250000X-0.500000X-2.250000X0.500000X-2.250000X0*%
%ADD19RoundRect,0.250000X-0.262500X-0.450000X0.262500X-0.450000X0.262500X0.450000X-0.262500X0.450000X0*%
%ADD20RoundRect,0.150000X0.512500X0.150000X-0.512500X0.150000X-0.512500X-0.150000X0.512500X-0.150000X0*%
%ADD21R,2.460000X2.310000*%
%ADD22RoundRect,0.100000X0.687500X0.100000X-0.687500X0.100000X-0.687500X-0.100000X0.687500X-0.100000X0*%
%ADD23RoundRect,0.225000X0.250000X-0.225000X0.250000X0.225000X-0.250000X0.225000X-0.250000X-0.225000X0*%
%ADD24RoundRect,0.112500X-0.187500X-0.112500X0.187500X-0.112500X0.187500X0.112500X-0.187500X0.112500X0*%
%ADD25RoundRect,0.525400X0.525400X-0.900400X0.525400X0.900400X-0.525400X0.900400X-0.525400X-0.900400X0*%
%ADD26RoundRect,0.300400X-0.300400X1.000400X-0.300400X-1.000400X0.300400X-1.000400X0.300400X1.000400X0*%
%ADD27C,1.700000*%
%ADD28C,4.400000*%
%ADD29RoundRect,0.125000X0.125000X-0.537500X0.125000X0.537500X-0.125000X0.537500X-0.125000X-0.537500X0*%
%ADD30RoundRect,0.250000X0.650000X-0.325000X0.650000X0.325000X-0.650000X0.325000X-0.650000X-0.325000X0*%
%ADD31RoundRect,0.225000X-0.250000X0.225000X-0.250000X-0.225000X0.250000X-0.225000X0.250000X0.225000X0*%
%ADD32RoundRect,0.218750X-0.256250X0.218750X-0.256250X-0.218750X0.256250X-0.218750X0.256250X0.218750X0*%
%ADD33RoundRect,0.250000X-0.650000X0.325000X-0.650000X-0.325000X0.650000X-0.325000X0.650000X0.325000X0*%
%ADD34RoundRect,0.750000X0.750000X-0.750000X0.750000X0.750000X-0.750000X0.750000X-0.750000X-0.750000X0*%
%ADD35C,3.000000*%
%ADD36RoundRect,0.200000X0.275000X-0.200000X0.275000X0.200000X-0.275000X0.200000X-0.275000X-0.200000X0*%
%ADD37R,1.700000X1.700000*%
%ADD38RoundRect,0.200000X-0.275000X0.200000X-0.275000X-0.200000X0.275000X-0.200000X0.275000X0.200000X0*%
%ADD39RoundRect,0.225000X0.225000X0.250000X-0.225000X0.250000X-0.225000X-0.250000X0.225000X-0.250000X0*%
%ADD40RoundRect,0.218750X0.256250X-0.218750X0.256250X0.218750X-0.256250X0.218750X-0.256250X-0.218750X0*%
G04 APERTURE END LIST*
D10*
X151248902Y-94746119D02*
X151058426Y-94746119D01*
X151058426Y-94746119D02*
X150963188Y-94793738D01*
X150963188Y-94793738D02*
X150915569Y-94841357D01*
X150915569Y-94841357D02*
X150820331Y-94984214D01*
X150820331Y-94984214D02*
X150772712Y-95174690D01*
X150772712Y-95174690D02*
X150772712Y-95555642D01*
X150772712Y-95555642D02*
X150820331Y-95650880D01*
X150820331Y-95650880D02*
X150867950Y-95698500D01*
X150867950Y-95698500D02*
X150963188Y-95746119D01*
X150963188Y-95746119D02*
X151153664Y-95746119D01*
X151153664Y-95746119D02*
X151248902Y-95698500D01*
X151248902Y-95698500D02*
X151296521Y-95650880D01*
X151296521Y-95650880D02*
X151344140Y-95555642D01*
X151344140Y-95555642D02*
X151344140Y-95317547D01*
X151344140Y-95317547D02*
X151296521Y-95222309D01*
X151296521Y-95222309D02*
X151248902Y-95174690D01*
X151248902Y-95174690D02*
X151153664Y-95127071D01*
X151153664Y-95127071D02*
X150963188Y-95127071D01*
X150963188Y-95127071D02*
X150867950Y-95174690D01*
X150867950Y-95174690D02*
X150820331Y-95222309D01*
X150820331Y-95222309D02*
X150772712Y-95317547D01*
X151629855Y-94746119D02*
X151963188Y-95746119D01*
X151963188Y-95746119D02*
X152296521Y-94746119D01*
D11*
X168554819Y-93838095D02*
X168554819Y-94028571D01*
X168554819Y-94028571D02*
X168602438Y-94123809D01*
X168602438Y-94123809D02*
X168650057Y-94171428D01*
X168650057Y-94171428D02*
X168792914Y-94266666D01*
X168792914Y-94266666D02*
X168983390Y-94314285D01*
X168983390Y-94314285D02*
X169364342Y-94314285D01*
X169364342Y-94314285D02*
X169459580Y-94266666D01*
X169459580Y-94266666D02*
X169507200Y-94219047D01*
X169507200Y-94219047D02*
X169554819Y-94123809D01*
X169554819Y-94123809D02*
X169554819Y-93933333D01*
X169554819Y-93933333D02*
X169507200Y-93838095D01*
X169507200Y-93838095D02*
X169459580Y-93790476D01*
X169459580Y-93790476D02*
X169364342Y-93742857D01*
X169364342Y-93742857D02*
X169126247Y-93742857D01*
X169126247Y-93742857D02*
X169031009Y-93790476D01*
X169031009Y-93790476D02*
X168983390Y-93838095D01*
X168983390Y-93838095D02*
X168935771Y-93933333D01*
X168935771Y-93933333D02*
X168935771Y-94123809D01*
X168935771Y-94123809D02*
X168983390Y-94219047D01*
X168983390Y-94219047D02*
X169031009Y-94266666D01*
X169031009Y-94266666D02*
X169126247Y-94314285D01*
X168554819Y-93457142D02*
X169554819Y-93123809D01*
X169554819Y-93123809D02*
X168554819Y-92790476D01*
D10*
X143748902Y-80671119D02*
X143558426Y-80671119D01*
X143558426Y-80671119D02*
X143463188Y-80718738D01*
X143463188Y-80718738D02*
X143415569Y-80766357D01*
X143415569Y-80766357D02*
X143320331Y-80909214D01*
X143320331Y-80909214D02*
X143272712Y-81099690D01*
X143272712Y-81099690D02*
X143272712Y-81480642D01*
X143272712Y-81480642D02*
X143320331Y-81575880D01*
X143320331Y-81575880D02*
X143367950Y-81623500D01*
X143367950Y-81623500D02*
X143463188Y-81671119D01*
X143463188Y-81671119D02*
X143653664Y-81671119D01*
X143653664Y-81671119D02*
X143748902Y-81623500D01*
X143748902Y-81623500D02*
X143796521Y-81575880D01*
X143796521Y-81575880D02*
X143844140Y-81480642D01*
X143844140Y-81480642D02*
X143844140Y-81242547D01*
X143844140Y-81242547D02*
X143796521Y-81147309D01*
X143796521Y-81147309D02*
X143748902Y-81099690D01*
X143748902Y-81099690D02*
X143653664Y-81052071D01*
X143653664Y-81052071D02*
X143463188Y-81052071D01*
X143463188Y-81052071D02*
X143367950Y-81099690D01*
X143367950Y-81099690D02*
X143320331Y-81147309D01*
X143320331Y-81147309D02*
X143272712Y-81242547D01*
X144129855Y-80671119D02*
X144463188Y-81671119D01*
X144463188Y-81671119D02*
X144796521Y-80671119D01*
D12*
X164784084Y-77872419D02*
X164307894Y-77872419D01*
X164307894Y-77872419D02*
X164307894Y-76872419D01*
X165117418Y-77872419D02*
X165117418Y-77205752D01*
X165117418Y-76872419D02*
X165069799Y-76920038D01*
X165069799Y-76920038D02*
X165117418Y-76967657D01*
X165117418Y-76967657D02*
X165165037Y-76920038D01*
X165165037Y-76920038D02*
X165117418Y-76872419D01*
X165117418Y-76872419D02*
X165117418Y-76967657D01*
X165593608Y-77872419D02*
X165593608Y-76872419D01*
X165593608Y-76872419D02*
X165974560Y-76872419D01*
X165974560Y-76872419D02*
X166069798Y-76920038D01*
X166069798Y-76920038D02*
X166117417Y-76967657D01*
X166117417Y-76967657D02*
X166165036Y-77062895D01*
X166165036Y-77062895D02*
X166165036Y-77205752D01*
X166165036Y-77205752D02*
X166117417Y-77300990D01*
X166117417Y-77300990D02*
X166069798Y-77348609D01*
X166069798Y-77348609D02*
X165974560Y-77396228D01*
X165974560Y-77396228D02*
X165593608Y-77396228D01*
X166736465Y-77872419D02*
X166641227Y-77824800D01*
X166641227Y-77824800D02*
X166593608Y-77777180D01*
X166593608Y-77777180D02*
X166545989Y-77681942D01*
X166545989Y-77681942D02*
X166545989Y-77396228D01*
X166545989Y-77396228D02*
X166593608Y-77300990D01*
X166593608Y-77300990D02*
X166641227Y-77253371D01*
X166641227Y-77253371D02*
X166736465Y-77205752D01*
X166736465Y-77205752D02*
X166879322Y-77205752D01*
X166879322Y-77205752D02*
X166974560Y-77253371D01*
X166974560Y-77253371D02*
X167022179Y-77300990D01*
X167022179Y-77300990D02*
X167069798Y-77396228D01*
X167069798Y-77396228D02*
X167069798Y-77681942D01*
X167069798Y-77681942D02*
X167022179Y-77777180D01*
X167022179Y-77777180D02*
X166974560Y-77824800D01*
X166974560Y-77824800D02*
X166879322Y-77872419D01*
X166879322Y-77872419D02*
X166736465Y-77872419D01*
X168165037Y-76872419D02*
X168784084Y-76872419D01*
X168784084Y-76872419D02*
X168450751Y-77253371D01*
X168450751Y-77253371D02*
X168593608Y-77253371D01*
X168593608Y-77253371D02*
X168688846Y-77300990D01*
X168688846Y-77300990D02*
X168736465Y-77348609D01*
X168736465Y-77348609D02*
X168784084Y-77443847D01*
X168784084Y-77443847D02*
X168784084Y-77681942D01*
X168784084Y-77681942D02*
X168736465Y-77777180D01*
X168736465Y-77777180D02*
X168688846Y-77824800D01*
X168688846Y-77824800D02*
X168593608Y-77872419D01*
X168593608Y-77872419D02*
X168307894Y-77872419D01*
X168307894Y-77872419D02*
X168212656Y-77824800D01*
X168212656Y-77824800D02*
X168165037Y-77777180D01*
X169165037Y-77824800D02*
X169260275Y-77872419D01*
X169260275Y-77872419D02*
X169450751Y-77872419D01*
X169450751Y-77872419D02*
X169545989Y-77824800D01*
X169545989Y-77824800D02*
X169593608Y-77729561D01*
X169593608Y-77729561D02*
X169593608Y-77681942D01*
X169593608Y-77681942D02*
X169545989Y-77586704D01*
X169545989Y-77586704D02*
X169450751Y-77539085D01*
X169450751Y-77539085D02*
X169307894Y-77539085D01*
X169307894Y-77539085D02*
X169212656Y-77491466D01*
X169212656Y-77491466D02*
X169165037Y-77396228D01*
X169165037Y-77396228D02*
X169165037Y-77348609D01*
X169165037Y-77348609D02*
X169212656Y-77253371D01*
X169212656Y-77253371D02*
X169307894Y-77205752D01*
X169307894Y-77205752D02*
X169450751Y-77205752D01*
X169450751Y-77205752D02*
X169545989Y-77253371D01*
D10*
X134672712Y-79123500D02*
X134815569Y-79171119D01*
X134815569Y-79171119D02*
X135053664Y-79171119D01*
X135053664Y-79171119D02*
X135148902Y-79123500D01*
X135148902Y-79123500D02*
X135196521Y-79075880D01*
X135196521Y-79075880D02*
X135244140Y-78980642D01*
X135244140Y-78980642D02*
X135244140Y-78885404D01*
X135244140Y-78885404D02*
X135196521Y-78790166D01*
X135196521Y-78790166D02*
X135148902Y-78742547D01*
X135148902Y-78742547D02*
X135053664Y-78694928D01*
X135053664Y-78694928D02*
X134863188Y-78647309D01*
X134863188Y-78647309D02*
X134767950Y-78599690D01*
X134767950Y-78599690D02*
X134720331Y-78552071D01*
X134720331Y-78552071D02*
X134672712Y-78456833D01*
X134672712Y-78456833D02*
X134672712Y-78361595D01*
X134672712Y-78361595D02*
X134720331Y-78266357D01*
X134720331Y-78266357D02*
X134767950Y-78218738D01*
X134767950Y-78218738D02*
X134863188Y-78171119D01*
X134863188Y-78171119D02*
X135101283Y-78171119D01*
X135101283Y-78171119D02*
X135244140Y-78218738D01*
X135672712Y-78647309D02*
X136006045Y-78647309D01*
X136148902Y-79171119D02*
X135672712Y-79171119D01*
X135672712Y-79171119D02*
X135672712Y-78171119D01*
X135672712Y-78171119D02*
X136148902Y-78171119D01*
X137148902Y-79171119D02*
X136815569Y-78694928D01*
X136577474Y-79171119D02*
X136577474Y-78171119D01*
X136577474Y-78171119D02*
X136958426Y-78171119D01*
X136958426Y-78171119D02*
X137053664Y-78218738D01*
X137053664Y-78218738D02*
X137101283Y-78266357D01*
X137101283Y-78266357D02*
X137148902Y-78361595D01*
X137148902Y-78361595D02*
X137148902Y-78504452D01*
X137148902Y-78504452D02*
X137101283Y-78599690D01*
X137101283Y-78599690D02*
X137053664Y-78647309D01*
X137053664Y-78647309D02*
X136958426Y-78694928D01*
X136958426Y-78694928D02*
X136577474Y-78694928D01*
X137434617Y-78171119D02*
X137767950Y-79171119D01*
X137767950Y-79171119D02*
X138101283Y-78171119D01*
X138625093Y-78171119D02*
X138815569Y-78171119D01*
X138815569Y-78171119D02*
X138910807Y-78218738D01*
X138910807Y-78218738D02*
X139006045Y-78313976D01*
X139006045Y-78313976D02*
X139053664Y-78504452D01*
X139053664Y-78504452D02*
X139053664Y-78837785D01*
X139053664Y-78837785D02*
X139006045Y-79028261D01*
X139006045Y-79028261D02*
X138910807Y-79123500D01*
X138910807Y-79123500D02*
X138815569Y-79171119D01*
X138815569Y-79171119D02*
X138625093Y-79171119D01*
X138625093Y-79171119D02*
X138529855Y-79123500D01*
X138529855Y-79123500D02*
X138434617Y-79028261D01*
X138434617Y-79028261D02*
X138386998Y-78837785D01*
X138386998Y-78837785D02*
X138386998Y-78504452D01*
X138386998Y-78504452D02*
X138434617Y-78313976D01*
X138434617Y-78313976D02*
X138529855Y-78218738D01*
X138529855Y-78218738D02*
X138625093Y-78171119D01*
D12*
X146237217Y-105948609D02*
X145903884Y-105948609D01*
X145903884Y-106472419D02*
X145903884Y-105472419D01*
X145903884Y-105472419D02*
X146380074Y-105472419D01*
X147189598Y-106472419D02*
X147189598Y-105948609D01*
X147189598Y-105948609D02*
X147141979Y-105853371D01*
X147141979Y-105853371D02*
X147046741Y-105805752D01*
X147046741Y-105805752D02*
X146856265Y-105805752D01*
X146856265Y-105805752D02*
X146761027Y-105853371D01*
X147189598Y-106424800D02*
X147094360Y-106472419D01*
X147094360Y-106472419D02*
X146856265Y-106472419D01*
X146856265Y-106472419D02*
X146761027Y-106424800D01*
X146761027Y-106424800D02*
X146713408Y-106329561D01*
X146713408Y-106329561D02*
X146713408Y-106234323D01*
X146713408Y-106234323D02*
X146761027Y-106139085D01*
X146761027Y-106139085D02*
X146856265Y-106091466D01*
X146856265Y-106091466D02*
X147094360Y-106091466D01*
X147094360Y-106091466D02*
X147189598Y-106043847D01*
X147570551Y-105805752D02*
X147808646Y-106472419D01*
X147808646Y-106472419D02*
X148046741Y-105805752D01*
X148570551Y-106472419D02*
X148475313Y-106424800D01*
X148475313Y-106424800D02*
X148427694Y-106377180D01*
X148427694Y-106377180D02*
X148380075Y-106281942D01*
X148380075Y-106281942D02*
X148380075Y-105996228D01*
X148380075Y-105996228D02*
X148427694Y-105900990D01*
X148427694Y-105900990D02*
X148475313Y-105853371D01*
X148475313Y-105853371D02*
X148570551Y-105805752D01*
X148570551Y-105805752D02*
X148713408Y-105805752D01*
X148713408Y-105805752D02*
X148808646Y-105853371D01*
X148808646Y-105853371D02*
X148856265Y-105900990D01*
X148856265Y-105900990D02*
X148903884Y-105996228D01*
X148903884Y-105996228D02*
X148903884Y-106281942D01*
X148903884Y-106281942D02*
X148856265Y-106377180D01*
X148856265Y-106377180D02*
X148808646Y-106424800D01*
X148808646Y-106424800D02*
X148713408Y-106472419D01*
X148713408Y-106472419D02*
X148570551Y-106472419D01*
X149332456Y-106472419D02*
X149332456Y-105805752D01*
X149332456Y-105996228D02*
X149380075Y-105900990D01*
X149380075Y-105900990D02*
X149427694Y-105853371D01*
X149427694Y-105853371D02*
X149522932Y-105805752D01*
X149522932Y-105805752D02*
X149618170Y-105805752D01*
X149951504Y-106472419D02*
X149951504Y-105805752D01*
X149951504Y-105472419D02*
X149903885Y-105520038D01*
X149903885Y-105520038D02*
X149951504Y-105567657D01*
X149951504Y-105567657D02*
X149999123Y-105520038D01*
X149999123Y-105520038D02*
X149951504Y-105472419D01*
X149951504Y-105472419D02*
X149951504Y-105567657D01*
X150284837Y-105805752D02*
X150665789Y-105805752D01*
X150427694Y-105472419D02*
X150427694Y-106329561D01*
X150427694Y-106329561D02*
X150475313Y-106424800D01*
X150475313Y-106424800D02*
X150570551Y-106472419D01*
X150570551Y-106472419D02*
X150665789Y-106472419D01*
X152332456Y-106377180D02*
X152284837Y-106424800D01*
X152284837Y-106424800D02*
X152141980Y-106472419D01*
X152141980Y-106472419D02*
X152046742Y-106472419D01*
X152046742Y-106472419D02*
X151903885Y-106424800D01*
X151903885Y-106424800D02*
X151808647Y-106329561D01*
X151808647Y-106329561D02*
X151761028Y-106234323D01*
X151761028Y-106234323D02*
X151713409Y-106043847D01*
X151713409Y-106043847D02*
X151713409Y-105900990D01*
X151713409Y-105900990D02*
X151761028Y-105710514D01*
X151761028Y-105710514D02*
X151808647Y-105615276D01*
X151808647Y-105615276D02*
X151903885Y-105520038D01*
X151903885Y-105520038D02*
X152046742Y-105472419D01*
X152046742Y-105472419D02*
X152141980Y-105472419D01*
X152141980Y-105472419D02*
X152284837Y-105520038D01*
X152284837Y-105520038D02*
X152332456Y-105567657D01*
X152903885Y-106472419D02*
X152808647Y-106424800D01*
X152808647Y-106424800D02*
X152761028Y-106377180D01*
X152761028Y-106377180D02*
X152713409Y-106281942D01*
X152713409Y-106281942D02*
X152713409Y-105996228D01*
X152713409Y-105996228D02*
X152761028Y-105900990D01*
X152761028Y-105900990D02*
X152808647Y-105853371D01*
X152808647Y-105853371D02*
X152903885Y-105805752D01*
X152903885Y-105805752D02*
X153046742Y-105805752D01*
X153046742Y-105805752D02*
X153141980Y-105853371D01*
X153141980Y-105853371D02*
X153189599Y-105900990D01*
X153189599Y-105900990D02*
X153237218Y-105996228D01*
X153237218Y-105996228D02*
X153237218Y-106281942D01*
X153237218Y-106281942D02*
X153189599Y-106377180D01*
X153189599Y-106377180D02*
X153141980Y-106424800D01*
X153141980Y-106424800D02*
X153046742Y-106472419D01*
X153046742Y-106472419D02*
X152903885Y-106472419D01*
X153665790Y-105805752D02*
X153665790Y-106472419D01*
X153665790Y-105900990D02*
X153713409Y-105853371D01*
X153713409Y-105853371D02*
X153808647Y-105805752D01*
X153808647Y-105805752D02*
X153951504Y-105805752D01*
X153951504Y-105805752D02*
X154046742Y-105853371D01*
X154046742Y-105853371D02*
X154094361Y-105948609D01*
X154094361Y-105948609D02*
X154094361Y-106472419D01*
X154427695Y-105805752D02*
X154808647Y-105805752D01*
X154570552Y-105472419D02*
X154570552Y-106329561D01*
X154570552Y-106329561D02*
X154618171Y-106424800D01*
X154618171Y-106424800D02*
X154713409Y-106472419D01*
X154713409Y-106472419D02*
X154808647Y-106472419D01*
X155141981Y-106472419D02*
X155141981Y-105805752D01*
X155141981Y-105996228D02*
X155189600Y-105900990D01*
X155189600Y-105900990D02*
X155237219Y-105853371D01*
X155237219Y-105853371D02*
X155332457Y-105805752D01*
X155332457Y-105805752D02*
X155427695Y-105805752D01*
X155903886Y-106472419D02*
X155808648Y-106424800D01*
X155808648Y-106424800D02*
X155761029Y-106377180D01*
X155761029Y-106377180D02*
X155713410Y-106281942D01*
X155713410Y-106281942D02*
X155713410Y-105996228D01*
X155713410Y-105996228D02*
X155761029Y-105900990D01*
X155761029Y-105900990D02*
X155808648Y-105853371D01*
X155808648Y-105853371D02*
X155903886Y-105805752D01*
X155903886Y-105805752D02*
X156046743Y-105805752D01*
X156046743Y-105805752D02*
X156141981Y-105853371D01*
X156141981Y-105853371D02*
X156189600Y-105900990D01*
X156189600Y-105900990D02*
X156237219Y-105996228D01*
X156237219Y-105996228D02*
X156237219Y-106281942D01*
X156237219Y-106281942D02*
X156189600Y-106377180D01*
X156189600Y-106377180D02*
X156141981Y-106424800D01*
X156141981Y-106424800D02*
X156046743Y-106472419D01*
X156046743Y-106472419D02*
X155903886Y-106472419D01*
X156808648Y-106472419D02*
X156713410Y-106424800D01*
X156713410Y-106424800D02*
X156665791Y-106329561D01*
X156665791Y-106329561D02*
X156665791Y-105472419D01*
X158284839Y-105948609D02*
X158427696Y-105996228D01*
X158427696Y-105996228D02*
X158475315Y-106043847D01*
X158475315Y-106043847D02*
X158522934Y-106139085D01*
X158522934Y-106139085D02*
X158522934Y-106281942D01*
X158522934Y-106281942D02*
X158475315Y-106377180D01*
X158475315Y-106377180D02*
X158427696Y-106424800D01*
X158427696Y-106424800D02*
X158332458Y-106472419D01*
X158332458Y-106472419D02*
X157951506Y-106472419D01*
X157951506Y-106472419D02*
X157951506Y-105472419D01*
X157951506Y-105472419D02*
X158284839Y-105472419D01*
X158284839Y-105472419D02*
X158380077Y-105520038D01*
X158380077Y-105520038D02*
X158427696Y-105567657D01*
X158427696Y-105567657D02*
X158475315Y-105662895D01*
X158475315Y-105662895D02*
X158475315Y-105758133D01*
X158475315Y-105758133D02*
X158427696Y-105853371D01*
X158427696Y-105853371D02*
X158380077Y-105900990D01*
X158380077Y-105900990D02*
X158284839Y-105948609D01*
X158284839Y-105948609D02*
X157951506Y-105948609D01*
X159094363Y-106472419D02*
X158999125Y-106424800D01*
X158999125Y-106424800D02*
X158951506Y-106377180D01*
X158951506Y-106377180D02*
X158903887Y-106281942D01*
X158903887Y-106281942D02*
X158903887Y-105996228D01*
X158903887Y-105996228D02*
X158951506Y-105900990D01*
X158951506Y-105900990D02*
X158999125Y-105853371D01*
X158999125Y-105853371D02*
X159094363Y-105805752D01*
X159094363Y-105805752D02*
X159237220Y-105805752D01*
X159237220Y-105805752D02*
X159332458Y-105853371D01*
X159332458Y-105853371D02*
X159380077Y-105900990D01*
X159380077Y-105900990D02*
X159427696Y-105996228D01*
X159427696Y-105996228D02*
X159427696Y-106281942D01*
X159427696Y-106281942D02*
X159380077Y-106377180D01*
X159380077Y-106377180D02*
X159332458Y-106424800D01*
X159332458Y-106424800D02*
X159237220Y-106472419D01*
X159237220Y-106472419D02*
X159094363Y-106472419D01*
X160284839Y-106472419D02*
X160284839Y-105948609D01*
X160284839Y-105948609D02*
X160237220Y-105853371D01*
X160237220Y-105853371D02*
X160141982Y-105805752D01*
X160141982Y-105805752D02*
X159951506Y-105805752D01*
X159951506Y-105805752D02*
X159856268Y-105853371D01*
X160284839Y-106424800D02*
X160189601Y-106472419D01*
X160189601Y-106472419D02*
X159951506Y-106472419D01*
X159951506Y-106472419D02*
X159856268Y-106424800D01*
X159856268Y-106424800D02*
X159808649Y-106329561D01*
X159808649Y-106329561D02*
X159808649Y-106234323D01*
X159808649Y-106234323D02*
X159856268Y-106139085D01*
X159856268Y-106139085D02*
X159951506Y-106091466D01*
X159951506Y-106091466D02*
X160189601Y-106091466D01*
X160189601Y-106091466D02*
X160284839Y-106043847D01*
X160761030Y-106472419D02*
X160761030Y-105805752D01*
X160761030Y-105996228D02*
X160808649Y-105900990D01*
X160808649Y-105900990D02*
X160856268Y-105853371D01*
X160856268Y-105853371D02*
X160951506Y-105805752D01*
X160951506Y-105805752D02*
X161046744Y-105805752D01*
X161808649Y-106472419D02*
X161808649Y-105472419D01*
X161808649Y-106424800D02*
X161713411Y-106472419D01*
X161713411Y-106472419D02*
X161522935Y-106472419D01*
X161522935Y-106472419D02*
X161427697Y-106424800D01*
X161427697Y-106424800D02*
X161380078Y-106377180D01*
X161380078Y-106377180D02*
X161332459Y-106281942D01*
X161332459Y-106281942D02*
X161332459Y-105996228D01*
X161332459Y-105996228D02*
X161380078Y-105900990D01*
X161380078Y-105900990D02*
X161427697Y-105853371D01*
X161427697Y-105853371D02*
X161522935Y-105805752D01*
X161522935Y-105805752D02*
X161713411Y-105805752D01*
X161713411Y-105805752D02*
X161808649Y-105853371D01*
X163618173Y-106472419D02*
X163284840Y-105996228D01*
X163046745Y-106472419D02*
X163046745Y-105472419D01*
X163046745Y-105472419D02*
X163427697Y-105472419D01*
X163427697Y-105472419D02*
X163522935Y-105520038D01*
X163522935Y-105520038D02*
X163570554Y-105567657D01*
X163570554Y-105567657D02*
X163618173Y-105662895D01*
X163618173Y-105662895D02*
X163618173Y-105805752D01*
X163618173Y-105805752D02*
X163570554Y-105900990D01*
X163570554Y-105900990D02*
X163522935Y-105948609D01*
X163522935Y-105948609D02*
X163427697Y-105996228D01*
X163427697Y-105996228D02*
X163046745Y-105996228D01*
X164427697Y-106424800D02*
X164332459Y-106472419D01*
X164332459Y-106472419D02*
X164141983Y-106472419D01*
X164141983Y-106472419D02*
X164046745Y-106424800D01*
X164046745Y-106424800D02*
X163999126Y-106329561D01*
X163999126Y-106329561D02*
X163999126Y-105948609D01*
X163999126Y-105948609D02*
X164046745Y-105853371D01*
X164046745Y-105853371D02*
X164141983Y-105805752D01*
X164141983Y-105805752D02*
X164332459Y-105805752D01*
X164332459Y-105805752D02*
X164427697Y-105853371D01*
X164427697Y-105853371D02*
X164475316Y-105948609D01*
X164475316Y-105948609D02*
X164475316Y-106043847D01*
X164475316Y-106043847D02*
X163999126Y-106139085D01*
X164808650Y-105805752D02*
X165046745Y-106472419D01*
X165046745Y-106472419D02*
X165284840Y-105805752D01*
X166189602Y-106472419D02*
X165618174Y-106472419D01*
X165903888Y-106472419D02*
X165903888Y-105472419D01*
X165903888Y-105472419D02*
X165808650Y-105615276D01*
X165808650Y-105615276D02*
X165713412Y-105710514D01*
X165713412Y-105710514D02*
X165618174Y-105758133D01*
D10*
X146244140Y-80718738D02*
X146148902Y-80671119D01*
X146148902Y-80671119D02*
X146006045Y-80671119D01*
X146006045Y-80671119D02*
X145863188Y-80718738D01*
X145863188Y-80718738D02*
X145767950Y-80813976D01*
X145767950Y-80813976D02*
X145720331Y-80909214D01*
X145720331Y-80909214D02*
X145672712Y-81099690D01*
X145672712Y-81099690D02*
X145672712Y-81242547D01*
X145672712Y-81242547D02*
X145720331Y-81433023D01*
X145720331Y-81433023D02*
X145767950Y-81528261D01*
X145767950Y-81528261D02*
X145863188Y-81623500D01*
X145863188Y-81623500D02*
X146006045Y-81671119D01*
X146006045Y-81671119D02*
X146101283Y-81671119D01*
X146101283Y-81671119D02*
X146244140Y-81623500D01*
X146244140Y-81623500D02*
X146291759Y-81575880D01*
X146291759Y-81575880D02*
X146291759Y-81242547D01*
X146291759Y-81242547D02*
X146101283Y-81242547D01*
X146720331Y-81671119D02*
X146720331Y-80671119D01*
X146720331Y-80671119D02*
X147291759Y-81671119D01*
X147291759Y-81671119D02*
X147291759Y-80671119D01*
X147767950Y-81671119D02*
X147767950Y-80671119D01*
X147767950Y-80671119D02*
X148006045Y-80671119D01*
X148006045Y-80671119D02*
X148148902Y-80718738D01*
X148148902Y-80718738D02*
X148244140Y-80813976D01*
X148244140Y-80813976D02*
X148291759Y-80909214D01*
X148291759Y-80909214D02*
X148339378Y-81099690D01*
X148339378Y-81099690D02*
X148339378Y-81242547D01*
X148339378Y-81242547D02*
X148291759Y-81433023D01*
X148291759Y-81433023D02*
X148244140Y-81528261D01*
X148244140Y-81528261D02*
X148148902Y-81623500D01*
X148148902Y-81623500D02*
X148006045Y-81671119D01*
X148006045Y-81671119D02*
X147767950Y-81671119D01*
D11*
X151549681Y-86994267D02*
X151073491Y-86994267D01*
X151073491Y-86994267D02*
X151073491Y-85994267D01*
X152406824Y-86994267D02*
X151835396Y-86994267D01*
X152121110Y-86994267D02*
X152121110Y-85994267D01*
X152121110Y-85994267D02*
X152025872Y-86137124D01*
X152025872Y-86137124D02*
X151930634Y-86232362D01*
X151930634Y-86232362D02*
X151835396Y-86279981D01*
D13*
X122977499Y-91239339D02*
X122977499Y-90972673D01*
X123396547Y-90858387D02*
X123396547Y-91239339D01*
X123396547Y-91239339D02*
X122596547Y-91239339D01*
X122596547Y-91239339D02*
X122596547Y-90858387D01*
X123358452Y-90553625D02*
X123396547Y-90439339D01*
X123396547Y-90439339D02*
X123396547Y-90248863D01*
X123396547Y-90248863D02*
X123358452Y-90172672D01*
X123358452Y-90172672D02*
X123320356Y-90134577D01*
X123320356Y-90134577D02*
X123244166Y-90096482D01*
X123244166Y-90096482D02*
X123167975Y-90096482D01*
X123167975Y-90096482D02*
X123091785Y-90134577D01*
X123091785Y-90134577D02*
X123053690Y-90172672D01*
X123053690Y-90172672D02*
X123015594Y-90248863D01*
X123015594Y-90248863D02*
X122977499Y-90401244D01*
X122977499Y-90401244D02*
X122939404Y-90477434D01*
X122939404Y-90477434D02*
X122901309Y-90515529D01*
X122901309Y-90515529D02*
X122825118Y-90553625D01*
X122825118Y-90553625D02*
X122748928Y-90553625D01*
X122748928Y-90553625D02*
X122672737Y-90515529D01*
X122672737Y-90515529D02*
X122634642Y-90477434D01*
X122634642Y-90477434D02*
X122596547Y-90401244D01*
X122596547Y-90401244D02*
X122596547Y-90210767D01*
X122596547Y-90210767D02*
X122634642Y-90096482D01*
X123396547Y-89753624D02*
X122596547Y-89753624D01*
X122596547Y-89753624D02*
X122596547Y-89448862D01*
X122596547Y-89448862D02*
X122634642Y-89372672D01*
X122634642Y-89372672D02*
X122672737Y-89334577D01*
X122672737Y-89334577D02*
X122748928Y-89296481D01*
X122748928Y-89296481D02*
X122863213Y-89296481D01*
X122863213Y-89296481D02*
X122939404Y-89334577D01*
X122939404Y-89334577D02*
X122977499Y-89372672D01*
X122977499Y-89372672D02*
X123015594Y-89448862D01*
X123015594Y-89448862D02*
X123015594Y-89753624D01*
X122596547Y-89029815D02*
X122596547Y-88534577D01*
X122596547Y-88534577D02*
X122901309Y-88801243D01*
X122901309Y-88801243D02*
X122901309Y-88686958D01*
X122901309Y-88686958D02*
X122939404Y-88610767D01*
X122939404Y-88610767D02*
X122977499Y-88572672D01*
X122977499Y-88572672D02*
X123053690Y-88534577D01*
X123053690Y-88534577D02*
X123244166Y-88534577D01*
X123244166Y-88534577D02*
X123320356Y-88572672D01*
X123320356Y-88572672D02*
X123358452Y-88610767D01*
X123358452Y-88610767D02*
X123396547Y-88686958D01*
X123396547Y-88686958D02*
X123396547Y-88915529D01*
X123396547Y-88915529D02*
X123358452Y-88991720D01*
X123358452Y-88991720D02*
X123320356Y-89029815D01*
X122672737Y-88229815D02*
X122634642Y-88191719D01*
X122634642Y-88191719D02*
X122596547Y-88115529D01*
X122596547Y-88115529D02*
X122596547Y-87925053D01*
X122596547Y-87925053D02*
X122634642Y-87848862D01*
X122634642Y-87848862D02*
X122672737Y-87810767D01*
X122672737Y-87810767D02*
X122748928Y-87772672D01*
X122748928Y-87772672D02*
X122825118Y-87772672D01*
X122825118Y-87772672D02*
X122939404Y-87810767D01*
X122939404Y-87810767D02*
X123396547Y-88267910D01*
X123396547Y-88267910D02*
X123396547Y-87772672D01*
D10*
X130464523Y-77956119D02*
X129988333Y-77956119D01*
X129988333Y-77956119D02*
X129940714Y-78432309D01*
X129940714Y-78432309D02*
X129988333Y-78384690D01*
X129988333Y-78384690D02*
X130083571Y-78337071D01*
X130083571Y-78337071D02*
X130321666Y-78337071D01*
X130321666Y-78337071D02*
X130416904Y-78384690D01*
X130416904Y-78384690D02*
X130464523Y-78432309D01*
X130464523Y-78432309D02*
X130512142Y-78527547D01*
X130512142Y-78527547D02*
X130512142Y-78765642D01*
X130512142Y-78765642D02*
X130464523Y-78860880D01*
X130464523Y-78860880D02*
X130416904Y-78908500D01*
X130416904Y-78908500D02*
X130321666Y-78956119D01*
X130321666Y-78956119D02*
X130083571Y-78956119D01*
X130083571Y-78956119D02*
X129988333Y-78908500D01*
X129988333Y-78908500D02*
X129940714Y-78860880D01*
X130797857Y-77956119D02*
X131131190Y-78956119D01*
X131131190Y-78956119D02*
X131464523Y-77956119D01*
D11*
X164354819Y-85384800D02*
X165354819Y-85051467D01*
X165354819Y-85051467D02*
X164354819Y-84718134D01*
X164831009Y-84051467D02*
X164878628Y-83908610D01*
X164878628Y-83908610D02*
X164926247Y-83860991D01*
X164926247Y-83860991D02*
X165021485Y-83813372D01*
X165021485Y-83813372D02*
X165164342Y-83813372D01*
X165164342Y-83813372D02*
X165259580Y-83860991D01*
X165259580Y-83860991D02*
X165307200Y-83908610D01*
X165307200Y-83908610D02*
X165354819Y-84003848D01*
X165354819Y-84003848D02*
X165354819Y-84384800D01*
X165354819Y-84384800D02*
X164354819Y-84384800D01*
X164354819Y-84384800D02*
X164354819Y-84051467D01*
X164354819Y-84051467D02*
X164402438Y-83956229D01*
X164402438Y-83956229D02*
X164450057Y-83908610D01*
X164450057Y-83908610D02*
X164545295Y-83860991D01*
X164545295Y-83860991D02*
X164640533Y-83860991D01*
X164640533Y-83860991D02*
X164735771Y-83908610D01*
X164735771Y-83908610D02*
X164783390Y-83956229D01*
X164783390Y-83956229D02*
X164831009Y-84051467D01*
X164831009Y-84051467D02*
X164831009Y-84384800D01*
X165069104Y-83432419D02*
X165069104Y-82956229D01*
X165354819Y-83527657D02*
X164354819Y-83194324D01*
X164354819Y-83194324D02*
X165354819Y-82860991D01*
X164354819Y-82670514D02*
X164354819Y-82099086D01*
X165354819Y-82384800D02*
X164354819Y-82384800D01*
X164814700Y-80713372D02*
X164814700Y-79570515D01*
X165386128Y-80141943D02*
X164243271Y-80141943D01*
X164814700Y-87813372D02*
X164814700Y-86670515D01*
X171054819Y-94261904D02*
X170054819Y-94261904D01*
X170054819Y-94261904D02*
X170769104Y-93928571D01*
X170769104Y-93928571D02*
X170054819Y-93595238D01*
X170054819Y-93595238D02*
X171054819Y-93595238D01*
X170054819Y-92928571D02*
X170054819Y-92738095D01*
X170054819Y-92738095D02*
X170102438Y-92642857D01*
X170102438Y-92642857D02*
X170197676Y-92547619D01*
X170197676Y-92547619D02*
X170388152Y-92500000D01*
X170388152Y-92500000D02*
X170721485Y-92500000D01*
X170721485Y-92500000D02*
X170911961Y-92547619D01*
X170911961Y-92547619D02*
X171007200Y-92642857D01*
X171007200Y-92642857D02*
X171054819Y-92738095D01*
X171054819Y-92738095D02*
X171054819Y-92928571D01*
X171054819Y-92928571D02*
X171007200Y-93023809D01*
X171007200Y-93023809D02*
X170911961Y-93119047D01*
X170911961Y-93119047D02*
X170721485Y-93166666D01*
X170721485Y-93166666D02*
X170388152Y-93166666D01*
X170388152Y-93166666D02*
X170197676Y-93119047D01*
X170197676Y-93119047D02*
X170102438Y-93023809D01*
X170102438Y-93023809D02*
X170054819Y-92928571D01*
X170054819Y-92214285D02*
X170054819Y-91642857D01*
X171054819Y-91928571D02*
X170054819Y-91928571D01*
X170054819Y-91119047D02*
X170054819Y-90928571D01*
X170054819Y-90928571D02*
X170102438Y-90833333D01*
X170102438Y-90833333D02*
X170197676Y-90738095D01*
X170197676Y-90738095D02*
X170388152Y-90690476D01*
X170388152Y-90690476D02*
X170721485Y-90690476D01*
X170721485Y-90690476D02*
X170911961Y-90738095D01*
X170911961Y-90738095D02*
X171007200Y-90833333D01*
X171007200Y-90833333D02*
X171054819Y-90928571D01*
X171054819Y-90928571D02*
X171054819Y-91119047D01*
X171054819Y-91119047D02*
X171007200Y-91214285D01*
X171007200Y-91214285D02*
X170911961Y-91309523D01*
X170911961Y-91309523D02*
X170721485Y-91357142D01*
X170721485Y-91357142D02*
X170388152Y-91357142D01*
X170388152Y-91357142D02*
X170197676Y-91309523D01*
X170197676Y-91309523D02*
X170102438Y-91214285D01*
X170102438Y-91214285D02*
X170054819Y-91119047D01*
X171054819Y-89690476D02*
X170578628Y-90023809D01*
X171054819Y-90261904D02*
X170054819Y-90261904D01*
X170054819Y-90261904D02*
X170054819Y-89880952D01*
X170054819Y-89880952D02*
X170102438Y-89785714D01*
X170102438Y-89785714D02*
X170150057Y-89738095D01*
X170150057Y-89738095D02*
X170245295Y-89690476D01*
X170245295Y-89690476D02*
X170388152Y-89690476D01*
X170388152Y-89690476D02*
X170483390Y-89738095D01*
X170483390Y-89738095D02*
X170531009Y-89785714D01*
X170531009Y-89785714D02*
X170578628Y-89880952D01*
X170578628Y-89880952D02*
X170578628Y-90261904D01*
D14*
G04 #@! TO.C,G\u002A\u002A\u002A*
G36*
X150969974Y-79642521D02*
G01*
X151004824Y-79661613D01*
X151035764Y-79686650D01*
X151068620Y-79722579D01*
X151078554Y-79734764D01*
X151132353Y-79801884D01*
X151104030Y-79806769D01*
X151081468Y-79816379D01*
X151052978Y-79836190D01*
X151032163Y-79854679D01*
X150988620Y-79897704D01*
X150844444Y-79901728D01*
X150700269Y-79905752D01*
X150676671Y-79873006D01*
X150639377Y-79836778D01*
X150589735Y-79810477D01*
X150532790Y-79795135D01*
X150473591Y-79791786D01*
X150417185Y-79801461D01*
X150387137Y-79813762D01*
X150329584Y-79854468D01*
X150282478Y-79909383D01*
X150263044Y-79943004D01*
X150249832Y-79975863D01*
X150243830Y-80010025D01*
X150243408Y-80053539D01*
X150254414Y-80124549D01*
X150281239Y-80185031D01*
X150322502Y-80233719D01*
X150376818Y-80269345D01*
X150442805Y-80290645D01*
X150508867Y-80296534D01*
X150570092Y-80290424D01*
X150621575Y-80271134D01*
X150668077Y-80237837D01*
X150702848Y-80207307D01*
X150857866Y-80207344D01*
X151012884Y-80207380D01*
X150983577Y-80226160D01*
X150964283Y-80241119D01*
X150936015Y-80266225D01*
X150903220Y-80297427D01*
X150882243Y-80318387D01*
X150848652Y-80350982D01*
X150816341Y-80379466D01*
X150789866Y-80399955D01*
X150778190Y-80407032D01*
X150755306Y-80412920D01*
X150717122Y-80417440D01*
X150667827Y-80420574D01*
X150611614Y-80422304D01*
X150552672Y-80422613D01*
X150495193Y-80421484D01*
X150443368Y-80418897D01*
X150401387Y-80414837D01*
X150373442Y-80409284D01*
X150371877Y-80408753D01*
X150339259Y-80394239D01*
X150309054Y-80376539D01*
X150308122Y-80375882D01*
X150291331Y-80361883D01*
X150264625Y-80337199D01*
X150230259Y-80304127D01*
X150190486Y-80264962D01*
X150147560Y-80222000D01*
X150103735Y-80177536D01*
X150061265Y-80133867D01*
X150022403Y-80093287D01*
X149989404Y-80058093D01*
X149964520Y-80030580D01*
X149950006Y-80013044D01*
X149947213Y-80008263D01*
X149951867Y-79992105D01*
X149965833Y-79971840D01*
X149966177Y-79971455D01*
X149980599Y-79954904D01*
X150004250Y-79927267D01*
X150033813Y-79892437D01*
X150065013Y-79855449D01*
X150095241Y-79819616D01*
X150120911Y-79789408D01*
X150139414Y-79767876D01*
X150148142Y-79758076D01*
X150148304Y-79757923D01*
X150156898Y-79748023D01*
X150173207Y-79727815D01*
X150186308Y-79711149D01*
X150232318Y-79666568D01*
X150288077Y-79636044D01*
X150314384Y-79627995D01*
X150330152Y-79626462D01*
X150362771Y-79624916D01*
X150409552Y-79623429D01*
X150467809Y-79622071D01*
X150534853Y-79620911D01*
X150607997Y-79620019D01*
X150627000Y-79619846D01*
X150915192Y-79617397D01*
X150969974Y-79642521D01*
G37*
G36*
X150615363Y-78527778D02*
G01*
X150775497Y-78527852D01*
X150917307Y-78528002D01*
X151042005Y-78528275D01*
X151150808Y-78528717D01*
X151244928Y-78529375D01*
X151325580Y-78530296D01*
X151393977Y-78531525D01*
X151451334Y-78533111D01*
X151498864Y-78535098D01*
X151537782Y-78537534D01*
X151569302Y-78540466D01*
X151594637Y-78543939D01*
X151615002Y-78548001D01*
X151631610Y-78552697D01*
X151645676Y-78558076D01*
X151658414Y-78564182D01*
X151665650Y-78568064D01*
X151687310Y-78578102D01*
X151699734Y-78581921D01*
X151718839Y-78589819D01*
X151748210Y-78607219D01*
X151783278Y-78630906D01*
X151819477Y-78657664D01*
X151852236Y-78684279D01*
X151874423Y-78704856D01*
X151927488Y-78770635D01*
X151973541Y-78850389D01*
X152009985Y-78939060D01*
X152028843Y-79005692D01*
X152032550Y-79019458D01*
X152040780Y-79048684D01*
X152052592Y-79090071D01*
X152067046Y-79140323D01*
X152081511Y-79190317D01*
X152097005Y-79245099D01*
X152109931Y-79293469D01*
X152119512Y-79332292D01*
X152124972Y-79358434D01*
X152125679Y-79368605D01*
X152127989Y-79376295D01*
X152131930Y-79376923D01*
X152139023Y-79383979D01*
X152137818Y-79391264D01*
X152137399Y-79406658D01*
X152140675Y-79410772D01*
X152146898Y-79421959D01*
X152155390Y-79445638D01*
X152164214Y-79475219D01*
X152171433Y-79504113D01*
X152175109Y-79525731D01*
X152175245Y-79528346D01*
X152180274Y-79542176D01*
X152181112Y-79543000D01*
X152186737Y-79555238D01*
X152195100Y-79582367D01*
X152205185Y-79620101D01*
X152215979Y-79664157D01*
X152226467Y-79710249D01*
X152235636Y-79754094D01*
X152242470Y-79791406D01*
X152245838Y-79816440D01*
X152246148Y-79848665D01*
X152242988Y-79887881D01*
X152237225Y-79929214D01*
X152229726Y-79967792D01*
X152221361Y-79998741D01*
X152212996Y-80017188D01*
X152209572Y-80020078D01*
X152203910Y-80029213D01*
X152205069Y-80032009D01*
X152204637Y-80046048D01*
X152196392Y-80067229D01*
X152184408Y-80087606D01*
X152172758Y-80099236D01*
X152170287Y-80099846D01*
X152162906Y-80106738D01*
X152163211Y-80109238D01*
X152158077Y-80120384D01*
X152142271Y-80140871D01*
X152119124Y-80166413D01*
X152117317Y-80168277D01*
X152065380Y-80211863D01*
X152003382Y-80248704D01*
X151938696Y-80274881D01*
X151899038Y-80284269D01*
X151858523Y-80288417D01*
X151816060Y-80289156D01*
X151777389Y-80286771D01*
X151748253Y-80281546D01*
X151736425Y-80276205D01*
X151723022Y-80270181D01*
X151718784Y-80271549D01*
X151706991Y-80270874D01*
X151683480Y-80261464D01*
X151652616Y-80245679D01*
X151618764Y-80225877D01*
X151586290Y-80204417D01*
X151565685Y-80188833D01*
X151542483Y-80167498D01*
X151514472Y-80138224D01*
X151484343Y-80104297D01*
X151454792Y-80069006D01*
X151428512Y-80035638D01*
X151408198Y-80007482D01*
X151396543Y-79987825D01*
X151395101Y-79980646D01*
X151394003Y-79974624D01*
X151391505Y-79975046D01*
X151383008Y-79968599D01*
X151364460Y-79949052D01*
X151337858Y-79918690D01*
X151305194Y-79879795D01*
X151268465Y-79834653D01*
X151263739Y-79828750D01*
X151227487Y-79783037D01*
X151196266Y-79742999D01*
X151171825Y-79710936D01*
X151155911Y-79689146D01*
X151150273Y-79679926D01*
X151150411Y-79679769D01*
X151149069Y-79674641D01*
X151135321Y-79661142D01*
X151112772Y-79642098D01*
X151085030Y-79620336D01*
X151055699Y-79598682D01*
X151028384Y-79579963D01*
X151006692Y-79567005D01*
X151006315Y-79566811D01*
X150975339Y-79552277D01*
X150944483Y-79541303D01*
X150910366Y-79533426D01*
X150869608Y-79528184D01*
X150818830Y-79525115D01*
X150754652Y-79523756D01*
X150690500Y-79523590D01*
X150588104Y-79524059D01*
X150503075Y-79525155D01*
X150433242Y-79527187D01*
X150376435Y-79530461D01*
X150330486Y-79535287D01*
X150293225Y-79541973D01*
X150262481Y-79550825D01*
X150236085Y-79562153D01*
X150211867Y-79576264D01*
X150187658Y-79593466D01*
X150185234Y-79595307D01*
X150163055Y-79609447D01*
X150146887Y-79614786D01*
X150143438Y-79613780D01*
X150139799Y-79613337D01*
X150141950Y-79617929D01*
X150139680Y-79631181D01*
X150125128Y-79647719D01*
X150123977Y-79648643D01*
X150106973Y-79663831D01*
X150099479Y-79674112D01*
X150099461Y-79674369D01*
X150093690Y-79684369D01*
X150078288Y-79705519D01*
X150056121Y-79733952D01*
X150046218Y-79746233D01*
X150018041Y-79780861D01*
X149982428Y-79824639D01*
X149944268Y-79871557D01*
X149913537Y-79909346D01*
X149861958Y-79972581D01*
X149820402Y-80022985D01*
X149786734Y-80063020D01*
X149758819Y-80095148D01*
X149734521Y-80121833D01*
X149711704Y-80145537D01*
X149690624Y-80166404D01*
X149618071Y-80224586D01*
X149539133Y-80264305D01*
X149453851Y-80285546D01*
X149362266Y-80288295D01*
X149357000Y-80287906D01*
X149320347Y-80283148D01*
X149286752Y-80275631D01*
X149260768Y-80266771D01*
X149246949Y-80257988D01*
X149246340Y-80253424D01*
X149246225Y-80248046D01*
X149241565Y-80250159D01*
X149223919Y-80250481D01*
X149197230Y-80238416D01*
X149164854Y-80216679D01*
X149130144Y-80187985D01*
X149096456Y-80155049D01*
X149067144Y-80120586D01*
X149049809Y-80094961D01*
X149014186Y-80016556D01*
X148992968Y-79929987D01*
X148987675Y-79841780D01*
X148988211Y-79830938D01*
X148991505Y-79791814D01*
X148995788Y-79759480D01*
X149000275Y-79739506D01*
X149001483Y-79736850D01*
X149007106Y-79716306D01*
X149006711Y-79705566D01*
X149008067Y-79693106D01*
X149015791Y-79694864D01*
X149023264Y-79696810D01*
X149020645Y-79690645D01*
X149020722Y-79677765D01*
X149025556Y-79650642D01*
X149033994Y-79613510D01*
X149044881Y-79570600D01*
X149057062Y-79526146D01*
X149069384Y-79484380D01*
X149080692Y-79449536D01*
X149089832Y-79425845D01*
X149095106Y-79417608D01*
X149099131Y-79408289D01*
X149098240Y-79406433D01*
X149098827Y-79394358D01*
X149104203Y-79367810D01*
X149113423Y-79330992D01*
X149122814Y-79297364D01*
X149126646Y-79284115D01*
X149532846Y-79284115D01*
X149537730Y-79289000D01*
X149542615Y-79284115D01*
X149537730Y-79279230D01*
X149532846Y-79284115D01*
X149126646Y-79284115D01*
X149136861Y-79248796D01*
X149154126Y-79188625D01*
X149160794Y-79165252D01*
X149474044Y-79165252D01*
X149475460Y-79203175D01*
X149479143Y-79235130D01*
X149484996Y-79255341D01*
X149487396Y-79258456D01*
X149502832Y-79263523D01*
X149532823Y-79267549D01*
X149572388Y-79269957D01*
X149589972Y-79270341D01*
X149679384Y-79271299D01*
X149679384Y-79372403D01*
X149680283Y-79425276D01*
X149684831Y-79461688D01*
X149695805Y-79484700D01*
X149715983Y-79497370D01*
X149748142Y-79502757D01*
X149795058Y-79503920D01*
X149798789Y-79503923D01*
X149839553Y-79503081D01*
X149866024Y-79499830D01*
X149883401Y-79493082D01*
X149894869Y-79483823D01*
X149904266Y-79472302D01*
X149910038Y-79457654D01*
X149912895Y-79435420D01*
X149913170Y-79420884D01*
X151309102Y-79420884D01*
X151309156Y-79459011D01*
X151313239Y-79484053D01*
X151323844Y-79502404D01*
X151343463Y-79520457D01*
X151349923Y-79525559D01*
X151377717Y-79543137D01*
X151407568Y-79551043D01*
X151435547Y-79552497D01*
X151469053Y-79550881D01*
X151492728Y-79543219D01*
X151516122Y-79525951D01*
X151522744Y-79519992D01*
X151543367Y-79499047D01*
X151554827Y-79479284D01*
X151560527Y-79452904D01*
X151562776Y-79428239D01*
X151564402Y-79394433D01*
X151561626Y-79372392D01*
X151552136Y-79354458D01*
X151534194Y-79333593D01*
X151513745Y-79313297D01*
X151495184Y-79302334D01*
X151470812Y-79297549D01*
X151442700Y-79296071D01*
X151389005Y-79300339D01*
X151349752Y-79317555D01*
X151324066Y-79348536D01*
X151311074Y-79394099D01*
X151309102Y-79420884D01*
X149913170Y-79420884D01*
X149913544Y-79401137D01*
X149913093Y-79369035D01*
X149911217Y-79274346D01*
X149958935Y-79272614D01*
X149999247Y-79271354D01*
X150040734Y-79270353D01*
X150050707Y-79270172D01*
X150082258Y-79267030D01*
X150100897Y-79257369D01*
X150107491Y-79249078D01*
X150115915Y-79223683D01*
X150119867Y-79186709D01*
X150119739Y-79173621D01*
X151029778Y-79173621D01*
X151043039Y-79217490D01*
X151071399Y-79256661D01*
X151094129Y-79276602D01*
X151115799Y-79286157D01*
X151145638Y-79288938D01*
X151154046Y-79289000D01*
X151189806Y-79286025D01*
X151222356Y-79278499D01*
X151233308Y-79274027D01*
X151258781Y-79252416D01*
X151282419Y-79216994D01*
X151285693Y-79210483D01*
X151296653Y-79185396D01*
X151300944Y-79170369D01*
X151298800Y-79168291D01*
X151292222Y-79166032D01*
X151292980Y-79153368D01*
X151574615Y-79153368D01*
X151576302Y-79188516D01*
X151580659Y-79218000D01*
X151585008Y-79231549D01*
X151610516Y-79260150D01*
X151647993Y-79279340D01*
X151691563Y-79287675D01*
X151735355Y-79283711D01*
X151759853Y-79274541D01*
X151796002Y-79249769D01*
X151817706Y-79218311D01*
X151827064Y-79176088D01*
X151827590Y-79142826D01*
X151825710Y-79107823D01*
X151821428Y-79086206D01*
X151812209Y-79071822D01*
X151795522Y-79058518D01*
X151791841Y-79055977D01*
X151742195Y-79031980D01*
X151692043Y-79026309D01*
X151644254Y-79038824D01*
X151606365Y-79064839D01*
X151588363Y-79083611D01*
X151578840Y-79101490D01*
X151575149Y-79125858D01*
X151574615Y-79153368D01*
X151292980Y-79153368D01*
X151293178Y-79150066D01*
X151291102Y-79113158D01*
X151272979Y-79078970D01*
X151242297Y-79050759D01*
X151202540Y-79031780D01*
X151159575Y-79025267D01*
X151111988Y-79033612D01*
X151073859Y-79056178D01*
X151046543Y-79089407D01*
X151031398Y-79129741D01*
X151029778Y-79173621D01*
X150119739Y-79173621D01*
X150119465Y-79145567D01*
X150114830Y-79107668D01*
X150106081Y-79080424D01*
X150104731Y-79078178D01*
X150095995Y-79066922D01*
X150084813Y-79059946D01*
X150066726Y-79056234D01*
X150037276Y-79054771D01*
X150000873Y-79054538D01*
X149912505Y-79054538D01*
X149915618Y-78962632D01*
X149916240Y-78923627D01*
X149915371Y-78893847D01*
X149914287Y-78885566D01*
X151310846Y-78885566D01*
X151311672Y-78921132D01*
X151315779Y-78944285D01*
X151325607Y-78962133D01*
X151343601Y-78981785D01*
X151344061Y-78982246D01*
X151367985Y-79002082D01*
X151390200Y-79013958D01*
X151397792Y-79015461D01*
X151414190Y-79019377D01*
X151418307Y-79025230D01*
X151425817Y-79034624D01*
X151428653Y-79035000D01*
X151434667Y-79029099D01*
X151433327Y-79025822D01*
X151436272Y-79018912D01*
X151445578Y-79017994D01*
X151481123Y-79011713D01*
X151517320Y-78989895D01*
X151548383Y-78956488D01*
X151562940Y-78932899D01*
X151566404Y-78919624D01*
X151563526Y-78917769D01*
X151556530Y-78914269D01*
X151561693Y-78907245D01*
X151566771Y-78890234D01*
X151564027Y-78861691D01*
X151554187Y-78827652D01*
X151551165Y-78820077D01*
X151531440Y-78795456D01*
X151498148Y-78775734D01*
X151457153Y-78763754D01*
X151430254Y-78761461D01*
X151395894Y-78763646D01*
X151370919Y-78772557D01*
X151345440Y-78791726D01*
X151345378Y-78791781D01*
X151326620Y-78809546D01*
X151316273Y-78825567D01*
X151311848Y-78846608D01*
X151310853Y-78879435D01*
X151310846Y-78885566D01*
X149914287Y-78885566D01*
X149913201Y-78877270D01*
X149911404Y-78875286D01*
X149904342Y-78872856D01*
X149904077Y-78870544D01*
X149896905Y-78859282D01*
X149874382Y-78851131D01*
X149834995Y-78845709D01*
X149796898Y-78843344D01*
X149748454Y-78842473D01*
X149715511Y-78846788D01*
X149695102Y-78859282D01*
X149684260Y-78882950D01*
X149680019Y-78920787D01*
X149679384Y-78961956D01*
X149679384Y-79054538D01*
X149586920Y-79054538D01*
X149543027Y-79054981D01*
X149514631Y-79056803D01*
X149497701Y-79060748D01*
X149488206Y-79067558D01*
X149484343Y-79073434D01*
X149478390Y-79094606D01*
X149474989Y-79127138D01*
X149474044Y-79165252D01*
X149160794Y-79165252D01*
X149172547Y-79124059D01*
X149190063Y-79062308D01*
X149192257Y-79054538D01*
X149223898Y-78952956D01*
X149257327Y-78868065D01*
X149294206Y-78797021D01*
X149336199Y-78736977D01*
X149384967Y-78685086D01*
X149430017Y-78647502D01*
X149482674Y-78610093D01*
X149529731Y-78583209D01*
X149578897Y-78563074D01*
X149636789Y-78546189D01*
X149649944Y-78543014D01*
X149663876Y-78540220D01*
X149679852Y-78537784D01*
X149699143Y-78535682D01*
X149723017Y-78533890D01*
X149752744Y-78532383D01*
X149789592Y-78531138D01*
X149834830Y-78530132D01*
X149889728Y-78529340D01*
X149955554Y-78528738D01*
X150033578Y-78528303D01*
X150125069Y-78528011D01*
X150231296Y-78527837D01*
X150353528Y-78527758D01*
X150493033Y-78527750D01*
X150615363Y-78527778D01*
G37*
G36*
X151638448Y-77114028D02*
G01*
X151828101Y-77309545D01*
X151828178Y-77928042D01*
X151828082Y-78035973D01*
X151827778Y-78137909D01*
X151827285Y-78232210D01*
X151826623Y-78317231D01*
X151825809Y-78391331D01*
X151824863Y-78452866D01*
X151823804Y-78500194D01*
X151822650Y-78531672D01*
X151821419Y-78545657D01*
X151821108Y-78546229D01*
X151809106Y-78540688D01*
X151789435Y-78527602D01*
X151787338Y-78526051D01*
X151766149Y-78513841D01*
X151732357Y-78498241D01*
X151691933Y-78481927D01*
X151674991Y-78475712D01*
X151642260Y-78464464D01*
X151614137Y-78456257D01*
X151586331Y-78450507D01*
X151554548Y-78446627D01*
X151514495Y-78444032D01*
X151461879Y-78442137D01*
X151420750Y-78441050D01*
X151252230Y-78436860D01*
X151252479Y-78401334D01*
X151253913Y-78386145D01*
X151259311Y-78370712D01*
X151270650Y-78352234D01*
X151289908Y-78327909D01*
X151319063Y-78294938D01*
X151355451Y-78255499D01*
X151392076Y-78215218D01*
X151424401Y-78177882D01*
X151449768Y-78146699D01*
X151465517Y-78124877D01*
X151468855Y-78118730D01*
X151472581Y-78098916D01*
X151475462Y-78060730D01*
X151477454Y-78005325D01*
X151478517Y-77933850D01*
X151478630Y-77852974D01*
X151477726Y-77613678D01*
X151508548Y-77581877D01*
X151525387Y-77563149D01*
X151533130Y-77551722D01*
X151532570Y-77550077D01*
X151533625Y-77544271D01*
X151545589Y-77530258D01*
X151546063Y-77529783D01*
X151559033Y-77510893D01*
X151561023Y-77495590D01*
X151561532Y-77483495D01*
X151565811Y-77481692D01*
X151571417Y-77474005D01*
X151569342Y-77460930D01*
X151567279Y-77446409D01*
X151573568Y-77446853D01*
X151580563Y-77443451D01*
X151583970Y-77421845D01*
X151584384Y-77404115D01*
X151582809Y-77376060D01*
X151578776Y-77358152D01*
X151575530Y-77354692D01*
X151570504Y-77346912D01*
X151571784Y-77335154D01*
X151571412Y-77319259D01*
X151565409Y-77315615D01*
X151558225Y-77310124D01*
X151559474Y-77306633D01*
X151558030Y-77293407D01*
X151550747Y-77283373D01*
X151541730Y-77269432D01*
X151542516Y-77263047D01*
X151541095Y-77257471D01*
X151537166Y-77257000D01*
X151528087Y-77251869D01*
X151528211Y-77249069D01*
X151523822Y-77234073D01*
X151507046Y-77213674D01*
X151482669Y-77191640D01*
X151455478Y-77171741D01*
X151430258Y-77157746D01*
X151411796Y-77153423D01*
X151408251Y-77154600D01*
X151399451Y-77153690D01*
X151398769Y-77150359D01*
X151390356Y-77144671D01*
X151368472Y-77146317D01*
X151341420Y-77147099D01*
X151329545Y-77138745D01*
X151322454Y-77130145D01*
X151320765Y-77138548D01*
X151314622Y-77147362D01*
X151294404Y-77146709D01*
X151291307Y-77146119D01*
X151269863Y-77144712D01*
X151262000Y-77150359D01*
X151256000Y-77155966D01*
X151252230Y-77154423D01*
X151243243Y-77155521D01*
X151242461Y-77159307D01*
X151236510Y-77165678D01*
X151232692Y-77164192D01*
X151223704Y-77165291D01*
X151222923Y-77169077D01*
X151216972Y-77175447D01*
X151213154Y-77173961D01*
X151204166Y-77175060D01*
X151203384Y-77178846D01*
X151197509Y-77185372D01*
X151194105Y-77184033D01*
X151183051Y-77186867D01*
X151174223Y-77198111D01*
X151159973Y-77213820D01*
X151148733Y-77217923D01*
X151138562Y-77222282D01*
X151139252Y-77226668D01*
X151136551Y-77236940D01*
X151129440Y-77241253D01*
X151119381Y-77250935D01*
X151120303Y-77256931D01*
X151119271Y-77265968D01*
X151115461Y-77266769D01*
X151109091Y-77272720D01*
X151110577Y-77276538D01*
X151109478Y-77285526D01*
X151105692Y-77286307D01*
X151099321Y-77292258D01*
X151100807Y-77296077D01*
X151099928Y-77305074D01*
X151096313Y-77305846D01*
X151090196Y-77313973D01*
X151092277Y-77331726D01*
X151094823Y-77349369D01*
X151088860Y-77351359D01*
X151086822Y-77350220D01*
X151080092Y-77350877D01*
X151077054Y-77365404D01*
X151077206Y-77396428D01*
X151077357Y-77400052D01*
X151080198Y-77445060D01*
X151084362Y-77472727D01*
X151090397Y-77485235D01*
X151098694Y-77484864D01*
X151104864Y-77485713D01*
X151102774Y-77494743D01*
X151102066Y-77508260D01*
X151106575Y-77511000D01*
X151112301Y-77516918D01*
X151110948Y-77520168D01*
X151113449Y-77531657D01*
X151122583Y-77539410D01*
X151132627Y-77547423D01*
X151130641Y-77549780D01*
X151131245Y-77556071D01*
X151143036Y-77571791D01*
X151153617Y-77583319D01*
X151185837Y-77616561D01*
X151182222Y-77815338D01*
X151180667Y-77876449D01*
X151178432Y-77931439D01*
X151175714Y-77977110D01*
X151172710Y-78010267D01*
X151169618Y-78027713D01*
X151169014Y-78029023D01*
X151157523Y-78042603D01*
X151135882Y-78064916D01*
X151108398Y-78091551D01*
X151103250Y-78096383D01*
X151047077Y-78148834D01*
X151047077Y-78014597D01*
X151046548Y-77955827D01*
X151044748Y-77913254D01*
X151041359Y-77883561D01*
X151036061Y-77863429D01*
X151031661Y-77854264D01*
X151019715Y-77838702D01*
X150996542Y-77812366D01*
X150964841Y-77778183D01*
X150927311Y-77739084D01*
X150899758Y-77711102D01*
X150783271Y-77594038D01*
X150785731Y-77258937D01*
X150786140Y-77203269D01*
X151154538Y-77203269D01*
X151159423Y-77208154D01*
X151164307Y-77203269D01*
X151159423Y-77198384D01*
X151154538Y-77203269D01*
X150786140Y-77203269D01*
X150788192Y-76923836D01*
X151118493Y-76921174D01*
X151448794Y-76918511D01*
X151638448Y-77114028D01*
G37*
G36*
X150129842Y-76917971D02*
G01*
X150470686Y-76919961D01*
X150470908Y-76954154D01*
X150471019Y-76971667D01*
X150471238Y-77006256D01*
X150471548Y-77055461D01*
X150471935Y-77116821D01*
X150472382Y-77187872D01*
X150472874Y-77266155D01*
X150473353Y-77342342D01*
X150475577Y-77696337D01*
X150599077Y-77821034D01*
X150639725Y-77862650D01*
X150676018Y-77900892D01*
X150705484Y-77933065D01*
X150725647Y-77956477D01*
X150733630Y-77967491D01*
X150737499Y-77984899D01*
X150740488Y-78017769D01*
X150742617Y-78062551D01*
X150743903Y-78115694D01*
X150744362Y-78173645D01*
X150744013Y-78232855D01*
X150742873Y-78289772D01*
X150740958Y-78340844D01*
X150738288Y-78382520D01*
X150734878Y-78411248D01*
X150731400Y-78422850D01*
X150721982Y-78429693D01*
X150703900Y-78434506D01*
X150674016Y-78437714D01*
X150629191Y-78439747D01*
X150602577Y-78440407D01*
X150485346Y-78442840D01*
X150486197Y-78338381D01*
X150485831Y-78295861D01*
X150484181Y-78261678D01*
X150481527Y-78239831D01*
X150478870Y-78233923D01*
X150471415Y-78226087D01*
X150470692Y-78220641D01*
X150463775Y-78208305D01*
X150445432Y-78187491D01*
X150419272Y-78162198D01*
X150412252Y-78155924D01*
X150385723Y-78130770D01*
X150367170Y-78109649D01*
X150359726Y-78096250D01*
X150360031Y-78094427D01*
X150360118Y-78088787D01*
X150356466Y-78090412D01*
X150345190Y-78087943D01*
X150328342Y-78075932D01*
X150311572Y-78059727D01*
X150300529Y-78044673D01*
X150299830Y-78036811D01*
X150297446Y-78027639D01*
X150287755Y-78017949D01*
X150276142Y-78009443D01*
X150277662Y-78013891D01*
X150284908Y-78023884D01*
X150294255Y-78036948D01*
X150291911Y-78036795D01*
X150277812Y-78025021D01*
X150263773Y-78009664D01*
X150260776Y-77999262D01*
X150257908Y-77988161D01*
X150248901Y-77978587D01*
X150237532Y-77970320D01*
X150238554Y-77975440D01*
X150241115Y-77979923D01*
X150245612Y-77989369D01*
X150238411Y-77985308D01*
X150233329Y-77981258D01*
X150222451Y-77967158D01*
X150222410Y-77959035D01*
X150222321Y-77952441D01*
X150219860Y-77952815D01*
X150210146Y-77948213D01*
X150209162Y-77945730D01*
X150201089Y-77933687D01*
X150182616Y-77912727D01*
X150157069Y-77886081D01*
X150127779Y-77856979D01*
X150098073Y-77828651D01*
X150071281Y-77804326D01*
X150050730Y-77787234D01*
X150039749Y-77780605D01*
X150039112Y-77780725D01*
X150031528Y-77778477D01*
X150031077Y-77775345D01*
X150038628Y-77765484D01*
X150041891Y-77765000D01*
X150048317Y-77757854D01*
X150046888Y-77749838D01*
X150046127Y-77739740D01*
X150052266Y-77741597D01*
X150059558Y-77741095D01*
X150057956Y-77727460D01*
X150056549Y-77708984D01*
X150060011Y-77701730D01*
X150064870Y-77690143D01*
X150067760Y-77666972D01*
X150068645Y-77638794D01*
X150067489Y-77612183D01*
X150064253Y-77593716D01*
X150060645Y-77589154D01*
X150055309Y-77581991D01*
X150056851Y-77574500D01*
X150055764Y-77561917D01*
X150050032Y-77559846D01*
X150042530Y-77556129D01*
X150044124Y-77553312D01*
X150043371Y-77542141D01*
X150033540Y-77527209D01*
X150024747Y-77515185D01*
X150029818Y-77515536D01*
X150030407Y-77515877D01*
X150033424Y-77514068D01*
X150025792Y-77500406D01*
X150016833Y-77487983D01*
X149999856Y-77467550D01*
X149987939Y-77456562D01*
X149985161Y-77455967D01*
X149976352Y-77452624D01*
X149960086Y-77439059D01*
X149957133Y-77436168D01*
X149938656Y-77421730D01*
X149924753Y-77417726D01*
X149923533Y-77418243D01*
X149914617Y-77416803D01*
X149913846Y-77412839D01*
X149906763Y-77405815D01*
X149899192Y-77407071D01*
X149886598Y-77407562D01*
X149884538Y-77403839D01*
X149876444Y-77396087D01*
X149867442Y-77394492D01*
X149846593Y-77392602D01*
X149817913Y-77388613D01*
X149813711Y-77387932D01*
X149787062Y-77386010D01*
X149777188Y-77392089D01*
X149777077Y-77393358D01*
X149769605Y-77400462D01*
X149757538Y-77398654D01*
X149741579Y-77397842D01*
X149738000Y-77403456D01*
X149732054Y-77409903D01*
X149728230Y-77408423D01*
X149719243Y-77409521D01*
X149718461Y-77413307D01*
X149712510Y-77419678D01*
X149708692Y-77418192D01*
X149699704Y-77419291D01*
X149698923Y-77423077D01*
X149692962Y-77429426D01*
X149689085Y-77427919D01*
X149677908Y-77430016D01*
X149673407Y-77437055D01*
X149664817Y-77447846D01*
X149660128Y-77447674D01*
X149648763Y-77450523D01*
X149633691Y-77464480D01*
X149620376Y-77483398D01*
X149614491Y-77498989D01*
X149604949Y-77518571D01*
X149597043Y-77526352D01*
X149587429Y-77538126D01*
X149588357Y-77543716D01*
X149587000Y-77549456D01*
X149582275Y-77550077D01*
X149574265Y-77557044D01*
X149575456Y-77564730D01*
X149575294Y-77577291D01*
X149570840Y-77579384D01*
X149565032Y-77587887D01*
X149566839Y-77611056D01*
X149566855Y-77611134D01*
X149569795Y-77630823D01*
X149566882Y-77633805D01*
X149561899Y-77628230D01*
X149554774Y-77620952D01*
X149555362Y-77629634D01*
X149557598Y-77638000D01*
X149563874Y-77666787D01*
X149567463Y-77691730D01*
X149569991Y-77712299D01*
X149571964Y-77721035D01*
X149571985Y-77721038D01*
X149574145Y-77729299D01*
X149575944Y-77742408D01*
X149582091Y-77762135D01*
X149594535Y-77786055D01*
X149609580Y-77808582D01*
X149623526Y-77824129D01*
X149632235Y-77827451D01*
X149641959Y-77831444D01*
X149655357Y-77847273D01*
X149655601Y-77847643D01*
X149669143Y-77863559D01*
X149679311Y-77867618D01*
X149679429Y-77867549D01*
X149688772Y-77870896D01*
X149693097Y-77878416D01*
X149705195Y-77889194D01*
X149713659Y-77888435D01*
X149726172Y-77888584D01*
X149728230Y-77892965D01*
X149735917Y-77898571D01*
X149748992Y-77896496D01*
X149763514Y-77894433D01*
X149763070Y-77900722D01*
X149766478Y-77907571D01*
X149787895Y-77911020D01*
X149808686Y-77911538D01*
X149860987Y-77911538D01*
X149999763Y-78051507D01*
X150041959Y-78094638D01*
X150078989Y-78133582D01*
X150108772Y-78166061D01*
X150129229Y-78189796D01*
X150138280Y-78202510D01*
X150138538Y-78203506D01*
X150143227Y-78211613D01*
X150146392Y-78210683D01*
X150155979Y-78215242D01*
X150174809Y-78231583D01*
X150199457Y-78256612D01*
X150209892Y-78268043D01*
X150236943Y-78298922D01*
X150253409Y-78321022D01*
X150261913Y-78339961D01*
X150265080Y-78361354D01*
X150265538Y-78387109D01*
X150265538Y-78443961D01*
X149960250Y-78443961D01*
X149867368Y-78444105D01*
X149791377Y-78444774D01*
X149729631Y-78446323D01*
X149679483Y-78449109D01*
X149638288Y-78453486D01*
X149603398Y-78459811D01*
X149572167Y-78468438D01*
X149541949Y-78479725D01*
X149510097Y-78494026D01*
X149480555Y-78508424D01*
X149449883Y-78523006D01*
X149425963Y-78533237D01*
X149414612Y-78536769D01*
X149412950Y-78527228D01*
X149411418Y-78499515D01*
X149410038Y-78454998D01*
X149408827Y-78395043D01*
X149407806Y-78321016D01*
X149406993Y-78234286D01*
X149406409Y-78136218D01*
X149406072Y-78028179D01*
X149405995Y-77928634D01*
X149406134Y-77821241D01*
X149406483Y-77719549D01*
X149407023Y-77625258D01*
X149407733Y-77540065D01*
X149408012Y-77515884D01*
X149591461Y-77515884D01*
X149596346Y-77520769D01*
X149601230Y-77515884D01*
X149596346Y-77511000D01*
X149591461Y-77515884D01*
X149408012Y-77515884D01*
X149408592Y-77465668D01*
X149409582Y-77403765D01*
X149410682Y-77356054D01*
X149411871Y-77324233D01*
X149413130Y-77310000D01*
X149413322Y-77309489D01*
X149421774Y-77299777D01*
X149441973Y-77277963D01*
X149472082Y-77245991D01*
X149510262Y-77205802D01*
X149554675Y-77159339D01*
X149603484Y-77108543D01*
X149604749Y-77107230D01*
X149788998Y-76915980D01*
X150129842Y-76917971D01*
G37*
G36*
X149708692Y-77877346D02*
G01*
X149703807Y-77882230D01*
X149698923Y-77877346D01*
X149703807Y-77872461D01*
X149708692Y-77877346D01*
G37*
G36*
X149611000Y-77789423D02*
G01*
X149606115Y-77794307D01*
X149601230Y-77789423D01*
X149606115Y-77784538D01*
X149611000Y-77789423D01*
G37*
D15*
G04 #@! TO.C,L1*
X152900000Y-76900000D02*
X163100000Y-76900000D01*
X152900000Y-77400000D02*
X152900000Y-76900000D01*
X152900000Y-87100000D02*
X152900000Y-86600000D01*
X163100000Y-76900000D02*
X163100000Y-77400000D01*
X163100000Y-86600000D02*
X163100000Y-87100000D01*
X163100000Y-87100000D02*
X152900000Y-87100000D01*
G04 #@! TO.C,R6*
X155585436Y-103515000D02*
X156039564Y-103515000D01*
X155585436Y-104985000D02*
X156039564Y-104985000D01*
G04 #@! TO.C,U2*
X136481456Y-79965000D02*
X135681456Y-79965000D01*
X136481456Y-79965000D02*
X137281456Y-79965000D01*
X136481456Y-83085000D02*
X135681456Y-83085000D01*
X136481456Y-83085000D02*
X137281456Y-83085000D01*
X138021456Y-83365000D02*
X137541456Y-83365000D01*
X137781456Y-83035000D01*
X138021456Y-83365000D01*
G36*
X138021456Y-83365000D02*
G01*
X137541456Y-83365000D01*
X137781456Y-83035000D01*
X138021456Y-83365000D01*
G37*
G04 #@! TO.C,U3*
X153862500Y-97565000D02*
X151662500Y-97565000D01*
X153862500Y-97565000D02*
X156062500Y-97565000D01*
X153862500Y-103085000D02*
X151662500Y-103085000D01*
X153862500Y-103085000D02*
X156062500Y-103085000D01*
X158102500Y-102840000D02*
X157772500Y-102600000D01*
X158102500Y-102360000D01*
X158102500Y-102840000D01*
G36*
X158102500Y-102840000D02*
G01*
X157772500Y-102600000D01*
X158102500Y-102360000D01*
X158102500Y-102840000D01*
G37*
G04 #@! TO.C,C10*
X148415000Y-99190580D02*
X148415000Y-98909420D01*
X149435000Y-99190580D02*
X149435000Y-98909420D01*
G04 #@! TO.C,D3*
X126115000Y-84084992D02*
X126115000Y-85784992D01*
X126115000Y-84084992D02*
X128775000Y-84084992D01*
X126115000Y-85784992D02*
X128775000Y-85784992D01*
D16*
G04 #@! TO.C,ESP32*
X122250304Y-100468768D02*
X122250304Y-92473496D01*
X122750304Y-91973496D02*
X123760304Y-91973496D01*
D12*
X123760304Y-89492496D02*
X123760304Y-103462496D01*
D16*
X123760304Y-100972496D02*
X122750032Y-100968768D01*
D12*
X142810304Y-87587496D02*
X125665304Y-87587496D01*
X142810304Y-105367496D02*
X125665304Y-105367496D01*
X144715304Y-103462496D02*
X144715304Y-89492496D01*
D16*
X122250304Y-92473496D02*
G75*
G02*
X122750304Y-91973502I500000J-6D01*
G01*
X122750032Y-100968768D02*
G75*
G02*
X122250305Y-100468768I291J500018D01*
G01*
D12*
X123760304Y-89492496D02*
G75*
G02*
X125665304Y-87587502I1905000J-6D01*
G01*
X125661304Y-105367496D02*
G75*
G02*
X123756304Y-103462496I1J1905001D01*
G01*
X142810304Y-87587496D02*
G75*
G02*
X144715310Y-89492496I0J-1905006D01*
G01*
X144715304Y-103462496D02*
G75*
G02*
X142810304Y-105367496I-1905001J1D01*
G01*
D17*
X124428304Y-105577496D02*
G75*
G02*
X123924304Y-105577496I-252000J0D01*
G01*
X123924304Y-105577496D02*
G75*
G02*
X124428304Y-105577496I252000J0D01*
G01*
X125151304Y-104360496D02*
G75*
G02*
X124647304Y-104360496I-252000J0D01*
G01*
X124647304Y-104360496D02*
G75*
G02*
X125151304Y-104360496I252000J0D01*
G01*
D15*
G04 #@! TO.C,R3*
X161360436Y-93867496D02*
X161814564Y-93867496D01*
X161360436Y-95337496D02*
X161814564Y-95337496D01*
G04 #@! TO.C,U1*
X159115000Y-91362500D02*
X159115000Y-90562500D01*
X159115000Y-91362500D02*
X159115000Y-92162500D01*
X162235000Y-91362500D02*
X162235000Y-90562500D01*
X162235000Y-91362500D02*
X162235000Y-92162500D01*
X159190000Y-92662500D02*
X158860000Y-92902500D01*
X158860000Y-92422500D01*
X159190000Y-92662500D01*
G36*
X159190000Y-92662500D02*
G01*
X158860000Y-92902500D01*
X158860000Y-92422500D01*
X159190000Y-92662500D01*
G37*
G04 #@! TO.C,C9*
X132090000Y-84186252D02*
X132090000Y-82763748D01*
X133910000Y-84186252D02*
X133910000Y-82763748D01*
G04 #@! TO.C,R4*
X161360436Y-95865000D02*
X161814564Y-95865000D01*
X161360436Y-97335000D02*
X161814564Y-97335000D01*
G04 #@! TO.C,C6*
X152590000Y-89209420D02*
X152590000Y-89490580D01*
X153610000Y-89209420D02*
X153610000Y-89490580D01*
G04 #@! TO.C,5V*
X129865000Y-79632492D02*
X129865000Y-81917492D01*
X131335000Y-79632492D02*
X129865000Y-79632492D01*
X131335000Y-81917492D02*
X131335000Y-79632492D01*
G04 #@! TO.C,C4*
X154190000Y-89288748D02*
X154190000Y-90711252D01*
X156010000Y-89288748D02*
X156010000Y-90711252D01*
G04 #@! TO.C,VBAT*
X166090000Y-78690000D02*
X171510000Y-78690000D01*
X166090000Y-87410000D02*
X166090000Y-78690000D01*
X167390000Y-89110000D02*
X166090000Y-87410000D01*
X167390000Y-89110000D02*
X170210000Y-89110000D01*
X170210000Y-89110000D02*
X171510000Y-87410000D01*
X171510000Y-87410000D02*
X171510000Y-78690000D01*
G04 #@! TO.C,R5*
X130077500Y-84347250D02*
X130077500Y-83872734D01*
X131122500Y-84347250D02*
X131122500Y-83872734D01*
G04 #@! TO.C,C8*
X139090000Y-84186252D02*
X139090000Y-82763748D01*
X140910000Y-84186252D02*
X140910000Y-82763748D01*
G04 #@! TO.C,C3*
X162800551Y-91221259D02*
X162800551Y-91502419D01*
X163820551Y-91221259D02*
X163820551Y-91502419D01*
G04 #@! TO.C,MOTOR*
X168420000Y-97405000D02*
X168420000Y-94755000D01*
X171180000Y-94755000D02*
X168420000Y-94755000D01*
X171180000Y-97405000D02*
X168420000Y-97405000D01*
X171180000Y-97405000D02*
X171180000Y-94755000D01*
X171180000Y-98675000D02*
X171180000Y-100055000D01*
X171180000Y-100055000D02*
X169800000Y-100055000D01*
G04 #@! TO.C,R2*
X150977500Y-89087742D02*
X150977500Y-89562258D01*
X152022500Y-89087742D02*
X152022500Y-89562258D01*
G04 #@! TO.C,C5*
X156677500Y-89288748D02*
X156677500Y-90711252D01*
X158497500Y-89288748D02*
X158497500Y-90711252D01*
G04 #@! TO.C,C11*
X148415000Y-102009420D02*
X148415000Y-102290580D01*
X149435000Y-102009420D02*
X149435000Y-102290580D01*
G04 #@! TO.C,J3*
X140180000Y-79880000D02*
X140180000Y-78500000D01*
X141560000Y-79880000D02*
X140180000Y-79880000D01*
X142830000Y-77120000D02*
X148020000Y-77120000D01*
X142830000Y-79880000D02*
X142830000Y-77120000D01*
X142830000Y-79880000D02*
X148020000Y-79880000D01*
X148020000Y-79880000D02*
X148020000Y-77120000D01*
G04 #@! TO.C,C7*
X145915000Y-100638748D02*
X145915000Y-102061252D01*
X147735000Y-100638748D02*
X147735000Y-102061252D01*
G04 #@! TO.C,C2*
X164477500Y-90751248D02*
X164477500Y-92173752D01*
X166297500Y-90751248D02*
X166297500Y-92173752D01*
G04 #@! TO.C,C1*
X161340580Y-87952500D02*
X161059420Y-87952500D01*
X161340580Y-88972500D02*
X161059420Y-88972500D01*
G04 #@! TO.C,R1*
X157860436Y-93867496D02*
X158314564Y-93867496D01*
X157860436Y-95337496D02*
X158314564Y-95337496D01*
G04 #@! TO.C,D1*
X150765000Y-91912500D02*
X150765000Y-94197500D01*
X150765000Y-94197500D02*
X152235000Y-94197500D01*
X152235000Y-94197500D02*
X152235000Y-91912500D01*
G04 #@! TD*
%LPC*%
D18*
G04 #@! TO.C,L1*
X162100000Y-82000000D03*
X153900000Y-82000000D03*
G04 #@! TD*
D19*
G04 #@! TO.C,R6*
X154900000Y-104250000D03*
X156725000Y-104250000D03*
G04 #@! TD*
D20*
G04 #@! TO.C,U2*
X137618956Y-82475000D03*
X137618956Y-81525000D03*
X137618956Y-80575000D03*
X135343956Y-80575000D03*
X135343956Y-82475000D03*
G04 #@! TD*
D21*
G04 #@! TO.C,U3*
X153862500Y-100325000D03*
D22*
X156725000Y-102600000D03*
X156725000Y-101950000D03*
X156725000Y-101300000D03*
X156725000Y-100650000D03*
X156725000Y-100000000D03*
X156725000Y-99350000D03*
X156725000Y-98700000D03*
X156725000Y-98050000D03*
X151000000Y-98050000D03*
X151000000Y-98700000D03*
X151000000Y-99350000D03*
X151000000Y-100000000D03*
X151000000Y-100650000D03*
X151000000Y-101300000D03*
X151000000Y-101950000D03*
X151000000Y-102600000D03*
G04 #@! TD*
D23*
G04 #@! TO.C,C10*
X148925000Y-99825000D03*
X148925000Y-98275000D03*
G04 #@! TD*
D24*
G04 #@! TO.C,D3*
X126675000Y-84934992D03*
X128775000Y-84934992D03*
G04 #@! TD*
D25*
G04 #@! TO.C,ESP32*
X126677304Y-104532496D03*
X129217304Y-104532496D03*
X131757304Y-104532496D03*
X134297304Y-104532496D03*
X136837304Y-104532496D03*
X139377304Y-104532496D03*
X141917304Y-104532496D03*
X141917304Y-88367496D03*
X139377304Y-88367496D03*
X136837304Y-88367496D03*
X134297304Y-88367496D03*
X131757304Y-88367496D03*
X129217304Y-88367496D03*
X126677304Y-88367496D03*
D26*
X133915304Y-100922496D03*
X132010304Y-100922496D03*
D27*
X125665304Y-97747496D03*
X125665304Y-95207496D03*
X128205304Y-97747496D03*
X128205304Y-95207496D03*
X130745304Y-97747496D03*
X130745304Y-95207496D03*
X133285304Y-97747496D03*
X133285304Y-95207496D03*
G04 #@! TD*
D19*
G04 #@! TO.C,R3*
X160675000Y-94602496D03*
X162500000Y-94602496D03*
G04 #@! TD*
D28*
G04 #@! TO.C,H2*
X125000000Y-79000000D03*
G04 #@! TD*
D29*
G04 #@! TO.C,U1*
X159700000Y-92500000D03*
X160350000Y-92500000D03*
X161000000Y-92500000D03*
X161650000Y-92500000D03*
X161650000Y-90225000D03*
X161000000Y-90225000D03*
X160350000Y-90225000D03*
X159700000Y-90225000D03*
G04 #@! TD*
D28*
G04 #@! TO.C,H1*
X169000000Y-104000000D03*
G04 #@! TD*
D30*
G04 #@! TO.C,C9*
X133000000Y-84950000D03*
X133000000Y-82000000D03*
G04 #@! TD*
D19*
G04 #@! TO.C,R4*
X160675000Y-96600000D03*
X162500000Y-96600000D03*
G04 #@! TD*
D31*
G04 #@! TO.C,C6*
X153100000Y-88575000D03*
X153100000Y-90125000D03*
G04 #@! TD*
D32*
G04 #@! TO.C,5V*
X130600000Y-80329992D03*
X130600000Y-81904992D03*
G04 #@! TD*
D33*
G04 #@! TO.C,C4*
X155100000Y-88525000D03*
X155100000Y-91475000D03*
G04 #@! TD*
D34*
G04 #@! TO.C,VBAT*
X168800000Y-86400000D03*
D35*
X168800000Y-81400000D03*
G04 #@! TD*
D36*
G04 #@! TO.C,R5*
X130600000Y-84934992D03*
X130600000Y-83284992D03*
G04 #@! TD*
D30*
G04 #@! TO.C,C8*
X140000000Y-84950000D03*
X140000000Y-82000000D03*
G04 #@! TD*
D31*
G04 #@! TO.C,C3*
X163310551Y-90586839D03*
X163310551Y-92136839D03*
G04 #@! TD*
D37*
G04 #@! TO.C,MOTOR*
X169800000Y-98675000D03*
D27*
X169800000Y-96135000D03*
G04 #@! TD*
D38*
G04 #@! TO.C,R2*
X151500000Y-88500000D03*
X151500000Y-90150000D03*
G04 #@! TD*
D33*
G04 #@! TO.C,C5*
X157587500Y-88525000D03*
X157587500Y-91475000D03*
G04 #@! TD*
D31*
G04 #@! TO.C,C11*
X148925000Y-101375000D03*
X148925000Y-102925000D03*
G04 #@! TD*
D37*
G04 #@! TO.C,J3*
X141560000Y-78500000D03*
D27*
X144100000Y-78500000D03*
X146640000Y-78500000D03*
G04 #@! TD*
D33*
G04 #@! TO.C,C7*
X146825000Y-99875000D03*
X146825000Y-102825000D03*
G04 #@! TD*
G04 #@! TO.C,C2*
X165387500Y-89987500D03*
X165387500Y-92937500D03*
G04 #@! TD*
D39*
G04 #@! TO.C,C1*
X161975000Y-88462500D03*
X160425000Y-88462500D03*
G04 #@! TD*
D19*
G04 #@! TO.C,R1*
X157175000Y-94602496D03*
X159000000Y-94602496D03*
G04 #@! TD*
D40*
G04 #@! TO.C,D1*
X151500000Y-93500000D03*
X151500000Y-91925000D03*
G04 #@! TD*
%LPD*%
M02*
