%TF.GenerationSoftware,KiCad,Pcbnew,9.0.2-9.0.2-0~ubuntu24.04.1*%
%TF.CreationDate,2025-05-13T17:43:29+02:00*%
%TF.ProjectId,RCFavoritControlBoard,52434661-766f-4726-9974-436f6e74726f,rev?*%
%TF.SameCoordinates,Original*%
%TF.FileFunction,Drillmap*%
%TF.FilePolarity,Positive*%
%FSLAX45Y45*%
G04 Gerber Fmt 4.5, Leading zero omitted, Abs format (unit mm)*
G04 Created by KiCad (PCBNEW 9.0.2-9.0.2-0~ubuntu24.04.1) date 2025-05-13 17:43:29*
%MOMM*%
%LPD*%
G01*
G04 APERTURE LIST*
%ADD10C,0.050000*%
%ADD11C,0.200000*%
G04 APERTURE END LIST*
D10*
X16900000Y-10720000D02*
X12500000Y-10720000D01*
X16920000Y-7600000D02*
G75*
G02*
X17220000Y-7900000I0J-300000D01*
G01*
X12200000Y-7900000D02*
X12200000Y-10400000D01*
X12200000Y-7900000D02*
G75*
G02*
X12500000Y-7600000I300000J0D01*
G01*
X12500000Y-10720000D02*
G75*
G02*
X12200664Y-10400044I0J300000D01*
G01*
X17220000Y-10400000D02*
G75*
G02*
X16900000Y-10720000I-320000J0D01*
G01*
X17220000Y-7900000D02*
X17220000Y-10400000D01*
X12500000Y-7600000D02*
X16920000Y-7600000D01*
D11*
X12458277Y-11033984D02*
X12458277Y-10833984D01*
X12458277Y-10833984D02*
X12505896Y-10833984D01*
X12505896Y-10833984D02*
X12534467Y-10843508D01*
X12534467Y-10843508D02*
X12553515Y-10862555D01*
X12553515Y-10862555D02*
X12563039Y-10881603D01*
X12563039Y-10881603D02*
X12572562Y-10919698D01*
X12572562Y-10919698D02*
X12572562Y-10948270D01*
X12572562Y-10948270D02*
X12563039Y-10986365D01*
X12563039Y-10986365D02*
X12553515Y-11005412D01*
X12553515Y-11005412D02*
X12534467Y-11024460D01*
X12534467Y-11024460D02*
X12505896Y-11033984D01*
X12505896Y-11033984D02*
X12458277Y-11033984D01*
X12658277Y-11033984D02*
X12658277Y-10900650D01*
X12658277Y-10938746D02*
X12667801Y-10919698D01*
X12667801Y-10919698D02*
X12677324Y-10910174D01*
X12677324Y-10910174D02*
X12696372Y-10900650D01*
X12696372Y-10900650D02*
X12715420Y-10900650D01*
X12782086Y-11033984D02*
X12782086Y-10900650D01*
X12782086Y-10833984D02*
X12772562Y-10843508D01*
X12772562Y-10843508D02*
X12782086Y-10853031D01*
X12782086Y-10853031D02*
X12791610Y-10843508D01*
X12791610Y-10843508D02*
X12782086Y-10833984D01*
X12782086Y-10833984D02*
X12782086Y-10853031D01*
X12905896Y-11033984D02*
X12886848Y-11024460D01*
X12886848Y-11024460D02*
X12877324Y-11005412D01*
X12877324Y-11005412D02*
X12877324Y-10833984D01*
X13010658Y-11033984D02*
X12991610Y-11024460D01*
X12991610Y-11024460D02*
X12982086Y-11005412D01*
X12982086Y-11005412D02*
X12982086Y-10833984D01*
X13239229Y-11033984D02*
X13239229Y-10833984D01*
X13239229Y-10833984D02*
X13305896Y-10976841D01*
X13305896Y-10976841D02*
X13372562Y-10833984D01*
X13372562Y-10833984D02*
X13372562Y-11033984D01*
X13553515Y-11033984D02*
X13553515Y-10929222D01*
X13553515Y-10929222D02*
X13543991Y-10910174D01*
X13543991Y-10910174D02*
X13524943Y-10900650D01*
X13524943Y-10900650D02*
X13486848Y-10900650D01*
X13486848Y-10900650D02*
X13467801Y-10910174D01*
X13553515Y-11024460D02*
X13534467Y-11033984D01*
X13534467Y-11033984D02*
X13486848Y-11033984D01*
X13486848Y-11033984D02*
X13467801Y-11024460D01*
X13467801Y-11024460D02*
X13458277Y-11005412D01*
X13458277Y-11005412D02*
X13458277Y-10986365D01*
X13458277Y-10986365D02*
X13467801Y-10967317D01*
X13467801Y-10967317D02*
X13486848Y-10957793D01*
X13486848Y-10957793D02*
X13534467Y-10957793D01*
X13534467Y-10957793D02*
X13553515Y-10948270D01*
X13648753Y-10900650D02*
X13648753Y-11100650D01*
X13648753Y-10910174D02*
X13667801Y-10900650D01*
X13667801Y-10900650D02*
X13705896Y-10900650D01*
X13705896Y-10900650D02*
X13724943Y-10910174D01*
X13724943Y-10910174D02*
X13734467Y-10919698D01*
X13734467Y-10919698D02*
X13743991Y-10938746D01*
X13743991Y-10938746D02*
X13743991Y-10995889D01*
X13743991Y-10995889D02*
X13734467Y-11014936D01*
X13734467Y-11014936D02*
X13724943Y-11024460D01*
X13724943Y-11024460D02*
X13705896Y-11033984D01*
X13705896Y-11033984D02*
X13667801Y-11033984D01*
X13667801Y-11033984D02*
X13648753Y-11024460D01*
X13829705Y-11014936D02*
X13839229Y-11024460D01*
X13839229Y-11024460D02*
X13829705Y-11033984D01*
X13829705Y-11033984D02*
X13820182Y-11024460D01*
X13820182Y-11024460D02*
X13829705Y-11014936D01*
X13829705Y-11014936D02*
X13829705Y-11033984D01*
X13829705Y-10910174D02*
X13839229Y-10919698D01*
X13839229Y-10919698D02*
X13829705Y-10929222D01*
X13829705Y-10929222D02*
X13820182Y-10919698D01*
X13820182Y-10919698D02*
X13829705Y-10910174D01*
X13829705Y-10910174D02*
X13829705Y-10929222D01*
M02*
