G04 #@! TF.GenerationSoftware,KiCad,Pcbnew,9.0.2-9.0.2-0~ubuntu24.04.1*
G04 #@! TF.CreationDate,2025-05-13T17:43:29+02:00*
G04 #@! TF.ProjectId,RCFavoritControlBoard,52434661-766f-4726-9974-436f6e74726f,rev?*
G04 #@! TF.SameCoordinates,Original*
G04 #@! TF.FileFunction,Soldermask,Top*
G04 #@! TF.FilePolarity,Negative*
%FSLAX46Y46*%
G04 Gerber Fmt 4.6, Leading zero omitted, Abs format (unit mm)*
G04 Created by KiCad (PCBNEW 9.0.2-9.0.2-0~ubuntu24.04.1) date 2025-05-13 17:43:29*
%MOMM*%
%LPD*%
G01*
G04 APERTURE LIST*
G04 Aperture macros list*
%AMRoundRect*
0 Rectangle with rounded corners*
0 $1 Rounding radius*
0 $2 $3 $4 $5 $6 $7 $8 $9 X,Y pos of 4 corners*
0 Add a 4 corners polygon primitive as box body*
4,1,4,$2,$3,$4,$5,$6,$7,$8,$9,$2,$3,0*
0 Add four circle primitives for the rounded corners*
1,1,$1+$1,$2,$3*
1,1,$1+$1,$4,$5*
1,1,$1+$1,$6,$7*
1,1,$1+$1,$8,$9*
0 Add four rect primitives between the rounded corners*
20,1,$1+$1,$2,$3,$4,$5,0*
20,1,$1+$1,$4,$5,$6,$7,0*
20,1,$1+$1,$6,$7,$8,$9,0*
20,1,$1+$1,$8,$9,$2,$3,0*%
G04 Aperture macros list end*
%ADD10RoundRect,0.500000X0.500000X2.250000X-0.500000X2.250000X-0.500000X-2.250000X0.500000X-2.250000X0*%
%ADD11RoundRect,0.250000X-0.262500X-0.450000X0.262500X-0.450000X0.262500X0.450000X-0.262500X0.450000X0*%
%ADD12RoundRect,0.150000X0.512500X0.150000X-0.512500X0.150000X-0.512500X-0.150000X0.512500X-0.150000X0*%
%ADD13R,2.460000X2.310000*%
%ADD14RoundRect,0.100000X0.687500X0.100000X-0.687500X0.100000X-0.687500X-0.100000X0.687500X-0.100000X0*%
%ADD15RoundRect,0.225000X0.250000X-0.225000X0.250000X0.225000X-0.250000X0.225000X-0.250000X-0.225000X0*%
%ADD16RoundRect,0.112500X-0.187500X-0.112500X0.187500X-0.112500X0.187500X0.112500X-0.187500X0.112500X0*%
%ADD17RoundRect,0.525400X0.525400X-0.900400X0.525400X0.900400X-0.525400X0.900400X-0.525400X-0.900400X0*%
%ADD18RoundRect,0.300400X-0.300400X1.000400X-0.300400X-1.000400X0.300400X-1.000400X0.300400X1.000400X0*%
%ADD19C,1.700000*%
%ADD20C,4.400000*%
%ADD21RoundRect,0.125000X0.125000X-0.537500X0.125000X0.537500X-0.125000X0.537500X-0.125000X-0.537500X0*%
%ADD22RoundRect,0.250000X0.650000X-0.325000X0.650000X0.325000X-0.650000X0.325000X-0.650000X-0.325000X0*%
%ADD23RoundRect,0.225000X-0.250000X0.225000X-0.250000X-0.225000X0.250000X-0.225000X0.250000X0.225000X0*%
%ADD24RoundRect,0.218750X-0.256250X0.218750X-0.256250X-0.218750X0.256250X-0.218750X0.256250X0.218750X0*%
%ADD25RoundRect,0.250000X-0.650000X0.325000X-0.650000X-0.325000X0.650000X-0.325000X0.650000X0.325000X0*%
%ADD26RoundRect,0.750000X0.750000X-0.750000X0.750000X0.750000X-0.750000X0.750000X-0.750000X-0.750000X0*%
%ADD27C,3.000000*%
%ADD28RoundRect,0.200000X0.275000X-0.200000X0.275000X0.200000X-0.275000X0.200000X-0.275000X-0.200000X0*%
%ADD29R,1.700000X1.700000*%
%ADD30RoundRect,0.200000X-0.275000X0.200000X-0.275000X-0.200000X0.275000X-0.200000X0.275000X0.200000X0*%
%ADD31RoundRect,0.225000X0.225000X0.250000X-0.225000X0.250000X-0.225000X-0.250000X0.225000X-0.250000X0*%
%ADD32RoundRect,0.218750X0.256250X-0.218750X0.256250X0.218750X-0.256250X0.218750X-0.256250X-0.218750X0*%
G04 APERTURE END LIST*
D10*
G04 #@! TO.C,L1*
X162100000Y-82000000D03*
X153900000Y-82000000D03*
G04 #@! TD*
D11*
G04 #@! TO.C,R6*
X154900000Y-104250000D03*
X156725000Y-104250000D03*
G04 #@! TD*
D12*
G04 #@! TO.C,U2*
X137618956Y-82475000D03*
X137618956Y-81525000D03*
X137618956Y-80575000D03*
X135343956Y-80575000D03*
X135343956Y-82475000D03*
G04 #@! TD*
D13*
G04 #@! TO.C,U3*
X153862500Y-100325000D03*
D14*
X156725000Y-102600000D03*
X156725000Y-101950000D03*
X156725000Y-101300000D03*
X156725000Y-100650000D03*
X156725000Y-100000000D03*
X156725000Y-99350000D03*
X156725000Y-98700000D03*
X156725000Y-98050000D03*
X151000000Y-98050000D03*
X151000000Y-98700000D03*
X151000000Y-99350000D03*
X151000000Y-100000000D03*
X151000000Y-100650000D03*
X151000000Y-101300000D03*
X151000000Y-101950000D03*
X151000000Y-102600000D03*
G04 #@! TD*
D15*
G04 #@! TO.C,C10*
X148925000Y-99825000D03*
X148925000Y-98275000D03*
G04 #@! TD*
D16*
G04 #@! TO.C,D3*
X126675000Y-84934992D03*
X128775000Y-84934992D03*
G04 #@! TD*
D17*
G04 #@! TO.C,ESP32*
X126677304Y-104532496D03*
X129217304Y-104532496D03*
X131757304Y-104532496D03*
X134297304Y-104532496D03*
X136837304Y-104532496D03*
X139377304Y-104532496D03*
X141917304Y-104532496D03*
X141917304Y-88367496D03*
X139377304Y-88367496D03*
X136837304Y-88367496D03*
X134297304Y-88367496D03*
X131757304Y-88367496D03*
X129217304Y-88367496D03*
X126677304Y-88367496D03*
D18*
X133915304Y-100922496D03*
X132010304Y-100922496D03*
D19*
X125665304Y-97747496D03*
X125665304Y-95207496D03*
X128205304Y-97747496D03*
X128205304Y-95207496D03*
X130745304Y-97747496D03*
X130745304Y-95207496D03*
X133285304Y-97747496D03*
X133285304Y-95207496D03*
G04 #@! TD*
D11*
G04 #@! TO.C,R3*
X160675000Y-94602496D03*
X162500000Y-94602496D03*
G04 #@! TD*
D20*
G04 #@! TO.C,H2*
X125000000Y-79000000D03*
G04 #@! TD*
D21*
G04 #@! TO.C,U1*
X159700000Y-92500000D03*
X160350000Y-92500000D03*
X161000000Y-92500000D03*
X161650000Y-92500000D03*
X161650000Y-90225000D03*
X161000000Y-90225000D03*
X160350000Y-90225000D03*
X159700000Y-90225000D03*
G04 #@! TD*
D20*
G04 #@! TO.C,H1*
X169000000Y-104000000D03*
G04 #@! TD*
D22*
G04 #@! TO.C,C9*
X133000000Y-84950000D03*
X133000000Y-82000000D03*
G04 #@! TD*
D11*
G04 #@! TO.C,R4*
X160675000Y-96600000D03*
X162500000Y-96600000D03*
G04 #@! TD*
D23*
G04 #@! TO.C,C6*
X153100000Y-88575000D03*
X153100000Y-90125000D03*
G04 #@! TD*
D24*
G04 #@! TO.C,5V*
X130600000Y-80329992D03*
X130600000Y-81904992D03*
G04 #@! TD*
D25*
G04 #@! TO.C,C4*
X155100000Y-88525000D03*
X155100000Y-91475000D03*
G04 #@! TD*
D26*
G04 #@! TO.C,VBAT*
X168800000Y-86400000D03*
D27*
X168800000Y-81400000D03*
G04 #@! TD*
D28*
G04 #@! TO.C,R5*
X130600000Y-84934992D03*
X130600000Y-83284992D03*
G04 #@! TD*
D22*
G04 #@! TO.C,C8*
X140000000Y-84950000D03*
X140000000Y-82000000D03*
G04 #@! TD*
D23*
G04 #@! TO.C,C3*
X163310551Y-90586839D03*
X163310551Y-92136839D03*
G04 #@! TD*
D29*
G04 #@! TO.C,MOTOR*
X169800000Y-98675000D03*
D19*
X169800000Y-96135000D03*
G04 #@! TD*
D30*
G04 #@! TO.C,R2*
X151500000Y-88500000D03*
X151500000Y-90150000D03*
G04 #@! TD*
D25*
G04 #@! TO.C,C5*
X157587500Y-88525000D03*
X157587500Y-91475000D03*
G04 #@! TD*
D23*
G04 #@! TO.C,C11*
X148925000Y-101375000D03*
X148925000Y-102925000D03*
G04 #@! TD*
D29*
G04 #@! TO.C,J3*
X141560000Y-78500000D03*
D19*
X144100000Y-78500000D03*
X146640000Y-78500000D03*
G04 #@! TD*
D25*
G04 #@! TO.C,C7*
X146825000Y-99875000D03*
X146825000Y-102825000D03*
G04 #@! TD*
G04 #@! TO.C,C2*
X165387500Y-89987500D03*
X165387500Y-92937500D03*
G04 #@! TD*
D31*
G04 #@! TO.C,C1*
X161975000Y-88462500D03*
X160425000Y-88462500D03*
G04 #@! TD*
D11*
G04 #@! TO.C,R1*
X157175000Y-94602496D03*
X159000000Y-94602496D03*
G04 #@! TD*
D32*
G04 #@! TO.C,D1*
X151500000Y-93500000D03*
X151500000Y-91925000D03*
G04 #@! TD*
M02*
