G04 #@! TF.GenerationSoftware,KiCad,Pcbnew,9.0.2-9.0.2-0~ubuntu24.04.1*
G04 #@! TF.CreationDate,2025-05-13T17:43:29+02:00*
G04 #@! TF.ProjectId,RCFavoritControlBoard,52434661-766f-4726-9974-436f6e74726f,rev?*
G04 #@! TF.SameCoordinates,Original*
G04 #@! TF.FileFunction,Copper,L1,Top*
G04 #@! TF.FilePolarity,Positive*
%FSLAX46Y46*%
G04 Gerber Fmt 4.6, Leading zero omitted, Abs format (unit mm)*
G04 Created by KiCad (PCBNEW 9.0.2-9.0.2-0~ubuntu24.04.1) date 2025-05-13 17:43:29*
%MOMM*%
%LPD*%
G01*
G04 APERTURE LIST*
G04 Aperture macros list*
%AMRoundRect*
0 Rectangle with rounded corners*
0 $1 Rounding radius*
0 $2 $3 $4 $5 $6 $7 $8 $9 X,Y pos of 4 corners*
0 Add a 4 corners polygon primitive as box body*
4,1,4,$2,$3,$4,$5,$6,$7,$8,$9,$2,$3,0*
0 Add four circle primitives for the rounded corners*
1,1,$1+$1,$2,$3*
1,1,$1+$1,$4,$5*
1,1,$1+$1,$6,$7*
1,1,$1+$1,$8,$9*
0 Add four rect primitives between the rounded corners*
20,1,$1+$1,$2,$3,$4,$5,0*
20,1,$1+$1,$4,$5,$6,$7,0*
20,1,$1+$1,$6,$7,$8,$9,0*
20,1,$1+$1,$8,$9,$2,$3,0*%
G04 Aperture macros list end*
G04 #@! TA.AperFunction,SMDPad,CuDef*
%ADD10RoundRect,0.500000X0.500000X2.250000X-0.500000X2.250000X-0.500000X-2.250000X0.500000X-2.250000X0*%
G04 #@! TD*
G04 #@! TA.AperFunction,SMDPad,CuDef*
%ADD11RoundRect,0.250000X-0.262500X-0.450000X0.262500X-0.450000X0.262500X0.450000X-0.262500X0.450000X0*%
G04 #@! TD*
G04 #@! TA.AperFunction,SMDPad,CuDef*
%ADD12RoundRect,0.150000X0.512500X0.150000X-0.512500X0.150000X-0.512500X-0.150000X0.512500X-0.150000X0*%
G04 #@! TD*
G04 #@! TA.AperFunction,SMDPad,CuDef*
%ADD13RoundRect,0.100000X0.687500X0.100000X-0.687500X0.100000X-0.687500X-0.100000X0.687500X-0.100000X0*%
G04 #@! TD*
G04 #@! TA.AperFunction,HeatsinkPad*
%ADD14C,0.500000*%
G04 #@! TD*
G04 #@! TA.AperFunction,HeatsinkPad*
%ADD15R,3.400000X5.000000*%
G04 #@! TD*
G04 #@! TA.AperFunction,SMDPad,CuDef*
%ADD16RoundRect,0.225000X0.250000X-0.225000X0.250000X0.225000X-0.250000X0.225000X-0.250000X-0.225000X0*%
G04 #@! TD*
G04 #@! TA.AperFunction,SMDPad,CuDef*
%ADD17RoundRect,0.112500X-0.187500X-0.112500X0.187500X-0.112500X0.187500X0.112500X-0.187500X0.112500X0*%
G04 #@! TD*
G04 #@! TA.AperFunction,SMDPad,CuDef*
%ADD18RoundRect,0.500000X0.500000X-0.875000X0.500000X0.875000X-0.500000X0.875000X-0.500000X-0.875000X0*%
G04 #@! TD*
G04 #@! TA.AperFunction,SMDPad,CuDef*
%ADD19RoundRect,0.275000X-0.275000X0.975000X-0.275000X-0.975000X0.275000X-0.975000X0.275000X0.975000X0*%
G04 #@! TD*
G04 #@! TA.AperFunction,SMDPad,CuDef*
%ADD20C,1.700000*%
G04 #@! TD*
G04 #@! TA.AperFunction,ComponentPad*
%ADD21C,4.400000*%
G04 #@! TD*
G04 #@! TA.AperFunction,SMDPad,CuDef*
%ADD22RoundRect,0.125000X0.125000X-0.537500X0.125000X0.537500X-0.125000X0.537500X-0.125000X-0.537500X0*%
G04 #@! TD*
G04 #@! TA.AperFunction,SMDPad,CuDef*
%ADD23RoundRect,0.250000X0.650000X-0.325000X0.650000X0.325000X-0.650000X0.325000X-0.650000X-0.325000X0*%
G04 #@! TD*
G04 #@! TA.AperFunction,SMDPad,CuDef*
%ADD24RoundRect,0.225000X-0.250000X0.225000X-0.250000X-0.225000X0.250000X-0.225000X0.250000X0.225000X0*%
G04 #@! TD*
G04 #@! TA.AperFunction,SMDPad,CuDef*
%ADD25RoundRect,0.218750X-0.256250X0.218750X-0.256250X-0.218750X0.256250X-0.218750X0.256250X0.218750X0*%
G04 #@! TD*
G04 #@! TA.AperFunction,SMDPad,CuDef*
%ADD26RoundRect,0.250000X-0.650000X0.325000X-0.650000X-0.325000X0.650000X-0.325000X0.650000X0.325000X0*%
G04 #@! TD*
G04 #@! TA.AperFunction,ComponentPad*
%ADD27RoundRect,0.750000X0.750000X-0.750000X0.750000X0.750000X-0.750000X0.750000X-0.750000X-0.750000X0*%
G04 #@! TD*
G04 #@! TA.AperFunction,ComponentPad*
%ADD28C,3.000000*%
G04 #@! TD*
G04 #@! TA.AperFunction,SMDPad,CuDef*
%ADD29RoundRect,0.200000X0.275000X-0.200000X0.275000X0.200000X-0.275000X0.200000X-0.275000X-0.200000X0*%
G04 #@! TD*
G04 #@! TA.AperFunction,ComponentPad*
%ADD30R,1.700000X1.700000*%
G04 #@! TD*
G04 #@! TA.AperFunction,ComponentPad*
%ADD31C,1.700000*%
G04 #@! TD*
G04 #@! TA.AperFunction,SMDPad,CuDef*
%ADD32RoundRect,0.200000X-0.275000X0.200000X-0.275000X-0.200000X0.275000X-0.200000X0.275000X0.200000X0*%
G04 #@! TD*
G04 #@! TA.AperFunction,SMDPad,CuDef*
%ADD33RoundRect,0.225000X0.225000X0.250000X-0.225000X0.250000X-0.225000X-0.250000X0.225000X-0.250000X0*%
G04 #@! TD*
G04 #@! TA.AperFunction,SMDPad,CuDef*
%ADD34RoundRect,0.218750X0.256250X-0.218750X0.256250X0.218750X-0.256250X0.218750X-0.256250X-0.218750X0*%
G04 #@! TD*
G04 #@! TA.AperFunction,ViaPad*
%ADD35C,0.600000*%
G04 #@! TD*
G04 #@! TA.AperFunction,ViaPad*
%ADD36C,0.800000*%
G04 #@! TD*
G04 #@! TA.AperFunction,Conductor*
%ADD37C,0.300000*%
G04 #@! TD*
G04 #@! TA.AperFunction,Conductor*
%ADD38C,0.750000*%
G04 #@! TD*
G04 #@! TA.AperFunction,Conductor*
%ADD39C,0.350000*%
G04 #@! TD*
G04 #@! TA.AperFunction,Conductor*
%ADD40C,1.200000*%
G04 #@! TD*
G04 APERTURE END LIST*
D10*
G04 #@! TO.P,L1,1,1*
G04 #@! TO.N,Net-(U1-LX)*
X162100000Y-82000000D03*
G04 #@! TO.P,L1,2,2*
G04 #@! TO.N,+6V*
X153900000Y-82000000D03*
G04 #@! TD*
D11*
G04 #@! TO.P,R6,1*
G04 #@! TO.N,+6V*
X154900000Y-104250000D03*
G04 #@! TO.P,R6,2*
G04 #@! TO.N,Net-(U3-~{SLEEP})*
X156725000Y-104250000D03*
G04 #@! TD*
D12*
G04 #@! TO.P,U2,1,IN*
G04 #@! TO.N,+6V*
X137618956Y-82475000D03*
G04 #@! TO.P,U2,2,GND*
G04 #@! TO.N,GND*
X137618956Y-81525000D03*
G04 #@! TO.P,U2,3,EN*
G04 #@! TO.N,+6V*
X137618956Y-80575000D03*
G04 #@! TO.P,U2,4,NC*
G04 #@! TO.N,GND*
X135343956Y-80575000D03*
G04 #@! TO.P,U2,5,OUT*
G04 #@! TO.N,+5V*
X135343956Y-82475000D03*
G04 #@! TD*
D13*
G04 #@! TO.P,U3,1,~{SLEEP}*
G04 #@! TO.N,Net-(U3-~{SLEEP})*
X156725000Y-102600000D03*
G04 #@! TO.P,U3,2,AOUT1*
G04 #@! TO.N,Motor+*
X156725000Y-101950000D03*
G04 #@! TO.P,U3,3,AISEN*
G04 #@! TO.N,GND*
X156725000Y-101300000D03*
G04 #@! TO.P,U3,4,AOUT2*
G04 #@! TO.N,Motor-*
X156725000Y-100650000D03*
G04 #@! TO.P,U3,5,BOUT2*
G04 #@! TO.N,unconnected-(U3-BOUT2-Pad5)*
X156725000Y-100000000D03*
G04 #@! TO.P,U3,6,BISEN*
G04 #@! TO.N,GND*
X156725000Y-99350000D03*
G04 #@! TO.P,U3,7,BOUT1*
G04 #@! TO.N,unconnected-(U3-BOUT1-Pad7)*
X156725000Y-98700000D03*
G04 #@! TO.P,U3,8,~{FAULT}*
G04 #@! TO.N,unconnected-(U3-~{FAULT}-Pad8)*
X156725000Y-98050000D03*
G04 #@! TO.P,U3,9,BIN1*
G04 #@! TO.N,unconnected-(U3-BIN1-Pad9)*
X151000000Y-98050000D03*
G04 #@! TO.P,U3,10,BIN2*
G04 #@! TO.N,unconnected-(U3-BIN2-Pad10)*
X151000000Y-98700000D03*
G04 #@! TO.P,U3,11,VCP*
G04 #@! TO.N,Net-(U3-VCP)*
X151000000Y-99350000D03*
G04 #@! TO.P,U3,12,VM*
G04 #@! TO.N,+6V*
X151000000Y-100000000D03*
G04 #@! TO.P,U3,13,GND*
G04 #@! TO.N,GND*
X151000000Y-100650000D03*
G04 #@! TO.P,U3,14,VINT*
G04 #@! TO.N,Net-(U3-VINT)*
X151000000Y-101300000D03*
G04 #@! TO.P,U3,15,AIN2*
G04 #@! TO.N,DRV8833_IN2*
X151000000Y-101950000D03*
G04 #@! TO.P,U3,16,AIN1*
G04 #@! TO.N,DRV8833_IN1*
X151000000Y-102600000D03*
D14*
G04 #@! TO.P,U3,17,GND*
G04 #@! TO.N,GND*
X154612500Y-101825000D03*
X154612500Y-100325000D03*
X154612500Y-98825000D03*
D15*
X153862500Y-100325000D03*
D14*
X153112500Y-101825000D03*
X153112500Y-100325000D03*
X153112500Y-98825000D03*
G04 #@! TD*
D16*
G04 #@! TO.P,C10,1*
G04 #@! TO.N,+6V*
X148925000Y-99825000D03*
G04 #@! TO.P,C10,2*
G04 #@! TO.N,Net-(U3-VCP)*
X148925000Y-98275000D03*
G04 #@! TD*
D17*
G04 #@! TO.P,D3,1,K*
G04 #@! TO.N,Net-(D3-K)*
X126675000Y-84934992D03*
G04 #@! TO.P,D3,2,A*
G04 #@! TO.N,+5V*
X128775000Y-84934992D03*
G04 #@! TD*
D18*
G04 #@! TO.P,ESP32,1,GPIO1_A0_D0*
G04 #@! TO.N,SERVO_PWM*
X126677304Y-104532496D03*
G04 #@! TO.P,ESP32,2,GPIO2_A1_D1*
G04 #@! TO.N,DRV8833_IN1*
X129217304Y-104532496D03*
G04 #@! TO.P,ESP32,3,GPIO3_A2_D2*
G04 #@! TO.N,DRV8833_IN2*
X131757304Y-104532496D03*
G04 #@! TO.P,ESP32,4,GPIO4_A3_D3*
G04 #@! TO.N,unconnected-(U4-GPIO4_A3_D3-Pad4)*
X134297304Y-104532496D03*
G04 #@! TO.P,ESP32,5,GPIO5_A4_D4_SDA*
G04 #@! TO.N,unconnected-(U4-GPIO5_A4_D4_SDA-Pad5)*
X136837304Y-104532496D03*
G04 #@! TO.P,ESP32,6,GPIO6_A5_D5_SCL*
G04 #@! TO.N,unconnected-(U4-GPIO6_A5_D5_SCL-Pad6)*
X139377304Y-104532496D03*
G04 #@! TO.P,ESP32,7,GPIO43_A6_D6_TX*
G04 #@! TO.N,unconnected-(U4-GPIO43_A6_D6_TX-Pad7)*
X141917304Y-104532496D03*
G04 #@! TO.P,ESP32,8,GPIO44_D7_RX*
G04 #@! TO.N,unconnected-(U4-GPIO44_D7_RX-Pad8)*
X141917304Y-88367496D03*
G04 #@! TO.P,ESP32,9,GPIO7_A8_D8_SCK*
G04 #@! TO.N,unconnected-(U4-GPIO7_A8_D8_SCK-Pad9)*
X139377304Y-88367496D03*
G04 #@! TO.P,ESP32,10,GPIO8_A9_D9_MISO*
G04 #@! TO.N,unconnected-(U4-GPIO8_A9_D9_MISO-Pad10)*
X136837304Y-88367496D03*
G04 #@! TO.P,ESP32,11,GPIO9_A10_D10_MOSI*
G04 #@! TO.N,unconnected-(U4-GPIO9_A10_D10_MOSI-Pad11)*
X134297304Y-88367496D03*
G04 #@! TO.P,ESP32,12,3V3*
G04 #@! TO.N,unconnected-(U4-3V3-Pad12)*
X131757304Y-88367496D03*
G04 #@! TO.P,ESP32,13,GND*
G04 #@! TO.N,GND*
X129217304Y-88367496D03*
G04 #@! TO.P,ESP32,14,5V*
G04 #@! TO.N,Net-(D3-K)*
X126677304Y-88367496D03*
D19*
G04 #@! TO.P,ESP32,15,BAT*
G04 #@! TO.N,unconnected-(U4-BAT-Pad15)*
X133915304Y-100922496D03*
G04 #@! TO.P,ESP32,16,GND*
G04 #@! TO.N,unconnected-(U4-GND-Pad16)*
X132010304Y-100922496D03*
D20*
G04 #@! TO.P,ESP32,17,MTDI*
G04 #@! TO.N,unconnected-(U4-MTDI-Pad17)*
X125665304Y-97747496D03*
G04 #@! TO.P,ESP32,18,MTDO*
G04 #@! TO.N,unconnected-(U4-MTDO-Pad18)*
X125665304Y-95207496D03*
G04 #@! TO.P,ESP32,19,CHIP_EN*
G04 #@! TO.N,unconnected-(U4-CHIP_EN-Pad19)*
X128205304Y-97747496D03*
G04 #@! TO.P,ESP32,20,GND*
G04 #@! TO.N,unconnected-(U4-GND-Pad20)*
X128205304Y-95207496D03*
G04 #@! TO.P,ESP32,21,MTMS*
G04 #@! TO.N,unconnected-(U4-MTMS-Pad21)*
X130745304Y-97747496D03*
G04 #@! TO.P,ESP32,22,MTCK*
G04 #@! TO.N,unconnected-(U4-MTCK-Pad22)*
X130745304Y-95207496D03*
G04 #@! TO.P,ESP32,23,USB_DN*
G04 #@! TO.N,unconnected-(U4-USB_DN-Pad23)*
X133285304Y-97747496D03*
G04 #@! TO.P,ESP32,24,USB_DP*
G04 #@! TO.N,unconnected-(U4-USB_DP-Pad24)*
X133285304Y-95207496D03*
G04 #@! TD*
D11*
G04 #@! TO.P,R3,1*
G04 #@! TO.N,Net-(U1-FS)*
X160675000Y-94602496D03*
G04 #@! TO.P,R3,2*
G04 #@! TO.N,GND*
X162500000Y-94602496D03*
G04 #@! TD*
D21*
G04 #@! TO.P,H2,1,1*
G04 #@! TO.N,GND*
X125000000Y-79000000D03*
G04 #@! TD*
D22*
G04 #@! TO.P,U1,1,FB*
G04 #@! TO.N,Net-(U1-FB)*
X159700000Y-92500000D03*
G04 #@! TO.P,U1,2,FS*
G04 #@! TO.N,Net-(U1-FS)*
X160350000Y-92500000D03*
G04 #@! TO.P,U1,3,GND*
G04 #@! TO.N,GND*
X161000000Y-92500000D03*
G04 #@! TO.P,U1,4,GND*
X161650000Y-92500000D03*
G04 #@! TO.P,U1,5,IN*
G04 #@! TO.N,VBAT*
X161650000Y-90225000D03*
G04 #@! TO.P,U1,6,LX*
G04 #@! TO.N,Net-(U1-LX)*
X161000000Y-90225000D03*
G04 #@! TO.P,U1,7,BS*
G04 #@! TO.N,Net-(U1-BS)*
X160350000Y-90225000D03*
G04 #@! TO.P,U1,8,EN*
G04 #@! TO.N,VBAT*
X159700000Y-90225000D03*
G04 #@! TD*
D21*
G04 #@! TO.P,H1,1,1*
G04 #@! TO.N,GND*
X169000000Y-104000000D03*
G04 #@! TD*
D23*
G04 #@! TO.P,C9,1*
G04 #@! TO.N,+5V*
X133000000Y-84950000D03*
G04 #@! TO.P,C9,2*
G04 #@! TO.N,GND*
X133000000Y-82000000D03*
G04 #@! TD*
D11*
G04 #@! TO.P,R4,1*
G04 #@! TO.N,Net-(U1-FB)*
X160675000Y-96600000D03*
G04 #@! TO.P,R4,2*
G04 #@! TO.N,GND*
X162500000Y-96600000D03*
G04 #@! TD*
D24*
G04 #@! TO.P,C6,1*
G04 #@! TO.N,+6V*
X153100000Y-88575000D03*
G04 #@! TO.P,C6,2*
G04 #@! TO.N,GND*
X153100000Y-90125000D03*
G04 #@! TD*
D25*
G04 #@! TO.P,5V,1,K*
G04 #@! TO.N,GND*
X130600000Y-80329992D03*
G04 #@! TO.P,5V,2,A*
G04 #@! TO.N,Net-(D2-A)*
X130600000Y-81904992D03*
G04 #@! TD*
D26*
G04 #@! TO.P,C4,1*
G04 #@! TO.N,+6V*
X155100000Y-88525000D03*
G04 #@! TO.P,C4,2*
G04 #@! TO.N,GND*
X155100000Y-91475000D03*
G04 #@! TD*
D27*
G04 #@! TO.P,VBAT,1,Pin_1*
G04 #@! TO.N,GND*
X168800000Y-86400000D03*
D28*
G04 #@! TO.P,VBAT,2,Pin_2*
G04 #@! TO.N,VBAT*
X168800000Y-81400000D03*
G04 #@! TD*
D29*
G04 #@! TO.P,R5,1*
G04 #@! TO.N,+5V*
X130600000Y-84934992D03*
G04 #@! TO.P,R5,2*
G04 #@! TO.N,Net-(D2-A)*
X130600000Y-83284992D03*
G04 #@! TD*
D23*
G04 #@! TO.P,C8,1*
G04 #@! TO.N,+6V*
X140000000Y-84950000D03*
G04 #@! TO.P,C8,2*
G04 #@! TO.N,GND*
X140000000Y-82000000D03*
G04 #@! TD*
D24*
G04 #@! TO.P,C3,1*
G04 #@! TO.N,VBAT*
X163310551Y-90586839D03*
G04 #@! TO.P,C3,2*
G04 #@! TO.N,GND*
X163310551Y-92136839D03*
G04 #@! TD*
D30*
G04 #@! TO.P,MOTOR,1,Pin_1*
G04 #@! TO.N,Motor+*
X169800000Y-98675000D03*
D31*
G04 #@! TO.P,MOTOR,2,Pin_2*
G04 #@! TO.N,Motor-*
X169800000Y-96135000D03*
G04 #@! TD*
D32*
G04 #@! TO.P,R2,1*
G04 #@! TO.N,+6V*
X151500000Y-88500000D03*
G04 #@! TO.P,R2,2*
G04 #@! TO.N,Net-(D1-A)*
X151500000Y-90150000D03*
G04 #@! TD*
D26*
G04 #@! TO.P,C5,1*
G04 #@! TO.N,+6V*
X157587500Y-88525000D03*
G04 #@! TO.P,C5,2*
G04 #@! TO.N,GND*
X157587500Y-91475000D03*
G04 #@! TD*
D24*
G04 #@! TO.P,C11,1*
G04 #@! TO.N,Net-(U3-VINT)*
X148925000Y-101375000D03*
G04 #@! TO.P,C11,2*
G04 #@! TO.N,GND*
X148925000Y-102925000D03*
G04 #@! TD*
D30*
G04 #@! TO.P,J3,1,Pin_1*
G04 #@! TO.N,SERVO_PWM*
X141560000Y-78500000D03*
D31*
G04 #@! TO.P,J3,2,Pin_2*
G04 #@! TO.N,+6V*
X144100000Y-78500000D03*
G04 #@! TO.P,J3,3,Pin_3*
G04 #@! TO.N,GND*
X146640000Y-78500000D03*
G04 #@! TD*
D26*
G04 #@! TO.P,C7,1*
G04 #@! TO.N,+6V*
X146825000Y-99875000D03*
G04 #@! TO.P,C7,2*
G04 #@! TO.N,GND*
X146825000Y-102825000D03*
G04 #@! TD*
G04 #@! TO.P,C2,1*
G04 #@! TO.N,VBAT*
X165387500Y-89987500D03*
G04 #@! TO.P,C2,2*
G04 #@! TO.N,GND*
X165387500Y-92937500D03*
G04 #@! TD*
D33*
G04 #@! TO.P,C1,1*
G04 #@! TO.N,Net-(U1-LX)*
X161975000Y-88462500D03*
G04 #@! TO.P,C1,2*
G04 #@! TO.N,Net-(U1-BS)*
X160425000Y-88462500D03*
G04 #@! TD*
D11*
G04 #@! TO.P,R1,1*
G04 #@! TO.N,+6V*
X157175000Y-94602496D03*
G04 #@! TO.P,R1,2*
G04 #@! TO.N,Net-(U1-FB)*
X159000000Y-94602496D03*
G04 #@! TD*
D34*
G04 #@! TO.P,D1,1,K*
G04 #@! TO.N,GND*
X151500000Y-93500000D03*
G04 #@! TO.P,D1,2,A*
G04 #@! TO.N,Net-(D1-A)*
X151500000Y-91925000D03*
G04 #@! TD*
D35*
G04 #@! TO.N,GND*
X165000000Y-78500000D03*
X150500000Y-80000000D03*
X164000000Y-104000000D03*
X159000000Y-104000000D03*
X123500000Y-83000000D03*
X133000000Y-77000000D03*
X129000000Y-101000000D03*
X137000000Y-96500000D03*
X137000000Y-100000000D03*
X142000000Y-100000000D03*
X142000000Y-96500000D03*
X142000000Y-92500000D03*
X137000000Y-92500000D03*
X132000000Y-92500000D03*
X127000000Y-92500000D03*
D36*
X157050000Y-92500000D03*
X132500000Y-81000000D03*
X154500000Y-92500000D03*
X129800000Y-86500000D03*
X138700000Y-81500000D03*
X163450000Y-95050000D03*
X141400000Y-82000000D03*
X152500000Y-93500000D03*
X128700000Y-86500000D03*
X134200000Y-80500000D03*
X153100000Y-91000000D03*
X165900000Y-93950000D03*
X148900000Y-103800000D03*
X158000000Y-92500000D03*
X133400000Y-81000000D03*
X147200000Y-103850000D03*
X163450000Y-96150000D03*
X146250000Y-103850000D03*
X163450000Y-94150000D03*
X153700000Y-91800000D03*
X164950000Y-93950000D03*
X163450000Y-97150000D03*
X162400000Y-92500000D03*
X131500000Y-80300000D03*
X164050000Y-92850000D03*
G04 #@! TO.N,+6V*
X156000000Y-87300000D03*
X146825000Y-97500000D03*
X153700000Y-104300000D03*
X156000000Y-94600000D03*
G04 #@! TO.N,VBAT*
X163400000Y-88800000D03*
X159378682Y-88801037D03*
G04 #@! TD*
D37*
G04 #@! TO.N,SERVO_PWM*
X126600000Y-102500000D02*
X126600000Y-102100000D01*
X126600000Y-102100000D02*
X123600000Y-99100000D01*
X123600000Y-99100000D02*
X123600000Y-84900000D01*
X123600000Y-84900000D02*
X130000000Y-78500000D01*
X130000000Y-78500000D02*
X141560000Y-78500000D01*
X126600000Y-102200000D02*
X126600000Y-102500000D01*
G04 #@! TO.N,Net-(U1-LX)*
X161000000Y-89437500D02*
X161975000Y-88462500D01*
X161000000Y-90225000D02*
X161000000Y-89437500D01*
D38*
X162100000Y-82000000D02*
X162100000Y-88337500D01*
X162100000Y-88337500D02*
X161975000Y-88462500D01*
G04 #@! TO.N,Motor+*
X167825000Y-98675000D02*
X167500000Y-99000000D01*
X164500000Y-102000000D02*
X163000000Y-102000000D01*
X163000000Y-102000000D02*
X158000000Y-102000000D01*
D39*
X158450000Y-101950000D02*
X156725000Y-101950000D01*
D38*
X167500000Y-99000000D02*
X164500000Y-102000000D01*
X169800000Y-98675000D02*
X167825000Y-98675000D01*
D39*
G04 #@! TO.N,GND*
X156725000Y-101300000D02*
X154837500Y-101300000D01*
D38*
X153100000Y-91000000D02*
X153100000Y-90125000D01*
X133400000Y-81600000D02*
X133000000Y-82000000D01*
X158000000Y-92500000D02*
X158000000Y-91887500D01*
X137618956Y-81525000D02*
X138675000Y-81525000D01*
X139200000Y-82000000D02*
X138700000Y-81500000D01*
X157050000Y-92012500D02*
X157587500Y-91475000D01*
X157050000Y-92500000D02*
X157050000Y-92012500D01*
X152500000Y-93500000D02*
X151500000Y-93500000D01*
X129800000Y-86500000D02*
X129800000Y-87784800D01*
X140000000Y-82000000D02*
X139200000Y-82000000D01*
X153700000Y-91800000D02*
X154775000Y-91800000D01*
X128700000Y-87850192D02*
X129217304Y-88367496D01*
X146250000Y-103400000D02*
X146825000Y-102825000D01*
X134275000Y-80575000D02*
X134200000Y-80500000D01*
D39*
X154837500Y-99350000D02*
X153862500Y-100325000D01*
D38*
X133400000Y-81000000D02*
X133400000Y-81600000D01*
X154500000Y-92075000D02*
X155100000Y-91475000D01*
D39*
X156725000Y-99350000D02*
X154837500Y-99350000D01*
D37*
X130600000Y-80329992D02*
X131470008Y-80329992D01*
D38*
X138675000Y-81525000D02*
X138700000Y-81500000D01*
D39*
X154837500Y-101300000D02*
X153862500Y-100325000D01*
D38*
X129800000Y-87784800D02*
X129217304Y-88367496D01*
D39*
X153537500Y-100650000D02*
X153862500Y-100325000D01*
D38*
X135343956Y-80575000D02*
X134275000Y-80575000D01*
D39*
X156775000Y-99300000D02*
X156725000Y-99350000D01*
D38*
X154500000Y-92500000D02*
X154500000Y-92075000D01*
X132500000Y-81000000D02*
X132500000Y-81500000D01*
X148900000Y-102950000D02*
X148925000Y-102925000D01*
X132500000Y-81500000D02*
X133000000Y-82000000D01*
X147200000Y-103850000D02*
X147200000Y-103200000D01*
X158000000Y-91887500D02*
X157587500Y-91475000D01*
X154775000Y-91800000D02*
X155100000Y-91475000D01*
D39*
X151000000Y-100650000D02*
X153537500Y-100650000D01*
D37*
X131470008Y-80329992D02*
X131500000Y-80300000D01*
D38*
X148900000Y-103800000D02*
X148900000Y-102950000D01*
X141400000Y-82000000D02*
X140000000Y-82000000D01*
X146250000Y-103850000D02*
X146250000Y-103400000D01*
X128700000Y-86500000D02*
X128700000Y-87850192D01*
X147200000Y-103200000D02*
X146825000Y-102825000D01*
D37*
G04 #@! TO.N,Net-(U1-BS)*
X160350000Y-90225000D02*
X160350000Y-88537500D01*
X160350000Y-88537500D02*
X160425000Y-88462500D01*
D39*
G04 #@! TO.N,Net-(U3-VCP)*
X148925000Y-98275000D02*
X150000000Y-99350000D01*
X150000000Y-99350000D02*
X151000000Y-99350000D01*
G04 #@! TO.N,Net-(U3-VINT)*
X151000000Y-101300000D02*
X149000000Y-101300000D01*
X149000000Y-101300000D02*
X148925000Y-101375000D01*
D38*
G04 #@! TO.N,+6V*
X137618956Y-84218956D02*
X138350000Y-84950000D01*
X146800000Y-84950000D02*
X149150000Y-84950000D01*
X144200000Y-84950000D02*
X140000000Y-84950000D01*
X138350000Y-84950000D02*
X140000000Y-84950000D01*
X157175000Y-94602496D02*
X156002496Y-94602496D01*
D37*
X136956457Y-82475000D02*
X137618956Y-82475000D01*
D38*
X149150000Y-84950000D02*
X149200000Y-85000000D01*
X144200000Y-84950000D02*
X146800000Y-84950000D01*
D39*
X154850000Y-104300000D02*
X154900000Y-104250000D01*
D38*
X156002496Y-94602496D02*
X156000000Y-94600000D01*
D37*
X136600000Y-82118543D02*
X136956457Y-82475000D01*
D38*
X144100000Y-78500000D02*
X144100000Y-83500000D01*
D39*
X149100000Y-100000000D02*
X148925000Y-99825000D01*
D38*
X148875000Y-99875000D02*
X148925000Y-99825000D01*
X157562500Y-88500000D02*
X157587500Y-88525000D01*
D37*
X137618956Y-80575000D02*
X137025000Y-80575000D01*
X136600000Y-81000000D02*
X136600000Y-82118543D01*
D39*
X153700000Y-104300000D02*
X154850000Y-104300000D01*
D37*
X137025000Y-80575000D02*
X136600000Y-81000000D01*
D38*
X146825000Y-99875000D02*
X148875000Y-99875000D01*
D39*
X151000000Y-100000000D02*
X149100000Y-100000000D01*
D38*
X146825000Y-92825000D02*
X146825000Y-97500000D01*
X137618956Y-82475000D02*
X137618956Y-84218956D01*
X146825000Y-84975000D02*
X146800000Y-84950000D01*
X146825000Y-99875000D02*
X146825000Y-84975000D01*
X144100000Y-83500000D02*
X145550000Y-84950000D01*
X145550000Y-84950000D02*
X144200000Y-84950000D01*
X146825000Y-97500000D02*
X146825000Y-99875000D01*
G04 #@! TO.N,Net-(D1-A)*
X151500000Y-91925000D02*
X151500000Y-90150000D01*
D37*
G04 #@! TO.N,DRV8833_IN1*
X149406520Y-105102000D02*
X151000000Y-103508520D01*
X129659808Y-106350000D02*
X144452000Y-106350000D01*
X129217304Y-105907496D02*
X129659808Y-106350000D01*
X129217304Y-104532496D02*
X129217304Y-105907496D01*
X151000000Y-102950000D02*
X151000000Y-102600000D01*
X145700000Y-105102000D02*
X149406520Y-105102000D01*
X144452000Y-106350000D02*
X145700000Y-105102000D01*
X151000000Y-103508520D02*
X151000000Y-102950000D01*
G04 #@! TO.N,Net-(D2-A)*
X130600000Y-83284992D02*
X130600000Y-81904992D01*
D38*
G04 #@! TO.N,Motor-*
X164000000Y-100500000D02*
X168365000Y-96135000D01*
X168365000Y-96135000D02*
X169800000Y-96135000D01*
X158000000Y-100500000D02*
X164000000Y-100500000D01*
D39*
X157850000Y-100650000D02*
X158000000Y-100500000D01*
X156725000Y-100650000D02*
X157850000Y-100650000D01*
D37*
G04 #@! TO.N,DRV8833_IN2*
X131757304Y-103157496D02*
X131757304Y-104532496D01*
X132264800Y-102650000D02*
X131757304Y-103157496D01*
X143700000Y-102650000D02*
X132264800Y-102650000D01*
X149000000Y-104600000D02*
X148999000Y-104601000D01*
X149199000Y-104601000D02*
X149800000Y-104000000D01*
X150221918Y-101950000D02*
X149800000Y-102371918D01*
X148999000Y-104601000D02*
X145651000Y-104601000D01*
X145651000Y-104601000D02*
X143700000Y-102650000D01*
X148999000Y-104601000D02*
X149199000Y-104601000D01*
X151000000Y-101950000D02*
X150221918Y-101950000D01*
X149800000Y-104000000D02*
X149800000Y-102371918D01*
G04 #@! TO.N,Net-(D3-K)*
X126677304Y-88367496D02*
X126677304Y-84937296D01*
X126677304Y-84937296D02*
X126675000Y-84934992D01*
D39*
G04 #@! TO.N,Net-(U1-FB)*
X159000000Y-93024000D02*
X159524000Y-92500000D01*
X160675000Y-96600000D02*
X159000000Y-94925000D01*
D38*
X159000000Y-94925000D02*
X159000000Y-94602496D01*
D39*
X159000000Y-94602496D02*
X159000000Y-93024000D01*
D37*
G04 #@! TO.N,Net-(U1-FS)*
X160350000Y-94277496D02*
X160350000Y-92500000D01*
X160675000Y-94602496D02*
X160350000Y-94277496D01*
D39*
G04 #@! TO.N,Net-(U3-~{SLEEP})*
X156725000Y-104250000D02*
X156725000Y-102600000D01*
D37*
G04 #@! TO.N,SERVO_PWM*
X126600000Y-102500000D02*
X126600000Y-104455192D01*
X126600000Y-104455192D02*
X126677304Y-104532496D01*
G04 #@! TO.N,+5V*
X130600000Y-84934992D02*
X132984992Y-84934992D01*
X134250000Y-84950000D02*
X135343956Y-83856044D01*
X135343956Y-83856044D02*
X135343956Y-82475000D01*
X132984992Y-84934992D02*
X133000000Y-84950000D01*
X133000000Y-84950000D02*
X134250000Y-84950000D01*
X128775000Y-84934992D02*
X130600000Y-84934992D01*
D40*
G04 #@! TO.N,VBAT*
X163909890Y-89987500D02*
X163310551Y-90586839D01*
X162386839Y-90586839D02*
X162000000Y-90200000D01*
D37*
X159700000Y-90225000D02*
X159400000Y-89925000D01*
D40*
X162412839Y-90586839D02*
X162386839Y-90586839D01*
D37*
X163909890Y-89309890D02*
X163909890Y-89987500D01*
D40*
X168800000Y-81400000D02*
X165387500Y-84812500D01*
D37*
X159379719Y-88800000D02*
X159378682Y-88801037D01*
D40*
X165387500Y-84812500D02*
X165387500Y-89987500D01*
D37*
X159400000Y-89925000D02*
X159400000Y-88800000D01*
D40*
X163310551Y-90586839D02*
X162412839Y-90586839D01*
X165387500Y-89987500D02*
X163909890Y-89987500D01*
D37*
X163400000Y-88800000D02*
X163909890Y-89309890D01*
X159400000Y-88800000D02*
X159379719Y-88800000D01*
G04 #@! TD*
G04 #@! TA.AperFunction,Conductor*
G04 #@! TO.N,GND*
G36*
X153700000Y-90800000D02*
G01*
X158500000Y-90800000D01*
X158500000Y-92900000D01*
X152900000Y-92900000D01*
X152900000Y-94000000D01*
X151000000Y-94000000D01*
X151000000Y-92700000D01*
X152500000Y-92700000D01*
X152500000Y-89600000D01*
X153700000Y-89600000D01*
X153700000Y-90800000D01*
G37*
G04 #@! TD.AperFunction*
G04 #@! TD*
G04 #@! TA.AperFunction,Conductor*
G04 #@! TO.N,GND*
G36*
X169203472Y-76075695D02*
G01*
X169520498Y-76093499D01*
X169534296Y-76095053D01*
X169843895Y-76147656D01*
X169857449Y-76150749D01*
X170008331Y-76194218D01*
X170159212Y-76237686D01*
X170172338Y-76242279D01*
X170462465Y-76362454D01*
X170474979Y-76368480D01*
X170749848Y-76520395D01*
X170761604Y-76527782D01*
X171017716Y-76709504D01*
X171028576Y-76718164D01*
X171151211Y-76827756D01*
X171262741Y-76927425D01*
X171272572Y-76937256D01*
X171462691Y-77150000D01*
X171481831Y-77171417D01*
X171490497Y-77182285D01*
X171668948Y-77433788D01*
X171672211Y-77438386D01*
X171679607Y-77450156D01*
X171774826Y-77622441D01*
X171831515Y-77725013D01*
X171837548Y-77737541D01*
X171957720Y-78027662D01*
X171962313Y-78040787D01*
X172049249Y-78342548D01*
X172052343Y-78356105D01*
X172104944Y-78665693D01*
X172106501Y-78679511D01*
X172124305Y-78996527D01*
X172124500Y-79003480D01*
X172124500Y-103996753D01*
X172124330Y-104003243D01*
X172107723Y-104320112D01*
X172106366Y-104333020D01*
X172057239Y-104643198D01*
X172054541Y-104655894D01*
X171973258Y-104959246D01*
X171969247Y-104971589D01*
X171856702Y-105264780D01*
X171851423Y-105276638D01*
X171708844Y-105556464D01*
X171702354Y-105567704D01*
X171531315Y-105831082D01*
X171523686Y-105841583D01*
X171326042Y-106085652D01*
X171317357Y-106095297D01*
X171095297Y-106317357D01*
X171085652Y-106326042D01*
X170841583Y-106523686D01*
X170831082Y-106531315D01*
X170567704Y-106702354D01*
X170556464Y-106708844D01*
X170276638Y-106851423D01*
X170264780Y-106856702D01*
X169971589Y-106969247D01*
X169959246Y-106973258D01*
X169655894Y-107054541D01*
X169643198Y-107057239D01*
X169333020Y-107106366D01*
X169320112Y-107107723D01*
X169003244Y-107124330D01*
X168996754Y-107124500D01*
X125003378Y-107124500D01*
X124996614Y-107124315D01*
X124971783Y-107122958D01*
X124688165Y-107107463D01*
X124674725Y-107105990D01*
X124373264Y-107056184D01*
X124360073Y-107053257D01*
X124065863Y-106970915D01*
X124053052Y-106966564D01*
X123769548Y-106852653D01*
X123757289Y-106846932D01*
X123487885Y-106702817D01*
X123476322Y-106695794D01*
X123224225Y-106523189D01*
X123213506Y-106514956D01*
X122981704Y-106315908D01*
X122971942Y-106306553D01*
X122763214Y-106083447D01*
X122754523Y-106073078D01*
X122727728Y-106037311D01*
X122571333Y-105828548D01*
X122563827Y-105817296D01*
X122545574Y-105786413D01*
X122408374Y-105554276D01*
X122402139Y-105542275D01*
X122395814Y-105528286D01*
X122276260Y-105263875D01*
X122271376Y-105251285D01*
X122176574Y-104960825D01*
X122173086Y-104947759D01*
X122110492Y-104648700D01*
X122108450Y-104635353D01*
X122078808Y-104331253D01*
X122078233Y-104317741D01*
X122079273Y-104231004D01*
X122081977Y-104005465D01*
X122081978Y-104005465D01*
X122083609Y-103980988D01*
X122078339Y-103972615D01*
X122075931Y-103943812D01*
X122076462Y-103941217D01*
X122075500Y-103933480D01*
X122075500Y-79367162D01*
X122095185Y-79300123D01*
X122147989Y-79254368D01*
X122217147Y-79244424D01*
X122280703Y-79273449D01*
X122318477Y-79332227D01*
X122322720Y-79353279D01*
X122333951Y-79452964D01*
X122333954Y-79452982D01*
X122401434Y-79748633D01*
X122401438Y-79748645D01*
X122501592Y-80034866D01*
X122501598Y-80034880D01*
X122633172Y-80308096D01*
X122794515Y-80564873D01*
X122827756Y-80606555D01*
X122827757Y-80606556D01*
X123991212Y-79443100D01*
X124059196Y-79576525D01*
X124160967Y-79716602D01*
X124283398Y-79839033D01*
X124423475Y-79940804D01*
X124556898Y-80008786D01*
X123393442Y-81172241D01*
X123393443Y-81172242D01*
X123435121Y-81205481D01*
X123691903Y-81366827D01*
X123965119Y-81498401D01*
X123965133Y-81498407D01*
X124251354Y-81598561D01*
X124251366Y-81598565D01*
X124547017Y-81666045D01*
X124547033Y-81666047D01*
X124848366Y-81699999D01*
X124848368Y-81700000D01*
X125151632Y-81700000D01*
X125151633Y-81699999D01*
X125452966Y-81666047D01*
X125452982Y-81666045D01*
X125748633Y-81598565D01*
X125748645Y-81598561D01*
X126029120Y-81500418D01*
X126098899Y-81496856D01*
X126159526Y-81531584D01*
X126191754Y-81593577D01*
X126185349Y-81663153D01*
X126157756Y-81705140D01*
X123239513Y-84623383D01*
X123239509Y-84623389D01*
X123180201Y-84726112D01*
X123180201Y-84726113D01*
X123180201Y-84726114D01*
X123149500Y-84840691D01*
X123149500Y-99159309D01*
X123154657Y-99178554D01*
X123167081Y-99224922D01*
X123180201Y-99273888D01*
X123182377Y-99277656D01*
X123239511Y-99376614D01*
X123239513Y-99376616D01*
X126113181Y-102250284D01*
X126146666Y-102311607D01*
X126149500Y-102337965D01*
X126149500Y-102744250D01*
X126129815Y-102811289D01*
X126077011Y-102857044D01*
X126039384Y-102867470D01*
X125998053Y-102872126D01*
X125998049Y-102872127D01*
X125827780Y-102931707D01*
X125675041Y-103027680D01*
X125547488Y-103155233D01*
X125451515Y-103307972D01*
X125391935Y-103478241D01*
X125391934Y-103478246D01*
X125376804Y-103612535D01*
X125376804Y-105452456D01*
X125391934Y-105586745D01*
X125391935Y-105586750D01*
X125451515Y-105757019D01*
X125539262Y-105896666D01*
X125547488Y-105909758D01*
X125675042Y-106037312D01*
X125689932Y-106046668D01*
X125767324Y-106095297D01*
X125827782Y-106133285D01*
X125939112Y-106172241D01*
X125998049Y-106192864D01*
X125998054Y-106192865D01*
X126088550Y-106203061D01*
X126132344Y-106207995D01*
X126132347Y-106207996D01*
X126132350Y-106207996D01*
X127222261Y-106207996D01*
X127222262Y-106207995D01*
X127289408Y-106200430D01*
X127356553Y-106192865D01*
X127356556Y-106192864D01*
X127356559Y-106192864D01*
X127526826Y-106133285D01*
X127679566Y-106037312D01*
X127807120Y-105909758D01*
X127842310Y-105853752D01*
X127894645Y-105807462D01*
X127963698Y-105796814D01*
X128027547Y-105825189D01*
X128052296Y-105853751D01*
X128087488Y-105909758D01*
X128215042Y-106037312D01*
X128229932Y-106046668D01*
X128307324Y-106095297D01*
X128367782Y-106133285D01*
X128479112Y-106172241D01*
X128538049Y-106192864D01*
X128538054Y-106192865D01*
X128628550Y-106203061D01*
X128672344Y-106207995D01*
X128672347Y-106207996D01*
X128672350Y-106207996D01*
X128829339Y-106207996D01*
X128896378Y-106227681D01*
X128917020Y-106244315D01*
X129383194Y-106710489D01*
X129485921Y-106769799D01*
X129510129Y-106776284D01*
X129510132Y-106776286D01*
X129510133Y-106776286D01*
X129540255Y-106784357D01*
X129600499Y-106800500D01*
X129600501Y-106800500D01*
X144511308Y-106800500D01*
X144511309Y-106800500D01*
X144601673Y-106776286D01*
X144625887Y-106769799D01*
X144728614Y-106710489D01*
X145850284Y-105588819D01*
X145911607Y-105555334D01*
X145937965Y-105552500D01*
X149465828Y-105552500D01*
X149465829Y-105552500D01*
X149556193Y-105528286D01*
X149580407Y-105521799D01*
X149683134Y-105462489D01*
X150776628Y-104368995D01*
X152999499Y-104368995D01*
X153026418Y-104504322D01*
X153026421Y-104504332D01*
X153079221Y-104631804D01*
X153079228Y-104631817D01*
X153155885Y-104746541D01*
X153155888Y-104746545D01*
X153253454Y-104844111D01*
X153253458Y-104844114D01*
X153368182Y-104920771D01*
X153368195Y-104920778D01*
X153495667Y-104973578D01*
X153495672Y-104973580D01*
X153495676Y-104973580D01*
X153495677Y-104973581D01*
X153631004Y-105000500D01*
X153631007Y-105000500D01*
X153768995Y-105000500D01*
X153860041Y-104982389D01*
X153904328Y-104973580D01*
X154005957Y-104931483D01*
X154075424Y-104924015D01*
X154137903Y-104955290D01*
X154152212Y-104971120D01*
X154244577Y-105092922D01*
X154365156Y-105184360D01*
X154365157Y-105184360D01*
X154365158Y-105184361D01*
X154505936Y-105239877D01*
X154594398Y-105250500D01*
X154594403Y-105250500D01*
X155205597Y-105250500D01*
X155205602Y-105250500D01*
X155294064Y-105239877D01*
X155434842Y-105184361D01*
X155555422Y-105092922D01*
X155646861Y-104972342D01*
X155697146Y-104844826D01*
X155740051Y-104789685D01*
X155805959Y-104766492D01*
X155873943Y-104782612D01*
X155922420Y-104832929D01*
X155927848Y-104844814D01*
X155957805Y-104920778D01*
X155978139Y-104972343D01*
X156069577Y-105092922D01*
X156190156Y-105184360D01*
X156190157Y-105184360D01*
X156190158Y-105184361D01*
X156330936Y-105239877D01*
X156419398Y-105250500D01*
X156419403Y-105250500D01*
X157030597Y-105250500D01*
X157030602Y-105250500D01*
X157119064Y-105239877D01*
X157259842Y-105184361D01*
X157380422Y-105092922D01*
X157471861Y-104972342D01*
X157527377Y-104831564D01*
X157538000Y-104743102D01*
X157538000Y-103848366D01*
X166300000Y-103848366D01*
X166300000Y-104151633D01*
X166333952Y-104452966D01*
X166333954Y-104452982D01*
X166401434Y-104748633D01*
X166401438Y-104748645D01*
X166501592Y-105034866D01*
X166501598Y-105034880D01*
X166633172Y-105308096D01*
X166794515Y-105564873D01*
X166827756Y-105606555D01*
X166827757Y-105606556D01*
X167991212Y-104443101D01*
X168059196Y-104576525D01*
X168160967Y-104716602D01*
X168283398Y-104839033D01*
X168423475Y-104940804D01*
X168556898Y-105008786D01*
X167393442Y-106172241D01*
X167393443Y-106172242D01*
X167435121Y-106205481D01*
X167691903Y-106366827D01*
X167965119Y-106498401D01*
X167965133Y-106498407D01*
X168251354Y-106598561D01*
X168251366Y-106598565D01*
X168547017Y-106666045D01*
X168547033Y-106666047D01*
X168848366Y-106699999D01*
X168848368Y-106700000D01*
X169151632Y-106700000D01*
X169151633Y-106699999D01*
X169452966Y-106666047D01*
X169452982Y-106666045D01*
X169748633Y-106598565D01*
X169748645Y-106598561D01*
X170034866Y-106498407D01*
X170034880Y-106498401D01*
X170308096Y-106366827D01*
X170564879Y-106205479D01*
X170606555Y-106172241D01*
X169443101Y-105008787D01*
X169576525Y-104940804D01*
X169716602Y-104839033D01*
X169839033Y-104716602D01*
X169940804Y-104576525D01*
X170008787Y-104443101D01*
X171172241Y-105606555D01*
X171205479Y-105564879D01*
X171366827Y-105308096D01*
X171498401Y-105034880D01*
X171498407Y-105034866D01*
X171598561Y-104748645D01*
X171598565Y-104748633D01*
X171666045Y-104452982D01*
X171666047Y-104452966D01*
X171699999Y-104151633D01*
X171700000Y-104151631D01*
X171700000Y-103848368D01*
X171699999Y-103848366D01*
X171666047Y-103547033D01*
X171666045Y-103547017D01*
X171598565Y-103251366D01*
X171598561Y-103251354D01*
X171498407Y-102965133D01*
X171498401Y-102965119D01*
X171366827Y-102691903D01*
X171205481Y-102435121D01*
X171172242Y-102393443D01*
X171172241Y-102393442D01*
X170008786Y-103556897D01*
X169940804Y-103423475D01*
X169839033Y-103283398D01*
X169716602Y-103160967D01*
X169576525Y-103059196D01*
X169443101Y-102991212D01*
X170606556Y-101827757D01*
X170606555Y-101827756D01*
X170564873Y-101794515D01*
X170308096Y-101633172D01*
X170034880Y-101501598D01*
X170034866Y-101501592D01*
X169748645Y-101401438D01*
X169748633Y-101401434D01*
X169452982Y-101333954D01*
X169452966Y-101333952D01*
X169151633Y-101300000D01*
X168848366Y-101300000D01*
X168547033Y-101333952D01*
X168547017Y-101333954D01*
X168251366Y-101401434D01*
X168251354Y-101401438D01*
X167965133Y-101501592D01*
X167965119Y-101501598D01*
X167691903Y-101633172D01*
X167435123Y-101794517D01*
X167435121Y-101794518D01*
X167393442Y-101827756D01*
X168556898Y-102991212D01*
X168423475Y-103059196D01*
X168283398Y-103160967D01*
X168160967Y-103283398D01*
X168059196Y-103423475D01*
X167991212Y-103556898D01*
X166827756Y-102393442D01*
X166794518Y-102435121D01*
X166794517Y-102435123D01*
X166633172Y-102691903D01*
X166501598Y-102965119D01*
X166501592Y-102965133D01*
X166401438Y-103251354D01*
X166401434Y-103251366D01*
X166333954Y-103547017D01*
X166333952Y-103547033D01*
X166300000Y-103848366D01*
X157538000Y-103848366D01*
X157538000Y-103756898D01*
X157527377Y-103668436D01*
X157471861Y-103527658D01*
X157471860Y-103527657D01*
X157471860Y-103527656D01*
X157380422Y-103407077D01*
X157269949Y-103323303D01*
X157228425Y-103267110D01*
X157223874Y-103197389D01*
X157257739Y-103136275D01*
X157319269Y-103103171D01*
X157344874Y-103100499D01*
X157444017Y-103100499D01*
X157444018Y-103100499D01*
X157537804Y-103085646D01*
X157650842Y-103028050D01*
X157740550Y-102938342D01*
X157798146Y-102825304D01*
X157798146Y-102825302D01*
X157798147Y-102825301D01*
X157805306Y-102780102D01*
X157835235Y-102716967D01*
X157894547Y-102680036D01*
X157927779Y-102675500D01*
X164566532Y-102675500D01*
X164566533Y-102675499D01*
X164697036Y-102649541D01*
X164819969Y-102598620D01*
X164930606Y-102524695D01*
X165280000Y-102175301D01*
X165666780Y-101788522D01*
X168024695Y-99430606D01*
X168068482Y-99386819D01*
X168129805Y-99353334D01*
X168156163Y-99350500D01*
X168525501Y-99350500D01*
X168592540Y-99370185D01*
X168638295Y-99422989D01*
X168649501Y-99474500D01*
X168649501Y-99569856D01*
X168649502Y-99569882D01*
X168652413Y-99594987D01*
X168652415Y-99594991D01*
X168697793Y-99697764D01*
X168697794Y-99697765D01*
X168777235Y-99777206D01*
X168880009Y-99822585D01*
X168905135Y-99825500D01*
X170694864Y-99825499D01*
X170694879Y-99825497D01*
X170694882Y-99825497D01*
X170719987Y-99822586D01*
X170719988Y-99822585D01*
X170719991Y-99822585D01*
X170822765Y-99777206D01*
X170902206Y-99697765D01*
X170947585Y-99594991D01*
X170950500Y-99569865D01*
X170950499Y-97780136D01*
X170947903Y-97757749D01*
X170947586Y-97755012D01*
X170947585Y-97755010D01*
X170947585Y-97755009D01*
X170902206Y-97652235D01*
X170822765Y-97572794D01*
X170803646Y-97564352D01*
X170719992Y-97527415D01*
X170694868Y-97524500D01*
X169957128Y-97524500D01*
X169890089Y-97504815D01*
X169844334Y-97452011D01*
X169834390Y-97382853D01*
X169863415Y-97319297D01*
X169922193Y-97281523D01*
X169937730Y-97278027D01*
X169961014Y-97274338D01*
X170069409Y-97257171D01*
X170235424Y-97203230D01*
X170241636Y-97201212D01*
X170241639Y-97201211D01*
X170402994Y-97118996D01*
X170549501Y-97012553D01*
X170677553Y-96884501D01*
X170783996Y-96737994D01*
X170866211Y-96576639D01*
X170922171Y-96404409D01*
X170942872Y-96273707D01*
X170950500Y-96225551D01*
X170950500Y-96044448D01*
X170924082Y-95877658D01*
X170922171Y-95865591D01*
X170866211Y-95693361D01*
X170866211Y-95693360D01*
X170837740Y-95637484D01*
X170783996Y-95532006D01*
X170725179Y-95451051D01*
X170677558Y-95385505D01*
X170677554Y-95385500D01*
X170549499Y-95257445D01*
X170549494Y-95257441D01*
X170402997Y-95151006D01*
X170402996Y-95151005D01*
X170402994Y-95151004D01*
X170351300Y-95124664D01*
X170241639Y-95068788D01*
X170241636Y-95068787D01*
X170069410Y-95012829D01*
X169890551Y-94984500D01*
X169890546Y-94984500D01*
X169709454Y-94984500D01*
X169709449Y-94984500D01*
X169530589Y-95012829D01*
X169358363Y-95068787D01*
X169358360Y-95068788D01*
X169197002Y-95151006D01*
X169050505Y-95257441D01*
X169050500Y-95257445D01*
X168922448Y-95385497D01*
X168905819Y-95408386D01*
X168850488Y-95451051D01*
X168805501Y-95459500D01*
X168298467Y-95459500D01*
X168167969Y-95485458D01*
X168167959Y-95485461D01*
X168045038Y-95536376D01*
X168045020Y-95536386D01*
X167950567Y-95599497D01*
X167950565Y-95599500D01*
X167934667Y-95610123D01*
X167934390Y-95610308D01*
X167934388Y-95610309D01*
X163756518Y-99788181D01*
X163695195Y-99821666D01*
X163668837Y-99824500D01*
X158092391Y-99824500D01*
X158025352Y-99804815D01*
X157979597Y-99752011D01*
X157969653Y-99682853D01*
X157977830Y-99653048D01*
X157997055Y-99606631D01*
X158004512Y-99550000D01*
X157637533Y-99550000D01*
X157628847Y-99547449D01*
X157619886Y-99548738D01*
X157581238Y-99536485D01*
X157537801Y-99514352D01*
X157444024Y-99499500D01*
X156005982Y-99499500D01*
X155912195Y-99514354D01*
X155868761Y-99536485D01*
X155866056Y-99536992D01*
X155863978Y-99538794D01*
X155812467Y-99550000D01*
X155445490Y-99550000D01*
X155445488Y-99550001D01*
X155452942Y-99606627D01*
X155452944Y-99606633D01*
X155513399Y-99752586D01*
X155611376Y-99880271D01*
X155636570Y-99945441D01*
X155637000Y-99955757D01*
X155637000Y-100131517D01*
X155651854Y-100225305D01*
X155659456Y-100240224D01*
X155673789Y-100268355D01*
X155673968Y-100268705D01*
X155686864Y-100337374D01*
X155673968Y-100381294D01*
X155651854Y-100424696D01*
X155651852Y-100424700D01*
X155637000Y-100518475D01*
X155637000Y-100694240D01*
X155617315Y-100761279D01*
X155611376Y-100769726D01*
X155513401Y-100897410D01*
X155513400Y-100897412D01*
X155452944Y-101043368D01*
X155445487Y-101100000D01*
X155812467Y-101100000D01*
X155821152Y-101102550D01*
X155830114Y-101101262D01*
X155868761Y-101113514D01*
X155912196Y-101135646D01*
X155912198Y-101135647D01*
X156005975Y-101150499D01*
X156005981Y-101150500D01*
X156601001Y-101150499D01*
X156609686Y-101153049D01*
X156618647Y-101151761D01*
X156642683Y-101162738D01*
X156668039Y-101170183D01*
X156673967Y-101177025D01*
X156682203Y-101180786D01*
X156696489Y-101203017D01*
X156713794Y-101222987D01*
X156716081Y-101233502D01*
X156719977Y-101239564D01*
X156725000Y-101274499D01*
X156725000Y-101325500D01*
X156705315Y-101392539D01*
X156652511Y-101438294D01*
X156601000Y-101449500D01*
X156005982Y-101449500D01*
X155912195Y-101464354D01*
X155868761Y-101486485D01*
X155865830Y-101487188D01*
X155863978Y-101488794D01*
X155851924Y-101490527D01*
X155812467Y-101500000D01*
X155426826Y-101500000D01*
X155409875Y-101510751D01*
X155351462Y-101513184D01*
X155290078Y-101500974D01*
X154966054Y-101824999D01*
X154966054Y-101825001D01*
X155290077Y-102149024D01*
X155290078Y-102149024D01*
X155333675Y-102043775D01*
X155333679Y-102043760D01*
X155362499Y-101898873D01*
X155362500Y-101898871D01*
X155362500Y-101871222D01*
X155370945Y-101842459D01*
X155376969Y-101813094D01*
X155380686Y-101809287D01*
X155382185Y-101804183D01*
X155404835Y-101784556D01*
X155425783Y-101763104D01*
X155430969Y-101761910D01*
X155434989Y-101758428D01*
X155464654Y-101754162D01*
X155493875Y-101747441D01*
X155498882Y-101749241D01*
X155504147Y-101748484D01*
X155531411Y-101760935D01*
X155559625Y-101771078D01*
X155564899Y-101776228D01*
X155567703Y-101777509D01*
X155584876Y-101795736D01*
X155611376Y-101830272D01*
X155636570Y-101895442D01*
X155637000Y-101905757D01*
X155637000Y-102081517D01*
X155651854Y-102175305D01*
X155673968Y-102218705D01*
X155686864Y-102287374D01*
X155673968Y-102331294D01*
X155651854Y-102374696D01*
X155651852Y-102374700D01*
X155637000Y-102468475D01*
X155637000Y-102731517D01*
X155639017Y-102744250D01*
X155651854Y-102825304D01*
X155709450Y-102938342D01*
X155709452Y-102938344D01*
X155709454Y-102938347D01*
X155799152Y-103028045D01*
X155799154Y-103028046D01*
X155799158Y-103028050D01*
X155912194Y-103085645D01*
X155912198Y-103085647D01*
X156005975Y-103100499D01*
X156005981Y-103100500D01*
X156105126Y-103100499D01*
X156172163Y-103120183D01*
X156217919Y-103172986D01*
X156227863Y-103242145D01*
X156198839Y-103305701D01*
X156180051Y-103323302D01*
X156069578Y-103407077D01*
X155978139Y-103527656D01*
X155958386Y-103577747D01*
X155927853Y-103655171D01*
X155884949Y-103710314D01*
X155819041Y-103733507D01*
X155751056Y-103717386D01*
X155702580Y-103667070D01*
X155697148Y-103655178D01*
X155646861Y-103527658D01*
X155646860Y-103527657D01*
X155646860Y-103527656D01*
X155555422Y-103407077D01*
X155434843Y-103315639D01*
X155314487Y-103268177D01*
X155294064Y-103260123D01*
X155294063Y-103260122D01*
X155294061Y-103260122D01*
X155248426Y-103254642D01*
X155205602Y-103249500D01*
X154594398Y-103249500D01*
X154555353Y-103254188D01*
X154505938Y-103260122D01*
X154365156Y-103315639D01*
X154244577Y-103407077D01*
X154153138Y-103527657D01*
X154130997Y-103583803D01*
X154088090Y-103638946D01*
X154022182Y-103662138D01*
X153968191Y-103652872D01*
X153904332Y-103626421D01*
X153904322Y-103626418D01*
X153768995Y-103599500D01*
X153768993Y-103599500D01*
X153631007Y-103599500D01*
X153631005Y-103599500D01*
X153495677Y-103626418D01*
X153495667Y-103626421D01*
X153368195Y-103679221D01*
X153368182Y-103679228D01*
X153253458Y-103755885D01*
X153253454Y-103755888D01*
X153155888Y-103853454D01*
X153155885Y-103853458D01*
X153079228Y-103968182D01*
X153079221Y-103968195D01*
X153026421Y-104095667D01*
X153026418Y-104095677D01*
X152999500Y-104231004D01*
X152999500Y-104231007D01*
X152999500Y-104368993D01*
X152999500Y-104368995D01*
X152999499Y-104368995D01*
X150776628Y-104368995D01*
X151360489Y-103785134D01*
X151419799Y-103682407D01*
X151423543Y-103668436D01*
X151439737Y-103607996D01*
X151439737Y-103607995D01*
X151450500Y-103567829D01*
X151450500Y-103224499D01*
X151470185Y-103157460D01*
X151522989Y-103111705D01*
X151574500Y-103100499D01*
X151719017Y-103100499D01*
X151719018Y-103100499D01*
X151812804Y-103085646D01*
X151925842Y-103028050D01*
X152015550Y-102938342D01*
X152073146Y-102825304D01*
X152073146Y-102825302D01*
X152073147Y-102825301D01*
X152087999Y-102731524D01*
X152088000Y-102731519D01*
X152087999Y-102502577D01*
X152788475Y-102502577D01*
X152893736Y-102546178D01*
X152893740Y-102546179D01*
X153038626Y-102574999D01*
X153038629Y-102575000D01*
X153186371Y-102575000D01*
X153186373Y-102574999D01*
X153331260Y-102546179D01*
X153331275Y-102546175D01*
X153436524Y-102502578D01*
X153436524Y-102502577D01*
X154288475Y-102502577D01*
X154393736Y-102546178D01*
X154393740Y-102546179D01*
X154538626Y-102574999D01*
X154538629Y-102575000D01*
X154686371Y-102575000D01*
X154686373Y-102574999D01*
X154831260Y-102546179D01*
X154831275Y-102546175D01*
X154936524Y-102502578D01*
X154936524Y-102502577D01*
X154612501Y-102178554D01*
X154612500Y-102178554D01*
X154288475Y-102502577D01*
X153436524Y-102502577D01*
X153112501Y-102178554D01*
X153112500Y-102178554D01*
X152788475Y-102502577D01*
X152087999Y-102502577D01*
X152087999Y-102468482D01*
X152073146Y-102374696D01*
X152045156Y-102319763D01*
X152041789Y-102307270D01*
X152042291Y-102284758D01*
X152038135Y-102262626D01*
X152043167Y-102245485D01*
X152043348Y-102237418D01*
X152047223Y-102231673D01*
X152051032Y-102218704D01*
X152073146Y-102175304D01*
X152073146Y-102175302D01*
X152073147Y-102175301D01*
X152087999Y-102081524D01*
X152088000Y-102081519D01*
X152087999Y-101818482D01*
X152087999Y-101818481D01*
X152087999Y-101818476D01*
X152081192Y-101775500D01*
X152077332Y-101751126D01*
X152362500Y-101751126D01*
X152362500Y-101898873D01*
X152391320Y-102043759D01*
X152391322Y-102043767D01*
X152434921Y-102149024D01*
X152758946Y-101825000D01*
X152758946Y-101824999D01*
X152739056Y-101805109D01*
X153012500Y-101805109D01*
X153012500Y-101844891D01*
X153027724Y-101881645D01*
X153055855Y-101909776D01*
X153092609Y-101925000D01*
X153132391Y-101925000D01*
X153169145Y-101909776D01*
X153197276Y-101881645D01*
X153212500Y-101844891D01*
X153212500Y-101824999D01*
X153466054Y-101824999D01*
X153466054Y-101825001D01*
X153790076Y-102149023D01*
X153838307Y-102139430D01*
X153886691Y-102139430D01*
X153934922Y-102149024D01*
X154258946Y-101825000D01*
X154258946Y-101824999D01*
X154239056Y-101805109D01*
X154512500Y-101805109D01*
X154512500Y-101844891D01*
X154527724Y-101881645D01*
X154555855Y-101909776D01*
X154592609Y-101925000D01*
X154632391Y-101925000D01*
X154669145Y-101909776D01*
X154697276Y-101881645D01*
X154712500Y-101844891D01*
X154712500Y-101805109D01*
X154697276Y-101768355D01*
X154669145Y-101740224D01*
X154632391Y-101725000D01*
X154592609Y-101725000D01*
X154555855Y-101740224D01*
X154527724Y-101768355D01*
X154512500Y-101805109D01*
X154239056Y-101805109D01*
X153934921Y-101500974D01*
X153886690Y-101510568D01*
X153838308Y-101510568D01*
X153790077Y-101500974D01*
X153466054Y-101824999D01*
X153212500Y-101824999D01*
X153212500Y-101805109D01*
X153197276Y-101768355D01*
X153169145Y-101740224D01*
X153132391Y-101725000D01*
X153092609Y-101725000D01*
X153055855Y-101740224D01*
X153027724Y-101768355D01*
X153012500Y-101805109D01*
X152739056Y-101805109D01*
X152434921Y-101500974D01*
X152434920Y-101500974D01*
X152391323Y-101606228D01*
X152391320Y-101606240D01*
X152362500Y-101751126D01*
X152077332Y-101751126D01*
X152073146Y-101724696D01*
X152051030Y-101681292D01*
X152038135Y-101612626D01*
X152051032Y-101568704D01*
X152073146Y-101525304D01*
X152073146Y-101525302D01*
X152073147Y-101525301D01*
X152087999Y-101431524D01*
X152088000Y-101431519D01*
X152087999Y-101255758D01*
X152107683Y-101188720D01*
X152113623Y-101180272D01*
X152211600Y-101052586D01*
X152232314Y-101002577D01*
X152788474Y-101002577D01*
X152798068Y-101050808D01*
X152798068Y-101099190D01*
X152788474Y-101147421D01*
X153112500Y-101471446D01*
X153112501Y-101471446D01*
X153436524Y-101147422D01*
X153426930Y-101099191D01*
X153426930Y-101090853D01*
X153425040Y-101086050D01*
X153426930Y-101050807D01*
X153436523Y-101002577D01*
X154288474Y-101002577D01*
X154298068Y-101050808D01*
X154298068Y-101099190D01*
X154288474Y-101147421D01*
X154612500Y-101471446D01*
X154612501Y-101471446D01*
X154936524Y-101147422D01*
X154926930Y-101099191D01*
X154926930Y-101050807D01*
X154936523Y-101002576D01*
X154612501Y-100678554D01*
X154612500Y-100678554D01*
X154288474Y-101002577D01*
X153436523Y-101002577D01*
X153436523Y-101002576D01*
X153112501Y-100678554D01*
X153112500Y-100678554D01*
X152788474Y-101002577D01*
X152232314Y-101002577D01*
X152262990Y-100928518D01*
X152288817Y-100752766D01*
X152299789Y-100728935D01*
X152307181Y-100703759D01*
X152314170Y-100697701D01*
X152318039Y-100689301D01*
X152340154Y-100675184D01*
X152359983Y-100658002D01*
X152369137Y-100656685D01*
X152376934Y-100651709D01*
X152403169Y-100651790D01*
X152429141Y-100648055D01*
X152434903Y-100649042D01*
X152758946Y-100325000D01*
X152758946Y-100324999D01*
X152739056Y-100305109D01*
X153012500Y-100305109D01*
X153012500Y-100344891D01*
X153027724Y-100381645D01*
X153055855Y-100409776D01*
X153092609Y-100425000D01*
X153132391Y-100425000D01*
X153169145Y-100409776D01*
X153197276Y-100381645D01*
X153212500Y-100344891D01*
X153212500Y-100324999D01*
X153466054Y-100324999D01*
X153466054Y-100325001D01*
X153790076Y-100649023D01*
X153838307Y-100639430D01*
X153886691Y-100639430D01*
X153934922Y-100649024D01*
X154258946Y-100325000D01*
X154258946Y-100324999D01*
X154239056Y-100305109D01*
X154512500Y-100305109D01*
X154512500Y-100344891D01*
X154527724Y-100381645D01*
X154555855Y-100409776D01*
X154592609Y-100425000D01*
X154632391Y-100425000D01*
X154669145Y-100409776D01*
X154697276Y-100381645D01*
X154712500Y-100344891D01*
X154712500Y-100324999D01*
X154966054Y-100324999D01*
X154966054Y-100325001D01*
X155290077Y-100649024D01*
X155290078Y-100649024D01*
X155333675Y-100543775D01*
X155333679Y-100543760D01*
X155362499Y-100398873D01*
X155362500Y-100398871D01*
X155362500Y-100251128D01*
X155362499Y-100251126D01*
X155333679Y-100106240D01*
X155333678Y-100106236D01*
X155290077Y-100000975D01*
X154966054Y-100324999D01*
X154712500Y-100324999D01*
X154712500Y-100305109D01*
X154697276Y-100268355D01*
X154669145Y-100240224D01*
X154632391Y-100225000D01*
X154592609Y-100225000D01*
X154555855Y-100240224D01*
X154527724Y-100268355D01*
X154512500Y-100305109D01*
X154239056Y-100305109D01*
X153934921Y-100000974D01*
X153886690Y-100010568D01*
X153838308Y-100010568D01*
X153790077Y-100000974D01*
X153466054Y-100324999D01*
X153212500Y-100324999D01*
X153212500Y-100305109D01*
X153197276Y-100268355D01*
X153169145Y-100240224D01*
X153132391Y-100225000D01*
X153092609Y-100225000D01*
X153055855Y-100240224D01*
X153027724Y-100268355D01*
X153012500Y-100305109D01*
X152739056Y-100305109D01*
X152434921Y-100000974D01*
X152434920Y-100000974D01*
X152391323Y-100106228D01*
X152391321Y-100106237D01*
X152385413Y-100135937D01*
X152376981Y-100152054D01*
X152373327Y-100169872D01*
X152361123Y-100182369D01*
X152353027Y-100197847D01*
X152337221Y-100206847D01*
X152324513Y-100219862D01*
X152307489Y-100223778D01*
X152292311Y-100232421D01*
X152274149Y-100231447D01*
X152256422Y-100235525D01*
X152239982Y-100229615D01*
X152222542Y-100228680D01*
X152207790Y-100218042D01*
X152190671Y-100211888D01*
X152166432Y-100188218D01*
X152165870Y-100187813D01*
X152165420Y-100187230D01*
X152113623Y-100119726D01*
X152088429Y-100054556D01*
X152087999Y-100044256D01*
X152087999Y-99868482D01*
X152073146Y-99774696D01*
X152051030Y-99731292D01*
X152038135Y-99662626D01*
X152040852Y-99646433D01*
X152044278Y-99631958D01*
X152073146Y-99575304D01*
X152084665Y-99502577D01*
X152788474Y-99502577D01*
X152798068Y-99550808D01*
X152798068Y-99599190D01*
X152788474Y-99647421D01*
X153112500Y-99971446D01*
X153112501Y-99971446D01*
X153436524Y-99647422D01*
X153426930Y-99599191D01*
X153426930Y-99590853D01*
X153425040Y-99586050D01*
X153426930Y-99550807D01*
X153436523Y-99502577D01*
X154288474Y-99502577D01*
X154298068Y-99550808D01*
X154298068Y-99599190D01*
X154288474Y-99647421D01*
X154612500Y-99971446D01*
X154612501Y-99971446D01*
X154936524Y-99647422D01*
X154926930Y-99599191D01*
X154926930Y-99550807D01*
X154936523Y-99502576D01*
X154612501Y-99178554D01*
X154612500Y-99178554D01*
X154288474Y-99502577D01*
X153436523Y-99502577D01*
X153436523Y-99502576D01*
X153112501Y-99178554D01*
X153112500Y-99178554D01*
X152788474Y-99502577D01*
X152084665Y-99502577D01*
X152088000Y-99481519D01*
X152087999Y-99218482D01*
X152073146Y-99124696D01*
X152051030Y-99081292D01*
X152038135Y-99012626D01*
X152051032Y-98968704D01*
X152073146Y-98925304D01*
X152073146Y-98925302D01*
X152073147Y-98925301D01*
X152088000Y-98831524D01*
X152088000Y-98751126D01*
X152362500Y-98751126D01*
X152362500Y-98898873D01*
X152391320Y-99043759D01*
X152391322Y-99043767D01*
X152434921Y-99149024D01*
X152758946Y-98825000D01*
X152758946Y-98824999D01*
X152739056Y-98805109D01*
X153012500Y-98805109D01*
X153012500Y-98844891D01*
X153027724Y-98881645D01*
X153055855Y-98909776D01*
X153092609Y-98925000D01*
X153132391Y-98925000D01*
X153169145Y-98909776D01*
X153197276Y-98881645D01*
X153212500Y-98844891D01*
X153212500Y-98824999D01*
X153466054Y-98824999D01*
X153466054Y-98825001D01*
X153790076Y-99149023D01*
X153838307Y-99139430D01*
X153886691Y-99139430D01*
X153934922Y-99149024D01*
X154258946Y-98825000D01*
X154258946Y-98824999D01*
X154239056Y-98805109D01*
X154512500Y-98805109D01*
X154512500Y-98844891D01*
X154527724Y-98881645D01*
X154555855Y-98909776D01*
X154592609Y-98925000D01*
X154632391Y-98925000D01*
X154669145Y-98909776D01*
X154697276Y-98881645D01*
X154712500Y-98844891D01*
X154712500Y-98824999D01*
X154966054Y-98824999D01*
X154966054Y-98825001D01*
X155290077Y-99149024D01*
X155351459Y-99136814D01*
X155421051Y-99143041D01*
X155430947Y-99150000D01*
X155812467Y-99150000D01*
X155822364Y-99152376D01*
X155830114Y-99151262D01*
X155843846Y-99157533D01*
X155868762Y-99163515D01*
X155912198Y-99185647D01*
X156005975Y-99200499D01*
X156005981Y-99200500D01*
X157444018Y-99200499D01*
X157537804Y-99185646D01*
X157570250Y-99169113D01*
X157581239Y-99163515D01*
X157584169Y-99162811D01*
X157586022Y-99161206D01*
X157598075Y-99159472D01*
X157637533Y-99150000D01*
X158004510Y-99150000D01*
X158004511Y-99149998D01*
X157997057Y-99093372D01*
X157997055Y-99093366D01*
X157936600Y-98947412D01*
X157936598Y-98947410D01*
X157838623Y-98819726D01*
X157813429Y-98754557D01*
X157812999Y-98744256D01*
X157812999Y-98568482D01*
X157798146Y-98474696D01*
X157776030Y-98431292D01*
X157763135Y-98362626D01*
X157776032Y-98318704D01*
X157798145Y-98275305D01*
X157798146Y-98275304D01*
X157798146Y-98275302D01*
X157798147Y-98275301D01*
X157812999Y-98181524D01*
X157813000Y-98181519D01*
X157812999Y-97918482D01*
X157798146Y-97824696D01*
X157740550Y-97711658D01*
X157740546Y-97711654D01*
X157740545Y-97711652D01*
X157650847Y-97621954D01*
X157650844Y-97621952D01*
X157650842Y-97621950D01*
X157574017Y-97582805D01*
X157537801Y-97564352D01*
X157444024Y-97549500D01*
X156005982Y-97549500D01*
X155925019Y-97562323D01*
X155912196Y-97564354D01*
X155799158Y-97621950D01*
X155799157Y-97621951D01*
X155799152Y-97621954D01*
X155709454Y-97711652D01*
X155709451Y-97711657D01*
X155651852Y-97824698D01*
X155637000Y-97918475D01*
X155637000Y-98181517D01*
X155651854Y-98275305D01*
X155673968Y-98318705D01*
X155686864Y-98387374D01*
X155673968Y-98431294D01*
X155651854Y-98474696D01*
X155651852Y-98474700D01*
X155637000Y-98568475D01*
X155637000Y-98744240D01*
X155630559Y-98766172D01*
X155628658Y-98788952D01*
X155618624Y-98806817D01*
X155617315Y-98811279D01*
X155611376Y-98819726D01*
X155584876Y-98854262D01*
X155528449Y-98895465D01*
X155458703Y-98899620D01*
X155397782Y-98865408D01*
X155365029Y-98803691D01*
X155362500Y-98778776D01*
X155362500Y-98751128D01*
X155362499Y-98751126D01*
X155333679Y-98606240D01*
X155333678Y-98606236D01*
X155290077Y-98500975D01*
X154966054Y-98824999D01*
X154712500Y-98824999D01*
X154712500Y-98805109D01*
X154697276Y-98768355D01*
X154669145Y-98740224D01*
X154632391Y-98725000D01*
X154592609Y-98725000D01*
X154555855Y-98740224D01*
X154527724Y-98768355D01*
X154512500Y-98805109D01*
X154239056Y-98805109D01*
X153934921Y-98500974D01*
X153886690Y-98510568D01*
X153838308Y-98510568D01*
X153790077Y-98500974D01*
X153466054Y-98824999D01*
X153212500Y-98824999D01*
X153212500Y-98805109D01*
X153197276Y-98768355D01*
X153169145Y-98740224D01*
X153132391Y-98725000D01*
X153092609Y-98725000D01*
X153055855Y-98740224D01*
X153027724Y-98768355D01*
X153012500Y-98805109D01*
X152739056Y-98805109D01*
X152434921Y-98500974D01*
X152434920Y-98500974D01*
X152391323Y-98606228D01*
X152391320Y-98606240D01*
X152362500Y-98751126D01*
X152088000Y-98751126D01*
X152088000Y-98745039D01*
X152087999Y-98568482D01*
X152083668Y-98541137D01*
X152073146Y-98474696D01*
X152051030Y-98431292D01*
X152038135Y-98362626D01*
X152041789Y-98342730D01*
X152045156Y-98330236D01*
X152073146Y-98275304D01*
X152088000Y-98181519D01*
X152088000Y-98147420D01*
X152788474Y-98147420D01*
X152788474Y-98147421D01*
X153112500Y-98471446D01*
X153112501Y-98471446D01*
X153436524Y-98147421D01*
X153436522Y-98147420D01*
X154288474Y-98147420D01*
X154288474Y-98147421D01*
X154612500Y-98471446D01*
X154612501Y-98471446D01*
X154936524Y-98147421D01*
X154831267Y-98103822D01*
X154831259Y-98103820D01*
X154686372Y-98075000D01*
X154538628Y-98075000D01*
X154393740Y-98103820D01*
X154393728Y-98103823D01*
X154288474Y-98147420D01*
X153436522Y-98147420D01*
X153331267Y-98103822D01*
X153331259Y-98103820D01*
X153186372Y-98075000D01*
X153038628Y-98075000D01*
X152893740Y-98103820D01*
X152893728Y-98103823D01*
X152788474Y-98147420D01*
X152088000Y-98147420D01*
X152087999Y-97918482D01*
X152073146Y-97824696D01*
X152015550Y-97711658D01*
X152015546Y-97711654D01*
X152015545Y-97711652D01*
X151925847Y-97621954D01*
X151925844Y-97621952D01*
X151925842Y-97621950D01*
X151849017Y-97582805D01*
X151812801Y-97564352D01*
X151719024Y-97549500D01*
X150280982Y-97549500D01*
X150200019Y-97562323D01*
X150187196Y-97564354D01*
X150074158Y-97621950D01*
X150074157Y-97621951D01*
X150074152Y-97621954D01*
X149984454Y-97711652D01*
X149984451Y-97711657D01*
X149926852Y-97824698D01*
X149926852Y-97824699D01*
X149918916Y-97874809D01*
X149888987Y-97937944D01*
X149829675Y-97974875D01*
X149759812Y-97973877D01*
X149701580Y-97935267D01*
X149681089Y-97900901D01*
X149637365Y-97790027D01*
X149637365Y-97790026D01*
X149550078Y-97674921D01*
X149434976Y-97587636D01*
X149300588Y-97534640D01*
X149257242Y-97529435D01*
X149216144Y-97524500D01*
X148633856Y-97524500D01*
X148595841Y-97529065D01*
X148549411Y-97534640D01*
X148415023Y-97587636D01*
X148299921Y-97674921D01*
X148212636Y-97790023D01*
X148159640Y-97924411D01*
X148154065Y-97970841D01*
X148149500Y-98008856D01*
X148149500Y-98541144D01*
X148152782Y-98568475D01*
X148159640Y-98625588D01*
X148212636Y-98759976D01*
X148299920Y-98875076D01*
X148299922Y-98875078D01*
X148395305Y-98947410D01*
X148400298Y-98951196D01*
X148415561Y-98971851D01*
X148433832Y-98989896D01*
X148435980Y-98999485D01*
X148441821Y-99007389D01*
X148443493Y-99033014D01*
X148449109Y-99058075D01*
X148445731Y-99067304D01*
X148446372Y-99077110D01*
X148433924Y-99099573D01*
X148425100Y-99123690D01*
X148414757Y-99134162D01*
X148412507Y-99138224D01*
X148400300Y-99148802D01*
X148389392Y-99157074D01*
X148366673Y-99174302D01*
X148301364Y-99199127D01*
X148291747Y-99199500D01*
X147961680Y-99199500D01*
X147894641Y-99179815D01*
X147875200Y-99161786D01*
X147873915Y-99163072D01*
X147867925Y-99157082D01*
X147867922Y-99157078D01*
X147861722Y-99152376D01*
X147747343Y-99065639D01*
X147606556Y-99010120D01*
X147598852Y-99008173D01*
X147599382Y-99006072D01*
X147545490Y-98982954D01*
X147506364Y-98925067D01*
X147500500Y-98887385D01*
X147500500Y-97706886D01*
X147502883Y-97682694D01*
X147525500Y-97568995D01*
X147525500Y-97431004D01*
X147502883Y-97317304D01*
X147500500Y-97293112D01*
X147500500Y-85749500D01*
X147520185Y-85682461D01*
X147572989Y-85636706D01*
X147624500Y-85625500D01*
X148070500Y-85625500D01*
X148137539Y-85645185D01*
X148183294Y-85697989D01*
X148194500Y-85749500D01*
X148194500Y-88876000D01*
X148194501Y-88876009D01*
X148201481Y-88940935D01*
X148201483Y-88940947D01*
X148212688Y-88992453D01*
X148223644Y-89030654D01*
X148223646Y-89030658D01*
X148280323Y-89127568D01*
X148280325Y-89127571D01*
X148326081Y-89180376D01*
X148326091Y-89180387D01*
X148370807Y-89222548D01*
X148370809Y-89222549D01*
X148370813Y-89222553D01*
X148470889Y-89273439D01*
X148537928Y-89293124D01*
X148624000Y-89305500D01*
X150878218Y-89305500D01*
X150945257Y-89325185D01*
X150991012Y-89377989D01*
X151000956Y-89447147D01*
X150971931Y-89510703D01*
X150952529Y-89528766D01*
X150867455Y-89592452D01*
X150867452Y-89592455D01*
X150781206Y-89707664D01*
X150781202Y-89707671D01*
X150730910Y-89842513D01*
X150730909Y-89842517D01*
X150724500Y-89902127D01*
X150724500Y-89902134D01*
X150724500Y-89902135D01*
X150724500Y-90397870D01*
X150724501Y-90397876D01*
X150730908Y-90457483D01*
X150781203Y-90592329D01*
X150781204Y-90592331D01*
X150799766Y-90617126D01*
X150824184Y-90682590D01*
X150824500Y-90691438D01*
X150824500Y-91358065D01*
X150804815Y-91425104D01*
X150799305Y-91432989D01*
X150786886Y-91449365D01*
X150734520Y-91582155D01*
X150734520Y-91582156D01*
X150724500Y-91665597D01*
X150724500Y-92184402D01*
X150734520Y-92267843D01*
X150734520Y-92267844D01*
X150786886Y-92400634D01*
X150868653Y-92508461D01*
X150893476Y-92573773D01*
X150879048Y-92642137D01*
X150834947Y-92688924D01*
X150794921Y-92713612D01*
X150676114Y-92832419D01*
X150587908Y-92975422D01*
X150587906Y-92975427D01*
X150546627Y-93100000D01*
X151000000Y-93100000D01*
X151000000Y-93900000D01*
X150546627Y-93900000D01*
X150587906Y-94024572D01*
X150587908Y-94024577D01*
X150676114Y-94167580D01*
X150794919Y-94286385D01*
X150937922Y-94374591D01*
X150937927Y-94374593D01*
X151097416Y-94427442D01*
X151097415Y-94427442D01*
X151100000Y-94427705D01*
X151100000Y-94000000D01*
X151900000Y-94000000D01*
X151900000Y-94427705D01*
X151902583Y-94427442D01*
X152062072Y-94374593D01*
X152062077Y-94374591D01*
X152205080Y-94286385D01*
X152323885Y-94167580D01*
X152412091Y-94024577D01*
X152412093Y-94024572D01*
X152420236Y-94000000D01*
X152900000Y-94000000D01*
X152900000Y-92900000D01*
X158500000Y-92900000D01*
X158500000Y-92503119D01*
X158524449Y-92495018D01*
X158594278Y-92492616D01*
X158654320Y-92528347D01*
X158685513Y-92590868D01*
X158677953Y-92660327D01*
X158651136Y-92700404D01*
X158619506Y-92732034D01*
X158619504Y-92732037D01*
X158556905Y-92840463D01*
X158556905Y-92840464D01*
X158525166Y-92958916D01*
X158524500Y-92961400D01*
X158524500Y-93562232D01*
X158504815Y-93629271D01*
X158470714Y-93661425D01*
X158471916Y-93663010D01*
X158344577Y-93759573D01*
X158253139Y-93880152D01*
X158226835Y-93946856D01*
X158202853Y-94007667D01*
X158159949Y-94062810D01*
X158094041Y-94086003D01*
X158026056Y-94069882D01*
X157977580Y-94019566D01*
X157972148Y-94007674D01*
X157921861Y-93880154D01*
X157921860Y-93880153D01*
X157921860Y-93880152D01*
X157830422Y-93759573D01*
X157709843Y-93668135D01*
X157569061Y-93612618D01*
X157523426Y-93607138D01*
X157480602Y-93601996D01*
X156869398Y-93601996D01*
X156830353Y-93606684D01*
X156780938Y-93612618D01*
X156640156Y-93668135D01*
X156519577Y-93759573D01*
X156429832Y-93877921D01*
X156426475Y-93880401D01*
X156424741Y-93884199D01*
X156398613Y-93900989D01*
X156373639Y-93919445D01*
X156368471Y-93920360D01*
X156365963Y-93921973D01*
X156331028Y-93926996D01*
X156219439Y-93926996D01*
X156195248Y-93924613D01*
X156068997Y-93899500D01*
X156068993Y-93899500D01*
X155931007Y-93899500D01*
X155931005Y-93899500D01*
X155795677Y-93926418D01*
X155795667Y-93926421D01*
X155668195Y-93979221D01*
X155668182Y-93979228D01*
X155553458Y-94055885D01*
X155553454Y-94055888D01*
X155455888Y-94153454D01*
X155455885Y-94153458D01*
X155379228Y-94268182D01*
X155379221Y-94268195D01*
X155326421Y-94395667D01*
X155326418Y-94395677D01*
X155299500Y-94531004D01*
X155299500Y-94531007D01*
X155299500Y-94668993D01*
X155299500Y-94668995D01*
X155299499Y-94668995D01*
X155326418Y-94804322D01*
X155326421Y-94804332D01*
X155379221Y-94931804D01*
X155379228Y-94931817D01*
X155455885Y-95046541D01*
X155455888Y-95046545D01*
X155553454Y-95144111D01*
X155553458Y-95144114D01*
X155668182Y-95220771D01*
X155668195Y-95220778D01*
X155756723Y-95257447D01*
X155795672Y-95273580D01*
X155795676Y-95273580D01*
X155795677Y-95273581D01*
X155931004Y-95300500D01*
X155931007Y-95300500D01*
X156068995Y-95300500D01*
X156136832Y-95287005D01*
X156170147Y-95280378D01*
X156194338Y-95277996D01*
X156331028Y-95277996D01*
X156398067Y-95297681D01*
X156429832Y-95327071D01*
X156519577Y-95445418D01*
X156640156Y-95536856D01*
X156640157Y-95536856D01*
X156640158Y-95536857D01*
X156780936Y-95592373D01*
X156869398Y-95602996D01*
X156869403Y-95602996D01*
X157480597Y-95602996D01*
X157480602Y-95602996D01*
X157569064Y-95592373D01*
X157709842Y-95536857D01*
X157830422Y-95445418D01*
X157921861Y-95324838D01*
X157972146Y-95197322D01*
X158015051Y-95142181D01*
X158080959Y-95118988D01*
X158148943Y-95135108D01*
X158197420Y-95185425D01*
X158202848Y-95197310D01*
X158232925Y-95273578D01*
X158253139Y-95324839D01*
X158344577Y-95445418D01*
X158465156Y-95536856D01*
X158465157Y-95536856D01*
X158465158Y-95536857D01*
X158605936Y-95592373D01*
X158694398Y-95602996D01*
X158954175Y-95602996D01*
X159021214Y-95622681D01*
X159041856Y-95639315D01*
X159825681Y-96423139D01*
X159859166Y-96484462D01*
X159862000Y-96510820D01*
X159862000Y-97093102D01*
X159867626Y-97139954D01*
X159872622Y-97181561D01*
X159928139Y-97322343D01*
X160019577Y-97442922D01*
X160140156Y-97534360D01*
X160140157Y-97534360D01*
X160140158Y-97534361D01*
X160280936Y-97589877D01*
X160369398Y-97600500D01*
X160369403Y-97600500D01*
X160980597Y-97600500D01*
X160980602Y-97600500D01*
X161069064Y-97589877D01*
X161209842Y-97534361D01*
X161330422Y-97442922D01*
X161369002Y-97392046D01*
X161425192Y-97350524D01*
X161494913Y-97345971D01*
X161556028Y-97379836D01*
X161573343Y-97401875D01*
X161645180Y-97518340D01*
X161645183Y-97518344D01*
X161769154Y-97642315D01*
X161918375Y-97734356D01*
X161918380Y-97734358D01*
X162084802Y-97789505D01*
X162099999Y-97791058D01*
X162100000Y-97791057D01*
X162100000Y-97500000D01*
X162900000Y-97500000D01*
X162900000Y-97791058D01*
X162915197Y-97789505D01*
X163081619Y-97734358D01*
X163081624Y-97734356D01*
X163230845Y-97642315D01*
X163354815Y-97518345D01*
X163366130Y-97500000D01*
X164000000Y-97500000D01*
X164000000Y-94500000D01*
X166500000Y-94500000D01*
X166500000Y-93858420D01*
X166505845Y-93854815D01*
X166629815Y-93730845D01*
X166721856Y-93581624D01*
X166721858Y-93581619D01*
X166777005Y-93415197D01*
X166777006Y-93415190D01*
X166784944Y-93337500D01*
X166500000Y-93337500D01*
X166500000Y-92537500D01*
X166784943Y-92537500D01*
X166784943Y-92537499D01*
X166777005Y-92459802D01*
X166721858Y-92293380D01*
X166721856Y-92293375D01*
X166629815Y-92144154D01*
X166505845Y-92020184D01*
X166500000Y-92016578D01*
X166500000Y-92000000D01*
X166473122Y-92000000D01*
X166356624Y-91928143D01*
X166356619Y-91928141D01*
X166190197Y-91872994D01*
X166190190Y-91872993D01*
X166087486Y-91862500D01*
X165787500Y-91862500D01*
X165787500Y-92000000D01*
X164987500Y-92000000D01*
X164987500Y-91862500D01*
X164687528Y-91862500D01*
X164687512Y-91862501D01*
X164584802Y-91872994D01*
X164442944Y-91920001D01*
X164373115Y-91922403D01*
X164313073Y-91886671D01*
X164281881Y-91824150D01*
X164280582Y-91814895D01*
X164275407Y-91764232D01*
X164222098Y-91603357D01*
X164222093Y-91603346D01*
X164188114Y-91548258D01*
X164169673Y-91480866D01*
X164190595Y-91414202D01*
X164231047Y-91376126D01*
X164327571Y-91319675D01*
X164380375Y-91273920D01*
X164380382Y-91273912D01*
X164380387Y-91273908D01*
X164422548Y-91229192D01*
X164422553Y-91229187D01*
X164473439Y-91129111D01*
X164493124Y-91062072D01*
X164500345Y-91011850D01*
X164529369Y-90948297D01*
X164588147Y-90910523D01*
X164623082Y-90905500D01*
X166075990Y-90905500D01*
X166076000Y-90905500D01*
X166140941Y-90898518D01*
X166192452Y-90887312D01*
X166230658Y-90876354D01*
X166327571Y-90819675D01*
X166380375Y-90773920D01*
X166380382Y-90773912D01*
X166380387Y-90773908D01*
X166422550Y-90729190D01*
X166422549Y-90729190D01*
X166422553Y-90729187D01*
X166438188Y-90698437D01*
X166449918Y-90679711D01*
X166472323Y-90650166D01*
X166521861Y-90584842D01*
X166577377Y-90444064D01*
X166588000Y-90355602D01*
X166588000Y-89619398D01*
X166577377Y-89530936D01*
X166531213Y-89413873D01*
X166521860Y-89390155D01*
X166521412Y-89389358D01*
X166521147Y-89388347D01*
X166518750Y-89382268D01*
X166519480Y-89381980D01*
X166505500Y-89328589D01*
X166505500Y-88524010D01*
X166505500Y-88524000D01*
X166498518Y-88459059D01*
X166487312Y-88407548D01*
X166476354Y-88369342D01*
X166419675Y-88272429D01*
X166373920Y-88219625D01*
X166373918Y-88219623D01*
X166373908Y-88219612D01*
X166326934Y-88175322D01*
X166291661Y-88115010D01*
X166288000Y-88085102D01*
X166288000Y-85585803D01*
X166800000Y-85585803D01*
X166800000Y-86000000D01*
X167991532Y-86000000D01*
X167934586Y-86137480D01*
X167900000Y-86311358D01*
X167900000Y-86488642D01*
X167934586Y-86662520D01*
X167991532Y-86800000D01*
X166800001Y-86800000D01*
X166800001Y-87214197D01*
X166810400Y-87346332D01*
X166865377Y-87564519D01*
X166958428Y-87769374D01*
X166958431Y-87769380D01*
X167086559Y-87954323D01*
X167086569Y-87954335D01*
X167245664Y-88113430D01*
X167245676Y-88113440D01*
X167430619Y-88241568D01*
X167430625Y-88241571D01*
X167635480Y-88334622D01*
X167853667Y-88389599D01*
X167985810Y-88399999D01*
X168399999Y-88399999D01*
X168400000Y-88399998D01*
X168400000Y-87208467D01*
X168537480Y-87265414D01*
X168711358Y-87300000D01*
X168888642Y-87300000D01*
X169062520Y-87265414D01*
X169200000Y-87208467D01*
X169200000Y-88399999D01*
X169614182Y-88399999D01*
X169614197Y-88399998D01*
X169746332Y-88389599D01*
X169964519Y-88334622D01*
X170169374Y-88241571D01*
X170169380Y-88241568D01*
X170354323Y-88113440D01*
X170354335Y-88113430D01*
X170513430Y-87954335D01*
X170513440Y-87954323D01*
X170641568Y-87769380D01*
X170641571Y-87769374D01*
X170734622Y-87564519D01*
X170789599Y-87346332D01*
X170799999Y-87214196D01*
X170800000Y-87214184D01*
X170800000Y-86800000D01*
X169608468Y-86800000D01*
X169665414Y-86662520D01*
X169700000Y-86488642D01*
X169700000Y-86311358D01*
X169665414Y-86137480D01*
X169608468Y-86000000D01*
X170799999Y-86000000D01*
X170799999Y-85585817D01*
X170799998Y-85585802D01*
X170789599Y-85453667D01*
X170734622Y-85235480D01*
X170641571Y-85030625D01*
X170641568Y-85030619D01*
X170513440Y-84845676D01*
X170513430Y-84845664D01*
X170354335Y-84686569D01*
X170354323Y-84686559D01*
X170169380Y-84558431D01*
X170169374Y-84558428D01*
X169964519Y-84465377D01*
X169746332Y-84410400D01*
X169614196Y-84400000D01*
X169200000Y-84400000D01*
X169200000Y-85591532D01*
X169062520Y-85534586D01*
X168888642Y-85500000D01*
X168711358Y-85500000D01*
X168537480Y-85534586D01*
X168400000Y-85591532D01*
X168400000Y-84400000D01*
X167985817Y-84400000D01*
X167985802Y-84400001D01*
X167853667Y-84410400D01*
X167635480Y-84465377D01*
X167430625Y-84558428D01*
X167430619Y-84558431D01*
X167245676Y-84686559D01*
X167245664Y-84686569D01*
X167086569Y-84845664D01*
X167086559Y-84845676D01*
X166958431Y-85030619D01*
X166958428Y-85030625D01*
X166865377Y-85235480D01*
X166810400Y-85453667D01*
X166800000Y-85585803D01*
X166288000Y-85585803D01*
X166288000Y-85236861D01*
X166307685Y-85169822D01*
X166324319Y-85149180D01*
X167279665Y-84193834D01*
X168283654Y-83189844D01*
X168344975Y-83156361D01*
X168403425Y-83157752D01*
X168447986Y-83169693D01*
X168681989Y-83200500D01*
X168681996Y-83200500D01*
X168918004Y-83200500D01*
X168918011Y-83200500D01*
X169152014Y-83169693D01*
X169379993Y-83108606D01*
X169598049Y-83018284D01*
X169802450Y-82900273D01*
X169989699Y-82756592D01*
X170156592Y-82589699D01*
X170300273Y-82402450D01*
X170418284Y-82198049D01*
X170508606Y-81979993D01*
X170569693Y-81752014D01*
X170600500Y-81518011D01*
X170600500Y-81281989D01*
X170569693Y-81047986D01*
X170508606Y-80820007D01*
X170418284Y-80601951D01*
X170418282Y-80601948D01*
X170418280Y-80601943D01*
X170376118Y-80528918D01*
X170300273Y-80397550D01*
X170171338Y-80229518D01*
X170156593Y-80210302D01*
X170156587Y-80210295D01*
X169989704Y-80043412D01*
X169989697Y-80043406D01*
X169802454Y-79899730D01*
X169802453Y-79899729D01*
X169802450Y-79899727D01*
X169697325Y-79839033D01*
X169598056Y-79781719D01*
X169598045Y-79781714D01*
X169379993Y-79691394D01*
X169216492Y-79647584D01*
X169152014Y-79630307D01*
X169152013Y-79630306D01*
X169152010Y-79630306D01*
X168918020Y-79599501D01*
X168918017Y-79599500D01*
X168918011Y-79599500D01*
X168681989Y-79599500D01*
X168681983Y-79599500D01*
X168681979Y-79599501D01*
X168447989Y-79630306D01*
X168220006Y-79691394D01*
X168001954Y-79781714D01*
X168001943Y-79781719D01*
X167797545Y-79899730D01*
X167610302Y-80043406D01*
X167610295Y-80043412D01*
X167443412Y-80210295D01*
X167443406Y-80210302D01*
X167299730Y-80397545D01*
X167181719Y-80601943D01*
X167181714Y-80601954D01*
X167091394Y-80820006D01*
X167030306Y-81047989D01*
X166999501Y-81281979D01*
X166999500Y-81281995D01*
X166999500Y-81518004D01*
X166999501Y-81518020D01*
X167030306Y-81752010D01*
X167030308Y-81752019D01*
X167042246Y-81796571D01*
X167040583Y-81866421D01*
X167010152Y-81916346D01*
X164688038Y-84238461D01*
X164688037Y-84238462D01*
X164658693Y-84282379D01*
X164658688Y-84282386D01*
X164656617Y-84285487D01*
X164589487Y-84385953D01*
X164571551Y-84429255D01*
X164568317Y-84437060D01*
X164568317Y-84437062D01*
X164521605Y-84549833D01*
X164519895Y-84558431D01*
X164494298Y-84687119D01*
X164494298Y-84687120D01*
X164487000Y-84723807D01*
X164487000Y-87970500D01*
X164467315Y-88037539D01*
X164414511Y-88083294D01*
X164363000Y-88094500D01*
X163124000Y-88094500D01*
X163123991Y-88094500D01*
X163123990Y-88094501D01*
X163059064Y-88101481D01*
X163059052Y-88101483D01*
X163007546Y-88112688D01*
X162969345Y-88123644D01*
X162969335Y-88123649D01*
X162962095Y-88127883D01*
X162894287Y-88144732D01*
X162828135Y-88122247D01*
X162784640Y-88067566D01*
X162775500Y-88020842D01*
X162775500Y-87324000D01*
X162795185Y-87256961D01*
X162847989Y-87211206D01*
X162899500Y-87200000D01*
X163400000Y-87200000D01*
X163400000Y-84306357D01*
X163400445Y-84298440D01*
X163400305Y-84298433D01*
X163400500Y-84294959D01*
X163400500Y-79705045D01*
X163400305Y-79701572D01*
X163400444Y-79701564D01*
X163400000Y-79693645D01*
X163400000Y-76800000D01*
X152800000Y-76800000D01*
X152800000Y-79000000D01*
X152821280Y-79021280D01*
X152854765Y-79082603D01*
X152849781Y-79152295D01*
X152821280Y-79196642D01*
X152770184Y-79247737D01*
X152674211Y-79400476D01*
X152614631Y-79570745D01*
X152614630Y-79570750D01*
X152599500Y-79705039D01*
X152599500Y-81570500D01*
X152579815Y-81637539D01*
X152527011Y-81683294D01*
X152475500Y-81694500D01*
X148624000Y-81694500D01*
X148623991Y-81694500D01*
X148623990Y-81694501D01*
X148559064Y-81701481D01*
X148559052Y-81701483D01*
X148507546Y-81712688D01*
X148469345Y-81723644D01*
X148469341Y-81723646D01*
X148372431Y-81780323D01*
X148372428Y-81780325D01*
X148319623Y-81826081D01*
X148319612Y-81826091D01*
X148277451Y-81870807D01*
X148277445Y-81870816D01*
X148226560Y-81970890D01*
X148206877Y-82037921D01*
X148206876Y-82037928D01*
X148196209Y-82112118D01*
X148194500Y-82124002D01*
X148194500Y-84150500D01*
X148174815Y-84217539D01*
X148122011Y-84263294D01*
X148070500Y-84274500D01*
X145881163Y-84274500D01*
X145814124Y-84254815D01*
X145793482Y-84238181D01*
X144811819Y-83256518D01*
X144778334Y-83195195D01*
X144775500Y-83168837D01*
X144775500Y-79694660D01*
X146011023Y-79694660D01*
X146121782Y-79751095D01*
X146323870Y-79816757D01*
X146533754Y-79850000D01*
X146746246Y-79850000D01*
X146956127Y-79816757D01*
X146956130Y-79816757D01*
X147158222Y-79751092D01*
X147268975Y-79694660D01*
X146640001Y-79065686D01*
X146640000Y-79065686D01*
X146011023Y-79694660D01*
X144775500Y-79694660D01*
X144775500Y-79494498D01*
X144795185Y-79427459D01*
X144826614Y-79394180D01*
X144849501Y-79377553D01*
X144977553Y-79249501D01*
X145083996Y-79102994D01*
X145151091Y-78971312D01*
X145199064Y-78920518D01*
X145266885Y-78903723D01*
X145333020Y-78926260D01*
X145376472Y-78980975D01*
X145379506Y-78989291D01*
X145388904Y-79018217D01*
X145388906Y-79018220D01*
X145445338Y-79128975D01*
X146074314Y-78500000D01*
X146008488Y-78434174D01*
X146140000Y-78434174D01*
X146140000Y-78565826D01*
X146174075Y-78692993D01*
X146239901Y-78807007D01*
X146332993Y-78900099D01*
X146447007Y-78965925D01*
X146574174Y-79000000D01*
X146705826Y-79000000D01*
X146832993Y-78965925D01*
X146947007Y-78900099D01*
X147040099Y-78807007D01*
X147105925Y-78692993D01*
X147140000Y-78565826D01*
X147140000Y-78499999D01*
X147205686Y-78499999D01*
X147205686Y-78500000D01*
X147834660Y-79128975D01*
X147891092Y-79018222D01*
X147956757Y-78816130D01*
X147956757Y-78816127D01*
X147990000Y-78606246D01*
X147990000Y-78393753D01*
X147956757Y-78183872D01*
X147956757Y-78183869D01*
X147891095Y-77981782D01*
X147834660Y-77871023D01*
X147205686Y-78499999D01*
X147140000Y-78499999D01*
X147140000Y-78434174D01*
X147105925Y-78307007D01*
X147040099Y-78192993D01*
X146947007Y-78099901D01*
X146832993Y-78034075D01*
X146705826Y-78000000D01*
X146574174Y-78000000D01*
X146447007Y-78034075D01*
X146332993Y-78099901D01*
X146239901Y-78192993D01*
X146174075Y-78307007D01*
X146140000Y-78434174D01*
X146008488Y-78434174D01*
X145445337Y-77871023D01*
X145388906Y-77981779D01*
X145379506Y-78010709D01*
X145340068Y-78068384D01*
X145275709Y-78095582D01*
X145206862Y-78083667D01*
X145155387Y-78036422D01*
X145151090Y-78028685D01*
X145136474Y-78000000D01*
X145083996Y-77897006D01*
X145065118Y-77871023D01*
X144977558Y-77750505D01*
X144977554Y-77750500D01*
X144849499Y-77622445D01*
X144849494Y-77622441D01*
X144702997Y-77516006D01*
X144702996Y-77516005D01*
X144702994Y-77516004D01*
X144626904Y-77477234D01*
X144590781Y-77458828D01*
X144541639Y-77433788D01*
X144541636Y-77433787D01*
X144369410Y-77377829D01*
X144190551Y-77349500D01*
X144190546Y-77349500D01*
X144009454Y-77349500D01*
X144009449Y-77349500D01*
X143830589Y-77377829D01*
X143658363Y-77433787D01*
X143658360Y-77433788D01*
X143497002Y-77516006D01*
X143350505Y-77622441D01*
X143350500Y-77622445D01*
X143222445Y-77750500D01*
X143222441Y-77750505D01*
X143116006Y-77897002D01*
X143033788Y-78058360D01*
X143033787Y-78058363D01*
X142977829Y-78230589D01*
X142956972Y-78362271D01*
X142927042Y-78425405D01*
X142867731Y-78462336D01*
X142797868Y-78461338D01*
X142739636Y-78422728D01*
X142711522Y-78358764D01*
X142710499Y-78342872D01*
X142710499Y-77605143D01*
X142710499Y-77605136D01*
X142710497Y-77605117D01*
X142707586Y-77580012D01*
X142707585Y-77580010D01*
X142707585Y-77580009D01*
X142662206Y-77477235D01*
X142582765Y-77397794D01*
X142572909Y-77393442D01*
X142479992Y-77352415D01*
X142454865Y-77349500D01*
X140665143Y-77349500D01*
X140665117Y-77349502D01*
X140640012Y-77352413D01*
X140640008Y-77352415D01*
X140537235Y-77397793D01*
X140457794Y-77477234D01*
X140412415Y-77580006D01*
X140412415Y-77580008D01*
X140409500Y-77605131D01*
X140409500Y-77925500D01*
X140389815Y-77992539D01*
X140337011Y-78038294D01*
X140285500Y-78049500D01*
X129940691Y-78049500D01*
X129850325Y-78073713D01*
X129850324Y-78073712D01*
X129826115Y-78080200D01*
X129826106Y-78080204D01*
X129723392Y-78139505D01*
X129723384Y-78139511D01*
X127705140Y-80157756D01*
X127643817Y-80191241D01*
X127574125Y-80186257D01*
X127518192Y-80144385D01*
X127493775Y-80078921D01*
X127500418Y-80029120D01*
X127598561Y-79748645D01*
X127598565Y-79748633D01*
X127666045Y-79452982D01*
X127666047Y-79452966D01*
X127699999Y-79151633D01*
X127700000Y-79151631D01*
X127700000Y-78848368D01*
X127699999Y-78848366D01*
X127666047Y-78547033D01*
X127666045Y-78547017D01*
X127598565Y-78251366D01*
X127598561Y-78251354D01*
X127498407Y-77965133D01*
X127498401Y-77965119D01*
X127366827Y-77691903D01*
X127205481Y-77435121D01*
X127172242Y-77393443D01*
X127172241Y-77393442D01*
X126008786Y-78556898D01*
X125940804Y-78423475D01*
X125839033Y-78283398D01*
X125716602Y-78160967D01*
X125576525Y-78059196D01*
X125443100Y-77991212D01*
X126128976Y-77305337D01*
X146011023Y-77305337D01*
X146640000Y-77934314D01*
X146640001Y-77934314D01*
X147268975Y-77305338D01*
X147158220Y-77248906D01*
X147158217Y-77248904D01*
X146956128Y-77183242D01*
X146746246Y-77150000D01*
X146533754Y-77150000D01*
X146323872Y-77183242D01*
X146323869Y-77183242D01*
X146121781Y-77248905D01*
X146121780Y-77248905D01*
X146011023Y-77305337D01*
X126128976Y-77305337D01*
X126606556Y-76827757D01*
X126606555Y-76827756D01*
X126564873Y-76794515D01*
X126308096Y-76633172D01*
X126034880Y-76501598D01*
X126034866Y-76501592D01*
X125748645Y-76401438D01*
X125748633Y-76401434D01*
X125452982Y-76333954D01*
X125452966Y-76333952D01*
X125353279Y-76322720D01*
X125288865Y-76295653D01*
X125249310Y-76238059D01*
X125247173Y-76168222D01*
X125283131Y-76108315D01*
X125345769Y-76077360D01*
X125367163Y-76075500D01*
X169175469Y-76075500D01*
X169196519Y-76075500D01*
X169203472Y-76075695D01*
G37*
G04 #@! TD.AperFunction*
G04 #@! TA.AperFunction,Conductor*
G36*
X142915702Y-78563415D02*
G01*
X142953476Y-78622193D01*
X142956972Y-78637729D01*
X142977829Y-78769410D01*
X143033787Y-78941636D01*
X143033788Y-78941639D01*
X143072809Y-79018220D01*
X143101485Y-79074500D01*
X143116006Y-79102997D01*
X143222441Y-79249494D01*
X143222445Y-79249499D01*
X143222447Y-79249501D01*
X143350499Y-79377553D01*
X143373384Y-79394180D01*
X143416050Y-79449507D01*
X143424500Y-79494498D01*
X143424500Y-83566535D01*
X143450457Y-83697028D01*
X143450459Y-83697036D01*
X143501378Y-83819965D01*
X143501383Y-83819975D01*
X143575304Y-83930605D01*
X143575307Y-83930609D01*
X143707517Y-84062819D01*
X143741002Y-84124142D01*
X143736018Y-84193834D01*
X143694146Y-84249767D01*
X143628682Y-84274184D01*
X143619836Y-84274500D01*
X141136680Y-84274500D01*
X141069641Y-84254815D01*
X141050200Y-84236786D01*
X141048915Y-84238072D01*
X141042925Y-84232082D01*
X141042922Y-84232078D01*
X140992490Y-84193834D01*
X140922343Y-84140639D01*
X140781561Y-84085122D01*
X140735926Y-84079642D01*
X140693102Y-84074500D01*
X139306898Y-84074500D01*
X139267853Y-84079188D01*
X139218438Y-84085122D01*
X139077656Y-84140639D01*
X138957082Y-84232074D01*
X138951085Y-84238072D01*
X138949534Y-84236521D01*
X138931018Y-84248421D01*
X138906198Y-84266851D01*
X138900859Y-84267803D01*
X138898255Y-84269477D01*
X138863320Y-84274500D01*
X138681163Y-84274500D01*
X138614124Y-84254815D01*
X138593482Y-84238181D01*
X138330775Y-83975474D01*
X138297290Y-83914151D01*
X138294456Y-83887793D01*
X138294456Y-83127205D01*
X138314141Y-83060166D01*
X138344823Y-83027435D01*
X138357228Y-83018280D01*
X138453606Y-82947150D01*
X138534249Y-82837882D01*
X138539131Y-82823929D01*
X138579848Y-82767157D01*
X138644800Y-82741407D01*
X138713362Y-82754861D01*
X138753438Y-82787975D01*
X138757684Y-82793345D01*
X138881654Y-82917315D01*
X139030875Y-83009356D01*
X139030880Y-83009358D01*
X139197302Y-83064505D01*
X139197309Y-83064506D01*
X139300019Y-83074999D01*
X139599999Y-83074999D01*
X140400000Y-83074999D01*
X140699972Y-83074999D01*
X140699986Y-83074998D01*
X140802697Y-83064505D01*
X140969119Y-83009358D01*
X140969124Y-83009356D01*
X141118345Y-82917315D01*
X141242315Y-82793345D01*
X141334356Y-82644124D01*
X141334358Y-82644119D01*
X141389505Y-82477697D01*
X141389506Y-82477690D01*
X141397444Y-82400000D01*
X140400000Y-82400000D01*
X140400000Y-83074999D01*
X139599999Y-83074999D01*
X139600000Y-83074998D01*
X139600000Y-81600000D01*
X140400000Y-81600000D01*
X141397443Y-81600000D01*
X141397443Y-81599999D01*
X141389505Y-81522302D01*
X141334358Y-81355880D01*
X141334356Y-81355875D01*
X141242315Y-81206654D01*
X141118345Y-81082684D01*
X140969124Y-80990643D01*
X140969119Y-80990641D01*
X140802697Y-80935494D01*
X140802690Y-80935493D01*
X140699986Y-80925000D01*
X140400000Y-80925000D01*
X140400000Y-81600000D01*
X139600000Y-81600000D01*
X139600000Y-80925000D01*
X139300028Y-80925000D01*
X139300012Y-80925001D01*
X139197302Y-80935494D01*
X139030880Y-80990641D01*
X139030875Y-80990643D01*
X138881648Y-81082688D01*
X138878604Y-81085095D01*
X138876126Y-81086094D01*
X138875509Y-81086475D01*
X138875443Y-81086369D01*
X138868256Y-81089268D01*
X138860308Y-81097098D01*
X138836431Y-81102103D01*
X138813806Y-81111229D01*
X138802844Y-81109145D01*
X138791925Y-81111435D01*
X138769133Y-81102737D01*
X138745165Y-81098182D01*
X138735368Y-81089853D01*
X138726646Y-81086525D01*
X138711686Y-81069719D01*
X138701878Y-81061381D01*
X138597761Y-80920089D01*
X138588867Y-80895682D01*
X138576420Y-80872888D01*
X138577016Y-80863162D01*
X138573839Y-80854442D01*
X138578940Y-80831813D01*
X138579814Y-80817575D01*
X138577492Y-80817068D01*
X138579103Y-80809693D01*
X138581956Y-80779269D01*
X138581956Y-80370730D01*
X138579102Y-80340300D01*
X138579102Y-80340298D01*
X138545462Y-80244163D01*
X138534249Y-80212118D01*
X138453606Y-80102850D01*
X138344338Y-80022207D01*
X138344336Y-80022206D01*
X138216156Y-79977353D01*
X138185726Y-79974500D01*
X138185722Y-79974500D01*
X137052190Y-79974500D01*
X137052186Y-79974500D01*
X137021756Y-79977353D01*
X137021754Y-79977353D01*
X136893575Y-80022206D01*
X136893573Y-80022207D01*
X136784306Y-80102850D01*
X136703662Y-80212118D01*
X136699320Y-80220335D01*
X136697327Y-80219281D01*
X136664073Y-80265635D01*
X136599117Y-80291375D01*
X136530557Y-80277911D01*
X136480160Y-80229518D01*
X136468687Y-80202490D01*
X136457737Y-80164802D01*
X136374141Y-80023447D01*
X136374134Y-80023438D01*
X136258017Y-79907321D01*
X136258008Y-79907314D01*
X136116652Y-79823717D01*
X136116649Y-79823716D01*
X135958951Y-79777900D01*
X135958945Y-79777899D01*
X135922105Y-79775000D01*
X135643956Y-79775000D01*
X135643956Y-81375000D01*
X135922090Y-81375000D01*
X135922105Y-81374999D01*
X135958945Y-81372100D01*
X135990903Y-81362815D01*
X136060772Y-81363013D01*
X136119443Y-81400954D01*
X136148287Y-81464592D01*
X136149500Y-81481891D01*
X136149500Y-81775494D01*
X136129815Y-81842533D01*
X136077011Y-81888288D01*
X136007853Y-81898232D01*
X135984547Y-81892536D01*
X135941155Y-81877353D01*
X135910726Y-81874500D01*
X135910722Y-81874500D01*
X134777190Y-81874500D01*
X134777186Y-81874500D01*
X134746756Y-81877353D01*
X134746754Y-81877353D01*
X134618575Y-81922206D01*
X134618574Y-81922207D01*
X134597632Y-81937663D01*
X134532003Y-81961633D01*
X134463832Y-81946317D01*
X134414765Y-81896576D01*
X134399999Y-81837892D01*
X134399999Y-81625028D01*
X134399998Y-81625013D01*
X134389505Y-81522302D01*
X134368556Y-81459080D01*
X134366154Y-81389251D01*
X134401886Y-81329210D01*
X134464407Y-81298017D01*
X134533866Y-81305578D01*
X134549386Y-81313345D01*
X134571264Y-81326284D01*
X134728960Y-81372099D01*
X134728966Y-81372100D01*
X134765806Y-81374999D01*
X134765822Y-81375000D01*
X135043956Y-81375000D01*
X135043956Y-80875000D01*
X134198159Y-80875000D01*
X134199285Y-80878877D01*
X134199084Y-80948746D01*
X134161141Y-81007416D01*
X134097502Y-81036258D01*
X134028373Y-81026116D01*
X134015111Y-81019008D01*
X133969130Y-80990646D01*
X133969119Y-80990641D01*
X133802697Y-80935494D01*
X133802690Y-80935493D01*
X133699986Y-80925000D01*
X133400000Y-80925000D01*
X133400000Y-83074999D01*
X133699972Y-83074999D01*
X133699986Y-83074998D01*
X133802697Y-83064505D01*
X133969119Y-83009358D01*
X133969124Y-83009356D01*
X134118342Y-82917317D01*
X134230025Y-82805634D01*
X134291348Y-82772149D01*
X134361040Y-82777133D01*
X134416974Y-82819004D01*
X134427336Y-82835372D01*
X134428661Y-82837878D01*
X134428662Y-82837879D01*
X134428663Y-82837882D01*
X134509306Y-82947150D01*
X134618574Y-83027793D01*
X134661301Y-83042744D01*
X134746755Y-83072646D01*
X134780076Y-83075771D01*
X134779955Y-83077057D01*
X134841216Y-83098147D01*
X134884497Y-83152996D01*
X134893456Y-83199273D01*
X134893456Y-83618078D01*
X134873771Y-83685117D01*
X134857137Y-83705759D01*
X134267642Y-84295253D01*
X134206319Y-84328738D01*
X134136627Y-84323754D01*
X134081158Y-84282498D01*
X134042923Y-84232078D01*
X133922343Y-84140639D01*
X133781561Y-84085122D01*
X133735926Y-84079642D01*
X133693102Y-84074500D01*
X132306898Y-84074500D01*
X132267853Y-84079188D01*
X132218438Y-84085122D01*
X132077656Y-84140639D01*
X131957077Y-84232077D01*
X131865639Y-84352656D01*
X131844611Y-84405982D01*
X131801705Y-84461126D01*
X131735797Y-84484319D01*
X131729256Y-84484492D01*
X131374751Y-84484492D01*
X131307712Y-84464807D01*
X131275485Y-84434804D01*
X131232548Y-84377449D01*
X131232546Y-84377446D01*
X131167481Y-84328738D01*
X131117335Y-84291198D01*
X131117328Y-84291194D01*
X130982486Y-84240902D01*
X130982485Y-84240901D01*
X130982483Y-84240901D01*
X130922873Y-84234492D01*
X130922863Y-84234492D01*
X130277129Y-84234492D01*
X130277123Y-84234493D01*
X130217516Y-84240900D01*
X130082671Y-84291194D01*
X130082664Y-84291198D01*
X129967457Y-84377443D01*
X129967451Y-84377449D01*
X129924515Y-84434804D01*
X129868581Y-84476674D01*
X129825249Y-84484492D01*
X129238617Y-84484492D01*
X129182323Y-84470977D01*
X129171332Y-84465377D01*
X129091715Y-84424810D01*
X129091714Y-84424809D01*
X129091711Y-84424808D01*
X129091712Y-84424808D01*
X128995003Y-84409492D01*
X128554992Y-84409492D01*
X128554992Y-84409493D01*
X128458286Y-84424809D01*
X128458285Y-84424809D01*
X128387010Y-84461126D01*
X128341719Y-84484203D01*
X128341718Y-84484204D01*
X128341713Y-84484207D01*
X128249215Y-84576705D01*
X128249210Y-84576712D01*
X128189816Y-84693280D01*
X128174500Y-84789988D01*
X128174500Y-85079999D01*
X128189817Y-85176705D01*
X128189817Y-85176706D01*
X128209362Y-85215065D01*
X128249211Y-85293273D01*
X128249213Y-85293275D01*
X128249215Y-85293278D01*
X128341713Y-85385776D01*
X128341716Y-85385778D01*
X128341719Y-85385781D01*
X128458285Y-85445174D01*
X128458286Y-85445174D01*
X128458288Y-85445175D01*
X128458287Y-85445175D01*
X128501618Y-85452037D01*
X128554997Y-85460492D01*
X128995002Y-85460491D01*
X128995007Y-85460491D01*
X128995007Y-85460490D01*
X129091715Y-85445174D01*
X129182324Y-85399006D01*
X129238617Y-85385492D01*
X129825249Y-85385492D01*
X129892288Y-85405177D01*
X129924515Y-85435180D01*
X129967451Y-85492534D01*
X129967454Y-85492538D01*
X129967457Y-85492540D01*
X130082664Y-85578785D01*
X130082671Y-85578789D01*
X130127618Y-85595553D01*
X130217517Y-85629083D01*
X130277127Y-85635492D01*
X130922872Y-85635491D01*
X130982483Y-85629083D01*
X131117331Y-85578788D01*
X131232546Y-85492538D01*
X131268003Y-85445174D01*
X131275485Y-85435180D01*
X131331419Y-85393310D01*
X131374751Y-85385492D01*
X131717419Y-85385492D01*
X131784458Y-85405177D01*
X131830213Y-85457981D01*
X131832773Y-85464002D01*
X131865637Y-85547339D01*
X131865638Y-85547341D01*
X131957077Y-85667922D01*
X132077656Y-85759360D01*
X132077657Y-85759360D01*
X132077658Y-85759361D01*
X132218436Y-85814877D01*
X132306898Y-85825500D01*
X132306903Y-85825500D01*
X133693097Y-85825500D01*
X133693102Y-85825500D01*
X133781564Y-85814877D01*
X133922342Y-85759361D01*
X134042922Y-85667922D01*
X134134361Y-85547342D01*
X134161307Y-85479009D01*
X134204213Y-85423866D01*
X134254299Y-85402533D01*
X134265387Y-85400500D01*
X134309309Y-85400500D01*
X134399673Y-85376286D01*
X134423887Y-85369799D01*
X134526614Y-85310489D01*
X135704445Y-84132658D01*
X135763754Y-84029931D01*
X135763755Y-84029930D01*
X135794456Y-83915353D01*
X135794456Y-83199273D01*
X135814141Y-83132234D01*
X135866945Y-83086479D01*
X135907911Y-83076576D01*
X135907836Y-83075771D01*
X135941155Y-83072646D01*
X135941157Y-83072646D01*
X136019457Y-83045247D01*
X136069338Y-83027793D01*
X136178606Y-82947150D01*
X136259249Y-82837882D01*
X136303714Y-82710808D01*
X136344435Y-82654032D01*
X136409388Y-82628285D01*
X136477950Y-82641741D01*
X136508436Y-82664082D01*
X136679843Y-82835489D01*
X136692269Y-82842663D01*
X136695863Y-82844738D01*
X136733633Y-82878491D01*
X136784303Y-82947147D01*
X136784308Y-82947152D01*
X136893089Y-83027435D01*
X136935340Y-83083082D01*
X136943456Y-83127205D01*
X136943456Y-84285491D01*
X136969413Y-84415984D01*
X136969415Y-84415992D01*
X137020334Y-84538921D01*
X137020339Y-84538931D01*
X137094260Y-84649561D01*
X137094263Y-84649565D01*
X137825305Y-85380606D01*
X137919394Y-85474695D01*
X137919397Y-85474697D01*
X137919398Y-85474698D01*
X138030020Y-85548613D01*
X138030023Y-85548614D01*
X138030031Y-85548620D01*
X138030037Y-85548622D01*
X138030038Y-85548623D01*
X138119833Y-85585817D01*
X138152964Y-85599540D01*
X138152968Y-85599540D01*
X138152969Y-85599541D01*
X138283466Y-85625500D01*
X138283469Y-85625500D01*
X138863320Y-85625500D01*
X138930359Y-85645185D01*
X138949799Y-85663213D01*
X138951085Y-85661928D01*
X138957074Y-85667917D01*
X138957078Y-85667922D01*
X138957082Y-85667925D01*
X139077656Y-85759360D01*
X139077657Y-85759360D01*
X139077658Y-85759361D01*
X139218436Y-85814877D01*
X139306898Y-85825500D01*
X139306903Y-85825500D01*
X140693097Y-85825500D01*
X140693102Y-85825500D01*
X140781564Y-85814877D01*
X140922342Y-85759361D01*
X141042922Y-85667922D01*
X141042928Y-85667913D01*
X141048915Y-85661928D01*
X141051526Y-85664539D01*
X141093802Y-85633149D01*
X141136680Y-85625500D01*
X144133469Y-85625500D01*
X145483469Y-85625500D01*
X145616531Y-85625500D01*
X146025500Y-85625500D01*
X146092539Y-85645185D01*
X146138294Y-85697989D01*
X146149500Y-85749500D01*
X146149500Y-97293112D01*
X146147117Y-97317304D01*
X146124500Y-97431004D01*
X146124500Y-97431007D01*
X146124500Y-97568993D01*
X146124500Y-97568995D01*
X146124499Y-97568995D01*
X146147117Y-97682694D01*
X146149500Y-97706886D01*
X146149500Y-98887385D01*
X146129815Y-98954424D01*
X146077011Y-99000179D01*
X146050977Y-99007497D01*
X146051148Y-99008173D01*
X146043443Y-99010120D01*
X145902656Y-99065639D01*
X145782077Y-99157077D01*
X145690639Y-99277656D01*
X145635122Y-99418438D01*
X145631957Y-99444798D01*
X145624500Y-99506898D01*
X145624500Y-100243102D01*
X145625464Y-100251126D01*
X145635122Y-100331561D01*
X145690639Y-100472343D01*
X145782077Y-100592922D01*
X145902656Y-100684360D01*
X145902657Y-100684360D01*
X145902658Y-100684361D01*
X146043436Y-100739877D01*
X146131898Y-100750500D01*
X146131903Y-100750500D01*
X147518097Y-100750500D01*
X147518102Y-100750500D01*
X147606564Y-100739877D01*
X147747342Y-100684361D01*
X147867922Y-100592922D01*
X147867928Y-100592913D01*
X147873915Y-100586928D01*
X147876526Y-100589539D01*
X147918802Y-100558149D01*
X147961680Y-100550500D01*
X148227130Y-100550500D01*
X148294169Y-100570185D01*
X148339924Y-100622989D01*
X148349868Y-100692147D01*
X148320843Y-100755703D01*
X148302055Y-100773304D01*
X148299921Y-100774921D01*
X148212636Y-100890023D01*
X148159640Y-101024411D01*
X148157364Y-101043368D01*
X148149500Y-101108856D01*
X148149500Y-101641144D01*
X148154322Y-101681295D01*
X148159640Y-101725588D01*
X148200130Y-101828262D01*
X148206411Y-101897849D01*
X148174074Y-101959785D01*
X148113385Y-101994406D01*
X148043613Y-101990721D01*
X147997094Y-101961433D01*
X147943345Y-101907684D01*
X147794124Y-101815643D01*
X147794119Y-101815641D01*
X147627697Y-101760494D01*
X147627690Y-101760493D01*
X147524986Y-101750000D01*
X147225000Y-101750000D01*
X147225000Y-102425000D01*
X148231000Y-102425000D01*
X148298039Y-102444685D01*
X148343794Y-102497489D01*
X148348327Y-102518327D01*
X148355000Y-102525000D01*
X148801000Y-102525000D01*
X148868039Y-102544685D01*
X148913794Y-102597489D01*
X148925000Y-102649000D01*
X148925000Y-102925000D01*
X149201000Y-102925000D01*
X149268039Y-102944685D01*
X149313794Y-102997489D01*
X149325000Y-103049000D01*
X149325000Y-103786535D01*
X149305315Y-103853574D01*
X149288681Y-103874216D01*
X149049715Y-104113182D01*
X149024196Y-104127116D01*
X149000162Y-104143494D01*
X148991786Y-104144813D01*
X148988392Y-104146667D01*
X148965375Y-104149456D01*
X148963706Y-104149501D01*
X148940691Y-104149501D01*
X148938116Y-104150190D01*
X148928316Y-104150455D01*
X148927788Y-104150315D01*
X148924975Y-104150500D01*
X145888966Y-104150500D01*
X145821927Y-104130815D01*
X145801285Y-104114181D01*
X145725686Y-104038582D01*
X145692201Y-103977259D01*
X145697185Y-103907567D01*
X145739057Y-103851634D01*
X145804521Y-103827217D01*
X145852371Y-103833195D01*
X146022302Y-103889505D01*
X146022309Y-103889506D01*
X146125019Y-103899999D01*
X146424999Y-103899999D01*
X147225000Y-103899999D01*
X147524972Y-103899999D01*
X147524986Y-103899998D01*
X147627697Y-103889505D01*
X147794119Y-103834358D01*
X147794124Y-103834356D01*
X147943345Y-103742315D01*
X148004997Y-103680664D01*
X148066320Y-103647179D01*
X148136012Y-103652163D01*
X148180359Y-103680664D01*
X148222267Y-103722572D01*
X148222271Y-103722575D01*
X148366515Y-103811547D01*
X148366518Y-103811548D01*
X148524999Y-103864062D01*
X148525000Y-103864062D01*
X148525000Y-103325000D01*
X147944000Y-103325000D01*
X147876961Y-103305315D01*
X147831206Y-103252511D01*
X147826672Y-103231672D01*
X147820000Y-103225000D01*
X147225000Y-103225000D01*
X147225000Y-103899999D01*
X146424999Y-103899999D01*
X146425000Y-103899998D01*
X146425000Y-103225000D01*
X145427557Y-103225000D01*
X145435494Y-103302697D01*
X145491804Y-103472628D01*
X145494206Y-103542456D01*
X145458474Y-103602498D01*
X145395954Y-103633691D01*
X145326494Y-103626130D01*
X145286417Y-103599313D01*
X144241996Y-102554893D01*
X144112103Y-102425000D01*
X145427556Y-102425000D01*
X146425000Y-102425000D01*
X146425000Y-101750000D01*
X146125028Y-101750000D01*
X146125012Y-101750001D01*
X146022302Y-101760494D01*
X145855880Y-101815641D01*
X145855875Y-101815643D01*
X145706654Y-101907684D01*
X145582684Y-102031654D01*
X145490643Y-102180875D01*
X145490641Y-102180880D01*
X145435494Y-102347302D01*
X145435493Y-102347309D01*
X145427556Y-102425000D01*
X144112103Y-102425000D01*
X143976616Y-102289513D01*
X143976614Y-102289511D01*
X143873887Y-102230201D01*
X143833968Y-102219505D01*
X143833965Y-102219504D01*
X143802412Y-102211049D01*
X143759309Y-102199500D01*
X143759308Y-102199500D01*
X134871924Y-102199500D01*
X134804885Y-102179815D01*
X134759130Y-102127011D01*
X134749186Y-102057853D01*
X134750504Y-102051427D01*
X134750990Y-102047733D01*
X134750991Y-102047732D01*
X134765804Y-101935216D01*
X134765804Y-99909776D01*
X134750991Y-99797260D01*
X134693002Y-99657263D01*
X134600755Y-99537045D01*
X134480537Y-99444798D01*
X134480533Y-99444796D01*
X134416894Y-99418436D01*
X134340540Y-99386809D01*
X134326475Y-99384957D01*
X134228031Y-99371996D01*
X134228024Y-99371996D01*
X133602584Y-99371996D01*
X133602576Y-99371996D01*
X133490068Y-99386809D01*
X133490067Y-99386809D01*
X133350074Y-99444796D01*
X133350071Y-99444797D01*
X133350071Y-99444798D01*
X133229853Y-99537045D01*
X133140841Y-99653048D01*
X133137604Y-99657266D01*
X133077365Y-99802697D01*
X133033524Y-99857100D01*
X132967230Y-99879165D01*
X132899531Y-99861886D01*
X132851920Y-99810749D01*
X132848243Y-99802697D01*
X132845991Y-99797260D01*
X132788002Y-99657263D01*
X132695755Y-99537045D01*
X132575537Y-99444798D01*
X132575533Y-99444796D01*
X132511894Y-99418436D01*
X132435540Y-99386809D01*
X132421475Y-99384957D01*
X132323031Y-99371996D01*
X132323024Y-99371996D01*
X131697584Y-99371996D01*
X131697576Y-99371996D01*
X131585068Y-99386809D01*
X131585067Y-99386809D01*
X131445074Y-99444796D01*
X131445071Y-99444797D01*
X131445071Y-99444798D01*
X131324853Y-99537045D01*
X131235841Y-99653048D01*
X131232604Y-99657266D01*
X131174617Y-99797259D01*
X131174617Y-99797260D01*
X131159804Y-99909768D01*
X131159804Y-101935223D01*
X131174617Y-102047731D01*
X131174617Y-102047732D01*
X131228805Y-102178554D01*
X131232606Y-102187729D01*
X131324853Y-102307947D01*
X131445071Y-102400194D01*
X131445074Y-102400195D01*
X131445075Y-102400196D01*
X131504958Y-102425000D01*
X131579393Y-102455832D01*
X131604931Y-102476411D01*
X131631208Y-102496082D01*
X131632010Y-102498233D01*
X131633797Y-102499673D01*
X131644158Y-102530803D01*
X131655625Y-102561547D01*
X131655137Y-102563789D01*
X131655862Y-102565967D01*
X131647746Y-102597762D01*
X131640773Y-102629820D01*
X131638939Y-102632269D01*
X131638583Y-102633666D01*
X131619624Y-102658071D01*
X131457018Y-102820678D01*
X131395697Y-102854162D01*
X131369339Y-102856996D01*
X131212343Y-102856996D01*
X131078054Y-102872126D01*
X131078049Y-102872127D01*
X130907780Y-102931707D01*
X130755041Y-103027680D01*
X130627486Y-103155235D01*
X130592297Y-103211239D01*
X130539962Y-103257529D01*
X130470909Y-103268177D01*
X130407061Y-103239802D01*
X130382311Y-103211239D01*
X130347121Y-103155235D01*
X130219566Y-103027680D01*
X130066827Y-102931707D01*
X129896558Y-102872127D01*
X129896553Y-102872126D01*
X129762264Y-102856996D01*
X129762258Y-102856996D01*
X128672350Y-102856996D01*
X128672343Y-102856996D01*
X128538054Y-102872126D01*
X128538049Y-102872127D01*
X128367780Y-102931707D01*
X128215041Y-103027680D01*
X128087486Y-103155235D01*
X128052297Y-103211239D01*
X127999962Y-103257529D01*
X127930909Y-103268177D01*
X127867061Y-103239802D01*
X127842311Y-103211239D01*
X127807121Y-103155235D01*
X127679566Y-103027680D01*
X127526827Y-102931707D01*
X127356558Y-102872127D01*
X127356553Y-102872126D01*
X127222264Y-102856996D01*
X127222258Y-102856996D01*
X127174500Y-102856996D01*
X127107461Y-102837311D01*
X127061706Y-102784507D01*
X127050500Y-102732996D01*
X127050500Y-102040693D01*
X127050500Y-102040691D01*
X127019799Y-101926114D01*
X127019799Y-101926113D01*
X127019799Y-101926112D01*
X126960492Y-101823389D01*
X126960488Y-101823384D01*
X124086819Y-98949715D01*
X124053334Y-98888392D01*
X124050500Y-98862034D01*
X124050500Y-95116944D01*
X124514804Y-95116944D01*
X124514804Y-95298047D01*
X124543133Y-95476906D01*
X124599091Y-95649132D01*
X124599092Y-95649135D01*
X124681310Y-95810493D01*
X124787745Y-95956990D01*
X124787749Y-95956995D01*
X124915804Y-96085050D01*
X124915809Y-96085054D01*
X125043591Y-96177892D01*
X125062310Y-96191492D01*
X125167788Y-96245236D01*
X125223664Y-96273707D01*
X125223667Y-96273708D01*
X125309780Y-96301687D01*
X125395895Y-96329667D01*
X125468943Y-96341236D01*
X125555982Y-96355023D01*
X125619117Y-96384952D01*
X125656048Y-96444264D01*
X125655050Y-96514127D01*
X125616440Y-96572359D01*
X125555982Y-96599969D01*
X125395893Y-96625325D01*
X125223667Y-96681283D01*
X125223664Y-96681284D01*
X125062306Y-96763502D01*
X124915809Y-96869937D01*
X124915804Y-96869941D01*
X124787749Y-96997996D01*
X124787745Y-96998001D01*
X124681310Y-97144498D01*
X124599092Y-97305856D01*
X124599091Y-97305859D01*
X124543133Y-97478085D01*
X124514804Y-97656944D01*
X124514804Y-97838047D01*
X124543133Y-98016906D01*
X124599091Y-98189132D01*
X124599092Y-98189135D01*
X124681310Y-98350493D01*
X124787745Y-98496990D01*
X124787749Y-98496995D01*
X124915804Y-98625050D01*
X124915809Y-98625054D01*
X125043591Y-98717892D01*
X125062310Y-98731492D01*
X125167788Y-98785236D01*
X125223664Y-98813707D01*
X125223667Y-98813708D01*
X125278501Y-98831524D01*
X125395895Y-98869667D01*
X125478733Y-98882787D01*
X125574753Y-98897996D01*
X125574758Y-98897996D01*
X125755855Y-98897996D01*
X125842563Y-98884261D01*
X125934713Y-98869667D01*
X126106943Y-98813707D01*
X126268298Y-98731492D01*
X126414805Y-98625049D01*
X126542857Y-98496997D01*
X126649300Y-98350490D01*
X126731515Y-98189135D01*
X126787475Y-98016905D01*
X126805848Y-97900901D01*
X126812831Y-97856817D01*
X126842760Y-97793682D01*
X126902072Y-97756751D01*
X126971934Y-97757749D01*
X127030167Y-97796359D01*
X127057777Y-97856817D01*
X127083133Y-98016906D01*
X127139091Y-98189132D01*
X127139092Y-98189135D01*
X127221310Y-98350493D01*
X127327745Y-98496990D01*
X127327749Y-98496995D01*
X127455804Y-98625050D01*
X127455809Y-98625054D01*
X127583591Y-98717892D01*
X127602310Y-98731492D01*
X127707788Y-98785236D01*
X127763664Y-98813707D01*
X127763667Y-98813708D01*
X127818501Y-98831524D01*
X127935895Y-98869667D01*
X128018733Y-98882787D01*
X128114753Y-98897996D01*
X128114758Y-98897996D01*
X128295855Y-98897996D01*
X128382563Y-98884261D01*
X128474713Y-98869667D01*
X128646943Y-98813707D01*
X128808298Y-98731492D01*
X128954805Y-98625049D01*
X129082857Y-98496997D01*
X129189300Y-98350490D01*
X129271515Y-98189135D01*
X129327475Y-98016905D01*
X129345848Y-97900901D01*
X129352831Y-97856817D01*
X129382760Y-97793682D01*
X129442072Y-97756751D01*
X129511934Y-97757749D01*
X129570167Y-97796359D01*
X129597777Y-97856817D01*
X129623133Y-98016906D01*
X129679091Y-98189132D01*
X129679092Y-98189135D01*
X129761310Y-98350493D01*
X129867745Y-98496990D01*
X129867749Y-98496995D01*
X129995804Y-98625050D01*
X129995809Y-98625054D01*
X130123591Y-98717892D01*
X130142310Y-98731492D01*
X130247788Y-98785236D01*
X130303664Y-98813707D01*
X130303667Y-98813708D01*
X130358501Y-98831524D01*
X130475895Y-98869667D01*
X130558733Y-98882787D01*
X130654753Y-98897996D01*
X130654758Y-98897996D01*
X130835855Y-98897996D01*
X130922563Y-98884261D01*
X131014713Y-98869667D01*
X131186943Y-98813707D01*
X131348298Y-98731492D01*
X131494805Y-98625049D01*
X131622857Y-98496997D01*
X131729300Y-98350490D01*
X131811515Y-98189135D01*
X131867475Y-98016905D01*
X131885848Y-97900901D01*
X131892831Y-97856817D01*
X131922760Y-97793682D01*
X131982072Y-97756751D01*
X132051934Y-97757749D01*
X132110167Y-97796359D01*
X132137777Y-97856817D01*
X132163133Y-98016906D01*
X132219091Y-98189132D01*
X132219092Y-98189135D01*
X132301310Y-98350493D01*
X132407745Y-98496990D01*
X132407749Y-98496995D01*
X132535804Y-98625050D01*
X132535809Y-98625054D01*
X132663591Y-98717892D01*
X132682310Y-98731492D01*
X132787788Y-98785236D01*
X132843664Y-98813707D01*
X132843667Y-98813708D01*
X132898501Y-98831524D01*
X133015895Y-98869667D01*
X133098733Y-98882787D01*
X133194753Y-98897996D01*
X133194758Y-98897996D01*
X133375855Y-98897996D01*
X133462563Y-98884261D01*
X133554713Y-98869667D01*
X133726943Y-98813707D01*
X133888298Y-98731492D01*
X134034805Y-98625049D01*
X134162857Y-98496997D01*
X134269300Y-98350490D01*
X134351515Y-98189135D01*
X134407475Y-98016905D01*
X134425848Y-97900901D01*
X134435804Y-97838047D01*
X134435804Y-97656944D01*
X134410211Y-97495363D01*
X134407475Y-97478087D01*
X134355882Y-97319297D01*
X134351516Y-97305859D01*
X134351515Y-97305856D01*
X134298195Y-97201212D01*
X134269300Y-97144502D01*
X134250767Y-97118993D01*
X134162862Y-96998001D01*
X134162858Y-96997996D01*
X134034803Y-96869941D01*
X134034798Y-96869937D01*
X133888301Y-96763502D01*
X133888300Y-96763501D01*
X133888298Y-96763500D01*
X133836604Y-96737160D01*
X133726943Y-96681284D01*
X133726940Y-96681283D01*
X133554714Y-96625325D01*
X133394625Y-96599969D01*
X133331490Y-96570040D01*
X133294559Y-96510728D01*
X133295557Y-96440866D01*
X133334167Y-96382633D01*
X133394625Y-96355023D01*
X133464729Y-96343918D01*
X133554713Y-96329667D01*
X133726943Y-96273707D01*
X133888298Y-96191492D01*
X134034805Y-96085049D01*
X134162857Y-95956997D01*
X134269300Y-95810490D01*
X134351515Y-95649135D01*
X134407475Y-95476905D01*
X134422454Y-95382332D01*
X134435804Y-95298047D01*
X134435804Y-95116944D01*
X134414826Y-94984500D01*
X134407475Y-94938087D01*
X134351515Y-94765857D01*
X134351515Y-94765856D01*
X134302160Y-94668993D01*
X134269300Y-94604502D01*
X134215901Y-94531004D01*
X134162862Y-94458001D01*
X134162858Y-94457996D01*
X134034803Y-94329941D01*
X134034798Y-94329937D01*
X133888301Y-94223502D01*
X133888300Y-94223501D01*
X133888298Y-94223500D01*
X133836604Y-94197160D01*
X133726943Y-94141284D01*
X133726940Y-94141283D01*
X133554714Y-94085325D01*
X133375855Y-94056996D01*
X133375850Y-94056996D01*
X133194758Y-94056996D01*
X133194753Y-94056996D01*
X133015893Y-94085325D01*
X132843667Y-94141283D01*
X132843664Y-94141284D01*
X132682306Y-94223502D01*
X132535809Y-94329937D01*
X132535804Y-94329941D01*
X132407749Y-94457996D01*
X132407745Y-94458001D01*
X132301310Y-94604498D01*
X132219092Y-94765856D01*
X132219091Y-94765859D01*
X132163133Y-94938085D01*
X132137777Y-95098174D01*
X132107848Y-95161309D01*
X132048536Y-95198240D01*
X131978673Y-95197242D01*
X131920441Y-95158632D01*
X131892831Y-95098174D01*
X131874826Y-94984500D01*
X131867475Y-94938087D01*
X131811515Y-94765857D01*
X131811515Y-94765856D01*
X131762160Y-94668993D01*
X131729300Y-94604502D01*
X131675901Y-94531004D01*
X131622862Y-94458001D01*
X131622858Y-94457996D01*
X131494803Y-94329941D01*
X131494798Y-94329937D01*
X131348301Y-94223502D01*
X131348300Y-94223501D01*
X131348298Y-94223500D01*
X131296604Y-94197160D01*
X131186943Y-94141284D01*
X131186940Y-94141283D01*
X131014714Y-94085325D01*
X130835855Y-94056996D01*
X130835850Y-94056996D01*
X130654758Y-94056996D01*
X130654753Y-94056996D01*
X130475893Y-94085325D01*
X130303667Y-94141283D01*
X130303664Y-94141284D01*
X130142306Y-94223502D01*
X129995809Y-94329937D01*
X129995804Y-94329941D01*
X129867749Y-94457996D01*
X129867745Y-94458001D01*
X129761310Y-94604498D01*
X129679092Y-94765856D01*
X129679091Y-94765859D01*
X129623133Y-94938085D01*
X129597777Y-95098174D01*
X129567848Y-95161309D01*
X129508536Y-95198240D01*
X129438673Y-95197242D01*
X129380441Y-95158632D01*
X129352831Y-95098174D01*
X129334826Y-94984500D01*
X129327475Y-94938087D01*
X129271515Y-94765857D01*
X129271515Y-94765856D01*
X129222160Y-94668993D01*
X129189300Y-94604502D01*
X129135901Y-94531004D01*
X129082862Y-94458001D01*
X129082858Y-94457996D01*
X128954803Y-94329941D01*
X128954798Y-94329937D01*
X128808301Y-94223502D01*
X128808300Y-94223501D01*
X128808298Y-94223500D01*
X128756604Y-94197160D01*
X128646943Y-94141284D01*
X128646940Y-94141283D01*
X128474714Y-94085325D01*
X128295855Y-94056996D01*
X128295850Y-94056996D01*
X128114758Y-94056996D01*
X128114753Y-94056996D01*
X127935893Y-94085325D01*
X127763667Y-94141283D01*
X127763664Y-94141284D01*
X127602306Y-94223502D01*
X127455809Y-94329937D01*
X127455804Y-94329941D01*
X127327749Y-94457996D01*
X127327745Y-94458001D01*
X127221310Y-94604498D01*
X127139092Y-94765856D01*
X127139091Y-94765859D01*
X127083133Y-94938085D01*
X127057777Y-95098174D01*
X127027848Y-95161309D01*
X126968536Y-95198240D01*
X126898673Y-95197242D01*
X126840441Y-95158632D01*
X126812831Y-95098174D01*
X126794826Y-94984500D01*
X126787475Y-94938087D01*
X126731515Y-94765857D01*
X126731515Y-94765856D01*
X126682160Y-94668993D01*
X126649300Y-94604502D01*
X126595901Y-94531004D01*
X126542862Y-94458001D01*
X126542858Y-94457996D01*
X126414803Y-94329941D01*
X126414798Y-94329937D01*
X126268301Y-94223502D01*
X126268300Y-94223501D01*
X126268298Y-94223500D01*
X126216604Y-94197160D01*
X126106943Y-94141284D01*
X126106940Y-94141283D01*
X125934714Y-94085325D01*
X125755855Y-94056996D01*
X125755850Y-94056996D01*
X125574758Y-94056996D01*
X125574753Y-94056996D01*
X125395893Y-94085325D01*
X125223667Y-94141283D01*
X125223664Y-94141284D01*
X125062306Y-94223502D01*
X124915809Y-94329937D01*
X124915804Y-94329941D01*
X124787749Y-94457996D01*
X124787745Y-94458001D01*
X124681310Y-94604498D01*
X124599092Y-94765856D01*
X124599091Y-94765859D01*
X124543133Y-94938085D01*
X124514804Y-95116944D01*
X124050500Y-95116944D01*
X124050500Y-87447535D01*
X125376804Y-87447535D01*
X125376804Y-89287456D01*
X125391934Y-89421745D01*
X125391935Y-89421750D01*
X125451515Y-89592019D01*
X125524180Y-89707664D01*
X125547488Y-89744758D01*
X125675042Y-89872312D01*
X125827782Y-89968285D01*
X125998049Y-90027864D01*
X125998054Y-90027865D01*
X126088550Y-90038061D01*
X126132344Y-90042995D01*
X126132347Y-90042996D01*
X126132350Y-90042996D01*
X127222261Y-90042996D01*
X127222262Y-90042995D01*
X127258653Y-90038895D01*
X128111586Y-90038895D01*
X128111587Y-90038896D01*
X128164167Y-90081770D01*
X128344444Y-90175939D01*
X128539975Y-90231886D01*
X128539978Y-90231887D01*
X128659303Y-90242495D01*
X128659306Y-90242496D01*
X129775302Y-90242496D01*
X129775304Y-90242495D01*
X129894629Y-90231887D01*
X129894632Y-90231886D01*
X130090165Y-90175938D01*
X130270436Y-90081773D01*
X130323019Y-90038896D01*
X130323019Y-90038895D01*
X129217304Y-88933180D01*
X128111586Y-90038895D01*
X127258653Y-90038895D01*
X127289408Y-90035430D01*
X127356553Y-90027865D01*
X127356556Y-90027864D01*
X127356559Y-90027864D01*
X127526826Y-89968285D01*
X127679566Y-89872312D01*
X127807120Y-89744758D01*
X127903093Y-89592018D01*
X127962672Y-89421751D01*
X127963788Y-89411853D01*
X127972518Y-89334361D01*
X127977804Y-89287450D01*
X127977804Y-89092674D01*
X127997489Y-89025635D01*
X128014123Y-89004993D01*
X128651620Y-88367496D01*
X129782988Y-88367496D01*
X130420485Y-89004993D01*
X130453970Y-89066316D01*
X130456804Y-89092674D01*
X130456804Y-89287456D01*
X130471934Y-89421745D01*
X130471935Y-89421750D01*
X130531515Y-89592019D01*
X130604180Y-89707664D01*
X130627488Y-89744758D01*
X130755042Y-89872312D01*
X130907782Y-89968285D01*
X131078049Y-90027864D01*
X131078054Y-90027865D01*
X131168550Y-90038061D01*
X131212344Y-90042995D01*
X131212347Y-90042996D01*
X131212350Y-90042996D01*
X132302261Y-90042996D01*
X132302262Y-90042995D01*
X132369408Y-90035430D01*
X132436553Y-90027865D01*
X132436556Y-90027864D01*
X132436559Y-90027864D01*
X132606826Y-89968285D01*
X132759566Y-89872312D01*
X132887120Y-89744758D01*
X132922310Y-89688752D01*
X132974645Y-89642462D01*
X133043698Y-89631814D01*
X133107547Y-89660189D01*
X133132296Y-89688751D01*
X133167488Y-89744758D01*
X133295042Y-89872312D01*
X133447782Y-89968285D01*
X133618049Y-90027864D01*
X133618054Y-90027865D01*
X133708550Y-90038061D01*
X133752344Y-90042995D01*
X133752347Y-90042996D01*
X133752350Y-90042996D01*
X134842261Y-90042996D01*
X134842262Y-90042995D01*
X134909408Y-90035430D01*
X134976553Y-90027865D01*
X134976556Y-90027864D01*
X134976559Y-90027864D01*
X135146826Y-89968285D01*
X135299566Y-89872312D01*
X135427120Y-89744758D01*
X135462310Y-89688752D01*
X135514645Y-89642462D01*
X135583698Y-89631814D01*
X135647547Y-89660189D01*
X135672296Y-89688751D01*
X135707488Y-89744758D01*
X135835042Y-89872312D01*
X135987782Y-89968285D01*
X136158049Y-90027864D01*
X136158054Y-90027865D01*
X136248550Y-90038061D01*
X136292344Y-90042995D01*
X136292347Y-90042996D01*
X136292350Y-90042996D01*
X137382261Y-90042996D01*
X137382262Y-90042995D01*
X137449408Y-90035430D01*
X137516553Y-90027865D01*
X137516556Y-90027864D01*
X137516559Y-90027864D01*
X137686826Y-89968285D01*
X137839566Y-89872312D01*
X137967120Y-89744758D01*
X138002310Y-89688752D01*
X138054645Y-89642462D01*
X138123698Y-89631814D01*
X138187547Y-89660189D01*
X138212296Y-89688751D01*
X138247488Y-89744758D01*
X138375042Y-89872312D01*
X138527782Y-89968285D01*
X138698049Y-90027864D01*
X138698054Y-90027865D01*
X138788550Y-90038061D01*
X138832344Y-90042995D01*
X138832347Y-90042996D01*
X138832350Y-90042996D01*
X139922261Y-90042996D01*
X139922262Y-90042995D01*
X139989408Y-90035430D01*
X140056553Y-90027865D01*
X140056556Y-90027864D01*
X140056559Y-90027864D01*
X140226826Y-89968285D01*
X140379566Y-89872312D01*
X140507120Y-89744758D01*
X140542310Y-89688752D01*
X140594645Y-89642462D01*
X140663698Y-89631814D01*
X140727547Y-89660189D01*
X140752296Y-89688751D01*
X140787488Y-89744758D01*
X140915042Y-89872312D01*
X141067782Y-89968285D01*
X141238049Y-90027864D01*
X141238054Y-90027865D01*
X141328550Y-90038061D01*
X141372344Y-90042995D01*
X141372347Y-90042996D01*
X141372350Y-90042996D01*
X142462261Y-90042996D01*
X142462262Y-90042995D01*
X142529408Y-90035430D01*
X142596553Y-90027865D01*
X142596556Y-90027864D01*
X142596559Y-90027864D01*
X142766826Y-89968285D01*
X142919566Y-89872312D01*
X143047120Y-89744758D01*
X143143093Y-89592018D01*
X143202672Y-89421751D01*
X143203788Y-89411853D01*
X143212518Y-89334361D01*
X143217804Y-89287450D01*
X143217804Y-87447542D01*
X143212869Y-87403742D01*
X143202673Y-87313246D01*
X143202672Y-87313241D01*
X143168015Y-87214197D01*
X143143093Y-87142974D01*
X143047120Y-86990234D01*
X142919566Y-86862680D01*
X142766827Y-86766707D01*
X142596558Y-86707127D01*
X142596553Y-86707126D01*
X142462264Y-86691996D01*
X142462258Y-86691996D01*
X141372350Y-86691996D01*
X141372343Y-86691996D01*
X141238054Y-86707126D01*
X141238049Y-86707127D01*
X141067780Y-86766707D01*
X140915041Y-86862680D01*
X140787486Y-86990235D01*
X140752297Y-87046239D01*
X140699962Y-87092529D01*
X140630909Y-87103177D01*
X140567061Y-87074802D01*
X140542311Y-87046239D01*
X140507121Y-86990235D01*
X140379566Y-86862680D01*
X140226827Y-86766707D01*
X140056558Y-86707127D01*
X140056553Y-86707126D01*
X139922264Y-86691996D01*
X139922258Y-86691996D01*
X138832350Y-86691996D01*
X138832343Y-86691996D01*
X138698054Y-86707126D01*
X138698049Y-86707127D01*
X138527780Y-86766707D01*
X138375041Y-86862680D01*
X138247486Y-86990235D01*
X138212297Y-87046239D01*
X138159962Y-87092529D01*
X138090909Y-87103177D01*
X138027061Y-87074802D01*
X138002311Y-87046239D01*
X137967121Y-86990235D01*
X137839566Y-86862680D01*
X137686827Y-86766707D01*
X137516558Y-86707127D01*
X137516553Y-86707126D01*
X137382264Y-86691996D01*
X137382258Y-86691996D01*
X136292350Y-86691996D01*
X136292343Y-86691996D01*
X136158054Y-86707126D01*
X136158049Y-86707127D01*
X135987780Y-86766707D01*
X135835041Y-86862680D01*
X135707486Y-86990235D01*
X135672297Y-87046239D01*
X135619962Y-87092529D01*
X135550909Y-87103177D01*
X135487061Y-87074802D01*
X135462311Y-87046239D01*
X135427121Y-86990235D01*
X135299566Y-86862680D01*
X135146827Y-86766707D01*
X134976558Y-86707127D01*
X134976553Y-86707126D01*
X134842264Y-86691996D01*
X134842258Y-86691996D01*
X133752350Y-86691996D01*
X133752343Y-86691996D01*
X133618054Y-86707126D01*
X133618049Y-86707127D01*
X133447780Y-86766707D01*
X133295041Y-86862680D01*
X133167486Y-86990235D01*
X133132297Y-87046239D01*
X133079962Y-87092529D01*
X133010909Y-87103177D01*
X132947061Y-87074802D01*
X132922311Y-87046239D01*
X132887121Y-86990235D01*
X132759566Y-86862680D01*
X132606827Y-86766707D01*
X132436558Y-86707127D01*
X132436553Y-86707126D01*
X132302264Y-86691996D01*
X132302258Y-86691996D01*
X131212350Y-86691996D01*
X131212343Y-86691996D01*
X131078054Y-86707126D01*
X131078049Y-86707127D01*
X130907780Y-86766707D01*
X130755041Y-86862680D01*
X130627488Y-86990233D01*
X130531515Y-87142972D01*
X130471935Y-87313241D01*
X130471934Y-87313246D01*
X130456804Y-87447535D01*
X130456804Y-87642318D01*
X130437119Y-87709357D01*
X130420485Y-87729999D01*
X129782988Y-88367496D01*
X128651620Y-88367496D01*
X128014123Y-87729999D01*
X127980638Y-87668676D01*
X127977804Y-87642318D01*
X127977804Y-87447539D01*
X127977803Y-87447535D01*
X127962673Y-87313246D01*
X127962672Y-87313241D01*
X127928015Y-87214197D01*
X127903093Y-87142974D01*
X127807120Y-86990234D01*
X127679566Y-86862680D01*
X127526826Y-86766707D01*
X127356558Y-86707127D01*
X127356554Y-86707126D01*
X127258645Y-86696095D01*
X128111587Y-86696095D01*
X129217304Y-87801812D01*
X129217305Y-87801812D01*
X130323020Y-86696096D01*
X130323019Y-86696094D01*
X130270440Y-86653221D01*
X130090163Y-86559052D01*
X129894632Y-86503105D01*
X129894629Y-86503104D01*
X129775304Y-86492496D01*
X128659303Y-86492496D01*
X128539978Y-86503104D01*
X128539975Y-86503105D01*
X128344444Y-86559052D01*
X128164170Y-86653220D01*
X128111587Y-86696095D01*
X127258645Y-86696095D01*
X127237920Y-86693760D01*
X127173506Y-86666693D01*
X127133951Y-86609099D01*
X127127804Y-86570540D01*
X127127804Y-85417620D01*
X127147489Y-85350581D01*
X127164124Y-85329938D01*
X127200785Y-85293277D01*
X127200789Y-85293273D01*
X127260182Y-85176707D01*
X127261273Y-85169822D01*
X127266318Y-85137965D01*
X127275500Y-85079995D01*
X127275499Y-84789990D01*
X127275499Y-84789988D01*
X127275499Y-84789984D01*
X127260182Y-84693278D01*
X127260182Y-84693277D01*
X127256759Y-84686559D01*
X127200789Y-84576711D01*
X127200785Y-84576707D01*
X127200784Y-84576705D01*
X127108286Y-84484207D01*
X127108282Y-84484204D01*
X127108281Y-84484203D01*
X126991715Y-84424810D01*
X126991714Y-84424809D01*
X126991711Y-84424808D01*
X126991712Y-84424808D01*
X126895003Y-84409492D01*
X126454992Y-84409492D01*
X126454992Y-84409493D01*
X126358286Y-84424809D01*
X126358285Y-84424809D01*
X126287010Y-84461126D01*
X126241719Y-84484203D01*
X126241718Y-84484204D01*
X126241713Y-84484207D01*
X126149215Y-84576705D01*
X126149210Y-84576712D01*
X126089816Y-84693280D01*
X126074500Y-84789988D01*
X126074500Y-85079999D01*
X126089817Y-85176705D01*
X126089817Y-85176706D01*
X126109362Y-85215065D01*
X126149211Y-85293273D01*
X126149213Y-85293275D01*
X126149214Y-85293277D01*
X126190484Y-85334546D01*
X126223970Y-85395869D01*
X126226804Y-85422228D01*
X126226804Y-86570540D01*
X126207119Y-86637579D01*
X126154315Y-86683334D01*
X126116688Y-86693760D01*
X125998053Y-86707126D01*
X125998049Y-86707127D01*
X125827780Y-86766707D01*
X125675041Y-86862680D01*
X125547488Y-86990233D01*
X125451515Y-87142972D01*
X125391935Y-87313241D01*
X125391934Y-87313246D01*
X125376804Y-87447535D01*
X124050500Y-87447535D01*
X124050500Y-85137965D01*
X124070185Y-85070926D01*
X124086819Y-85050284D01*
X127099182Y-82037921D01*
X128407110Y-80729992D01*
X129646627Y-80729992D01*
X129687906Y-80854564D01*
X129687908Y-80854569D01*
X129776114Y-80997572D01*
X129894919Y-81116377D01*
X129934946Y-81141066D01*
X129981670Y-81193014D01*
X129992893Y-81261977D01*
X129968654Y-81321529D01*
X129886886Y-81429358D01*
X129834520Y-81562147D01*
X129834520Y-81562148D01*
X129824500Y-81645589D01*
X129824500Y-82164394D01*
X129834520Y-82247835D01*
X129834520Y-82247836D01*
X129839354Y-82260093D01*
X129884655Y-82374970D01*
X129886886Y-82380626D01*
X129973132Y-82494359D01*
X129993853Y-82510072D01*
X130035377Y-82566265D01*
X130039928Y-82635986D01*
X130006063Y-82697100D01*
X129993241Y-82708141D01*
X129967454Y-82727445D01*
X129967452Y-82727447D01*
X129881206Y-82842656D01*
X129881202Y-82842663D01*
X129842231Y-82947152D01*
X129830909Y-82977509D01*
X129824500Y-83037119D01*
X129824500Y-83037126D01*
X129824500Y-83037127D01*
X129824500Y-83532862D01*
X129824501Y-83532868D01*
X129830908Y-83592475D01*
X129881202Y-83727320D01*
X129881206Y-83727327D01*
X129967452Y-83842536D01*
X129967455Y-83842539D01*
X130082664Y-83928785D01*
X130082671Y-83928789D01*
X130087543Y-83930606D01*
X130217517Y-83979083D01*
X130277127Y-83985492D01*
X130922872Y-83985491D01*
X130982483Y-83979083D01*
X131117331Y-83928788D01*
X131232546Y-83842538D01*
X131318796Y-83727323D01*
X131369091Y-83592475D01*
X131375500Y-83532865D01*
X131375499Y-83037120D01*
X131369091Y-82977509D01*
X131357768Y-82947151D01*
X131318797Y-82842663D01*
X131318793Y-82842656D01*
X131232547Y-82727447D01*
X131232544Y-82727445D01*
X131206758Y-82708141D01*
X131164889Y-82652208D01*
X131159905Y-82582516D01*
X131193391Y-82521194D01*
X131206146Y-82510072D01*
X131226867Y-82494359D01*
X131313115Y-82380624D01*
X131360647Y-82260089D01*
X131403551Y-82204949D01*
X131469458Y-82181755D01*
X131537443Y-82197875D01*
X131585920Y-82248192D01*
X131600000Y-82305580D01*
X131600000Y-82374970D01*
X131600001Y-82374987D01*
X131610494Y-82477697D01*
X131665641Y-82644119D01*
X131665643Y-82644124D01*
X131757684Y-82793345D01*
X131881654Y-82917315D01*
X132030875Y-83009356D01*
X132030880Y-83009358D01*
X132197302Y-83064505D01*
X132197309Y-83064506D01*
X132300019Y-83074999D01*
X132599999Y-83074999D01*
X132600000Y-83074998D01*
X132600000Y-80925000D01*
X132300028Y-80925000D01*
X132300012Y-80925001D01*
X132197302Y-80935494D01*
X132030880Y-80990641D01*
X132030875Y-80990643D01*
X131881654Y-81082684D01*
X131757684Y-81206654D01*
X131665643Y-81355875D01*
X131665641Y-81355880D01*
X131610494Y-81522302D01*
X131610493Y-81522310D01*
X131608475Y-81542064D01*
X131582078Y-81606756D01*
X131524897Y-81646907D01*
X131455086Y-81649770D01*
X131394810Y-81614435D01*
X131369888Y-81568953D01*
X131368395Y-81569542D01*
X131365479Y-81562147D01*
X131365479Y-81562146D01*
X131313115Y-81429360D01*
X131313113Y-81429357D01*
X131231346Y-81321530D01*
X131206523Y-81256218D01*
X131220951Y-81187854D01*
X131265054Y-81141066D01*
X131305078Y-81116379D01*
X131423885Y-80997572D01*
X131512091Y-80854569D01*
X131512093Y-80854564D01*
X131553373Y-80729992D01*
X129646627Y-80729992D01*
X128407110Y-80729992D01*
X128862102Y-80275000D01*
X134198160Y-80275000D01*
X135043956Y-80275000D01*
X135043956Y-79775000D01*
X134765806Y-79775000D01*
X134728966Y-79777899D01*
X134728960Y-79777900D01*
X134571262Y-79823716D01*
X134571259Y-79823717D01*
X134429903Y-79907314D01*
X134429894Y-79907321D01*
X134313777Y-80023438D01*
X134313770Y-80023447D01*
X134230174Y-80164801D01*
X134198160Y-80275000D01*
X128862102Y-80275000D01*
X129511143Y-79625959D01*
X129572465Y-79592476D01*
X129642157Y-79597460D01*
X129698090Y-79639332D01*
X129722507Y-79704796D01*
X129707655Y-79773069D01*
X129704363Y-79778737D01*
X129687909Y-79805412D01*
X129687906Y-79805419D01*
X129646627Y-79929992D01*
X130200000Y-79929992D01*
X131000000Y-79929992D01*
X131553372Y-79929992D01*
X131512093Y-79805419D01*
X131512091Y-79805414D01*
X131423885Y-79662411D01*
X131305080Y-79543606D01*
X131162077Y-79455400D01*
X131162072Y-79455398D01*
X131002587Y-79402550D01*
X131002576Y-79402548D01*
X131000000Y-79402284D01*
X131000000Y-79929992D01*
X130200000Y-79929992D01*
X130200000Y-79402285D01*
X130199999Y-79402284D01*
X130197423Y-79402548D01*
X130197412Y-79402550D01*
X130037927Y-79455398D01*
X130037920Y-79455401D01*
X130011245Y-79471855D01*
X129943853Y-79490294D01*
X129877189Y-79469371D01*
X129832421Y-79415728D01*
X129823760Y-79346397D01*
X129853958Y-79283390D01*
X129858451Y-79278652D01*
X130150285Y-78986819D01*
X130211608Y-78953334D01*
X130237966Y-78950500D01*
X140285501Y-78950500D01*
X140352540Y-78970185D01*
X140398295Y-79022989D01*
X140409501Y-79074500D01*
X140409501Y-79394856D01*
X140409502Y-79394882D01*
X140412413Y-79419987D01*
X140412415Y-79419991D01*
X140457793Y-79522764D01*
X140457794Y-79522765D01*
X140537235Y-79602206D01*
X140640009Y-79647585D01*
X140665135Y-79650500D01*
X142454864Y-79650499D01*
X142454879Y-79650497D01*
X142454882Y-79650497D01*
X142479987Y-79647586D01*
X142479988Y-79647585D01*
X142479991Y-79647585D01*
X142582765Y-79602206D01*
X142662206Y-79522765D01*
X142707585Y-79419991D01*
X142710500Y-79394865D01*
X142710499Y-78657125D01*
X142730183Y-78590089D01*
X142782987Y-78544334D01*
X142852146Y-78534390D01*
X142915702Y-78563415D01*
G37*
G04 #@! TD.AperFunction*
G04 #@! TA.AperFunction,Conductor*
G36*
X150147409Y-100477876D02*
G01*
X150155159Y-100476762D01*
X150168895Y-100483034D01*
X150177137Y-100485013D01*
X150177912Y-100482630D01*
X150187194Y-100485645D01*
X150187196Y-100485646D01*
X150280981Y-100500500D01*
X150876001Y-100500499D01*
X150884686Y-100503049D01*
X150893647Y-100501761D01*
X150917683Y-100512738D01*
X150943039Y-100520183D01*
X150948967Y-100527025D01*
X150957203Y-100530786D01*
X150971489Y-100553017D01*
X150988794Y-100572987D01*
X150991081Y-100583502D01*
X150994977Y-100589564D01*
X151000000Y-100624499D01*
X151000000Y-100675500D01*
X150980315Y-100742539D01*
X150927511Y-100788294D01*
X150876000Y-100799500D01*
X150280982Y-100799500D01*
X150212347Y-100810370D01*
X150187196Y-100814354D01*
X150187194Y-100814354D01*
X150187192Y-100814355D01*
X150177913Y-100817370D01*
X150177409Y-100815821D01*
X150137514Y-100824500D01*
X149649263Y-100824500D01*
X149582224Y-100804815D01*
X149556227Y-100780761D01*
X149556072Y-100780917D01*
X149552080Y-100776925D01*
X149550460Y-100775426D01*
X149550078Y-100774922D01*
X149550073Y-100774918D01*
X149550072Y-100774917D01*
X149449701Y-100698802D01*
X149408178Y-100642610D01*
X149403627Y-100572888D01*
X149437492Y-100511775D01*
X149449762Y-100501149D01*
X149450431Y-100500642D01*
X149515760Y-100475866D01*
X149525286Y-100475500D01*
X150137513Y-100475500D01*
X150147409Y-100477876D01*
G37*
G04 #@! TD.AperFunction*
G04 #@! TA.AperFunction,Conductor*
G36*
X152380703Y-90906454D02*
G01*
X152387181Y-90912486D01*
X152397267Y-90922572D01*
X152397271Y-90922575D01*
X152500000Y-90985939D01*
X152500000Y-92700000D01*
X152183010Y-92700000D01*
X152165053Y-92688924D01*
X152118328Y-92636976D01*
X152107107Y-92568014D01*
X152131346Y-92508461D01*
X152213113Y-92400634D01*
X152213115Y-92400632D01*
X152265479Y-92267846D01*
X152275500Y-92184402D01*
X152275500Y-91665598D01*
X152265479Y-91582154D01*
X152213115Y-91449368D01*
X152213113Y-91449365D01*
X152200695Y-91432989D01*
X152175873Y-91367677D01*
X152175500Y-91358065D01*
X152175500Y-91000167D01*
X152195185Y-90933128D01*
X152247989Y-90887373D01*
X152317147Y-90877429D01*
X152380703Y-90906454D01*
G37*
G04 #@! TD.AperFunction*
G04 #@! TA.AperFunction,Conductor*
G36*
X159178860Y-90954077D02*
G01*
X159218086Y-90999262D01*
X159226471Y-91015718D01*
X159226476Y-91015725D01*
X159321774Y-91111023D01*
X159321778Y-91111026D01*
X159321780Y-91111028D01*
X159441874Y-91172219D01*
X159441876Y-91172219D01*
X159441878Y-91172220D01*
X159541507Y-91188000D01*
X159541512Y-91188000D01*
X159858493Y-91188000D01*
X159958122Y-91172220D01*
X159958123Y-91172219D01*
X159958126Y-91172219D01*
X159968704Y-91166828D01*
X159971409Y-91166320D01*
X159973489Y-91164519D01*
X160005540Y-91159910D01*
X160037372Y-91153932D01*
X160039921Y-91154966D01*
X160042647Y-91154575D01*
X160081293Y-91166828D01*
X160091874Y-91172219D01*
X160091875Y-91172219D01*
X160091877Y-91172220D01*
X160091876Y-91172220D01*
X160191507Y-91188000D01*
X160503543Y-91188000D01*
X160533656Y-91196842D01*
X160564248Y-91203876D01*
X160566917Y-91206608D01*
X160570582Y-91207685D01*
X160591132Y-91231401D01*
X160613068Y-91253860D01*
X160613836Y-91257602D01*
X160616337Y-91260489D01*
X160620803Y-91291555D01*
X160627114Y-91322303D01*
X160625737Y-91325865D01*
X160626281Y-91329647D01*
X160613238Y-91358205D01*
X160601927Y-91387475D01*
X160598474Y-91390535D01*
X160597256Y-91393203D01*
X160576678Y-91412136D01*
X160438390Y-91513136D01*
X160414188Y-91521839D01*
X160391615Y-91534166D01*
X160374920Y-91535960D01*
X160372643Y-91536780D01*
X160370941Y-91536388D01*
X160365255Y-91537000D01*
X160191507Y-91537000D01*
X160091875Y-91552780D01*
X160091874Y-91552780D01*
X160081290Y-91558173D01*
X160078587Y-91558680D01*
X160076511Y-91560480D01*
X160044447Y-91565090D01*
X160012620Y-91571066D01*
X160009420Y-91570126D01*
X160007353Y-91570424D01*
X160001805Y-91567890D01*
X159968710Y-91558173D01*
X159958124Y-91552780D01*
X159858493Y-91537000D01*
X159858488Y-91537000D01*
X159541512Y-91537000D01*
X159541507Y-91537000D01*
X159441878Y-91552779D01*
X159321778Y-91613973D01*
X159321774Y-91613976D01*
X159226476Y-91709274D01*
X159226473Y-91709279D01*
X159226472Y-91709280D01*
X159167150Y-91825704D01*
X159119177Y-91876499D01*
X159051356Y-91893294D01*
X158997672Y-91875000D01*
X158500000Y-91875000D01*
X158500000Y-91075000D01*
X158984943Y-91075000D01*
X158984942Y-91074999D01*
X158984244Y-91068161D01*
X158997013Y-90999468D01*
X159044893Y-90948583D01*
X159112683Y-90931662D01*
X159178860Y-90954077D01*
G37*
G04 #@! TD.AperFunction*
G04 #@! TA.AperFunction,Conductor*
G36*
X158819122Y-89228489D02*
G01*
X158820228Y-89229624D01*
X158827882Y-89237573D01*
X158834568Y-89247579D01*
X158914018Y-89327029D01*
X158914823Y-89327865D01*
X158930458Y-89357833D01*
X158946666Y-89387514D01*
X158946853Y-89389254D01*
X158947143Y-89389810D01*
X158947037Y-89390971D01*
X158949500Y-89413873D01*
X158949500Y-89984308D01*
X158966247Y-90046809D01*
X158980201Y-90098888D01*
X158995277Y-90125000D01*
X159039511Y-90201614D01*
X159039513Y-90201616D01*
X159113181Y-90275284D01*
X159146666Y-90336607D01*
X159149500Y-90362965D01*
X159149500Y-90762706D01*
X159129815Y-90829745D01*
X159077011Y-90875500D01*
X159007853Y-90885444D01*
X158944297Y-90856419D01*
X158919961Y-90827803D01*
X158829815Y-90681654D01*
X158705845Y-90557684D01*
X158556624Y-90465643D01*
X158556619Y-90465641D01*
X158390197Y-90410494D01*
X158390190Y-90410493D01*
X158287486Y-90400000D01*
X157987500Y-90400000D01*
X157987500Y-90800000D01*
X157187500Y-90800000D01*
X157187500Y-90400000D01*
X156887528Y-90400000D01*
X156887512Y-90400001D01*
X156784802Y-90410494D01*
X156618380Y-90465641D01*
X156618375Y-90465643D01*
X156469154Y-90557684D01*
X156431431Y-90595408D01*
X156370108Y-90628893D01*
X156300416Y-90623909D01*
X156256069Y-90595408D01*
X156218345Y-90557684D01*
X156069124Y-90465643D01*
X156069119Y-90465641D01*
X155902697Y-90410494D01*
X155902690Y-90410493D01*
X155799986Y-90400000D01*
X155500000Y-90400000D01*
X155500000Y-90800000D01*
X154700000Y-90800000D01*
X154700000Y-90400000D01*
X154400028Y-90400000D01*
X154400012Y-90400001D01*
X154297302Y-90410494D01*
X154204999Y-90441079D01*
X154181529Y-90473583D01*
X154180104Y-90472554D01*
X154132511Y-90513794D01*
X154081000Y-90525000D01*
X153700000Y-90525000D01*
X153700000Y-89725000D01*
X154055778Y-89725000D01*
X154011547Y-89591518D01*
X154011542Y-89591507D01*
X153951767Y-89494597D01*
X153949682Y-89486979D01*
X153944511Y-89481011D01*
X153940592Y-89453761D01*
X153933326Y-89427205D01*
X153935690Y-89419669D01*
X153934567Y-89411853D01*
X153946003Y-89386810D01*
X153954248Y-89360541D01*
X153960311Y-89355480D01*
X153963592Y-89348297D01*
X153986751Y-89333413D01*
X154007890Y-89315771D01*
X154017222Y-89313831D01*
X154022370Y-89310523D01*
X154057305Y-89305500D01*
X154097900Y-89305500D01*
X154164939Y-89325185D01*
X154172817Y-89330690D01*
X154177658Y-89334361D01*
X154318436Y-89389877D01*
X154406898Y-89400500D01*
X154406903Y-89400500D01*
X155793097Y-89400500D01*
X155793102Y-89400500D01*
X155881564Y-89389877D01*
X156022342Y-89334361D01*
X156027174Y-89330696D01*
X156092484Y-89305873D01*
X156102100Y-89305500D01*
X156585400Y-89305500D01*
X156652439Y-89325185D01*
X156660317Y-89330690D01*
X156665158Y-89334361D01*
X156805936Y-89389877D01*
X156894398Y-89400500D01*
X156894403Y-89400500D01*
X158280597Y-89400500D01*
X158280602Y-89400500D01*
X158369064Y-89389877D01*
X158509842Y-89334361D01*
X158630422Y-89242922D01*
X158632096Y-89240713D01*
X158634145Y-89239199D01*
X158636420Y-89236925D01*
X158636761Y-89237266D01*
X158688284Y-89199187D01*
X158758005Y-89194629D01*
X158819122Y-89228489D01*
G37*
G04 #@! TD.AperFunction*
G04 #@! TD*
G04 #@! TA.AperFunction,Conductor*
G04 #@! TO.N,+6V*
G36*
X157943039Y-82019685D02*
G01*
X157988794Y-82072489D01*
X158000000Y-82124000D01*
X158000000Y-88876000D01*
X157980315Y-88943039D01*
X157927511Y-88988794D01*
X157876000Y-89000000D01*
X148624000Y-89000000D01*
X148556961Y-88980315D01*
X148511206Y-88927511D01*
X148500000Y-88876000D01*
X148500000Y-82124000D01*
X148519685Y-82056961D01*
X148572489Y-82011206D01*
X148624000Y-82000000D01*
X155200000Y-82000000D01*
X157876000Y-82000000D01*
X157943039Y-82019685D01*
G37*
G04 #@! TD.AperFunction*
G04 #@! TD*
G04 #@! TA.AperFunction,Conductor*
G04 #@! TO.N,GND*
G36*
X166500000Y-94500000D02*
G01*
X164000000Y-94500000D01*
X164000000Y-97500000D01*
X162000000Y-97500000D01*
X162000000Y-93000000D01*
X161000000Y-93000000D01*
X161000000Y-92000000D01*
X166500000Y-92000000D01*
X166500000Y-94500000D01*
G37*
G04 #@! TD.AperFunction*
G04 #@! TD*
G04 #@! TA.AperFunction,Conductor*
G04 #@! TO.N,VBAT*
G36*
X166143039Y-88419685D02*
G01*
X166188794Y-88472489D01*
X166200000Y-88524000D01*
X166200000Y-90476000D01*
X166180315Y-90543039D01*
X166127511Y-90588794D01*
X166076000Y-90600000D01*
X164200000Y-90600000D01*
X164200000Y-90976000D01*
X164180315Y-91043039D01*
X164127511Y-91088794D01*
X164076000Y-91100000D01*
X161632934Y-91100000D01*
X161565895Y-91080315D01*
X161520140Y-91027511D01*
X161510196Y-90958353D01*
X161522448Y-90919707D01*
X161534719Y-90895626D01*
X161534720Y-90895622D01*
X161550500Y-90795993D01*
X161550500Y-89654010D01*
X161548819Y-89643396D01*
X161557775Y-89574103D01*
X161602772Y-89520651D01*
X161669524Y-89500013D01*
X161671293Y-89500000D01*
X163000000Y-89500000D01*
X163000000Y-88524000D01*
X163019685Y-88456961D01*
X163072489Y-88411206D01*
X163124000Y-88400000D01*
X166076000Y-88400000D01*
X166143039Y-88419685D01*
G37*
G04 #@! TD.AperFunction*
G04 #@! TD*
M02*
