M48
; DRILL file {KiCad 9.0.2-9.0.2-0~ubuntu24.04.1} date 2025-05-13T17:43:29+0200
; FORMAT={-:-/ absolute / metric / decimal}
; #@! TF.CreationDate,2025-05-13T17:43:29+02:00
; #@! TF.GenerationSoftware,Kicad,Pcbnew,9.0.2-9.0.2-0~ubuntu24.04.1
; #@! TF.FileFunction,Plated,1,2,PTH
FMAT,2
METRIC
; #@! TA.AperFunction,Plated,PTH,ComponentDrill
T1C0.200
; #@! TA.AperFunction,Plated,PTH,ViaDrill
T2C0.300
; #@! TA.AperFunction,Plated,PTH,ViaDrill
T3C0.400
; #@! TA.AperFunction,Plated,PTH,ComponentDrill
T4C1.000
; #@! TA.AperFunction,Plated,PTH,ComponentDrill
T5C1.800
; #@! TA.AperFunction,Plated,PTH,ComponentDrill
T6C2.200
%
G90
G05
T1
X153.112Y-98.825
X153.112Y-100.325
X153.112Y-101.825
X154.612Y-98.825
X154.612Y-100.325
X154.612Y-101.825
T2
X123.5Y-83.0
X127.0Y-92.5
X129.0Y-101.0
X132.0Y-92.5
X133.0Y-77.0
X137.0Y-92.5
X137.0Y-96.5
X137.0Y-100.0
X142.0Y-92.5
X142.0Y-96.5
X142.0Y-100.0
X150.5Y-80.0
X159.0Y-104.0
X164.0Y-104.0
X165.0Y-78.5
T3
X128.7Y-86.5
X129.8Y-86.5
X131.5Y-80.3
X132.5Y-81.0
X133.4Y-81.0
X134.2Y-80.5
X138.7Y-81.5
X141.4Y-82.0
X146.25Y-103.85
X146.825Y-97.5
X147.2Y-103.85
X148.9Y-103.8
X152.5Y-93.5
X153.1Y-91.0
X153.7Y-91.8
X153.7Y-104.3
X154.5Y-92.5
X156.0Y-87.3
X156.0Y-94.6
X157.05Y-92.5
X158.0Y-92.5
X159.379Y-88.801
X162.4Y-92.5
X163.4Y-88.8
X163.45Y-94.15
X163.45Y-95.05
X163.45Y-96.15
X163.45Y-97.15
X164.05Y-92.85
X164.95Y-93.95
X165.9Y-93.95
T4
X141.56Y-78.5
X144.1Y-78.5
X146.64Y-78.5
X169.8Y-96.135
X169.8Y-98.675
T5
X168.8Y-81.4
X168.8Y-86.4
T6
X125.0Y-79.0
X169.0Y-104.0
M30
